<?xml version="1.0" encoding="utf-8"?>
<!-- Generator: Adobe Illustrator 23.0.3, SVG Export Plug-In . SVG Version: 6.00 Build 0)  -->
<svg version="1.1" id="LOGO" xmlns="http://www.w3.org/2000/svg" xmlns:xlink="http://www.w3.org/1999/xlink" x="0px" y="0px"
	 viewBox="0 0 184.25 234.77" style="enable-background:new 0 0 184.25 234.77;" xml:space="preserve">
<style type="text/css">
	.st0{fill:#ffffff;}
</style>
<path class="st0" d="M23.99,38.69h-1.41V27.11c0.5-0.03,0.97-0.03,1.41-0.03c4.22,0,6.21,1.99,6.21,5.51
	C30.2,36.23,28.44,38.69,23.99,38.69z M140.26,32.59c0-3.52-1.99-5.51-6.21-5.51c-0.44,0-0.91,0-1.41,0.03v11.58h1.41
	C138.5,38.69,140.26,36.23,140.26,32.59z M113.92,198.14c-0.45-1.55-1.46-10.31-1.46-10.31h-0.63c0,0-1.01,8.76-1.46,10.31
	c-0.44,1.55-1.46,2.21-2.49,2.5c-1.56,0.43-10.32,1.46-10.32,1.46v0.62c0,0,8.75,1.03,10.32,1.46c1.04,0.28,2.05,0.94,2.49,2.5
	c0.45,1.55,1.46,10.31,1.46,10.31h0.63c0,0,1.01-8.76,1.46-10.31c0.44-1.55,1.46-2.21,2.5-2.5c1.55-0.43,10.31-1.46,10.31-1.46
	v-0.62c0,0-8.76-1.03-10.31-1.46C115.38,200.35,114.36,199.7,113.92,198.14z M184.25,5.05v137.54c0,50.78-41.34,92.18-92.12,92.18
	C40.46,234.77,0,193.37,0,142.59V5.05C12,3.57,50.46,0,92.13,0C132.87,0,171.88,3.35,184.25,5.05z M12.9,152.56
	c10.1,6.43,24.16,9.61,35.94,9.61c17.85,0,28.59-5.31,40.36-11.18c16.18-8.07,29.6-16.58,50.68-16.47
	c12.76,0.07,24.03,3.4,32.13,7.71c-0.01-3.36-0.23-6.68-0.65-9.93c-10.09-6.38-24.11-9.66-35.84-9.66
	c-17.85,0-28.56,5.46-40.34,11.31c-15.12,7.51-29.58,16.53-50.6,16.53c-12.8,0-32.28-7.83-32.28-7.8
	C12.3,145.98,12.51,149.35,12.9,152.56z M69.76,77.47c0.46-1.58,1.36-8.94,1.73-11.95c-6.42,1.72-12.52,4.21-18.2,7.38
	c0.32,2.68,0.74,6.15,1.18,9.47c2.93-0.34,10.48-1.25,12.09-1.69C67.89,80.31,69.2,79.46,69.76,77.47z M69.76,88.38
	c-0.56-1.99-1.87-2.84-3.2-3.21c-1.58-0.43-8.92-1.35-11.94-1.72c0.56,4.17,1.13,7.91,1.51,9.25c1.03,3.61,3.38,5.13,5.8,5.79
	c1.37,0.38,5.25,0.96,9.52,1.54C71.07,96.86,70.2,89.91,69.76,88.38z M12.93,132.65c8.76,3.49,18.8,5.23,27.1,5.23
	c3.92,0,7.66-0.34,11.22-0.93c-0.32-2.86-2.4-21.11-3.35-24.43c-1.02-3.6-3.38-5.13-5.78-5.79c-2.52-0.69-13.39-2.06-19.78-2.84
	C17.49,112.61,14.22,122.32,12.93,132.65z M42.11,98.5c2.4-0.66,4.76-2.18,5.78-5.79c0.67-2.31,1.87-11.75,2.65-18.21
	c-10.85,6.64-19.99,15.79-26.61,26.64C30.4,100.35,39.79,99.14,42.11,98.5z M132.69,147.71c0.19,1.63,2.45,21.41,3.43,24.86
	c1.03,3.61,3.38,5.13,5.8,5.79c2.57,0.71,13.86,2.13,20.18,2.89c4.86-8.78,8.1-18.58,9.35-28.99c-8.8-3.54-18.92-5.38-27.23-5.38
	C140.01,146.87,136.2,147.17,132.69,147.71z M164.22,42.68c0,1.76-1.29,2.7-4.45,2.7c-2.81,0-7.15-0.94-9.73-2.23l0.94,6.45
	c2.58,0.94,6.09,1.41,8.91,1.41c7.15,0,13.01-2.35,13.01-9.39c0-9.38-13.48-7.62-13.48-12.08c0-1.53,1.52-2.23,3.98-2.23
	c2.69,0,5.63,0.59,7.62,1.41l-0.7-6.1c-2.23-0.47-4.22-0.82-7.85-0.82c-6.92,0-11.61,2.73-11.61,8.45
	C150.85,40.1,164.22,38.1,164.22,42.68z M92.16,62.81c-6.76,0-13.32,0.84-19.59,2.43c0.33,2.81,1.29,10.61,1.76,12.24
	c0.57,1.99,1.87,2.84,3.21,3.21c2,0.55,13.25,1.82,13.25,1.82v0.8c0,0-11.25,1.33-13.25,1.88c-1.34,0.37-2.64,1.21-3.21,3.21
	c-0.45,1.55-1.33,8.71-1.71,11.81c6.65,0.88,13.8,1.7,13.8,1.7v1.44c0,0-20.88,2.4-24.49,3.4c-2.41,0.66-4.77,2.19-5.8,5.79
	c-0.95,3.32-3.04,21.43-3.35,24.15c14.7-2.68,27.29-10.31,36.73-14.87c13.43-6.48,25.72-11.8,42.5-11.8
	c14.58,0,27.45,4.67,36.89,10.48C159.29,87.18,128.57,62.81,92.16,62.81z M123.66,50.42h8.55v-6.69h3.05
	c7.97,0,13.01-4.1,13.01-11.26c0-7.86-5.39-10.67-14.18-10.67c-3.4,0-7.5,0.23-10.43,0.59V50.42z M108.66,50.42h8.56V22.38h-8.56
	V50.42z M88.85,50.42h15.47l1.29-5.63h-8.2v-22.4h-8.56V50.42z M73.97,50.42h8.56V22.38h-8.56V50.42z M41.62,50.42h8.56V39.39h8.91
	v11.03h8.56V22.38h-8.56v11.14h-8.91V22.38h-8.56V50.42z M13.6,50.42h8.56v-6.69h3.05c7.97,0,13.01-4.1,13.01-11.26
	c0-7.86-5.39-10.67-14.18-10.67c-3.4,0-7.5,0.23-10.43,0.59V50.42z M92.16,222.53c14.01,0,27.17-3.61,38.62-9.95
	c-0.75-6.32-2.16-17.64-2.89-20.2c-1.02-3.6-3.38-5.13-5.78-5.79c-3.63-0.99-24.5-3.4-24.5-3.4v-1.44c0,0,20.88-2.4,24.5-3.4
	c2.4-0.66,4.76-2.18,5.78-5.79c0.98-3.41,3.19-22.57,3.42-24.63c-14.32,2.65-24.13,9.25-36.44,15.55
	c-13.08,6.69-25.85,11.49-42.46,11.49c-14.65,0-27.68-4.76-37.12-10.6C24.74,197.93,55.58,222.53,92.16,222.53z M160.57,183.89
	c-6.46,0.79-16.28,2.05-18.65,2.7c-2.41,0.66-4.77,2.19-5.8,5.79c-0.68,2.36-1.93,12.21-2.7,18.68
	C144.52,204.34,153.86,195,160.57,183.89z"/>
</svg>
