<?xml version="1.0" encoding="UTF-8"?>
<svg xmlns="http://www.w3.org/2000/svg" xmlns:xlink="http://www.w3.org/1999/xlink" version="1.2" >
<font id="Centrale Sans Medium">
<font-face  font-family="Centrale Sans" units-per-em="1000" ascent="1000" descent="-360" font-style="normal" font-weight="500" font-stretch="normal" cap-height="700" x-height="520" underline-position="-225" underline-thickness="50" />
<missing-glyph  horiz-adv-x="683" d="M103 732 L581 732 L581 -121 L103 -121 L103 732 Z M501 673 L182 673 L342 369 L501 673 Z M308 306 L159 588 L159 23 L308 306 Z M524 588 L376 306 L524 23 L524 588 Z M501 -62 L342 241 L182 -62 L501 -62 Z " />
<glyph glyph-name="nonmarkingreturn" unicode="&#xd;" horiz-adv-x="319" d="" />
<glyph glyph-name="space" unicode="&#x20;" horiz-adv-x="252" d="" />
<glyph glyph-name="A" unicode="A" horiz-adv-x="696" d="M514 174 L175 174 L108 0 L3 0 L281 704 L415 704 L692 0 L581 0 L514 174 Z M482 257 L345 614 L344 614 L207 257 L482 257 Z " />
<glyph glyph-name="Aacute" unicode="&#xc1;" horiz-adv-x="696" d="M514 174 L175 174 L108 0 L3 0 L281 704 L415 704 L692 0 L581 0 L514 174 Z M482 257 L345 614 L344 614 L207 257 L482 257 Z M387 769 L313 769 L384 893 L482 893 L387 769 Z " />
<glyph glyph-name="Abreve" unicode="&#x102;" horiz-adv-x="696" d="M514 174 L175 174 L108 0 L3 0 L281 704 L415 704 L692 0 L581 0 L514 174 Z M482 257 L345 614 L344 614 L207 257 L482 257 Z M346 775 Q204 775 183 894 L247 899 Q257 865 282 847.5 Q307 830 346 830 Q424 830 445 899 L509 894 Q488 775 346 775 Z " />
<glyph glyph-name="Acircumflex" unicode="&#xc2;" horiz-adv-x="696" d="M514 174 L175 174 L108 0 L3 0 L281 704 L415 704 L692 0 L581 0 L514 174 Z M482 257 L345 614 L344 614 L207 257 L482 257 Z M434 767 L347 854 L260 767 L166 767 L297 894 L396 894 L528 767 L434 767 Z " />
<glyph glyph-name="Adieresis" unicode="&#xc4;" horiz-adv-x="696" d="M514 174 L175 174 L108 0 L3 0 L281 704 L415 704 L692 0 L581 0 L514 174 Z M482 257 L345 614 L344 614 L207 257 L482 257 Z M238 795 Q213 795 199.5 808.5 Q186 822 186 846 Q186 871 199.5 884 Q213 897 238 897 Q292 897 292 846 Q292 822 278.5 808.5 Q265 795 238 795 Z M453 795 Q428 795 415 808.5 Q402 822 402 846 Q402 897 453 897 Q507 897 507 846 Q507 822 493.5 808.5 Q480 795 453 795 Z " />
<glyph glyph-name="Agrave" unicode="&#xc0;" horiz-adv-x="696" d="M514 174 L175 174 L108 0 L3 0 L281 704 L415 704 L692 0 L581 0 L514 174 Z M482 257 L345 614 L344 614 L207 257 L482 257 Z M391 769 L320 769 L244 893 L337 893 L391 769 Z " />
<glyph glyph-name="Amacron" unicode="&#x100;" horiz-adv-x="696" d="M514 174 L175 174 L108 0 L3 0 L281 704 L415 704 L692 0 L581 0 L514 174 Z M482 257 L345 614 L344 614 L207 257 L482 257 Z M504 815 L188 815 L188 877 L504 877 L504 815 Z " />
<glyph glyph-name="Aogonek" unicode="&#x104;" horiz-adv-x="696" d="M514 174 L175 174 L108 0 L3 0 L281 704 L415 704 L692 0 L581 0 L514 174 Z M482 257 L345 614 L344 614 L207 257 L482 257 Z M640 -175 Q588 -175 555 -155 Q522 -135 522 -88 Q522 8 674 25 L692 0 Q641 -7 616.5 -20.5 Q592 -34 592 -62 Q592 -89 610.5 -100 Q629 -111 652 -111 Q684 -111 721 -100 L722 -164 Q685 -175 640 -175 Z " />
<glyph glyph-name="Aring" unicode="&#xc5;" horiz-adv-x="696" d="M514 174 L175 174 L108 0 L3 0 L281 704 L415 704 L692 0 L581 0 L514 174 Z M482 257 L345 614 L344 614 L207 257 L482 257 Z M346 776 Q298 776 266.5 803 Q235 830 235 880 Q235 930 266.5 957 Q298 984 346 984 Q395 984 426.5 957 Q458 930 458 880 Q458 830 426.5 803 Q395 776 346 776 Z M346 819 Q370 819 387 834.5 Q404 850 404 880 Q404 911 387 925.5 Q370 940 346 940 Q322 940 305.5 925.5 Q289 911 289 880 Q289 850 305.5 834.5 Q322 819 346 819 Z " />
<glyph glyph-name="Atilde" unicode="&#xc3;" horiz-adv-x="696" d="M514 174 L175 174 L108 0 L3 0 L281 704 L415 704 L692 0 L581 0 L514 174 Z M482 257 L345 614 L344 614 L207 257 L482 257 Z M415 791 Q384 791 340 815 Q332 818 317.5 825 Q303 832 291 836 Q279 840 268 840 Q234 840 213 800 L176 816 Q191 861 217.5 884 Q244 907 280 907 Q312 907 356 884 Q364 880 378 873 Q392 866 404 862 Q416 858 427 858 Q447 858 459.5 869.5 Q472 881 482 899 L519 882 Q505 837 478.5 814 Q452 791 415 791 Z " />
<glyph glyph-name="AE" unicode="&#xc6;" horiz-adv-x="999" d="M965 83 L965 0 L455 0 L455 186 L200 186 L93 0 L-16 0 L385 700 L953 700 L953 617 L561 617 L561 383 L900 383 L900 299 L561 299 L561 83 L965 83 Z M455 617 L449 617 L249 271 L455 271 L455 617 Z " />
<glyph glyph-name="AEacute" unicode="&#x1fc;" horiz-adv-x="999" d="M965 83 L965 0 L455 0 L455 186 L200 186 L93 0 L-16 0 L385 700 L953 700 L953 617 L561 617 L561 383 L900 383 L900 299 L561 299 L561 83 L965 83 Z M455 617 L449 617 L249 271 L455 271 L455 617 Z M669 769 L595 769 L666 893 L764 893 L669 769 Z " />
<glyph glyph-name="B" unicode="B" horiz-adv-x="685" d="M497 358 Q531 353 563.5 332.5 Q596 312 617 275 Q638 238 638 188 Q638 100 580.5 50 Q523 0 433 0 L89 0 L89 700 L402 700 Q500 700 556 653 Q612 606 612 518 Q612 448 575 410.5 Q538 373 497 358 Z M192 394 L396 394 Q450 394 480 424.5 Q510 455 510 505 Q510 558 477.5 588.5 Q445 619 395 619 L192 619 L192 394 Z M415 81 Q467 81 500.5 113 Q534 145 534 199 Q534 249 502.5 283 Q471 317 409 317 L192 317 L192 81 L415 81 Z " />
<glyph glyph-name="C" unicode="C" horiz-adv-x="666" d="M421 -10 Q313 -10 228 33 Q143 76 94.5 157.5 Q46 239 46 349 Q46 461 95.5 542.5 Q145 624 231 667 Q317 710 426 710 Q481 710 535.5 701 Q590 692 633 675 L625 583 Q587 599 536 610.5 Q485 622 442 622 Q353 622 289.5 587.5 Q226 553 193 491.5 Q160 430 160 349 Q160 268 193 206.5 Q226 145 289.5 111.5 Q353 78 442 78 Q493 78 539 90.5 Q585 103 630 121 L637 28 Q595 11 538 0.5 Q481 -10 421 -10 Z " />
<glyph glyph-name="Cacute" unicode="&#x106;" horiz-adv-x="665" d="M421 -10 Q313 -10 228 33 Q143 76 94.5 157.5 Q46 239 46 349 Q46 461 95.5 542.5 Q145 624 231 667 Q317 710 426 710 Q481 710 535.5 701 Q590 692 633 675 L625 583 Q587 599 536 610.5 Q485 622 442 622 Q353 622 289.5 587.5 Q226 553 193 491.5 Q160 430 160 349 Q160 268 193 206.5 Q226 145 289.5 111.5 Q353 78 442 78 Q493 78 539 90.5 Q585 103 630 121 L637 28 Q595 11 538 0.5 Q481 -10 421 -10 Z M441 769 L367 769 L438 893 L536 893 L441 769 Z " />
<glyph glyph-name="Ccaron" unicode="&#x10c;" horiz-adv-x="665" d="M421 -10 Q313 -10 228 33 Q143 76 94.5 157.5 Q46 239 46 349 Q46 461 95.5 542.5 Q145 624 231 667 Q317 710 426 710 Q481 710 535.5 701 Q590 692 633 675 L625 583 Q587 599 536 610.5 Q485 622 442 622 Q353 622 289.5 587.5 Q226 553 193 491.5 Q160 430 160 349 Q160 268 193 206.5 Q226 145 289.5 111.5 Q353 78 442 78 Q493 78 539 90.5 Q585 103 630 121 L637 28 Q595 11 538 0.5 Q481 -10 421 -10 Z M578 894 L446 767 L347 767 L216 894 L310 894 L397 807 L484 894 L578 894 Z " />
<glyph glyph-name="Ccedilla" unicode="&#xc7;" horiz-adv-x="665" d="M421 -10 Q313 -10 228 33 Q143 76 94.5 157.5 Q46 239 46 349 Q46 461 95.5 542.5 Q145 624 231 667 Q317 710 426 710 Q481 710 535.5 701 Q590 692 633 675 L625 583 Q587 599 536 610.5 Q485 622 442 622 Q353 622 289.5 587.5 Q226 553 193 491.5 Q160 430 160 349 Q160 268 193 206.5 Q226 145 289.5 111.5 Q353 78 442 78 Q493 78 539 90.5 Q585 103 630 121 L637 28 Q595 11 538 0.5 Q481 -10 421 -10 Z M392 -44 Q436 -42 469.5 -62 Q503 -82 503 -130 Q503 -180 464.5 -202.5 Q426 -225 373 -225 Q351 -225 325 -221.5 Q299 -218 281 -213 L285 -164 Q297 -169 320.5 -173.5 Q344 -178 368 -178 Q395 -178 416.5 -166.5 Q438 -155 438 -128 Q438 -78 355 -78 Q337 -78 327 -79 L356 21 L409 21 L392 -44 Z " />
<glyph glyph-name="Ccircumflex" unicode="&#x108;" horiz-adv-x="665" d="M421 -10 Q313 -10 228 33 Q143 76 94.5 157.5 Q46 239 46 349 Q46 461 95.5 542.5 Q145 624 231 667 Q317 710 426 710 Q481 710 535.5 701 Q590 692 633 675 L625 583 Q587 599 536 610.5 Q485 622 442 622 Q353 622 289.5 587.5 Q226 553 193 491.5 Q160 430 160 349 Q160 268 193 206.5 Q226 145 289.5 111.5 Q353 78 442 78 Q493 78 539 90.5 Q585 103 630 121 L637 28 Q595 11 538 0.5 Q481 -10 421 -10 Z M488 767 L401 854 L314 767 L220 767 L351 894 L450 894 L582 767 L488 767 Z " />
<glyph glyph-name="Cdotaccent" unicode="&#x10a;" horiz-adv-x="665" d="M421 -10 Q313 -10 228 33 Q143 76 94.5 157.5 Q46 239 46 349 Q46 461 95.5 542.5 Q145 624 231 667 Q317 710 426 710 Q481 710 535.5 701 Q590 692 633 675 L625 583 Q587 599 536 610.5 Q485 622 442 622 Q353 622 289.5 587.5 Q226 553 193 491.5 Q160 430 160 349 Q160 268 193 206.5 Q226 145 289.5 111.5 Q353 78 442 78 Q493 78 539 90.5 Q585 103 630 121 L637 28 Q595 11 538 0.5 Q481 -10 421 -10 Z M400 794 Q376 794 363 806.5 Q350 819 350 842 Q350 865 362.5 877 Q375 889 400 889 Q452 889 452 842 Q452 819 439 806.5 Q426 794 400 794 Z " />
<glyph glyph-name="D" unicode="D" horiz-adv-x="746" d="M89 700 L380 700 Q467 700 542 656 Q621 609 660 529.5 Q699 450 700 351 Q700 252 660.5 170 Q621 88 542 44 Q507 23 463.5 11.5 Q420 0 380 0 L89 0 L89 700 Z M355 83 Q398 83 442.5 99.5 Q487 116 517 144 Q552 178 570 231.5 Q588 285 588 352 Q588 428 563 485.5 Q538 543 492 575 Q461 596 425 606.5 Q389 617 355 617 L195 617 L195 83 L355 83 Z " />
<glyph glyph-name="Eth" unicode="&#xd0;" horiz-adv-x="757" d="M552 656 Q631 609 670 529.5 Q709 450 710 351 Q710 252 670.5 170 Q631 88 552 44 Q517 23 473.5 11.5 Q430 0 390 0 L99 0 L99 318 L4 318 L4 376 L99 376 L99 700 L390 700 Q477 700 552 656 Z M527 144 Q562 178 580 231.5 Q598 285 598 352 Q598 428 573 485.5 Q548 543 502 575 Q471 596 435 606.5 Q399 617 365 617 L205 617 L205 376 L361 376 L361 318 L205 318 L205 83 L365 83 Q408 83 452.5 99.5 Q497 116 527 144 Z " />
<glyph glyph-name="Dcaron" unicode="&#x10e;" horiz-adv-x="746" d="M89 700 L380 700 Q467 700 542 656 Q621 609 660 529.5 Q699 450 700 351 Q700 252 660.5 170 Q621 88 542 44 Q507 23 463.5 11.5 Q420 0 380 0 L89 0 L89 700 Z M355 83 Q398 83 442.5 99.5 Q487 116 517 144 Q552 178 570 231.5 Q588 285 588 352 Q588 428 563 485.5 Q538 543 492 575 Q461 596 425 606.5 Q389 617 355 617 L195 617 L195 83 L355 83 Z M540 894 L408 767 L309 767 L178 894 L272 894 L359 807 L446 894 L540 894 Z " />
<glyph glyph-name="Dcroat" unicode="&#x110;" horiz-adv-x="757" d="M552 656 Q631 609 670 529.5 Q709 450 710 351 Q710 252 670.5 170 Q631 88 552 44 Q517 23 473.5 11.5 Q430 0 390 0 L99 0 L99 318 L4 318 L4 376 L99 376 L99 700 L390 700 Q477 700 552 656 Z M527 144 Q562 178 580 231.5 Q598 285 598 352 Q598 428 573 485.5 Q548 543 502 575 Q471 596 435 606.5 Q399 617 365 617 L205 617 L205 376 L361 376 L361 318 L205 318 L205 83 L365 83 Q408 83 452.5 99.5 Q497 116 527 144 Z " />
<glyph glyph-name="E" unicode="E" horiz-adv-x="631" d="M587 617 L195 617 L195 383 L533 383 L533 300 L195 300 L195 83 L598 83 L598 0 L89 0 L89 700 L587 700 L587 617 Z " />
<glyph glyph-name="Eacute" unicode="&#xc9;" horiz-adv-x="631" d="M587 617 L195 617 L195 383 L533 383 L533 300 L195 300 L195 83 L598 83 L598 0 L89 0 L89 700 L587 700 L587 617 Z M363 769 L289 769 L360 893 L458 893 L363 769 Z " />
<glyph glyph-name="Ebreve" unicode="&#x114;" horiz-adv-x="631" d="M587 617 L195 617 L195 383 L533 383 L533 300 L195 300 L195 83 L598 83 L598 0 L89 0 L89 700 L587 700 L587 617 Z M337 775 Q195 775 174 894 L238 899 Q248 865 273 847.5 Q298 830 337 830 Q415 830 436 899 L500 894 Q479 775 337 775 Z " />
<glyph glyph-name="Ecaron" unicode="&#x11a;" horiz-adv-x="631" d="M587 617 L195 617 L195 383 L533 383 L533 300 L195 300 L195 83 L598 83 L598 0 L89 0 L89 700 L587 700 L587 617 Z M515 894 L383 767 L284 767 L153 894 L247 894 L334 807 L421 894 L515 894 Z " />
<glyph glyph-name="Ecircumflex" unicode="&#xca;" horiz-adv-x="631" d="M587 617 L195 617 L195 383 L533 383 L533 300 L195 300 L195 83 L598 83 L598 0 L89 0 L89 700 L587 700 L587 617 Z M425 767 L338 854 L251 767 L157 767 L288 894 L387 894 L519 767 L425 767 Z " />
<glyph glyph-name="Edieresis" unicode="&#xcb;" horiz-adv-x="631" d="M587 617 L195 617 L195 383 L533 383 L533 300 L195 300 L195 83 L598 83 L598 0 L89 0 L89 700 L587 700 L587 617 Z M229 795 Q204 795 190.5 808.5 Q177 822 177 846 Q177 871 190.5 884 Q204 897 229 897 Q283 897 283 846 Q283 822 269.5 808.5 Q256 795 229 795 Z M444 795 Q419 795 406 808.5 Q393 822 393 846 Q393 897 444 897 Q498 897 498 846 Q498 822 484.5 808.5 Q471 795 444 795 Z " />
<glyph glyph-name="Edotaccent" unicode="&#x116;" horiz-adv-x="631" d="M587 617 L195 617 L195 383 L533 383 L533 300 L195 300 L195 83 L598 83 L598 0 L89 0 L89 700 L587 700 L587 617 Z M337 794 Q313 794 300 806.5 Q287 819 287 842 Q287 865 299.5 877 Q312 889 337 889 Q389 889 389 842 Q389 819 376 806.5 Q363 794 337 794 Z " />
<glyph glyph-name="Egrave" unicode="&#xc8;" horiz-adv-x="631" d="M587 617 L195 617 L195 383 L533 383 L533 300 L195 300 L195 83 L598 83 L598 0 L89 0 L89 700 L587 700 L587 617 Z M382 769 L311 769 L235 893 L328 893 L382 769 Z " />
<glyph glyph-name="Emacron" unicode="&#x112;" horiz-adv-x="631" d="M587 617 L195 617 L195 383 L533 383 L533 300 L195 300 L195 83 L598 83 L598 0 L89 0 L89 700 L587 700 L587 617 Z M495 815 L179 815 L179 877 L495 877 L495 815 Z " />
<glyph glyph-name="Eogonek" unicode="&#x118;" horiz-adv-x="631" d="M587 617 L195 617 L195 383 L533 383 L533 300 L195 300 L195 83 L598 83 L598 0 L89 0 L89 700 L587 700 L587 617 Z M499 -175 Q447 -175 414 -155 Q381 -135 381 -88 Q381 8 533 25 L551 0 Q500 -7 475.5 -20.5 Q451 -34 451 -62 Q451 -89 469.5 -100 Q488 -111 511 -111 Q543 -111 580 -100 L581 -164 Q544 -175 499 -175 Z " />
<glyph glyph-name="F" unicode="F" horiz-adv-x="601" d="M578 617 L195 617 L195 374 L525 374 L525 291 L195 291 L195 0 L89 0 L89 700 L578 700 L578 617 Z " />
<glyph glyph-name="G" unicode="G" horiz-adv-x="743" d="M688 362 L688 47 Q630 19 561 4.5 Q492 -10 421 -10 Q311 -10 226.5 31.5 Q142 73 94 153.5 Q46 234 46 347 Q46 458 93.5 540 Q141 622 228 666 Q315 710 432 710 Q491 710 553 701 Q615 692 662 674 L652 580 Q607 601 550 613.5 Q493 626 442 626 Q351 626 287 590.5 Q223 555 190.5 492 Q158 429 158 349 Q158 268 190 206 Q222 144 282.5 109.5 Q343 75 425 75 Q474 75 524 84.5 Q574 94 601 106 L601 290 L414 290 L414 362 L688 362 Z " />
<glyph glyph-name="Gbreve" unicode="&#x11e;" horiz-adv-x="743" d="M688 362 L688 47 Q630 19 561 4.5 Q492 -10 421 -10 Q311 -10 226.5 31.5 Q142 73 94 153.5 Q46 234 46 347 Q46 458 93.5 540 Q141 622 228 666 Q315 710 432 710 Q491 710 553 701 Q615 692 662 674 L652 580 Q607 601 550 613.5 Q493 626 442 626 Q351 626 287 590.5 Q223 555 190.5 492 Q158 429 158 349 Q158 268 190 206 Q222 144 282.5 109.5 Q343 75 425 75 Q474 75 524 84.5 Q574 94 601 106 L601 290 L414 290 L414 362 L688 362 Z M395 775 Q253 775 232 894 L296 899 Q306 865 331 847.5 Q356 830 395 830 Q473 830 494 899 L558 894 Q537 775 395 775 Z " />
<glyph glyph-name="Gcircumflex" unicode="&#x11c;" horiz-adv-x="743" d="M688 362 L688 47 Q630 19 561 4.5 Q492 -10 421 -10 Q311 -10 226.5 31.5 Q142 73 94 153.5 Q46 234 46 347 Q46 458 93.5 540 Q141 622 228 666 Q315 710 432 710 Q491 710 553 701 Q615 692 662 674 L652 580 Q607 601 550 613.5 Q493 626 442 626 Q351 626 287 590.5 Q223 555 190.5 492 Q158 429 158 349 Q158 268 190 206 Q222 144 282.5 109.5 Q343 75 425 75 Q474 75 524 84.5 Q574 94 601 106 L601 290 L414 290 L414 362 L688 362 Z M482 767 L395 854 L308 767 L214 767 L345 894 L444 894 L576 767 L482 767 Z " />
<glyph glyph-name="Gcommaaccent" unicode="&#x122;" horiz-adv-x="743" d="M688 362 L688 47 Q630 19 561 4.5 Q492 -10 421 -10 Q311 -10 226.5 31.5 Q142 73 94 153.5 Q46 234 46 347 Q46 458 93.5 540 Q141 622 228 666 Q315 710 432 710 Q491 710 553 701 Q615 692 662 674 L652 580 Q607 601 550 613.5 Q493 626 442 626 Q351 626 287 590.5 Q223 555 190.5 492 Q158 429 158 349 Q158 268 190 206 Q222 144 282.5 109.5 Q343 75 425 75 Q474 75 524 84.5 Q574 94 601 106 L601 290 L414 290 L414 362 L688 362 Z M453 -74 Q452 -132 445 -167.5 Q438 -203 424 -242 L353 -242 Q363 -199 367.5 -166 Q372 -133 371 -74 L453 -74 Z " />
<glyph glyph-name="Gdotaccent" unicode="&#x120;" horiz-adv-x="743" d="M688 362 L688 47 Q630 19 561 4.5 Q492 -10 421 -10 Q311 -10 226.5 31.5 Q142 73 94 153.5 Q46 234 46 347 Q46 458 93.5 540 Q141 622 228 666 Q315 710 432 710 Q491 710 553 701 Q615 692 662 674 L652 580 Q607 601 550 613.5 Q493 626 442 626 Q351 626 287 590.5 Q223 555 190.5 492 Q158 429 158 349 Q158 268 190 206 Q222 144 282.5 109.5 Q343 75 425 75 Q474 75 524 84.5 Q574 94 601 106 L601 290 L414 290 L414 362 L688 362 Z M395 794 Q371 794 358 806.5 Q345 819 345 842 Q345 865 357.5 877 Q370 889 395 889 Q447 889 447 842 Q447 819 434 806.5 Q421 794 395 794 Z " />
<glyph glyph-name="H" unicode="H" horiz-adv-x="762" d="M674 0 L568 0 L568 303 L195 303 L195 0 L89 0 L89 700 L195 700 L195 388 L568 388 L568 700 L674 700 L674 0 Z " />
<glyph glyph-name="Hbar" unicode="&#x126;" horiz-adv-x="765" d="M738 531 L674 531 L674 0 L568 0 L568 303 L195 303 L195 0 L89 0 L89 531 L25 531 L25 580 L89 580 L89 700 L195 700 L195 580 L568 580 L568 700 L674 700 L674 580 L738 580 L738 531 Z M568 531 L195 531 L195 388 L568 388 L568 531 Z " />
<glyph glyph-name="Hcircumflex" unicode="&#x124;" horiz-adv-x="762" d="M674 0 L568 0 L568 303 L195 303 L195 0 L89 0 L89 700 L195 700 L195 388 L568 388 L568 700 L674 700 L674 0 Z M465 767 L378 854 L291 767 L197 767 L328 894 L427 894 L559 767 L465 767 Z " />
<glyph glyph-name="I" unicode="I" horiz-adv-x="283" d="M195 0 L89 0 L89 700 L195 700 L195 0 Z " />
<glyph glyph-name="Iacute" unicode="&#xcd;" horiz-adv-x="283" d="M195 0 L89 0 L89 700 L195 700 L195 0 Z M182 769 L108 769 L179 893 L277 893 L182 769 Z " />
<glyph glyph-name="Ibreve" unicode="&#x12c;" horiz-adv-x="283" d="M195 0 L89 0 L89 700 L195 700 L195 0 Z M141 775 Q-1 775 -22 894 L42 899 Q52 865 77 847.5 Q102 830 141 830 Q219 830 240 899 L304 894 Q283 775 141 775 Z " />
<glyph glyph-name="Icircumflex" unicode="&#xce;" horiz-adv-x="283" d="M195 0 L89 0 L89 700 L195 700 L195 0 Z M229 767 L142 854 L55 767 L-39 767 L92 894 L191 894 L323 767 L229 767 Z " />
<glyph glyph-name="Idieresis" unicode="&#xcf;" horiz-adv-x="283" d="M195 0 L89 0 L89 700 L195 700 L195 0 Z M33 795 Q8 795 -5.5 808.5 Q-19 822 -19 846 Q-19 871 -5.5 884 Q8 897 33 897 Q87 897 87 846 Q87 822 73.5 808.5 Q60 795 33 795 Z M248 795 Q223 795 210 808.5 Q197 822 197 846 Q197 897 248 897 Q302 897 302 846 Q302 822 288.5 808.5 Q275 795 248 795 Z " />
<glyph glyph-name="Idot" unicode="&#x130;" horiz-adv-x="283" d="M195 0 L89 0 L89 700 L195 700 L195 0 Z M141 794 Q117 794 104 806.5 Q91 819 91 842 Q91 865 103.5 877 Q116 889 141 889 Q193 889 193 842 Q193 819 180 806.5 Q167 794 141 794 Z " />
<glyph glyph-name="Igrave" unicode="&#xcc;" horiz-adv-x="283" d="M195 0 L89 0 L89 700 L195 700 L195 0 Z M186 769 L115 769 L39 893 L132 893 L186 769 Z " />
<glyph glyph-name="Imacron" unicode="&#x12a;" horiz-adv-x="299" d="M-5 869 L305 869 L305 807 L-5 807 L-5 869 Z M204 0 L98 0 L98 700 L204 700 L204 0 Z " />
<glyph glyph-name="Iogonek" unicode="&#x12e;" horiz-adv-x="283" d="M195 0 L89 0 L89 700 L195 700 L195 0 Z M141 -175 Q89 -175 56 -155 Q23 -135 23 -88 Q23 8 175 25 L193 0 Q142 -7 117.5 -20.5 Q93 -34 93 -62 Q93 -89 111.5 -100 Q130 -111 153 -111 Q185 -111 222 -100 L223 -164 Q186 -175 141 -175 Z " />
<glyph glyph-name="Itilde" unicode="&#x128;" horiz-adv-x="283" d="M195 0 L89 0 L89 700 L195 700 L195 0 Z M210 791 Q179 791 135 815 Q127 818 112.5 825 Q98 832 86 836 Q74 840 63 840 Q29 840 8 800 L-29 816 Q-14 861 12.5 884 Q39 907 75 907 Q107 907 151 884 Q159 880 173 873 Q187 866 199 862 Q211 858 222 858 Q242 858 254.5 869.5 Q267 881 277 899 L314 882 Q300 837 273.5 814 Q247 791 210 791 Z " />
<glyph glyph-name="J" unicode="J" horiz-adv-x="493" d="M413 210 Q413 99 347.5 44.5 Q282 -10 173 -10 Q90 -10 11 27 L23 113 Q59 95 97 85 Q135 75 168 75 Q234 75 270.5 108 Q307 141 307 212 L307 621 L117 621 L117 700 L413 700 L413 210 Z " />
<glyph glyph-name="Jcircumflex" unicode="&#x134;" horiz-adv-x="493" d="M180 767 L86 767 L217 894 L316 894 L448 767 L354 767 L267 854 L180 767 Z M117 700 L413 700 L413 210 Q413 99 347.5 44.5 Q282 -10 173 -10 Q90 -10 11 27 L23 113 Q59 95 97 85 Q135 75 168 75 Q234 75 270.5 108 Q307 141 307 212 L307 621 L117 621 L117 700 Z " />
<glyph glyph-name="K" unicode="K" horiz-adv-x="675" d="M335 350 L195 198 L195 0 L89 0 L89 700 L195 700 L195 333 L534 700 L658 700 L411 432 L675 0 L545 0 L335 350 Z " />
<glyph glyph-name="Kcommaaccent" unicode="&#x136;" horiz-adv-x="675" d="M335 350 L195 198 L195 0 L89 0 L89 700 L195 700 L195 333 L534 700 L658 700 L411 432 L675 0 L545 0 L335 350 Z M387 -74 Q386 -132 379 -167.5 Q372 -203 358 -242 L287 -242 Q297 -199 301.5 -166 Q306 -133 305 -74 L387 -74 Z " />
<glyph glyph-name="L" unicode="L" horiz-adv-x="564" d="M195 84 L554 84 L554 0 L89 0 L89 700 L195 700 L195 84 Z " />
<glyph glyph-name="Lacute" unicode="&#x139;" horiz-adv-x="564" d="M195 84 L554 84 L554 0 L89 0 L89 700 L195 700 L195 84 Z M181 769 L107 769 L178 893 L276 893 L181 769 Z " />
<glyph glyph-name="Lcaron" unicode="&#x13d;" horiz-adv-x="564" d="M195 84 L554 84 L554 0 L89 0 L89 700 L195 700 L195 84 Z M350 588 L350 700 L428 700 Q428 654 423.5 622.5 Q419 591 406 532 L350 532 L350 588 Z " />
<glyph glyph-name="Lcommaaccent" unicode="&#x13b;" horiz-adv-x="564" d="M195 84 L554 84 L554 0 L89 0 L89 700 L195 700 L195 84 Z M350 -74 Q349 -132 342 -167.5 Q335 -203 321 -242 L250 -242 Q260 -199 264.5 -166 Q269 -133 268 -74 L350 -74 Z " />
<glyph glyph-name="Lslash" unicode="&#x141;" horiz-adv-x="565" d="M555 84 L555 0 L90 0 L90 252 L24 212 L24 262 L90 302 L90 700 L196 700 L196 367 L377 477 L377 426 L196 316 L196 84 L555 84 Z " />
<glyph glyph-name="M" unicode="M" horiz-adv-x="941" d="M853 700 L853 0 L749 0 L749 372 L758 600 L520 73 L421 73 L183 597 L191 372 L191 0 L89 0 L89 700 L244 700 L475 187 L702 700 L853 700 Z " />
<glyph glyph-name="N" unicode="N" horiz-adv-x="749" d="M661 700 L661 0 L552 0 L187 551 L188 356 L189 0 L89 0 L89 700 L199 700 L564 155 L560 352 L560 700 L661 700 Z " />
<glyph glyph-name="Nacute" unicode="&#x143;" horiz-adv-x="749" d="M661 700 L661 0 L552 0 L187 551 L188 356 L189 0 L89 0 L89 700 L199 700 L564 155 L560 352 L560 700 L661 700 Z M418 769 L344 769 L415 893 L513 893 L418 769 Z " />
<glyph glyph-name="Ncaron" unicode="&#x147;" horiz-adv-x="749" d="M661 700 L661 0 L552 0 L187 551 L188 356 L189 0 L89 0 L89 700 L199 700 L564 155 L560 352 L560 700 L661 700 Z M555 894 L423 767 L324 767 L193 894 L287 894 L374 807 L461 894 L555 894 Z " />
<glyph glyph-name="Ncommaaccent" unicode="&#x145;" horiz-adv-x="749" d="M661 700 L661 0 L552 0 L187 551 L188 356 L189 0 L89 0 L89 700 L199 700 L564 155 L560 352 L560 700 L661 700 Z M418 -74 Q417 -132 410 -167.5 Q403 -203 389 -242 L318 -242 Q328 -199 332.5 -166 Q337 -133 336 -74 L418 -74 Z " />
<glyph glyph-name="Eng" unicode="&#x14a;" horiz-adv-x="749" d="M452 -105 Q491 -104 521.5 -83 Q552 -62 552 -21 L552 0 L187 551 L188 356 L189 0 L89 0 L89 700 L199 700 L564 156 L560 352 L560 700 L661 700 L661 -3 Q661 -146 480 -179 L452 -105 Z " />
<glyph glyph-name="Ntilde" unicode="&#xd1;" horiz-adv-x="749" d="M661 700 L661 0 L552 0 L187 551 L188 356 L189 0 L89 0 L89 700 L199 700 L564 155 L560 352 L560 700 L661 700 Z M446 791 Q415 791 371 815 Q363 818 348.5 825 Q334 832 322 836 Q310 840 299 840 Q265 840 244 800 L207 816 Q222 861 248.5 884 Q275 907 311 907 Q343 907 387 884 Q395 880 409 873 Q423 866 435 862 Q447 858 458 858 Q478 858 490.5 869.5 Q503 881 513 899 L550 882 Q536 837 509.5 814 Q483 791 446 791 Z " />
<glyph glyph-name="O" unicode="O" horiz-adv-x="805" d="M402 -10 Q294 -10 213.5 35 Q133 80 89.5 161 Q46 242 46 349 Q46 456 90 538 Q134 620 214.5 665 Q295 710 402 710 Q510 710 590.5 665 Q671 620 714.5 538 Q758 456 758 349 Q758 242 715 160.5 Q672 79 591.5 34.5 Q511 -10 402 -10 Z M403 75 Q515 75 581 147.5 Q647 220 647 348 Q647 434 617 496.5 Q587 559 532 592 Q477 625 403 625 Q329 625 274 592 Q219 559 188.5 496.5 Q158 434 158 348 Q158 263 188.5 201.5 Q219 140 274 107.5 Q329 75 403 75 Z " />
<glyph glyph-name="Oacute" unicode="&#xd3;" horiz-adv-x="805" d="M402 -10 Q294 -10 213.5 35 Q133 80 89.5 161 Q46 242 46 349 Q46 456 90 538 Q134 620 214.5 665 Q295 710 402 710 Q510 710 590.5 665 Q671 620 714.5 538 Q758 456 758 349 Q758 242 715 160.5 Q672 79 591.5 34.5 Q511 -10 402 -10 Z M403 75 Q515 75 581 147.5 Q647 220 647 348 Q647 434 617 496.5 Q587 559 532 592 Q477 625 403 625 Q329 625 274 592 Q219 559 188.5 496.5 Q158 434 158 348 Q158 263 188.5 201.5 Q219 140 274 107.5 Q329 75 403 75 Z M392 769 L318 769 L389 893 L487 893 L392 769 Z " />
<glyph glyph-name="Obreve" unicode="&#x14e;" horiz-adv-x="805" d="M402 -10 Q294 -10 213.5 35 Q133 80 89.5 161 Q46 242 46 349 Q46 456 90 538 Q134 620 214.5 665 Q295 710 402 710 Q510 710 590.5 665 Q671 620 714.5 538 Q758 456 758 349 Q758 242 715 160.5 Q672 79 591.5 34.5 Q511 -10 402 -10 Z M403 75 Q515 75 581 147.5 Q647 220 647 348 Q647 434 617 496.5 Q587 559 532 592 Q477 625 403 625 Q329 625 274 592 Q219 559 188.5 496.5 Q158 434 158 348 Q158 263 188.5 201.5 Q219 140 274 107.5 Q329 75 403 75 Z M402 775 Q260 775 239 894 L303 899 Q313 865 338 847.5 Q363 830 402 830 Q480 830 501 899 L565 894 Q544 775 402 775 Z " />
<glyph glyph-name="Ocircumflex" unicode="&#xd4;" horiz-adv-x="805" d="M402 -10 Q294 -10 213.5 35 Q133 80 89.5 161 Q46 242 46 349 Q46 456 90 538 Q134 620 214.5 665 Q295 710 402 710 Q510 710 590.5 665 Q671 620 714.5 538 Q758 456 758 349 Q758 242 715 160.5 Q672 79 591.5 34.5 Q511 -10 402 -10 Z M403 75 Q515 75 581 147.5 Q647 220 647 348 Q647 434 617 496.5 Q587 559 532 592 Q477 625 403 625 Q329 625 274 592 Q219 559 188.5 496.5 Q158 434 158 348 Q158 263 188.5 201.5 Q219 140 274 107.5 Q329 75 403 75 Z M490 767 L403 854 L316 767 L222 767 L353 894 L452 894 L584 767 L490 767 Z " />
<glyph glyph-name="Odieresis" unicode="&#xd6;" horiz-adv-x="805" d="M402 -10 Q294 -10 213.5 35 Q133 80 89.5 161 Q46 242 46 349 Q46 456 90 538 Q134 620 214.5 665 Q295 710 402 710 Q510 710 590.5 665 Q671 620 714.5 538 Q758 456 758 349 Q758 242 715 160.5 Q672 79 591.5 34.5 Q511 -10 402 -10 Z M403 75 Q515 75 581 147.5 Q647 220 647 348 Q647 434 617 496.5 Q587 559 532 592 Q477 625 403 625 Q329 625 274 592 Q219 559 188.5 496.5 Q158 434 158 348 Q158 263 188.5 201.5 Q219 140 274 107.5 Q329 75 403 75 Z M294 795 Q269 795 255.5 808.5 Q242 822 242 846 Q242 871 255.5 884 Q269 897 294 897 Q348 897 348 846 Q348 822 334.5 808.5 Q321 795 294 795 Z M509 795 Q484 795 471 808.5 Q458 822 458 846 Q458 897 509 897 Q563 897 563 846 Q563 822 549.5 808.5 Q536 795 509 795 Z " />
<glyph glyph-name="Ograve" unicode="&#xd2;" horiz-adv-x="805" d="M402 -10 Q294 -10 213.5 35 Q133 80 89.5 161 Q46 242 46 349 Q46 456 90 538 Q134 620 214.5 665 Q295 710 402 710 Q510 710 590.5 665 Q671 620 714.5 538 Q758 456 758 349 Q758 242 715 160.5 Q672 79 591.5 34.5 Q511 -10 402 -10 Z M403 75 Q515 75 581 147.5 Q647 220 647 348 Q647 434 617 496.5 Q587 559 532 592 Q477 625 403 625 Q329 625 274 592 Q219 559 188.5 496.5 Q158 434 158 348 Q158 263 188.5 201.5 Q219 140 274 107.5 Q329 75 403 75 Z M476 769 L405 769 L329 893 L422 893 L476 769 Z " />
<glyph glyph-name="Ohungarumlaut" unicode="&#x150;" horiz-adv-x="805" d="M402 -10 Q294 -10 213.5 35 Q133 80 89.5 161 Q46 242 46 349 Q46 456 90 538 Q134 620 214.5 665 Q295 710 402 710 Q510 710 590.5 665 Q671 620 714.5 538 Q758 456 758 349 Q758 242 715 160.5 Q672 79 591.5 34.5 Q511 -10 402 -10 Z M403 75 Q515 75 581 147.5 Q647 220 647 348 Q647 434 617 496.5 Q587 559 532 592 Q477 625 403 625 Q329 625 274 592 Q219 559 188.5 496.5 Q158 434 158 348 Q158 263 188.5 201.5 Q219 140 274 107.5 Q329 75 403 75 Z M348 769 L274 769 L340 893 L433 893 L348 769 Z M505 769 L431 769 L497 893 L590 893 L505 769 Z " />
<glyph glyph-name="Omacron" unicode="&#x14c;" horiz-adv-x="805" d="M402 -10 Q294 -10 213.5 35 Q133 80 89.5 161 Q46 242 46 349 Q46 456 90 538 Q134 620 214.5 665 Q295 710 402 710 Q510 710 590.5 665 Q671 620 714.5 538 Q758 456 758 349 Q758 242 715 160.5 Q672 79 591.5 34.5 Q511 -10 402 -10 Z M403 75 Q515 75 581 147.5 Q647 220 647 348 Q647 434 617 496.5 Q587 559 532 592 Q477 625 403 625 Q329 625 274 592 Q219 559 188.5 496.5 Q158 434 158 348 Q158 263 188.5 201.5 Q219 140 274 107.5 Q329 75 403 75 Z M560 815 L244 815 L244 877 L560 877 L560 815 Z " />
<glyph glyph-name="Oslash" unicode="&#xd8;" horiz-adv-x="805" d="M626 642 Q690 594 724 519 Q758 444 758 349 Q758 242 715 160.5 Q672 79 591.5 34.5 Q511 -10 402 -10 Q305 -10 228 27 L188 -34 L122 -34 L180 56 Q116 103 81 178.5 Q46 254 46 349 Q46 456 90 538 Q134 620 214.5 665 Q295 710 402 710 Q501 710 579 671 L617 730 L683 730 L626 642 Z M158 348 Q158 280 177.5 227 Q197 174 234 138 L529 594 Q473 625 403 625 Q329 625 274 592 Q219 559 188.5 496.5 Q158 434 158 348 Z M403 75 Q515 75 581 147.5 Q647 220 647 348 Q647 416 628 469.5 Q609 523 573 560 L278 105 Q332 75 403 75 Z " />
<glyph glyph-name="Oslashacute" unicode="&#x1fe;" horiz-adv-x="805" d="M626 642 Q690 594 724 519 Q758 444 758 349 Q758 242 715 160.5 Q672 79 591.5 34.5 Q511 -10 402 -10 Q305 -10 228 27 L188 -34 L122 -34 L180 56 Q116 103 81 178.5 Q46 254 46 349 Q46 456 90 538 Q134 620 214.5 665 Q295 710 402 710 Q501 710 579 671 L617 730 L683 730 L626 642 Z M158 348 Q158 280 177.5 227 Q197 174 234 138 L529 594 Q473 625 403 625 Q329 625 274 592 Q219 559 188.5 496.5 Q158 434 158 348 Z M403 75 Q515 75 581 147.5 Q647 220 647 348 Q647 416 628 469.5 Q609 523 573 560 L278 105 Q332 75 403 75 Z M392 769 L318 769 L389 893 L487 893 L392 769 Z " />
<glyph glyph-name="Otilde" unicode="&#xd5;" horiz-adv-x="805" d="M402 -10 Q294 -10 213.5 35 Q133 80 89.5 161 Q46 242 46 349 Q46 456 90 538 Q134 620 214.5 665 Q295 710 402 710 Q510 710 590.5 665 Q671 620 714.5 538 Q758 456 758 349 Q758 242 715 160.5 Q672 79 591.5 34.5 Q511 -10 402 -10 Z M403 75 Q515 75 581 147.5 Q647 220 647 348 Q647 434 617 496.5 Q587 559 532 592 Q477 625 403 625 Q329 625 274 592 Q219 559 188.5 496.5 Q158 434 158 348 Q158 263 188.5 201.5 Q219 140 274 107.5 Q329 75 403 75 Z M471 791 Q440 791 396 815 Q388 818 373.5 825 Q359 832 347 836 Q335 840 324 840 Q290 840 269 800 L232 816 Q247 861 273.5 884 Q300 907 336 907 Q368 907 412 884 Q420 880 434 873 Q448 866 460 862 Q472 858 483 858 Q503 858 515.5 869.5 Q528 881 538 899 L575 882 Q561 837 534.5 814 Q508 791 471 791 Z " />
<glyph glyph-name="OE" unicode="&#x152;" horiz-adv-x="1198" d="M1165 83 L1165 0 L656 0 L656 95 Q609 45 545 17.5 Q481 -10 403 -10 Q295 -10 214.5 35 Q134 80 90 161 Q46 242 46 349 Q46 456 90 538 Q134 620 214.5 665 Q295 710 403 710 Q481 710 545.5 682.5 Q610 655 656 606 L656 700 L1154 700 L1154 617 L762 617 L762 383 L1100 383 L1100 300 L762 300 L762 83 L1165 83 Z M403 75 Q515 75 581 147.5 Q647 220 647 348 Q647 434 617 496.5 Q587 559 532 592 Q477 625 403 625 Q330 625 275 592 Q220 559 189.5 496.5 Q159 434 159 348 Q159 263 189.5 201.5 Q220 140 275 107.5 Q330 75 403 75 Z " />
<glyph glyph-name="P" unicode="P" horiz-adv-x="682" d="M89 700 L417 700 Q489 700 542.5 670 Q596 640 624 588.5 Q652 537 652 473 Q652 407 623 355 Q594 303 540.5 274 Q487 245 415 245 L195 245 L195 0 L89 0 L89 700 Z M395 328 Q461 328 502 368.5 Q543 409 543 473 Q543 536 502 576.5 Q461 617 395 617 L195 617 L195 328 L395 328 Z " />
<glyph glyph-name="Thorn" unicode="&#xde;" horiz-adv-x="679" d="M89 700 L195 700 L195 572 L437 572 Q503 572 551 542.5 Q599 513 624 463.5 Q649 414 649 355 Q649 296 624 246.5 Q599 197 551.5 168 Q504 139 439 139 L195 139 L195 0 L89 0 L89 700 Z M417 221 Q473 221 507 258.5 Q541 296 542 355 Q542 413 507.5 451 Q473 489 417 489 L195 489 L195 221 L417 221 Z " />
<glyph glyph-name="Q" unicode="Q" horiz-adv-x="805" d="M559 19 Q604 11 666 -15 L749 -52 L713 -135 L421 -10 L402 -10 Q294 -10 213.5 35 Q133 80 89.5 161 Q46 242 46 349 Q46 456 90 538 Q134 620 214.5 665 Q295 710 402 710 Q510 710 590.5 665 Q671 620 714.5 538 Q758 456 758 349 Q758 231 706 145 Q654 59 559 19 Z M158 348 Q158 263 188.5 201.5 Q219 140 274 107.5 Q329 75 403 75 Q515 75 581 147.5 Q647 220 647 348 Q647 434 617 496.5 Q587 559 532 592 Q477 625 403 625 Q329 625 274 592 Q219 559 188.5 496.5 Q158 434 158 348 Z " />
<glyph glyph-name="R" unicode="R" horiz-adv-x="696" d="M652 485 Q652 414 614 360 Q576 306 508 283 L642 0 L530 0 L408 274 L195 274 L195 0 L89 0 L89 700 L434 700 Q501 700 550.5 671 Q600 642 626 593 Q652 544 652 485 Z M195 357 L414 357 Q474 357 509.5 394 Q545 431 545 487 Q545 543 509.5 580 Q474 617 414 617 L195 617 L195 357 Z " />
<glyph glyph-name="Racute" unicode="&#x154;" horiz-adv-x="696" d="M652 485 Q652 414 614 360 Q576 306 508 283 L642 0 L530 0 L408 274 L195 274 L195 0 L89 0 L89 700 L434 700 Q501 700 550.5 671 Q600 642 626 593 Q652 544 652 485 Z M195 357 L414 357 Q474 357 509.5 394 Q545 431 545 487 Q545 543 509.5 580 Q474 617 414 617 L195 617 L195 357 Z M350 769 L276 769 L347 893 L445 893 L350 769 Z " />
<glyph glyph-name="Rcaron" unicode="&#x158;" horiz-adv-x="696" d="M652 485 Q652 414 614 360 Q576 306 508 283 L642 0 L530 0 L408 274 L195 274 L195 0 L89 0 L89 700 L434 700 Q501 700 550.5 671 Q600 642 626 593 Q652 544 652 485 Z M195 357 L414 357 Q474 357 509.5 394 Q545 431 545 487 Q545 543 509.5 580 Q474 617 414 617 L195 617 L195 357 Z M516 894 L384 767 L285 767 L154 894 L248 894 L335 807 L422 894 L516 894 Z " />
<glyph glyph-name="Rcommaaccent" unicode="&#x156;" horiz-adv-x="696" d="M652 485 Q652 414 614 360 Q576 306 508 283 L642 0 L530 0 L408 274 L195 274 L195 0 L89 0 L89 700 L434 700 Q501 700 550.5 671 Q600 642 626 593 Q652 544 652 485 Z M195 357 L414 357 Q474 357 509.5 394 Q545 431 545 487 Q545 543 509.5 580 Q474 617 414 617 L195 617 L195 357 Z M398 -74 Q397 -132 390 -167.5 Q383 -203 369 -242 L298 -242 Q308 -199 312.5 -166 Q317 -133 316 -74 L398 -74 Z " />
<glyph glyph-name="S" unicode="S" horiz-adv-x="611" d="M307 -8 Q234 -8 164.5 8 Q95 24 48 47 L61 143 Q113 116 172.5 96.5 Q232 77 305 77 Q388 77 426.5 104.5 Q465 132 465 179 Q465 216 444.5 238 Q424 260 390 273.5 Q356 287 292 304 Q209 326 161.5 345.5 Q114 365 81.5 404.5 Q49 444 49 511 Q49 610 119 660 Q189 710 306 710 Q369 710 435 696 Q501 682 546 662 L535 569 Q500 586 442 605.5 Q384 625 313 625 Q237 625 198 598.5 Q159 572 159 524 Q159 485 182.5 461.5 Q206 438 238.5 426.5 Q271 415 330 399 Q411 379 461 357 Q511 335 542 296 Q573 257 573 193 Q573 93 501.5 42.5 Q430 -8 307 -8 Z " />
<glyph glyph-name="Sacute" unicode="&#x15a;" horiz-adv-x="611" d="M307 -8 Q234 -8 164.5 8 Q95 24 48 47 L61 143 Q113 116 172.5 96.5 Q232 77 305 77 Q388 77 426.5 104.5 Q465 132 465 179 Q465 216 444.5 238 Q424 260 390 273.5 Q356 287 292 304 Q209 326 161.5 345.5 Q114 365 81.5 404.5 Q49 444 49 511 Q49 610 119 660 Q189 710 306 710 Q369 710 435 696 Q501 682 546 662 L535 569 Q500 586 442 605.5 Q384 625 313 625 Q237 625 198 598.5 Q159 572 159 524 Q159 485 182.5 461.5 Q206 438 238.5 426.5 Q271 415 330 399 Q411 379 461 357 Q511 335 542 296 Q573 257 573 193 Q573 93 501.5 42.5 Q430 -8 307 -8 Z M336 769 L262 769 L333 893 L431 893 L336 769 Z " />
<glyph glyph-name="Scaron" unicode="&#x160;" horiz-adv-x="611" d="M307 -8 Q234 -8 164.5 8 Q95 24 48 47 L61 143 Q113 116 172.5 96.5 Q232 77 305 77 Q388 77 426.5 104.5 Q465 132 465 179 Q465 216 444.5 238 Q424 260 390 273.5 Q356 287 292 304 Q209 326 161.5 345.5 Q114 365 81.5 404.5 Q49 444 49 511 Q49 610 119 660 Q189 710 306 710 Q369 710 435 696 Q501 682 546 662 L535 569 Q500 586 442 605.5 Q384 625 313 625 Q237 625 198 598.5 Q159 572 159 524 Q159 485 182.5 461.5 Q206 438 238.5 426.5 Q271 415 330 399 Q411 379 461 357 Q511 335 542 296 Q573 257 573 193 Q573 93 501.5 42.5 Q430 -8 307 -8 Z M484 894 L352 767 L253 767 L122 894 L216 894 L303 807 L390 894 L484 894 Z " />
<glyph glyph-name="Scedilla" unicode="&#x15e;" horiz-adv-x="611" d="M307 -8 Q234 -8 164.5 8 Q95 24 48 47 L61 143 Q113 116 172.5 96.5 Q232 77 305 77 Q388 77 426.5 104.5 Q465 132 465 179 Q465 216 444.5 238 Q424 260 390 273.5 Q356 287 292 304 Q209 326 161.5 345.5 Q114 365 81.5 404.5 Q49 444 49 511 Q49 610 119 660 Q189 710 306 710 Q369 710 435 696 Q501 682 546 662 L535 569 Q500 586 442 605.5 Q384 625 313 625 Q237 625 198 598.5 Q159 572 159 524 Q159 485 182.5 461.5 Q206 438 238.5 426.5 Q271 415 330 399 Q411 379 461 357 Q511 335 542 296 Q573 257 573 193 Q573 93 501.5 42.5 Q430 -8 307 -8 Z M312 -44 Q356 -42 389.5 -62 Q423 -82 423 -130 Q423 -180 384.5 -202.5 Q346 -225 293 -225 Q271 -225 245 -221.5 Q219 -218 201 -213 L205 -164 Q217 -169 240.5 -173.5 Q264 -178 288 -178 Q315 -178 336.5 -166.5 Q358 -155 358 -128 Q358 -78 275 -78 Q257 -78 247 -79 L276 21 L329 21 L312 -44 Z " />
<glyph glyph-name="Scircumflex" unicode="&#x15c;" horiz-adv-x="611" d="M307 -8 Q234 -8 164.5 8 Q95 24 48 47 L61 143 Q113 116 172.5 96.5 Q232 77 305 77 Q388 77 426.5 104.5 Q465 132 465 179 Q465 216 444.5 238 Q424 260 390 273.5 Q356 287 292 304 Q209 326 161.5 345.5 Q114 365 81.5 404.5 Q49 444 49 511 Q49 610 119 660 Q189 710 306 710 Q369 710 435 696 Q501 682 546 662 L535 569 Q500 586 442 605.5 Q384 625 313 625 Q237 625 198 598.5 Q159 572 159 524 Q159 485 182.5 461.5 Q206 438 238.5 426.5 Q271 415 330 399 Q411 379 461 357 Q511 335 542 296 Q573 257 573 193 Q573 93 501.5 42.5 Q430 -8 307 -8 Z M394 767 L307 854 L220 767 L126 767 L257 894 L356 894 L488 767 L394 767 Z " />
<glyph glyph-name="Scommaaccent" unicode="&#x218;" horiz-adv-x="611" d="M307 -8 Q234 -8 164.5 8 Q95 24 48 47 L61 143 Q113 116 172.5 96.5 Q232 77 305 77 Q388 77 426.5 104.5 Q465 132 465 179 Q465 216 444.5 238 Q424 260 390 273.5 Q356 287 292 304 Q209 326 161.5 345.5 Q114 365 81.5 404.5 Q49 444 49 511 Q49 610 119 660 Q189 710 306 710 Q369 710 435 696 Q501 682 546 662 L535 569 Q500 586 442 605.5 Q384 625 313 625 Q237 625 198 598.5 Q159 572 159 524 Q159 485 182.5 461.5 Q206 438 238.5 426.5 Q271 415 330 399 Q411 379 461 357 Q511 335 542 296 Q573 257 573 193 Q573 93 501.5 42.5 Q430 -8 307 -8 Z M355 -74 Q354 -132 347 -167.5 Q340 -203 326 -242 L255 -242 Q265 -199 269.5 -166 Q274 -133 273 -74 L355 -74 Z " />
<glyph glyph-name="T" unicode="T" horiz-adv-x="598" d="M588 617 L352 617 L352 0 L246 0 L246 617 L10 617 L10 700 L588 700 L588 617 Z " />
<glyph glyph-name="Tbar" unicode="&#x166;" horiz-adv-x="598" d="M352 617 L352 379 L510 379 L510 330 L352 330 L352 0 L246 0 L246 330 L89 330 L89 379 L246 379 L246 617 L10 617 L10 700 L588 700 L588 617 L352 617 Z " />
<glyph glyph-name="Tcaron" unicode="&#x164;" horiz-adv-x="598" d="M588 617 L352 617 L352 0 L246 0 L246 617 L10 617 L10 700 L588 700 L588 617 Z M477 894 L345 767 L246 767 L115 894 L209 894 L296 807 L383 894 L477 894 Z " />
<glyph glyph-name="uni0162" unicode="&#x162;" horiz-adv-x="598" d="M588 617 L352 617 L352 0 L246 0 L246 617 L10 617 L10 700 L588 700 L588 617 Z M344 -74 Q343 -132 336 -167.5 Q329 -203 315 -242 L244 -242 Q254 -199 258.5 -166 Q263 -133 262 -74 L344 -74 Z " />
<glyph glyph-name="uni021A" unicode="&#x21a;" horiz-adv-x="598" d="M588 617 L352 617 L352 0 L246 0 L246 617 L10 617 L10 700 L588 700 L588 617 Z M344 -74 Q343 -132 336 -167.5 Q329 -203 315 -242 L244 -242 Q254 -199 258.5 -166 Q263 -133 262 -74 L344 -74 Z " />
<glyph glyph-name="U" unicode="U" horiz-adv-x="726" d="M647 250 Q647 168 611 109.5 Q575 51 511 20.5 Q447 -10 364 -10 Q278 -10 213.5 22 Q149 54 114.5 112.5 Q80 171 80 250 L80 700 L186 700 L186 246 Q186 166 236.5 120.5 Q287 75 364 75 Q442 75 495.5 119 Q549 163 549 246 L549 700 L647 700 L647 250 Z " />
<glyph glyph-name="Uacute" unicode="&#xda;" horiz-adv-x="726" d="M647 250 Q647 168 611 109.5 Q575 51 511 20.5 Q447 -10 364 -10 Q278 -10 213.5 22 Q149 54 114.5 112.5 Q80 171 80 250 L80 700 L186 700 L186 246 Q186 166 236.5 120.5 Q287 75 364 75 Q442 75 495.5 119 Q549 163 549 246 L549 700 L647 700 L647 250 Z M389 769 L315 769 L386 893 L484 893 L389 769 Z " />
<glyph glyph-name="Ubreve" unicode="&#x16c;" horiz-adv-x="726" d="M647 250 Q647 168 611 109.5 Q575 51 511 20.5 Q447 -10 364 -10 Q278 -10 213.5 22 Q149 54 114.5 112.5 Q80 171 80 250 L80 700 L186 700 L186 246 Q186 166 236.5 120.5 Q287 75 364 75 Q442 75 495.5 119 Q549 163 549 246 L549 700 L647 700 L647 250 Z M364 775 Q222 775 201 894 L265 899 Q275 865 300 847.5 Q325 830 364 830 Q442 830 463 899 L527 894 Q506 775 364 775 Z " />
<glyph glyph-name="Ucircumflex" unicode="&#xdb;" horiz-adv-x="726" d="M647 250 Q647 168 611 109.5 Q575 51 511 20.5 Q447 -10 364 -10 Q278 -10 213.5 22 Q149 54 114.5 112.5 Q80 171 80 250 L80 700 L186 700 L186 246 Q186 166 236.5 120.5 Q287 75 364 75 Q442 75 495.5 119 Q549 163 549 246 L549 700 L647 700 L647 250 Z M452 767 L365 854 L278 767 L184 767 L315 894 L414 894 L546 767 L452 767 Z " />
<glyph glyph-name="Udieresis" unicode="&#xdc;" horiz-adv-x="726" d="M647 250 Q647 168 611 109.5 Q575 51 511 20.5 Q447 -10 364 -10 Q278 -10 213.5 22 Q149 54 114.5 112.5 Q80 171 80 250 L80 700 L186 700 L186 246 Q186 166 236.5 120.5 Q287 75 364 75 Q442 75 495.5 119 Q549 163 549 246 L549 700 L647 700 L647 250 Z M256 795 Q231 795 217.5 808.5 Q204 822 204 846 Q204 871 217.5 884 Q231 897 256 897 Q310 897 310 846 Q310 822 296.5 808.5 Q283 795 256 795 Z M471 795 Q446 795 433 808.5 Q420 822 420 846 Q420 897 471 897 Q525 897 525 846 Q525 822 511.5 808.5 Q498 795 471 795 Z " />
<glyph glyph-name="Ugrave" unicode="&#xd9;" horiz-adv-x="726" d="M647 250 Q647 168 611 109.5 Q575 51 511 20.5 Q447 -10 364 -10 Q278 -10 213.5 22 Q149 54 114.5 112.5 Q80 171 80 250 L80 700 L186 700 L186 246 Q186 166 236.5 120.5 Q287 75 364 75 Q442 75 495.5 119 Q549 163 549 246 L549 700 L647 700 L647 250 Z M409 769 L338 769 L262 893 L355 893 L409 769 Z " />
<glyph glyph-name="Uhungarumlaut" unicode="&#x170;" horiz-adv-x="726" d="M647 250 Q647 168 611 109.5 Q575 51 511 20.5 Q447 -10 364 -10 Q278 -10 213.5 22 Q149 54 114.5 112.5 Q80 171 80 250 L80 700 L186 700 L186 246 Q186 166 236.5 120.5 Q287 75 364 75 Q442 75 495.5 119 Q549 163 549 246 L549 700 L647 700 L647 250 Z M310 769 L236 769 L302 893 L395 893 L310 769 Z M467 769 L393 769 L459 893 L552 893 L467 769 Z " />
<glyph glyph-name="Umacron" unicode="&#x16a;" horiz-adv-x="726" d="M647 250 Q647 168 611 109.5 Q575 51 511 20.5 Q447 -10 364 -10 Q278 -10 213.5 22 Q149 54 114.5 112.5 Q80 171 80 250 L80 700 L186 700 L186 246 Q186 166 236.5 120.5 Q287 75 364 75 Q442 75 495.5 119 Q549 163 549 246 L549 700 L647 700 L647 250 Z M522 815 L206 815 L206 877 L522 877 L522 815 Z " />
<glyph glyph-name="Uogonek" unicode="&#x172;" horiz-adv-x="726" d="M647 700 L647 250 Q647 150 594 85.5 Q541 21 450 -1 Q411 -12 394 -24.5 Q377 -37 377 -62 Q377 -88 395 -99.5 Q413 -111 436 -111 Q468 -111 505 -100 L507 -164 Q470 -175 425 -175 Q372 -175 339 -155 Q306 -135 306 -88 Q306 -37 347 -10 Q224 -5 152 65 Q80 135 80 250 L80 700 L186 700 L186 246 Q186 166 236.5 120.5 Q287 75 364 75 Q442 75 495.5 119 Q549 163 549 246 L549 700 L647 700 Z " />
<glyph glyph-name="Uring" unicode="&#x16e;" horiz-adv-x="726" d="M647 250 Q647 168 611 109.5 Q575 51 511 20.5 Q447 -10 364 -10 Q278 -10 213.5 22 Q149 54 114.5 112.5 Q80 171 80 250 L80 700 L186 700 L186 246 Q186 166 236.5 120.5 Q287 75 364 75 Q442 75 495.5 119 Q549 163 549 246 L549 700 L647 700 L647 250 Z M364 776 Q316 776 284.5 803 Q253 830 253 880 Q253 930 284.5 957 Q316 984 364 984 Q413 984 444.5 957 Q476 930 476 880 Q476 830 444.5 803 Q413 776 364 776 Z M364 819 Q388 819 405 834.5 Q422 850 422 880 Q422 911 405 925.5 Q388 940 364 940 Q340 940 323.5 925.5 Q307 911 307 880 Q307 850 323.5 834.5 Q340 819 364 819 Z " />
<glyph glyph-name="Utilde" unicode="&#x168;" horiz-adv-x="726" d="M647 250 Q647 168 611 109.5 Q575 51 511 20.5 Q447 -10 364 -10 Q278 -10 213.5 22 Q149 54 114.5 112.5 Q80 171 80 250 L80 700 L186 700 L186 246 Q186 166 236.5 120.5 Q287 75 364 75 Q442 75 495.5 119 Q549 163 549 246 L549 700 L647 700 L647 250 Z M433 791 Q402 791 358 815 Q350 818 335.5 825 Q321 832 309 836 Q297 840 286 840 Q252 840 231 800 L194 816 Q209 861 235.5 884 Q262 907 298 907 Q330 907 374 884 Q382 880 396 873 Q410 866 422 862 Q434 858 445 858 Q465 858 477.5 869.5 Q490 881 500 899 L537 882 Q523 837 496.5 814 Q470 791 433 791 Z " />
<glyph glyph-name="V" unicode="V" horiz-adv-x="660" d="M653 700 L391 0 L269 0 L6 700 L119 700 L334 111 L547 700 L653 700 Z " />
<glyph glyph-name="W" unicode="W" horiz-adv-x="992" d="M972 700 L774 0 L643 0 L495 548 L493 548 L346 0 L212 0 L15 700 L123 700 L284 107 L286 107 L442 695 L556 695 L714 107 L716 107 L874 700 L972 700 Z " />
<glyph glyph-name="Wacute" unicode="&#x1e82;" horiz-adv-x="992" d="M972 700 L774 0 L643 0 L495 548 L493 548 L346 0 L212 0 L15 700 L123 700 L284 107 L286 107 L442 695 L556 695 L714 107 L716 107 L874 700 L972 700 Z M513 769 L439 769 L510 893 L608 893 L513 769 Z " />
<glyph glyph-name="Wcircumflex" unicode="&#x174;" horiz-adv-x="992" d="M972 700 L774 0 L643 0 L495 548 L493 548 L346 0 L212 0 L15 700 L123 700 L284 107 L286 107 L442 695 L556 695 L714 107 L716 107 L874 700 L972 700 Z M585 767 L498 854 L411 767 L317 767 L448 894 L547 894 L679 767 L585 767 Z " />
<glyph glyph-name="Wdieresis" unicode="&#x1e84;" horiz-adv-x="992" d="M972 700 L774 0 L643 0 L495 548 L493 548 L346 0 L212 0 L15 700 L123 700 L284 107 L286 107 L442 695 L556 695 L714 107 L716 107 L874 700 L972 700 Z M389 795 Q364 795 350.5 808.5 Q337 822 337 846 Q337 871 350.5 884 Q364 897 389 897 Q443 897 443 846 Q443 822 429.5 808.5 Q416 795 389 795 Z M604 795 Q579 795 566 808.5 Q553 822 553 846 Q553 897 604 897 Q658 897 658 846 Q658 822 644.5 808.5 Q631 795 604 795 Z " />
<glyph glyph-name="Wgrave" unicode="&#x1e80;" horiz-adv-x="992" d="M972 700 L774 0 L643 0 L495 548 L493 548 L346 0 L212 0 L15 700 L123 700 L284 107 L286 107 L442 695 L556 695 L714 107 L716 107 L874 700 L972 700 Z M537 769 L466 769 L390 893 L483 893 L537 769 Z " />
<glyph glyph-name="X" unicode="X" horiz-adv-x="661" d="M522 0 L331 274 L137 0 L10 0 L263 341 L6 700 L137 700 L332 426 L528 700 L650 700 L399 358 L656 0 L522 0 Z " />
<glyph glyph-name="Y" unicode="Y" horiz-adv-x="620" d="M364 274 L364 0 L258 0 L258 272 L6 700 L115 700 L313 359 L511 700 L616 700 L364 274 Z " />
<glyph glyph-name="Yacute" unicode="&#xdd;" horiz-adv-x="620" d="M364 274 L364 0 L258 0 L258 272 L6 700 L115 700 L313 359 L511 700 L616 700 L364 274 Z M339 769 L265 769 L336 893 L434 893 L339 769 Z " />
<glyph glyph-name="Ycircumflex" unicode="&#x176;" horiz-adv-x="620" d="M364 274 L364 0 L258 0 L258 272 L6 700 L115 700 L313 359 L511 700 L616 700 L364 274 Z M398 767 L311 854 L224 767 L130 767 L261 894 L360 894 L492 767 L398 767 Z " />
<glyph glyph-name="Ydieresis" unicode="&#x178;" horiz-adv-x="620" d="M364 274 L364 0 L258 0 L258 272 L6 700 L115 700 L313 359 L511 700 L616 700 L364 274 Z M203 795 Q178 795 164.5 808.5 Q151 822 151 846 Q151 871 164.5 884 Q178 897 203 897 Q257 897 257 846 Q257 822 243.5 808.5 Q230 795 203 795 Z M418 795 Q393 795 380 808.5 Q367 822 367 846 Q367 897 418 897 Q472 897 472 846 Q472 822 458.5 808.5 Q445 795 418 795 Z " />
<glyph glyph-name="Ygrave" unicode="&#x1ef2;" horiz-adv-x="620" d="M364 274 L364 0 L258 0 L258 272 L6 700 L115 700 L313 359 L511 700 L616 700 L364 274 Z M356 769 L285 769 L209 893 L302 893 L356 769 Z " />
<glyph glyph-name="Z" unicode="Z" horiz-adv-x="606" d="M571 631 L156 79 L359 83 L571 83 L571 0 L27 0 L27 70 L441 620 L237 617 L43 617 L43 700 L571 700 L571 631 Z " />
<glyph glyph-name="Zacute" unicode="&#x179;" horiz-adv-x="606" d="M571 631 L156 79 L359 83 L571 83 L571 0 L27 0 L27 70 L441 620 L237 617 L43 617 L43 700 L571 700 L571 631 Z M342 769 L268 769 L339 893 L437 893 L342 769 Z " />
<glyph glyph-name="Zcaron" unicode="&#x17d;" horiz-adv-x="606" d="M571 631 L156 79 L359 83 L571 83 L571 0 L27 0 L27 70 L441 620 L237 617 L43 617 L43 700 L571 700 L571 631 Z M479 894 L347 767 L248 767 L117 894 L211 894 L298 807 L385 894 L479 894 Z " />
<glyph glyph-name="Zdotaccent" unicode="&#x17b;" horiz-adv-x="606" d="M571 631 L156 79 L359 83 L571 83 L571 0 L27 0 L27 70 L441 620 L237 617 L43 617 L43 700 L571 700 L571 631 Z M301 794 Q277 794 264 806.5 Q251 819 251 842 Q251 865 263.5 877 Q276 889 301 889 Q353 889 353 842 Q353 819 340 806.5 Q327 794 301 794 Z " />
<glyph glyph-name="a" unicode="a" horiz-adv-x="590" d="M593 5 Q546 -4 511 -4 Q464 -4 437 14 Q410 32 409 69 Q382 34 334.5 13 Q287 -8 220 -8 Q131 -8 81 31.5 Q31 71 31 150 Q31 238 93.5 274.5 Q156 311 272 311 Q306 311 402 304 L402 355 Q402 404 371.5 427.5 Q341 451 273 451 Q232 451 177 441 Q122 431 80 417 L73 500 Q176 528 284 528 Q396 528 448.5 490.5 Q501 453 501 357 L501 118 Q501 90 512 83.5 Q523 77 541 77 Q549 77 567 82 Q585 87 591 88 L593 5 Z M246 62 Q314 62 358 96 Q402 130 402 189 L402 241 Q334 249 286 249 Q206 249 169 226 Q132 203 132 154 Q132 105 164 83.5 Q196 62 246 62 Z " />
<glyph glyph-name="aacute" unicode="&#xe1;" horiz-adv-x="590" d="M593 5 Q546 -4 511 -4 Q464 -4 437 14 Q410 32 409 69 Q382 34 334.5 13 Q287 -8 220 -8 Q131 -8 81 31.5 Q31 71 31 150 Q31 238 93.5 274.5 Q156 311 272 311 Q306 311 402 304 L402 355 Q402 404 371.5 427.5 Q341 451 273 451 Q232 451 177 441 Q122 431 80 417 L73 500 Q176 528 284 528 Q396 528 448.5 490.5 Q501 453 501 357 L501 118 Q501 90 512 83.5 Q523 77 541 77 Q549 77 567 82 Q585 87 591 88 L593 5 Z M246 62 Q314 62 358 96 Q402 130 402 189 L402 241 Q334 249 286 249 Q206 249 169 226 Q132 203 132 154 Q132 105 164 83.5 Q196 62 246 62 Z M320 600 L246 600 L329 770 L423 770 L320 600 Z " />
<glyph glyph-name="abreve" unicode="&#x103;" horiz-adv-x="590" d="M593 5 Q546 -4 511 -4 Q464 -4 437 14 Q410 32 409 69 Q382 34 334.5 13 Q287 -8 220 -8 Q131 -8 81 31.5 Q31 71 31 150 Q31 238 93.5 274.5 Q156 311 272 311 Q306 311 402 304 L402 355 Q402 404 371.5 427.5 Q341 451 273 451 Q232 451 177 441 Q122 431 80 417 L73 500 Q176 528 284 528 Q396 528 448.5 490.5 Q501 453 501 357 L501 118 Q501 90 512 83.5 Q523 77 541 77 Q549 77 567 82 Q585 87 591 88 L593 5 Z M246 62 Q314 62 358 96 Q402 130 402 189 L402 241 Q334 249 286 249 Q206 249 169 226 Q132 203 132 154 Q132 105 164 83.5 Q196 62 246 62 Z M287 607 Q208 607 167.5 644 Q127 681 116 761 L180 769 Q191 714 213.5 688.5 Q236 663 287 662 Q338 662 360.5 688 Q383 714 394 769 L458 761 Q447 681 406.5 644 Q366 607 287 607 Z " />
<glyph glyph-name="acircumflex" unicode="&#xe2;" horiz-adv-x="590" d="M593 5 Q546 -4 511 -4 Q464 -4 437 14 Q410 32 409 69 Q382 34 334.5 13 Q287 -8 220 -8 Q131 -8 81 31.5 Q31 71 31 150 Q31 238 93.5 274.5 Q156 311 272 311 Q306 311 402 304 L402 355 Q402 404 371.5 427.5 Q341 451 273 451 Q232 451 177 441 Q122 431 80 417 L73 500 Q176 528 284 528 Q396 528 448.5 490.5 Q501 453 501 357 L501 118 Q501 90 512 83.5 Q523 77 541 77 Q549 77 567 82 Q585 87 591 88 L593 5 Z M246 62 Q314 62 358 96 Q402 130 402 189 L402 241 Q334 249 286 249 Q206 249 169 226 Q132 203 132 154 Q132 105 164 83.5 Q196 62 246 62 Z M372 599 L288 720 L207 599 L121 599 L240 763 L338 763 L458 599 L372 599 Z " />
<glyph glyph-name="adieresis" unicode="&#xe4;" horiz-adv-x="590" d="M593 5 Q546 -4 511 -4 Q464 -4 437 14 Q410 32 409 69 Q382 34 334.5 13 Q287 -8 220 -8 Q131 -8 81 31.5 Q31 71 31 150 Q31 238 93.5 274.5 Q156 311 272 311 Q306 311 402 304 L402 355 Q402 404 371.5 427.5 Q341 451 273 451 Q232 451 177 441 Q122 431 80 417 L73 500 Q176 528 284 528 Q396 528 448.5 490.5 Q501 453 501 357 L501 118 Q501 90 512 83.5 Q523 77 541 77 Q549 77 567 82 Q585 87 591 88 L593 5 Z M246 62 Q314 62 358 96 Q402 130 402 189 L402 241 Q334 249 286 249 Q206 249 169 226 Q132 203 132 154 Q132 105 164 83.5 Q196 62 246 62 Z M183 604 Q157 604 142.5 618 Q128 632 128 658 Q128 683 142.5 696.5 Q157 710 184 710 Q240 710 240 658 Q240 604 183 604 Z M392 604 Q365 604 351 618 Q337 632 337 658 Q337 710 392 710 Q448 710 448 658 Q448 604 392 604 Z " />
<glyph glyph-name="agrave" unicode="&#xe0;" horiz-adv-x="590" d="M593 5 Q546 -4 511 -4 Q464 -4 437 14 Q410 32 409 69 Q382 34 334.5 13 Q287 -8 220 -8 Q131 -8 81 31.5 Q31 71 31 150 Q31 238 93.5 274.5 Q156 311 272 311 Q306 311 402 304 L402 355 Q402 404 371.5 427.5 Q341 451 273 451 Q232 451 177 441 Q122 431 80 417 L73 500 Q176 528 284 528 Q396 528 448.5 490.5 Q501 453 501 357 L501 118 Q501 90 512 83.5 Q523 77 541 77 Q549 77 567 82 Q585 87 591 88 L593 5 Z M246 62 Q314 62 358 96 Q402 130 402 189 L402 241 Q334 249 286 249 Q206 249 169 226 Q132 203 132 154 Q132 105 164 83.5 Q196 62 246 62 Z M338 600 L264 600 L176 770 L268 770 L338 600 Z " />
<glyph glyph-name="amacron" unicode="&#x101;" horiz-adv-x="590" d="M593 5 Q546 -4 511 -4 Q464 -4 437 14 Q410 32 409 69 Q382 34 334.5 13 Q287 -8 220 -8 Q131 -8 81 31.5 Q31 71 31 150 Q31 238 93.5 274.5 Q156 311 272 311 Q306 311 402 304 L402 355 Q402 404 371.5 427.5 Q341 451 273 451 Q232 451 177 441 Q122 431 80 417 L73 500 Q176 528 284 528 Q396 528 448.5 490.5 Q501 453 501 357 L501 118 Q501 90 512 83.5 Q523 77 541 77 Q549 77 567 82 Q585 87 591 88 L593 5 Z M246 62 Q314 62 358 96 Q402 130 402 189 L402 241 Q334 249 286 249 Q206 249 169 226 Q132 203 132 154 Q132 105 164 83.5 Q196 62 246 62 Z M446 635 L130 635 L130 697 L446 697 L446 635 Z " />
<glyph glyph-name="aogonek" unicode="&#x105;" horiz-adv-x="591" d="M597 -164 Q560 -175 516 -175 Q464 -175 430.5 -154.5 Q397 -134 397 -88 Q397 -27 458 4 Q410 20 409 69 Q382 34 334.5 13 Q287 -8 220 -8 Q131 -8 81 31.5 Q31 71 31 150 Q31 238 93.5 274.5 Q156 311 272 311 Q306 311 402 304 L402 355 Q402 404 371.5 427.5 Q341 451 273 451 Q232 451 177 441 Q122 431 80 417 L73 500 Q176 528 284 528 Q396 528 448.5 490.5 Q501 453 501 357 L501 118 Q501 90 512 83.5 Q523 77 541 77 Q549 77 567 82 Q585 87 591 88 L593 5 Q558 -1 548 -2 Q507 -9 487 -22.5 Q467 -36 467 -62 Q467 -89 485.5 -100 Q504 -111 528 -111 Q559 -111 596 -100 L597 -164 Z M246 62 Q314 62 358 96 Q402 130 402 189 L402 241 Q334 249 286 249 Q206 249 169 226 Q132 203 132 154 Q132 105 164 83.5 Q196 62 246 62 Z " />
<glyph glyph-name="aring" unicode="&#xe5;" horiz-adv-x="590" d="M593 5 Q546 -4 511 -4 Q464 -4 437 14 Q410 32 409 69 Q382 34 334.5 13 Q287 -8 220 -8 Q131 -8 81 31.5 Q31 71 31 150 Q31 238 93.5 274.5 Q156 311 272 311 Q306 311 402 304 L402 355 Q402 404 371.5 427.5 Q341 451 273 451 Q232 451 177 441 Q122 431 80 417 L73 500 Q176 528 284 528 Q396 528 448.5 490.5 Q501 453 501 357 L501 118 Q501 90 512 83.5 Q523 77 541 77 Q549 77 567 82 Q585 87 591 88 L593 5 Z M246 62 Q314 62 358 96 Q402 130 402 189 L402 241 Q334 249 286 249 Q206 249 169 226 Q132 203 132 154 Q132 105 164 83.5 Q196 62 246 62 Z M287 596 Q239 596 207.5 623 Q176 650 176 700 Q176 750 207.5 777 Q239 804 287 804 Q336 804 367.5 777 Q399 750 399 700 Q399 650 367.5 623 Q336 596 287 596 Z M287 639 Q311 639 328 654.5 Q345 670 345 700 Q345 731 328 745.5 Q311 760 287 760 Q263 760 246.5 745.5 Q230 731 230 700 Q230 670 246.5 654.5 Q263 639 287 639 Z " />
<glyph glyph-name="atilde" unicode="&#xe3;" horiz-adv-x="590" d="M593 5 Q546 -4 511 -4 Q464 -4 437 14 Q410 32 409 69 Q382 34 334.5 13 Q287 -8 220 -8 Q131 -8 81 31.5 Q31 71 31 150 Q31 238 93.5 274.5 Q156 311 272 311 Q306 311 402 304 L402 355 Q402 404 371.5 427.5 Q341 451 273 451 Q232 451 177 441 Q122 431 80 417 L73 500 Q176 528 284 528 Q396 528 448.5 490.5 Q501 453 501 357 L501 118 Q501 90 512 83.5 Q523 77 541 77 Q549 77 567 82 Q585 87 591 88 L593 5 Z M246 62 Q314 62 358 96 Q402 130 402 189 L402 241 Q334 249 286 249 Q206 249 169 226 Q132 203 132 154 Q132 105 164 83.5 Q196 62 246 62 Z M367 611 Q336 611 292 635 Q284 638 269.5 645 Q255 652 243 656 Q231 660 220 660 Q186 660 165 620 L128 636 Q143 681 169.5 704 Q196 727 232 727 Q264 727 308 704 Q316 700 330 693 Q344 686 356 682 Q368 678 379 678 Q399 678 411.5 689.5 Q424 701 434 719 L471 702 Q457 657 430.5 634 Q404 611 367 611 Z " />
<glyph glyph-name="ae" unicode="&#xe6;" horiz-adv-x="954" d="M916 276 Q916 260 914.5 247 Q913 234 912 228 L510 228 Q510 147 561.5 106 Q613 65 702 65 Q746 65 797 78 Q848 91 887 110 L893 29 Q801 -8 692 -8 Q608 -8 547 20 Q486 48 451 100 Q423 44 362 18 Q301 -8 224 -8 Q133 -8 82 31 Q31 70 31 150 Q31 238 93.5 274.5 Q156 311 272 311 Q322 311 402 303 L402 355 Q402 404 371.5 427.5 Q341 451 273 451 Q232 451 177 441 Q122 431 80 417 L73 500 Q176 528 284 528 Q360 528 404 508.5 Q448 489 467 438 Q502 481 554.5 504.5 Q607 528 675 528 Q750 528 804.5 496.5 Q859 465 887.5 408 Q916 351 916 276 Z M823 292 Q823 365 784.5 410 Q746 455 678 455 Q607 455 563.5 414.5 Q520 374 512 292 L823 292 Z M402 242 Q325 249 286 249 Q206 249 169 226 Q132 203 132 154 Q132 105 164 83.5 Q196 62 246 62 Q314 62 358 96 Q402 130 402 189 L402 242 Z " />
<glyph glyph-name="aeacute" unicode="&#x1fd;" horiz-adv-x="954" d="M916 276 Q916 260 914.5 247 Q913 234 912 228 L510 228 Q510 147 561.5 106 Q613 65 702 65 Q746 65 797 78 Q848 91 887 110 L893 29 Q801 -8 692 -8 Q608 -8 547 20 Q486 48 451 100 Q423 44 362 18 Q301 -8 224 -8 Q133 -8 82 31 Q31 70 31 150 Q31 238 93.5 274.5 Q156 311 272 311 Q322 311 402 303 L402 355 Q402 404 371.5 427.5 Q341 451 273 451 Q232 451 177 441 Q122 431 80 417 L73 500 Q176 528 284 528 Q360 528 404 508.5 Q448 489 467 438 Q502 481 554.5 504.5 Q607 528 675 528 Q750 528 804.5 496.5 Q859 465 887.5 408 Q916 351 916 276 Z M823 292 Q823 365 784.5 410 Q746 455 678 455 Q607 455 563.5 414.5 Q520 374 512 292 L823 292 Z M402 242 Q325 249 286 249 Q206 249 169 226 Q132 203 132 154 Q132 105 164 83.5 Q196 62 246 62 Q314 62 358 96 Q402 130 402 189 L402 242 Z M497 600 L423 600 L506 770 L600 770 L497 600 Z " />
<glyph glyph-name="b" unicode="b" horiz-adv-x="639" d="M359 528 Q435 528 489 492.5 Q543 457 570.5 396 Q598 335 598 259 Q598 185 571 124.5 Q544 64 490 28 Q436 -8 359 -8 Q299 -8 248 14.5 Q197 37 167 83 L158 0 L73 0 L73 732 L172 732 L172 441 Q199 482 247 505 Q295 528 359 528 Z M334 68 Q410 68 453.5 119 Q497 170 497 259 Q497 349 453.5 400.5 Q410 452 333 452 Q257 452 213.5 399.5 Q170 347 170 259 Q170 172 214.5 120 Q259 68 334 68 Z " />
<glyph glyph-name="c" unicode="c" horiz-adv-x="515" d="M328 -8 Q243 -8 178 23.5 Q113 55 77 115.5 Q41 176 41 260 Q41 344 77 404.5 Q113 465 178 496.5 Q243 528 328 528 Q369 528 410 521 Q451 514 483 502 L475 420 Q450 433 413.5 442.5 Q377 452 339 452 Q243 452 192.5 399.5 Q142 347 142 260 Q142 173 193 120.5 Q244 68 341 68 Q405 68 475 102 L482 22 Q406 -8 328 -8 Z " />
<glyph glyph-name="cacute" unicode="&#x107;" horiz-adv-x="515" d="M328 -8 Q243 -8 178 23.5 Q113 55 77 115.5 Q41 176 41 260 Q41 344 77 404.5 Q113 465 178 496.5 Q243 528 328 528 Q369 528 410 521 Q451 514 483 502 L475 420 Q450 433 413.5 442.5 Q377 452 339 452 Q243 452 192.5 399.5 Q142 347 142 260 Q142 173 193 120.5 Q244 68 341 68 Q405 68 475 102 L482 22 Q406 -8 328 -8 Z M332 600 L258 600 L341 770 L435 770 L332 600 Z " />
<glyph glyph-name="ccaron" unicode="&#x10d;" horiz-adv-x="515" d="M328 -8 Q243 -8 178 23.5 Q113 55 77 115.5 Q41 176 41 260 Q41 344 77 404.5 Q113 465 178 496.5 Q243 528 328 528 Q369 528 410 521 Q451 514 483 502 L475 420 Q450 433 413.5 442.5 Q377 452 339 452 Q243 452 192.5 399.5 Q142 347 142 260 Q142 173 193 120.5 Q244 68 341 68 Q405 68 475 102 L482 22 Q406 -8 328 -8 Z M473 763 L353 599 L255 599 L136 763 L222 763 L303 642 L387 763 L473 763 Z " />
<glyph glyph-name="ccedilla" unicode="&#xe7;" horiz-adv-x="515" d="M328 -8 Q243 -8 178 23.5 Q113 55 77 115.5 Q41 176 41 260 Q41 344 77 404.5 Q113 465 178 496.5 Q243 528 328 528 Q369 528 410 521 Q451 514 483 502 L475 420 Q450 433 413.5 442.5 Q377 452 339 452 Q243 452 192.5 399.5 Q142 347 142 260 Q142 173 193 120.5 Q244 68 341 68 Q405 68 475 102 L482 22 Q406 -8 328 -8 Z M292 -44 Q336 -42 369.5 -62 Q403 -82 403 -130 Q403 -180 364.5 -202.5 Q326 -225 273 -225 Q251 -225 225 -221.5 Q199 -218 181 -213 L185 -164 Q197 -169 220.5 -173.5 Q244 -178 268 -178 Q295 -178 316.5 -166.5 Q338 -155 338 -128 Q338 -78 255 -78 Q237 -78 227 -79 L256 21 L309 21 L292 -44 Z " />
<glyph glyph-name="ccircumflex" unicode="&#x109;" horiz-adv-x="515" d="M328 -8 Q243 -8 178 23.5 Q113 55 77 115.5 Q41 176 41 260 Q41 344 77 404.5 Q113 465 178 496.5 Q243 528 328 528 Q369 528 410 521 Q451 514 483 502 L475 420 Q450 433 413.5 442.5 Q377 452 339 452 Q243 452 192.5 399.5 Q142 347 142 260 Q142 173 193 120.5 Q244 68 341 68 Q405 68 475 102 L482 22 Q406 -8 328 -8 Z M383 599 L299 720 L218 599 L132 599 L251 763 L349 763 L469 599 L383 599 Z " />
<glyph glyph-name="cdotaccent" unicode="&#x10b;" horiz-adv-x="515" d="M328 -8 Q243 -8 178 23.5 Q113 55 77 115.5 Q41 176 41 260 Q41 344 77 404.5 Q113 465 178 496.5 Q243 528 328 528 Q369 528 410 521 Q451 514 483 502 L475 420 Q450 433 413.5 442.5 Q377 452 339 452 Q243 452 192.5 399.5 Q142 347 142 260 Q142 173 193 120.5 Q244 68 341 68 Q405 68 475 102 L482 22 Q406 -8 328 -8 Z M305 624 Q249 624 249 673 Q249 722 305 722 Q362 722 362 673 Q362 624 305 624 Z " />
<glyph glyph-name="d" unicode="d" horiz-adv-x="639" d="M566 732 L566 0 L474 0 L468 81 Q439 35 389 13.5 Q339 -8 279 -8 Q202 -8 148.5 28 Q95 64 68 124.5 Q41 185 41 259 Q41 335 68.5 396 Q96 457 150 492.5 Q204 528 280 528 Q344 528 392 505 Q440 482 467 440 L467 732 L566 732 Z M307 68 Q380 68 424 120 Q468 172 468 259 Q468 347 425 399.5 Q382 452 307 452 Q229 452 185 400.5 Q141 349 141 259 Q141 170 185.5 119 Q230 68 307 68 Z " />
<glyph glyph-name="eth" unicode="&#xf0;" horiz-adv-x="603" d="M399 681 Q472 605 514 505.5 Q556 406 556 289 Q556 141 487 66.5 Q418 -8 295 -8 Q216 -8 158.5 23 Q101 54 71.5 110 Q42 166 42 240 Q42 316 73 371 Q104 426 158 455 Q212 484 278 485 Q352 485 401 454 Q450 423 470 380 Q461 463 409 547 Q380 595 335 637 L235 570 L212 601 L304 664 Q250 708 181 747 L251 794 Q317 758 370 709 L446 761 L470 729 L399 681 Z M296 67 Q371 67 411 114 Q451 161 451 241 Q451 321 410 365.5 Q369 410 296 410 Q223 410 182.5 363.5 Q142 317 142 240 Q142 164 181 115.5 Q220 67 296 67 Z " />
<glyph glyph-name="dcaron" unicode="&#x10f;" horiz-adv-x="666" d="M467 732 L566 732 L566 0 L474 0 L468 81 Q439 35 389 13.5 Q339 -8 279 -8 Q202 -8 148.5 28 Q95 64 68 124.5 Q41 185 41 259 Q41 335 68.5 396 Q96 457 150 492.5 Q204 528 280 528 Q344 528 392 505 Q440 482 467 440 L467 732 Z M719 732 Q719 696 715 668 Q711 640 703 598 Q702 589 698 569 L640 569 L640 625 L640 732 L719 732 Z M307 68 Q380 68 424 120 Q468 172 468 259 Q468 347 425 399.5 Q382 452 307 452 Q229 452 185 400.5 Q141 349 141 259 Q141 170 185.5 119 Q230 68 307 68 Z " />
<glyph glyph-name="dslash" unicode="&#x111;" horiz-adv-x="638" d="M633 603 L566 603 L566 0 L481 0 L470 94 Q442 42 392 17 Q342 -8 279 -8 Q202 -8 148.5 28 Q95 64 68 124.5 Q41 185 41 259 Q41 335 68.5 396 Q96 457 150 492.5 Q204 528 280 528 Q346 528 393.5 502 Q441 476 467 430 L467 603 L316 603 L316 639 L467 639 L467 732 L566 732 L566 639 L633 639 L633 603 Z M307 68 Q381 68 425 120 Q469 172 469 259 Q469 347 426 399.5 Q383 452 307 452 Q229 452 185 400.5 Q141 349 141 259 Q141 170 185.5 119 Q230 68 307 68 Z " />
<glyph glyph-name="e" unicode="e" horiz-adv-x="586" d="M549 276 Q549 260 547.5 247 Q546 234 545 228 L142 228 Q143 148 195 106.5 Q247 65 335 65 Q379 65 429.5 78 Q480 91 520 110 L526 29 Q434 -8 325 -8 Q189 -8 115 63 Q41 134 41 259 Q41 339 73 400 Q105 461 165.5 494.5 Q226 528 308 528 Q383 528 437.5 496.5 Q492 465 520.5 408 Q549 351 549 276 Z M456 292 Q456 365 417.5 410 Q379 455 311 455 Q240 455 196.5 414.5 Q153 374 144 292 L456 292 Z " />
<glyph glyph-name="eacute" unicode="&#xe9;" horiz-adv-x="586" d="M549 276 Q549 260 547.5 247 Q546 234 545 228 L142 228 Q143 148 195 106.5 Q247 65 335 65 Q379 65 429.5 78 Q480 91 520 110 L526 29 Q434 -8 325 -8 Q189 -8 115 63 Q41 134 41 259 Q41 339 73 400 Q105 461 165.5 494.5 Q226 528 308 528 Q383 528 437.5 496.5 Q492 465 520.5 408 Q549 351 549 276 Z M456 292 Q456 365 417.5 410 Q379 455 311 455 Q240 455 196.5 414.5 Q153 374 144 292 L456 292 Z M341 600 L267 600 L350 770 L444 770 L341 600 Z " />
<glyph glyph-name="ebreve" unicode="&#x115;" horiz-adv-x="586" d="M549 276 Q549 260 547.5 247 Q546 234 545 228 L142 228 Q143 148 195 106.5 Q247 65 335 65 Q379 65 429.5 78 Q480 91 520 110 L526 29 Q434 -8 325 -8 Q189 -8 115 63 Q41 134 41 259 Q41 339 73 400 Q105 461 165.5 494.5 Q226 528 308 528 Q383 528 437.5 496.5 Q492 465 520.5 408 Q549 351 549 276 Z M456 292 Q456 365 417.5 410 Q379 455 311 455 Q240 455 196.5 414.5 Q153 374 144 292 L456 292 Z M308 607 Q229 607 188.5 644 Q148 681 137 761 L201 769 Q212 714 234.5 688.5 Q257 663 308 662 Q359 662 381.5 688 Q404 714 415 769 L479 761 Q468 681 427.5 644 Q387 607 308 607 Z " />
<glyph glyph-name="ecaron" unicode="&#x11b;" horiz-adv-x="587" d="M549 276 Q549 260 547.5 247 Q546 234 545 228 L142 228 Q143 148 195 106.5 Q247 65 335 65 Q379 65 429.5 78 Q480 91 520 110 L526 29 Q434 -8 325 -8 Q189 -8 115 63 Q41 134 41 259 Q41 339 73 400 Q105 461 165.5 494.5 Q226 528 308 528 Q383 528 437.5 496.5 Q492 465 520.5 408 Q549 351 549 276 Z M456 292 Q456 365 417.5 410 Q379 455 311 455 Q240 455 196.5 414.5 Q153 374 144 292 L456 292 Z M482 763 L362 599 L264 599 L145 763 L231 763 L312 642 L396 763 L482 763 Z " />
<glyph glyph-name="ecircumflex" unicode="&#xea;" horiz-adv-x="586" d="M549 276 Q549 260 547.5 247 Q546 234 545 228 L142 228 Q143 148 195 106.5 Q247 65 335 65 Q379 65 429.5 78 Q480 91 520 110 L526 29 Q434 -8 325 -8 Q189 -8 115 63 Q41 134 41 259 Q41 339 73 400 Q105 461 165.5 494.5 Q226 528 308 528 Q383 528 437.5 496.5 Q492 465 520.5 408 Q549 351 549 276 Z M456 292 Q456 365 417.5 410 Q379 455 311 455 Q240 455 196.5 414.5 Q153 374 144 292 L456 292 Z M393 599 L309 720 L228 599 L142 599 L261 763 L359 763 L479 599 L393 599 Z " />
<glyph glyph-name="edieresis" unicode="&#xeb;" horiz-adv-x="587" d="M549 276 Q549 260 547.5 247 Q546 234 545 228 L142 228 Q143 148 195 106.5 Q247 65 335 65 Q379 65 429.5 78 Q480 91 520 110 L526 29 Q434 -8 325 -8 Q189 -8 115 63 Q41 134 41 259 Q41 339 73 400 Q105 461 165.5 494.5 Q226 528 308 528 Q383 528 437.5 496.5 Q492 465 520.5 408 Q549 351 549 276 Z M456 292 Q456 365 417.5 410 Q379 455 311 455 Q240 455 196.5 414.5 Q153 374 144 292 L456 292 Z M204 604 Q178 604 163.5 618 Q149 632 149 658 Q149 683 163.5 696.5 Q178 710 205 710 Q261 710 261 658 Q261 604 204 604 Z M413 604 Q386 604 372 618 Q358 632 358 658 Q358 710 413 710 Q469 710 469 658 Q469 604 413 604 Z " />
<glyph glyph-name="edotaccent" unicode="&#x117;" horiz-adv-x="587" d="M549 276 Q549 260 547.5 247 Q546 234 545 228 L142 228 Q143 148 195 106.5 Q247 65 335 65 Q379 65 429.5 78 Q480 91 520 110 L526 29 Q434 -8 325 -8 Q189 -8 115 63 Q41 134 41 259 Q41 339 73 400 Q105 461 165.5 494.5 Q226 528 308 528 Q383 528 437.5 496.5 Q492 465 520.5 408 Q549 351 549 276 Z M456 292 Q456 365 417.5 410 Q379 455 311 455 Q240 455 196.5 414.5 Q153 374 144 292 L456 292 Z M314 624 Q258 624 258 673 Q258 722 314 722 Q371 722 371 673 Q371 624 314 624 Z " />
<glyph glyph-name="egrave" unicode="&#xe8;" horiz-adv-x="586" d="M549 276 Q549 260 547.5 247 Q546 234 545 228 L142 228 Q143 148 195 106.5 Q247 65 335 65 Q379 65 429.5 78 Q480 91 520 110 L526 29 Q434 -8 325 -8 Q189 -8 115 63 Q41 134 41 259 Q41 339 73 400 Q105 461 165.5 494.5 Q226 528 308 528 Q383 528 437.5 496.5 Q492 465 520.5 408 Q549 351 549 276 Z M456 292 Q456 365 417.5 410 Q379 455 311 455 Q240 455 196.5 414.5 Q153 374 144 292 L456 292 Z M358 600 L284 600 L196 770 L288 770 L358 600 Z " />
<glyph glyph-name="emacron" unicode="&#x113;" horiz-adv-x="586" d="M549 276 Q549 260 547.5 247 Q546 234 545 228 L142 228 Q143 148 195 106.5 Q247 65 335 65 Q379 65 429.5 78 Q480 91 520 110 L526 29 Q434 -8 325 -8 Q189 -8 115 63 Q41 134 41 259 Q41 339 73 400 Q105 461 165.5 494.5 Q226 528 308 528 Q383 528 437.5 496.5 Q492 465 520.5 408 Q549 351 549 276 Z M456 292 Q456 365 417.5 410 Q379 455 311 455 Q240 455 196.5 414.5 Q153 374 144 292 L456 292 Z M467 635 L151 635 L151 697 L467 697 L467 635 Z " />
<glyph glyph-name="eogonek" unicode="&#x119;" horiz-adv-x="586" d="M549 276 Q549 260 547.5 247 Q546 234 545 228 L142 228 Q143 148 195 106.5 Q247 65 335 65 Q379 65 429.5 78 Q480 91 520 110 L526 29 Q509 22 495 18 L495 17 Q456 5 437.5 -2.5 Q419 -10 407.5 -24 Q396 -38 396 -62 Q396 -89 414.5 -100 Q433 -111 455 -111 Q483 -111 525 -100 L526 -164 Q487 -175 442 -175 Q393 -175 359 -155 Q325 -135 325 -88 Q325 -39 357 -7 Q346 -8 325 -8 Q189 -8 115 63 Q41 134 41 259 Q41 339 73 400 Q105 461 165.5 494.5 Q226 528 308 528 Q383 528 437.5 496.5 Q492 465 520.5 408 Q549 351 549 276 Z M456 292 Q456 365 417.5 410 Q379 455 311 455 Q240 455 196.5 414.5 Q153 374 144 292 L456 292 Z " />
<glyph glyph-name="f" unicode="f" horiz-adv-x="364" d="M103 449 L25 449 L25 520 L103 520 L103 568 Q103 654 140 697 Q177 740 268 740 Q319 740 370 726 L367 649 Q352 656 330.5 661.5 Q309 667 290 667 Q244 667 222 642.5 Q200 618 200 566 L200 520 L358 520 L358 449 L200 449 L200 0 L103 0 L103 449 Z " />
<glyph glyph-name="g" unicode="g" horiz-adv-x="576" d="M544 452 L458 457 Q481 442 498 413.5 Q515 385 515 343 Q515 269 456.5 226 Q398 183 287 183 Q217 183 170 200 Q141 182 141 153 Q142 120 177.5 110 Q213 100 284 100 L356 100 Q443 100 490.5 72 Q538 44 538 -23 Q538 -109 469 -142.5 Q400 -176 288 -176 Q42 -176 42 -46 Q42 14 113 54 Q57 81 57 138 Q57 198 120 226 Q61 268 61 354 Q61 441 120.5 484.5 Q180 528 289 528 Q338 528 373 520 L544 520 L544 452 Z M287 251 Q350 251 384 277 Q418 303 418 355 Q418 408 383.5 433 Q349 458 288 458 Q227 458 192.5 432.5 Q158 407 158 354 Q158 300 192.5 275.5 Q227 251 287 251 Z M294 27 Q212 27 165 37 Q127 8 127 -30 Q127 -76 170 -93.5 Q213 -111 290 -111 Q363 -111 405 -94.5 Q447 -78 447 -32 Q447 1 423 14 Q399 27 347 27 L294 27 Z " />
<glyph glyph-name="gbreve" unicode="&#x11f;" horiz-adv-x="576" d="M544 452 L458 457 Q481 442 498 413.5 Q515 385 515 343 Q515 269 456.5 226 Q398 183 287 183 Q217 183 170 200 Q141 182 141 153 Q142 120 177.5 110 Q213 100 284 100 L356 100 Q443 100 490.5 72 Q538 44 538 -23 Q538 -109 469 -142.5 Q400 -176 288 -176 Q42 -176 42 -46 Q42 14 113 54 Q57 81 57 138 Q57 198 120 226 Q61 268 61 354 Q61 441 120.5 484.5 Q180 528 289 528 Q338 528 373 520 L544 520 L544 452 Z M287 251 Q350 251 384 277 Q418 303 418 355 Q418 408 383.5 433 Q349 458 288 458 Q227 458 192.5 432.5 Q158 407 158 354 Q158 300 192.5 275.5 Q227 251 287 251 Z M294 27 Q212 27 165 37 Q127 8 127 -30 Q127 -76 170 -93.5 Q213 -111 290 -111 Q363 -111 405 -94.5 Q447 -78 447 -32 Q447 1 423 14 Q399 27 347 27 L294 27 Z M294 607 Q215 607 174.5 644 Q134 681 123 761 L187 769 Q198 714 220.5 688.5 Q243 663 294 662 Q345 662 367.5 688 Q390 714 401 769 L465 761 Q454 681 413.5 644 Q373 607 294 607 Z " />
<glyph glyph-name="gcircumflex" unicode="&#x11d;" horiz-adv-x="576" d="M544 452 L458 457 Q481 442 498 413.5 Q515 385 515 343 Q515 269 456.5 226 Q398 183 287 183 Q217 183 170 200 Q141 182 141 153 Q142 120 177.5 110 Q213 100 284 100 L356 100 Q443 100 490.5 72 Q538 44 538 -23 Q538 -109 469 -142.5 Q400 -176 288 -176 Q42 -176 42 -46 Q42 14 113 54 Q57 81 57 138 Q57 198 120 226 Q61 268 61 354 Q61 441 120.5 484.5 Q180 528 289 528 Q338 528 373 520 L544 520 L544 452 Z M287 251 Q350 251 384 277 Q418 303 418 355 Q418 408 383.5 433 Q349 458 288 458 Q227 458 192.5 432.5 Q158 407 158 354 Q158 300 192.5 275.5 Q227 251 287 251 Z M294 27 Q212 27 165 37 Q127 8 127 -30 Q127 -76 170 -93.5 Q213 -111 290 -111 Q363 -111 405 -94.5 Q447 -78 447 -32 Q447 1 423 14 Q399 27 347 27 L294 27 Z M374 599 L290 720 L209 599 L123 599 L242 763 L340 763 L460 599 L374 599 Z " />
<glyph glyph-name="gcommaaccent" unicode="&#x123;" horiz-adv-x="576" d="M544 452 L458 457 Q481 442 498 413.5 Q515 385 515 343 Q515 269 456.5 226 Q398 183 287 183 Q217 183 170 200 Q141 182 141 153 Q142 120 177.5 110 Q213 100 284 100 L356 100 Q443 100 490.5 72 Q538 44 538 -23 Q538 -109 469 -142.5 Q400 -176 288 -176 Q42 -176 42 -46 Q42 14 113 54 Q57 81 57 138 Q57 198 120 226 Q61 268 61 354 Q61 441 120.5 484.5 Q180 528 289 528 Q338 528 373 520 L544 520 L544 452 Z M287 251 Q350 251 384 277 Q418 303 418 355 Q418 408 383.5 433 Q349 458 288 458 Q227 458 192.5 432.5 Q158 407 158 354 Q158 300 192.5 275.5 Q227 251 287 251 Z M294 27 Q212 27 165 37 Q127 8 127 -30 Q127 -76 170 -93.5 Q213 -111 290 -111 Q363 -111 405 -94.5 Q447 -78 447 -32 Q447 1 423 14 Q399 27 347 27 L294 27 Z M233 594 Q234 652 241 687.5 Q248 723 262 762 L333 762 Q323 719 318.5 686 Q314 653 315 594 L233 594 Z " />
<glyph glyph-name="gdotaccent" unicode="&#x121;" horiz-adv-x="576" d="M544 452 L458 457 Q481 442 498 413.5 Q515 385 515 343 Q515 269 456.5 226 Q398 183 287 183 Q217 183 170 200 Q141 182 141 153 Q142 120 177.5 110 Q213 100 284 100 L356 100 Q443 100 490.5 72 Q538 44 538 -23 Q538 -109 469 -142.5 Q400 -176 288 -176 Q42 -176 42 -46 Q42 14 113 54 Q57 81 57 138 Q57 198 120 226 Q61 268 61 354 Q61 441 120.5 484.5 Q180 528 289 528 Q338 528 373 520 L544 520 L544 452 Z M287 251 Q350 251 384 277 Q418 303 418 355 Q418 408 383.5 433 Q349 458 288 458 Q227 458 192.5 432.5 Q158 407 158 354 Q158 300 192.5 275.5 Q227 251 287 251 Z M294 27 Q212 27 165 37 Q127 8 127 -30 Q127 -76 170 -93.5 Q213 -111 290 -111 Q363 -111 405 -94.5 Q447 -78 447 -32 Q447 1 423 14 Q399 27 347 27 L294 27 Z M284 624 Q228 624 228 673 Q228 722 284 722 Q341 722 341 673 Q341 624 284 624 Z " />
<glyph glyph-name="h" unicode="h" horiz-adv-x="611" d="M353 528 Q440 528 491.5 480.5 Q543 433 543 328 L543 0 L444 0 L444 318 Q444 384 412 418 Q380 452 322 452 Q272 452 238 427 Q204 402 188 362.5 Q172 323 172 281 L172 0 L73 0 L73 732 L172 732 L172 433 Q233 528 353 528 Z " />
<glyph glyph-name="hbar" unicode="&#x127;" horiz-adv-x="611" d="M353 528 Q440 528 491.5 480.5 Q543 433 543 328 L543 0 L444 0 L444 318 Q444 384 412 418 Q380 452 322 452 Q272 452 238.5 426.5 Q205 401 188.5 362 Q172 323 172 280 L172 0 L73 0 L73 600 L-6 600 L-6 643 L73 643 L73 732 L172 732 L172 643 L323 643 L323 600 L172 600 L172 431 Q232 528 353 528 Z " />
<glyph glyph-name="hcircumflex" unicode="&#x125;" horiz-adv-x="611" d="M353 528 Q440 528 491.5 480.5 Q543 433 543 328 L543 0 L444 0 L444 318 Q444 384 412 418 Q380 452 322 452 Q272 452 238 427 Q204 402 188 362.5 Q172 323 172 281 L172 0 L73 0 L73 732 L172 732 L172 433 Q233 528 353 528 Z M211 767 L124 854 L37 767 L-57 767 L74 894 L173 894 L305 767 L211 767 Z " />
<glyph glyph-name="i" unicode="i" horiz-adv-x="270" d="M143 603 Q86 603 86 655 Q86 682 101.5 695.5 Q117 709 144 709 Q172 709 187 695.5 Q202 682 202 655 Q202 603 143 603 Z M99 449 L3 449 L3 520 L197 520 L197 0 L99 0 L99 449 Z " />
<glyph glyph-name="dotlessi" unicode="&#x131;" horiz-adv-x="270" d="M197 0 L99 0 L99 449 L3 449 L3 520 L197 520 L197 0 Z " />
<glyph glyph-name="iacute" unicode="&#xed;" horiz-adv-x="270" d="M197 0 L99 0 L99 449 L3 449 L3 520 L197 520 L197 0 Z M162 600 L88 600 L171 770 L265 770 L162 600 Z " />
<glyph glyph-name="ibreve" unicode="&#x12d;" horiz-adv-x="270" d="M197 0 L99 0 L99 449 L3 449 L3 520 L197 520 L197 0 Z M129 607 Q50 607 9.5 644 Q-31 681 -42 761 L22 769 Q33 714 55.5 688.5 Q78 663 129 662 Q180 662 202.5 688 Q225 714 236 769 L300 761 Q289 681 248.5 644 Q208 607 129 607 Z " />
<glyph glyph-name="icircumflex" unicode="&#xee;" horiz-adv-x="290" d="M197 0 L99 0 L99 449 L3 449 L3 520 L197 520 L197 0 Z M208 599 L124 720 L43 599 L-43 599 L76 763 L174 763 L294 599 L208 599 Z " />
<glyph glyph-name="idieresis" unicode="&#xef;" horiz-adv-x="270" d="M197 0 L99 0 L99 449 L3 449 L3 520 L197 520 L197 0 Z M16 604 Q-10 604 -24.5 618 Q-39 632 -39 658 Q-39 683 -24.5 696.5 Q-10 710 17 710 Q73 710 73 658 Q73 604 16 604 Z M225 604 Q198 604 184 618 Q170 632 170 658 Q170 710 225 710 Q281 710 281 658 Q281 604 225 604 Z " />
<glyph glyph-name="igrave" unicode="&#xec;" horiz-adv-x="270" d="M197 0 L99 0 L99 449 L3 449 L3 520 L197 520 L197 0 Z M179 600 L105 600 L17 770 L109 770 L179 600 Z " />
<glyph glyph-name="imacron" unicode="&#x12b;" horiz-adv-x="270" d="M197 0 L99 0 L99 449 L3 449 L3 520 L197 520 L197 0 Z M269 635 L-47 635 L-47 697 L269 697 L269 635 Z " />
<glyph glyph-name="iogonek" unicode="&#x12f;" horiz-adv-x="270" d="M143 603 Q86 603 86 655 Q86 682 101.5 695.5 Q117 709 144 709 Q172 709 187 695.5 Q202 682 202 655 Q202 603 143 603 Z M99 449 L3 449 L3 520 L197 520 L197 0 L99 0 L99 449 Z M145 -175 Q93 -175 60 -155 Q27 -135 27 -88 Q27 8 179 25 L197 0 Q146 -7 121.5 -20.5 Q97 -34 97 -62 Q97 -89 115.5 -100 Q134 -111 157 -111 Q189 -111 226 -100 L227 -164 Q190 -175 145 -175 Z " />
<glyph glyph-name="itilde" unicode="&#x129;" horiz-adv-x="270" d="M197 0 L99 0 L99 449 L3 449 L3 520 L197 520 L197 0 Z M182 611 Q151 611 107 635 Q99 638 84.5 645 Q70 652 58 656 Q46 660 35 660 Q1 660 -20 620 L-57 636 Q-42 681 -15.5 704 Q11 727 47 727 Q79 727 123 704 Q131 700 145 693 Q159 686 171 682 Q183 678 194 678 Q214 678 226.5 689.5 Q239 701 249 719 L286 702 Q272 657 245.5 634 Q219 611 182 611 Z " />
<glyph glyph-name="j" unicode="j" horiz-adv-x="273" d="M140 603 Q83 603 83 655 Q83 682 98 695.5 Q113 709 141 709 Q168 709 183.5 695.5 Q199 682 199 655 Q199 603 140 603 Z M44 -172 Q-9 -172 -45 -161 L-42 -89 Q-30 -94 -10.5 -97 Q9 -100 25 -100 Q61 -100 80 -84.5 Q99 -69 99 -31 L99 449 L3 449 L3 520 L197 520 L197 -34 Q197 -107 154.5 -139.5 Q112 -172 44 -172 Z " />
<glyph glyph-name="jcircumflex" unicode="&#x135;" horiz-adv-x="273" d="M31 599 L-55 599 L64 763 L162 763 L282 599 L196 599 L112 720 L31 599 Z M3 520 L197 520 L197 -34 Q197 -107 154.5 -139.5 Q112 -172 43 -172 Q23 -172 -2.5 -169.5 Q-28 -167 -45 -162 L-43 -90 Q-31 -94 -11.5 -97 Q8 -100 24 -100 Q60 -100 79 -84.5 Q98 -69 98 -31 L98 449 L3 449 L3 520 Z " />
<glyph glyph-name="k" unicode="k" horiz-adv-x="539" d="M419 0 L268 251 L172 152 L172 0 L73 0 L73 732 L172 732 L172 265 L420 520 L528 520 L334 319 L530 0 L419 0 Z " />
<glyph glyph-name="kcommaaccent" unicode="&#x137;" horiz-adv-x="539" d="M419 0 L268 251 L172 152 L172 0 L73 0 L73 732 L172 732 L172 265 L420 520 L528 520 L334 319 L530 0 L419 0 Z M317 -74 Q316 -132 309 -167.5 Q302 -203 288 -242 L217 -242 Q227 -199 231.5 -166 Q236 -133 235 -74 L317 -74 Z " />
<glyph glyph-name="kgreenlandic" unicode="&#x138;" horiz-adv-x="538" d="M337 322 L529 0 L419 0 L271 254 L172 152 L172 0 L73 0 L73 520 L172 520 L172 265 L420 520 L529 520 L337 322 Z " />
<glyph glyph-name="l" unicode="l" horiz-adv-x="280" d="M174 110 Q174 87 185 78 Q196 69 216 69 Q238 69 275 80 L275 2 Q227 -8 184 -8 Q129 -8 102 16.5 Q75 41 75 93 L75 732 L174 732 L174 110 Z " />
<glyph glyph-name="lacute" unicode="&#x13a;" horiz-adv-x="280" d="M174 110 Q174 87 185 78 Q196 69 216 69 Q238 69 275 80 L275 2 Q227 -8 184 -8 Q129 -8 102 16.5 Q75 41 75 93 L75 732 L174 732 L174 110 Z M164 769 L90 769 L161 893 L259 893 L164 769 Z " />
<glyph glyph-name="lcaron" unicode="&#x13e;" horiz-adv-x="287" d="M174 110 Q174 87 185 78 Q196 69 216 69 Q238 69 275 80 L275 2 Q227 -8 184 -8 Q129 -8 102 16.5 Q75 41 75 93 L75 732 L174 732 L174 110 Z M318 732 Q318 689 313.5 659.5 Q309 630 297 569 L239 569 L239 625 L239 732 L318 732 Z " />
<glyph glyph-name="lcommaaccent" unicode="&#x13c;" horiz-adv-x="280" d="M174 110 Q174 87 185 78 Q196 69 216 69 Q238 69 275 80 L275 2 Q227 -8 184 -8 Q129 -8 102 16.5 Q75 41 75 93 L75 732 L174 732 L174 110 Z M204 -74 Q203 -132 196 -167.5 Q189 -203 175 -242 L104 -242 Q114 -199 118.5 -166 Q123 -133 122 -74 L204 -74 Z " />
<glyph glyph-name="lslash" unicode="&#x142;" horiz-adv-x="312" d="M242 69 Q264 69 301 80 L301 2 Q253 -8 210 -8 Q155 -8 128 16.5 Q101 41 101 93 L101 271 L13 219 L13 271 L101 323 L101 732 L200 732 L200 382 L299 441 L299 389 L200 330 L200 110 Q200 87 211 78 Q222 69 242 69 Z " />
<glyph glyph-name="m" unicode="m" horiz-adv-x="904" d="M660 528 Q741 528 788.5 479.5 Q836 431 836 326 L836 0 L737 0 L737 326 Q737 388 709 420 Q681 452 628 452 Q565 452 534.5 407.5 Q504 363 504 303 L504 0 L406 0 L406 330 Q406 386 375.5 419 Q345 452 294 452 Q236 452 204 413 Q172 374 172 311 L172 0 L73 0 L73 520 L159 520 L165 437 Q187 479 228 503.5 Q269 528 323 528 Q376 528 417 502 Q458 476 476 420 Q501 470 547.5 499 Q594 528 660 528 Z " />
<glyph glyph-name="n" unicode="n" horiz-adv-x="611" d="M353 528 Q440 528 491.5 480.5 Q543 433 543 328 L543 0 L444 0 L444 318 Q444 384 412 418 Q380 452 322 452 Q272 452 238 427 Q204 402 188 362.5 Q172 323 172 281 L172 0 L73 0 L73 520 L160 520 L167 434 Q195 478 241.5 503 Q288 528 353 528 Z " />
<glyph glyph-name="nacute" unicode="&#x144;" horiz-adv-x="611" d="M353 528 Q440 528 491.5 480.5 Q543 433 543 328 L543 0 L444 0 L444 318 Q444 384 412 418 Q380 452 322 452 Q272 452 238 427 Q204 402 188 362.5 Q172 323 172 281 L172 0 L73 0 L73 520 L160 520 L167 434 Q195 478 241.5 503 Q288 528 353 528 Z M338 600 L264 600 L347 770 L441 770 L338 600 Z " />
<glyph glyph-name="ncaron" unicode="&#x148;" horiz-adv-x="611" d="M353 528 Q440 528 491.5 480.5 Q543 433 543 328 L543 0 L444 0 L444 318 Q444 384 412 418 Q380 452 322 452 Q272 452 238 427 Q204 402 188 362.5 Q172 323 172 281 L172 0 L73 0 L73 520 L160 520 L167 434 Q195 478 241.5 503 Q288 528 353 528 Z M479 763 L359 599 L261 599 L142 763 L228 763 L309 642 L393 763 L479 763 Z " />
<glyph glyph-name="ncommaaccent" unicode="&#x146;" horiz-adv-x="611" d="M353 528 Q440 528 491.5 480.5 Q543 433 543 328 L543 0 L444 0 L444 318 Q444 384 412 418 Q380 452 322 452 Q272 452 238 427 Q204 402 188 362.5 Q172 323 172 281 L172 0 L73 0 L73 520 L160 520 L167 434 Q195 478 241.5 503 Q288 528 353 528 Z M358 -74 Q357 -132 350 -167.5 Q343 -203 329 -242 L258 -242 Q268 -199 272.5 -166 Q277 -133 276 -74 L358 -74 Z " />
<glyph glyph-name="eng" unicode="&#x14b;" horiz-adv-x="611" d="M353 528 Q440 528 491.5 478.5 Q543 429 543 320 L543 -5 Q542 -84 496 -124.5 Q450 -165 372 -179 L344 -105 Q383 -104 413.5 -83 Q444 -62 444 -21 L444 311 Q444 380 412 416 Q380 452 321 452 Q272 452 238.5 426.5 Q205 401 188.5 362 Q172 323 172 280 L172 0 L73 0 L73 520 L160 520 L166 423 Q227 528 353 528 Z " />
<glyph glyph-name="ntilde" unicode="&#xf1;" horiz-adv-x="611" d="M353 528 Q440 528 491.5 480.5 Q543 433 543 328 L543 0 L444 0 L444 318 Q444 384 412 418 Q380 452 322 452 Q272 452 238 427 Q204 402 188 362.5 Q172 323 172 281 L172 0 L73 0 L73 520 L160 520 L167 434 Q195 478 241.5 503 Q288 528 353 528 Z M374 611 Q343 611 299 635 Q291 638 276.5 645 Q262 652 250 656 Q238 660 227 660 Q193 660 172 620 L135 636 Q150 681 176.5 704 Q203 727 239 727 Q271 727 315 704 Q323 700 337 693 Q351 686 363 682 Q375 678 386 678 Q406 678 418.5 689.5 Q431 701 441 719 L478 702 Q464 657 437.5 634 Q411 611 374 611 Z " />
<glyph glyph-name="o" unicode="o" horiz-adv-x="624" d="M312 -8 Q232 -8 170.5 24 Q109 56 75 116.5 Q41 177 41 260 Q41 343 75 403.5 Q109 464 170.5 496 Q232 528 312 528 Q392 528 453.5 495.5 Q515 463 549 402.5 Q583 342 583 260 Q583 177 549 116.5 Q515 56 453.5 24 Q392 -8 312 -8 Z M311 68 Q390 68 436 118.5 Q482 169 482 259 Q482 350 436 401 Q390 452 311 452 Q233 452 187 401 Q141 350 141 259 Q141 169 187 118.5 Q233 68 311 68 Z " />
<glyph glyph-name="oacute" unicode="&#xf3;" horiz-adv-x="624" d="M312 -8 Q232 -8 170.5 24 Q109 56 75 116.5 Q41 177 41 260 Q41 343 75 403.5 Q109 464 170.5 496 Q232 528 312 528 Q392 528 453.5 495.5 Q515 463 549 402.5 Q583 342 583 260 Q583 177 549 116.5 Q515 56 453.5 24 Q392 -8 312 -8 Z M311 68 Q390 68 436 118.5 Q482 169 482 259 Q482 350 436 401 Q390 452 311 452 Q233 452 187 401 Q141 350 141 259 Q141 169 187 118.5 Q233 68 311 68 Z M297 600 L223 600 L306 770 L400 770 L297 600 Z " />
<glyph glyph-name="obreve" unicode="&#x14f;" horiz-adv-x="624" d="M312 -8 Q232 -8 170.5 24 Q109 56 75 116.5 Q41 177 41 260 Q41 343 75 403.5 Q109 464 170.5 496 Q232 528 312 528 Q392 528 453.5 495.5 Q515 463 549 402.5 Q583 342 583 260 Q583 177 549 116.5 Q515 56 453.5 24 Q392 -8 312 -8 Z M311 68 Q390 68 436 118.5 Q482 169 482 259 Q482 350 436 401 Q390 452 311 452 Q233 452 187 401 Q141 350 141 259 Q141 169 187 118.5 Q233 68 311 68 Z M312 607 Q233 607 192.5 644 Q152 681 141 761 L205 769 Q216 714 238.5 688.5 Q261 663 312 662 Q363 662 385.5 688 Q408 714 419 769 L483 761 Q472 681 431.5 644 Q391 607 312 607 Z " />
<glyph glyph-name="ocircumflex" unicode="&#xf4;" horiz-adv-x="624" d="M312 -8 Q232 -8 170.5 24 Q109 56 75 116.5 Q41 177 41 260 Q41 343 75 403.5 Q109 464 170.5 496 Q232 528 312 528 Q392 528 453.5 495.5 Q515 463 549 402.5 Q583 342 583 260 Q583 177 549 116.5 Q515 56 453.5 24 Q392 -8 312 -8 Z M311 68 Q390 68 436 118.5 Q482 169 482 259 Q482 350 436 401 Q390 452 311 452 Q233 452 187 401 Q141 350 141 259 Q141 169 187 118.5 Q233 68 311 68 Z M397 599 L313 720 L232 599 L146 599 L265 763 L363 763 L483 599 L397 599 Z " />
<glyph glyph-name="odieresis" unicode="&#xf6;" horiz-adv-x="624" d="M312 -8 Q232 -8 170.5 24 Q109 56 75 116.5 Q41 177 41 260 Q41 343 75 403.5 Q109 464 170.5 496 Q232 528 312 528 Q392 528 453.5 495.5 Q515 463 549 402.5 Q583 342 583 260 Q583 177 549 116.5 Q515 56 453.5 24 Q392 -8 312 -8 Z M311 68 Q390 68 436 118.5 Q482 169 482 259 Q482 350 436 401 Q390 452 311 452 Q233 452 187 401 Q141 350 141 259 Q141 169 187 118.5 Q233 68 311 68 Z M208 604 Q182 604 167.5 618 Q153 632 153 658 Q153 683 167.5 696.5 Q182 710 209 710 Q265 710 265 658 Q265 604 208 604 Z M417 604 Q390 604 376 618 Q362 632 362 658 Q362 710 417 710 Q473 710 473 658 Q473 604 417 604 Z " />
<glyph glyph-name="ograve" unicode="&#xf2;" horiz-adv-x="624" d="M312 -8 Q232 -8 170.5 24 Q109 56 75 116.5 Q41 177 41 260 Q41 343 75 403.5 Q109 464 170.5 496 Q232 528 312 528 Q392 528 453.5 495.5 Q515 463 549 402.5 Q583 342 583 260 Q583 177 549 116.5 Q515 56 453.5 24 Q392 -8 312 -8 Z M311 68 Q390 68 436 118.5 Q482 169 482 259 Q482 350 436 401 Q390 452 311 452 Q233 452 187 401 Q141 350 141 259 Q141 169 187 118.5 Q233 68 311 68 Z M393 600 L319 600 L231 770 L323 770 L393 600 Z " />
<glyph glyph-name="ohungarumlaut" unicode="&#x151;" horiz-adv-x="624" d="M312 -8 Q232 -8 170.5 24 Q109 56 75 116.5 Q41 177 41 260 Q41 343 75 403.5 Q109 464 170.5 496 Q232 528 312 528 Q392 528 453.5 495.5 Q515 463 549 402.5 Q583 342 583 260 Q583 177 549 116.5 Q515 56 453.5 24 Q392 -8 312 -8 Z M311 68 Q390 68 436 118.5 Q482 169 482 259 Q482 350 436 401 Q390 452 311 452 Q233 452 187 401 Q141 350 141 259 Q141 169 187 118.5 Q233 68 311 68 Z M258 600 L184 600 L257 770 L350 770 L258 600 Z M415 600 L341 600 L414 770 L507 770 L415 600 Z " />
<glyph glyph-name="omacron" unicode="&#x14d;" horiz-adv-x="624" d="M312 -8 Q232 -8 170.5 24 Q109 56 75 116.5 Q41 177 41 260 Q41 343 75 403.5 Q109 464 170.5 496 Q232 528 312 528 Q392 528 453.5 495.5 Q515 463 549 402.5 Q583 342 583 260 Q583 177 549 116.5 Q515 56 453.5 24 Q392 -8 312 -8 Z M311 68 Q390 68 436 118.5 Q482 169 482 259 Q482 350 436 401 Q390 452 311 452 Q233 452 187 401 Q141 350 141 259 Q141 169 187 118.5 Q233 68 311 68 Z M470 635 L154 635 L154 697 L470 697 L470 635 Z " />
<glyph glyph-name="oslash" unicode="&#xf8;" horiz-adv-x="624" d="M481 479 Q530 445 556.5 388.5 Q583 332 583 260 Q583 177 549 116.5 Q515 56 453.5 24 Q392 -8 312 -8 Q238 -8 181 19 L147 -33 L95 -33 L143 41 Q94 75 67.5 131 Q41 187 41 260 Q41 343 75 403.5 Q109 464 170.5 496 Q232 528 312 528 Q386 528 443 501 L477 553 L529 553 L481 479 Z M141 259 Q141 166 191 114 L398 431 Q360 452 311 452 Q233 452 187 401 Q141 350 141 259 Z M311 68 Q390 68 436 118.5 Q482 169 482 259 Q482 353 432 405 L226 88 Q263 68 311 68 Z " />
<glyph glyph-name="oslashacute" unicode="&#x1ff;" horiz-adv-x="624" d="M297 600 L223 600 L306 770 L400 770 L297 600 Z M481 479 Q530 445 556.5 388.5 Q583 332 583 260 Q583 177 549 116.5 Q515 56 453.5 24 Q392 -8 312 -8 Q238 -8 182 19 L148 -33 L95 -33 L143 41 Q94 75 67.5 131 Q41 187 41 260 Q41 343 75 403.5 Q109 464 170.5 496 Q232 528 312 528 Q386 528 443 501 L477 553 L529 553 L481 479 Z M141 259 Q141 166 191 114 L398 431 Q360 452 311 452 Q233 452 187 401 Q141 350 141 259 Z M311 68 Q390 68 436 118.5 Q482 169 482 259 Q482 353 433 405 L226 88 Q263 68 311 68 Z " />
<glyph glyph-name="otilde" unicode="&#xf5;" horiz-adv-x="624" d="M312 -8 Q232 -8 170.5 24 Q109 56 75 116.5 Q41 177 41 260 Q41 343 75 403.5 Q109 464 170.5 496 Q232 528 312 528 Q392 528 453.5 495.5 Q515 463 549 402.5 Q583 342 583 260 Q583 177 549 116.5 Q515 56 453.5 24 Q392 -8 312 -8 Z M311 68 Q390 68 436 118.5 Q482 169 482 259 Q482 350 436 401 Q390 452 311 452 Q233 452 187 401 Q141 350 141 259 Q141 169 187 118.5 Q233 68 311 68 Z M381 611 Q350 611 306 635 Q298 638 283.5 645 Q269 652 257 656 Q245 660 234 660 Q200 660 179 620 L142 636 Q157 681 183.5 704 Q210 727 246 727 Q278 727 322 704 Q330 700 344 693 Q358 686 370 682 Q382 678 393 678 Q413 678 425.5 689.5 Q438 701 448 719 L485 702 Q471 657 444.5 634 Q418 611 381 611 Z " />
<glyph glyph-name="oe" unicode="&#x153;" horiz-adv-x="1029" d="M991 276 Q991 260 989.5 245 Q988 230 988 228 L585 228 Q586 148 638 106.5 Q690 65 777 65 Q821 65 872 78 Q923 91 963 110 L969 29 Q875 -8 767 -8 Q686 -8 627 17.5 Q568 43 533 91 Q497 43 440 17.5 Q383 -8 312 -8 Q232 -8 170.5 24 Q109 56 75 116.5 Q41 177 41 260 Q41 343 75 403.5 Q109 464 170.5 496 Q232 528 312 528 Q384 528 441 502.5 Q498 477 533 428 Q568 476 623 502 Q678 528 750 528 Q826 528 880 496.5 Q934 465 962.5 408 Q991 351 991 276 Z M898 292 Q898 365 859.5 410 Q821 455 753 455 Q682 455 639 414.5 Q596 374 587 292 L898 292 Z M312 68 Q390 68 436.5 118.5 Q483 169 483 259 Q483 350 436.5 401 Q390 452 312 452 Q234 452 187.5 401 Q141 350 141 259 Q141 169 187.5 118.5 Q234 68 312 68 Z " />
<glyph glyph-name="p" unicode="p" horiz-adv-x="639" d="M359 528 Q436 528 490 492 Q544 456 571 395.5 Q598 335 598 261 Q598 185 570.5 124 Q543 63 489 27.5 Q435 -8 359 -8 Q296 -8 248 14.5 Q200 37 172 77 L172 -170 L73 -170 L73 520 L158 520 L167 437 Q197 483 248 505.5 Q299 528 359 528 Z M333 68 Q410 68 453.5 119.5 Q497 171 497 261 Q497 350 453.5 401 Q410 452 334 452 Q259 452 214.5 400 Q170 348 170 261 Q170 173 213.5 120.5 Q257 68 333 68 Z " />
<glyph glyph-name="thorn" unicode="&#xfe;" horiz-adv-x="639" d="M359 528 Q436 528 490 492 Q544 456 571 395.5 Q598 335 598 261 Q598 185 570.5 124 Q543 63 489 27.5 Q435 -8 359 -8 Q293 -8 245.5 18 Q198 44 172 88 L172 -170 L73 -170 L73 700 L172 700 L172 432 Q201 480 250.5 504 Q300 528 359 528 Z M333 68 Q410 68 454 119.5 Q498 171 498 261 Q498 349 454 400.5 Q410 452 334 452 Q259 452 214.5 400 Q170 348 170 261 Q170 173 213.5 120.5 Q257 68 333 68 Z " />
<glyph glyph-name="q" unicode="q" horiz-adv-x="640" d="M567 520 L567 -170 L468 -170 L468 77 Q440 37 392 14.5 Q344 -8 281 -8 Q205 -8 151 27.5 Q97 63 69.5 124 Q42 185 42 261 Q42 335 69 395.5 Q96 456 150 492 Q204 528 281 528 Q342 528 393 505.5 Q444 483 473 436 L482 520 L567 520 Z M307 68 Q383 68 426.5 120.5 Q470 173 470 261 Q470 348 426 400 Q382 452 307 452 Q231 452 187 401 Q143 350 143 261 Q143 171 186.5 119.5 Q230 68 307 68 Z " />
<glyph glyph-name="r" unicode="r" horiz-adv-x="370" d="M319 524 Q344 524 361 520 L359 426 Q339 431 314 431 Q242 431 207 377 Q172 323 172 243 L172 0 L73 0 L73 520 L155 520 L164 410 Q180 458 218.5 491 Q257 524 319 524 Z " />
<glyph glyph-name="racute" unicode="&#x155;" horiz-adv-x="370" d="M319 524 Q344 524 361 520 L359 426 Q339 431 314 431 Q242 431 207 377 Q172 323 172 243 L172 0 L73 0 L73 520 L155 520 L164 410 Q180 458 218.5 491 Q257 524 319 524 Z M225 600 L151 600 L234 770 L328 770 L225 600 Z " />
<glyph glyph-name="rcaron" unicode="&#x159;" horiz-adv-x="370" d="M319 524 Q344 524 361 520 L359 426 Q339 431 314 431 Q242 431 207 377 Q172 323 172 243 L172 0 L73 0 L73 520 L155 520 L164 410 Q180 458 218.5 491 Q257 524 319 524 Z M366 763 L246 599 L148 599 L29 763 L115 763 L196 642 L280 763 L366 763 Z " />
<glyph glyph-name="rcommaaccent" unicode="&#x157;" horiz-adv-x="370" d="M319 524 Q344 524 361 520 L359 426 Q339 431 314 431 Q242 431 207 377 Q172 323 172 243 L172 0 L73 0 L73 520 L155 520 L164 410 Q180 458 218.5 491 Q257 524 319 524 Z M170 -74 Q169 -132 162 -167.5 Q155 -203 141 -242 L70 -242 Q80 -199 84.5 -166 Q89 -133 88 -74 L170 -74 Z " />
<glyph glyph-name="s" unicode="s" horiz-adv-x="492" d="M245 -7 Q134 -7 43 29 L50 110 Q96 90 139.5 77 Q183 64 237 64 Q298 64 326.5 83 Q355 102 355 136 Q355 162 340.5 176.5 Q326 191 300.5 199.5 Q275 208 215 224 Q161 238 126 253 Q91 268 67.5 298 Q44 328 44 378 Q44 453 99 490.5 Q154 528 247 528 Q296 528 346.5 519 Q397 510 434 496 L428 417 Q386 434 345.5 446 Q305 458 258 458 Q201 458 173.5 438.5 Q146 419 146 385 Q146 360 159.5 345.5 Q173 331 194.5 323.5 Q216 316 260 304 Q267 303 281 299 Q337 284 372.5 268.5 Q408 253 432.5 223 Q457 193 457 144 Q457 68 399.5 30.5 Q342 -7 245 -7 Z " />
<glyph glyph-name="sacute" unicode="&#x15b;" horiz-adv-x="492" d="M245 -7 Q134 -7 43 29 L50 110 Q96 90 139.5 77 Q183 64 237 64 Q298 64 326.5 83 Q355 102 355 136 Q355 162 340.5 176.5 Q326 191 300.5 199.5 Q275 208 215 224 Q161 238 126 253 Q91 268 67.5 298 Q44 328 44 378 Q44 453 99 490.5 Q154 528 247 528 Q296 528 346.5 519 Q397 510 434 496 L428 417 Q386 434 345.5 446 Q305 458 258 458 Q201 458 173.5 438.5 Q146 419 146 385 Q146 360 159.5 345.5 Q173 331 194.5 323.5 Q216 316 260 304 Q267 303 281 299 Q337 284 372.5 268.5 Q408 253 432.5 223 Q457 193 457 144 Q457 68 399.5 30.5 Q342 -7 245 -7 Z M282 600 L208 600 L291 770 L385 770 L282 600 Z " />
<glyph glyph-name="scaron" unicode="&#x161;" horiz-adv-x="492" d="M245 -7 Q134 -7 43 29 L50 110 Q96 90 139.5 77 Q183 64 237 64 Q298 64 326.5 83 Q355 102 355 136 Q355 162 340.5 176.5 Q326 191 300.5 199.5 Q275 208 215 224 Q161 238 126 253 Q91 268 67.5 298 Q44 328 44 378 Q44 453 99 490.5 Q154 528 247 528 Q296 528 346.5 519 Q397 510 434 496 L428 417 Q386 434 345.5 446 Q305 458 258 458 Q201 458 173.5 438.5 Q146 419 146 385 Q146 360 159.5 345.5 Q173 331 194.5 323.5 Q216 316 260 304 Q267 303 281 299 Q337 284 372.5 268.5 Q408 253 432.5 223 Q457 193 457 144 Q457 68 399.5 30.5 Q342 -7 245 -7 Z M423 763 L303 599 L205 599 L86 763 L172 763 L253 642 L337 763 L423 763 Z " />
<glyph glyph-name="scedilla" unicode="&#x15f;" horiz-adv-x="492" d="M245 -7 Q134 -7 43 29 L50 110 Q96 90 139.5 77 Q183 64 237 64 Q298 64 326.5 83 Q355 102 355 136 Q355 162 340.5 176.5 Q326 191 300.5 199.5 Q275 208 215 224 Q161 238 126 253 Q91 268 67.5 298 Q44 328 44 378 Q44 453 99 490.5 Q154 528 247 528 Q296 528 346.5 519 Q397 510 434 496 L428 417 Q386 434 345.5 446 Q305 458 258 458 Q201 458 173.5 438.5 Q146 419 146 385 Q146 360 159.5 345.5 Q173 331 194.5 323.5 Q216 316 260 304 Q267 303 281 299 Q337 284 372.5 268.5 Q408 253 432.5 223 Q457 193 457 144 Q457 68 399.5 30.5 Q342 -7 245 -7 Z M248 -44 Q292 -42 325.5 -62 Q359 -82 359 -130 Q359 -180 320.5 -202.5 Q282 -225 229 -225 Q207 -225 181 -221.5 Q155 -218 137 -213 L141 -164 Q153 -169 176.5 -173.5 Q200 -178 224 -178 Q251 -178 272.5 -166.5 Q294 -155 294 -128 Q294 -78 211 -78 Q193 -78 183 -79 L212 21 L265 21 L248 -44 Z " />
<glyph glyph-name="scircumflex" unicode="&#x15d;" horiz-adv-x="492" d="M245 -7 Q134 -7 43 29 L50 110 Q96 90 139.5 77 Q183 64 237 64 Q298 64 326.5 83 Q355 102 355 136 Q355 162 340.5 176.5 Q326 191 300.5 199.5 Q275 208 215 224 Q161 238 126 253 Q91 268 67.5 298 Q44 328 44 378 Q44 453 99 490.5 Q154 528 247 528 Q296 528 346.5 519 Q397 510 434 496 L428 417 Q386 434 345.5 446 Q305 458 258 458 Q201 458 173.5 438.5 Q146 419 146 385 Q146 360 159.5 345.5 Q173 331 194.5 323.5 Q216 316 260 304 Q267 303 281 299 Q337 284 372.5 268.5 Q408 253 432.5 223 Q457 193 457 144 Q457 68 399.5 30.5 Q342 -7 245 -7 Z M334 599 L250 720 L169 599 L83 599 L202 763 L300 763 L420 599 L334 599 Z " />
<glyph glyph-name="scommaaccent" unicode="&#x219;" horiz-adv-x="492" d="M245 -7 Q134 -7 43 29 L50 110 Q96 90 139.5 77 Q183 64 237 64 Q298 64 326.5 83 Q355 102 355 136 Q355 162 340.5 176.5 Q326 191 300.5 199.5 Q275 208 215 224 Q161 238 126 253 Q91 268 67.5 298 Q44 328 44 378 Q44 453 99 490.5 Q154 528 247 528 Q296 528 346.5 519 Q397 510 434 496 L428 417 Q386 434 345.5 446 Q305 458 258 458 Q201 458 173.5 438.5 Q146 419 146 385 Q146 360 159.5 345.5 Q173 331 194.5 323.5 Q216 316 260 304 Q267 303 281 299 Q337 284 372.5 268.5 Q408 253 432.5 223 Q457 193 457 144 Q457 68 399.5 30.5 Q342 -7 245 -7 Z M291 -74 Q290 -132 283 -167.5 Q276 -203 262 -242 L191 -242 Q201 -199 205.5 -166 Q210 -133 209 -74 L291 -74 Z " />
<glyph glyph-name="germandbls" unicode="&#xdf;" horiz-adv-x="632" d="M444 -10 Q403 -10 358 -0.5 Q313 9 278 25 L290 107 Q331 85 358 74.5 Q385 64 418 64 Q465 64 486 86.5 Q507 109 507 146 Q507 183 489 205 Q471 227 434 253 Q395 279 375.5 303 Q356 327 356 369 Q356 400 368 420.5 Q380 441 403 465 Q425 489 435 505.5 Q445 522 445 547 Q445 590 412 610 Q379 630 331 630 Q265 630 232 593 Q199 556 199 501 L198 0 L98 0 L98 449 L3 449 L3 520 L98 520 Q101 613 165 660.5 Q229 708 327 708 Q418 708 477.5 670.5 Q537 633 537 562 Q537 527 523.5 503.5 Q510 480 483 450 Q463 429 452.5 412.5 Q442 396 442 376 Q442 350 457.5 332.5 Q473 315 506 292 Q537 270 556 252 Q575 234 589 205 Q603 176 603 135 Q603 67 564 28.5 Q525 -10 444 -10 Z " />
<glyph glyph-name="t" unicode="t" horiz-adv-x="391" d="M198 520 L375 520 L375 449 L198 449 L198 168 Q198 112 218.5 91.5 Q239 71 285 71 Q317 71 375 95 L378 13 Q353 3 317.5 -2.5 Q282 -8 251 -8 Q175 -8 138 30 Q101 68 101 160 L101 449 L19 449 L19 520 L101 520 L113 670 L198 670 L198 520 Z " />
<glyph glyph-name="tbar" unicode="&#x167;" horiz-adv-x="391" d="M378 13 Q353 3 317.5 -2.5 Q282 -8 251 -8 Q175 -8 138 30 Q101 68 101 160 L101 327 L20 327 L20 363 L101 363 L101 449 L19 449 L19 520 L101 520 L113 670 L198 670 L198 520 L375 520 L375 449 L198 449 L198 363 L376 363 L376 327 L198 327 L198 168 Q198 112 218.5 91.5 Q239 71 285 71 Q317 71 375 95 L378 13 Z " />
<glyph glyph-name="tcaron" unicode="&#x165;" horiz-adv-x="391" d="M338 732 Q338 696 334 668 Q330 640 322 598 Q321 589 317 569 L258 569 L258 625 L258 732 L338 732 Z M198 520 L375 520 L375 449 L198 449 L198 168 Q198 112 218.5 91.5 Q239 71 285 71 Q317 71 375 95 L378 13 Q353 3 317.5 -2.5 Q282 -8 251 -8 Q175 -8 138 30 Q101 68 101 160 L101 449 L19 449 L19 520 L101 520 L113 670 L198 670 L198 520 Z " />
<glyph glyph-name="uni0163" unicode="&#x163;" horiz-adv-x="391" d="M198 520 L375 520 L375 449 L198 449 L198 168 Q198 112 218.5 91.5 Q239 71 285 71 Q317 71 375 95 L378 13 Q353 3 317.5 -2.5 Q282 -8 251 -8 Q175 -8 138 30 Q101 68 101 160 L101 449 L19 449 L19 520 L101 520 L113 670 L198 670 L198 520 Z M270 -74 Q269 -132 262 -167.5 Q255 -203 241 -242 L170 -242 Q180 -199 184.5 -166 Q189 -133 188 -74 L270 -74 Z " />
<glyph glyph-name="uni021B" unicode="&#x21b;" horiz-adv-x="391" d="M198 520 L375 520 L375 449 L198 449 L198 168 Q198 112 218.5 91.5 Q239 71 285 71 Q317 71 375 95 L378 13 Q353 3 317.5 -2.5 Q282 -8 251 -8 Q175 -8 138 30 Q101 68 101 160 L101 449 L19 449 L19 520 L101 520 L113 670 L198 670 L198 520 Z M270 -74 Q269 -132 262 -167.5 Q255 -203 241 -242 L170 -242 Q180 -199 184.5 -166 Q189 -133 188 -74 L270 -74 Z " />
<glyph glyph-name="u" unicode="u" horiz-adv-x="610" d="M537 520 L537 0 L450 0 L443 89 Q382 -8 257 -8 Q170 -8 118.5 39.5 Q67 87 67 192 L67 520 L166 520 L166 202 Q166 136 198 102 Q230 68 287 68 Q338 68 372 93 Q406 118 422 157 Q438 196 438 239 L438 520 L537 520 Z " />
<glyph glyph-name="uacute" unicode="&#xfa;" horiz-adv-x="610" d="M537 520 L537 0 L450 0 L443 89 Q382 -8 257 -8 Q170 -8 118.5 39.5 Q67 87 67 192 L67 520 L166 520 L166 202 Q166 136 198 102 Q230 68 287 68 Q338 68 372 93 Q406 118 422 157 Q438 196 438 239 L438 520 L537 520 Z M335 600 L261 600 L344 770 L438 770 L335 600 Z " />
<glyph glyph-name="ubreve" unicode="&#x16d;" horiz-adv-x="610" d="M537 520 L537 0 L450 0 L443 89 Q382 -8 257 -8 Q170 -8 118.5 39.5 Q67 87 67 192 L67 520 L166 520 L166 202 Q166 136 198 102 Q230 68 287 68 Q338 68 372 93 Q406 118 422 157 Q438 196 438 239 L438 520 L537 520 Z M302 607 Q223 607 182.5 644 Q142 681 131 761 L195 769 Q206 714 228.5 688.5 Q251 663 302 662 Q353 662 375.5 688 Q398 714 409 769 L473 761 Q462 681 421.5 644 Q381 607 302 607 Z " />
<glyph glyph-name="ucircumflex" unicode="&#xfb;" horiz-adv-x="610" d="M537 520 L537 0 L450 0 L443 89 Q382 -8 257 -8 Q170 -8 118.5 39.5 Q67 87 67 192 L67 520 L166 520 L166 202 Q166 136 198 102 Q230 68 287 68 Q338 68 372 93 Q406 118 422 157 Q438 196 438 239 L438 520 L537 520 Z M387 599 L303 720 L222 599 L136 599 L255 763 L353 763 L473 599 L387 599 Z " />
<glyph glyph-name="udieresis" unicode="&#xfc;" horiz-adv-x="610" d="M537 520 L537 0 L450 0 L443 89 Q382 -8 257 -8 Q170 -8 118.5 39.5 Q67 87 67 192 L67 520 L166 520 L166 202 Q166 136 198 102 Q230 68 287 68 Q338 68 372 93 Q406 118 422 157 Q438 196 438 239 L438 520 L537 520 Z M198 604 Q172 604 157.5 618 Q143 632 143 658 Q143 683 157.5 696.5 Q172 710 199 710 Q255 710 255 658 Q255 604 198 604 Z M407 604 Q380 604 366 618 Q352 632 352 658 Q352 710 407 710 Q463 710 463 658 Q463 604 407 604 Z " />
<glyph glyph-name="ugrave" unicode="&#xf9;" horiz-adv-x="610" d="M537 520 L537 0 L450 0 L443 89 Q382 -8 257 -8 Q170 -8 118.5 39.5 Q67 87 67 192 L67 520 L166 520 L166 202 Q166 136 198 102 Q230 68 287 68 Q338 68 372 93 Q406 118 422 157 Q438 196 438 239 L438 520 L537 520 Z M353 600 L279 600 L191 770 L283 770 L353 600 Z " />
<glyph glyph-name="uhungarumlaut" unicode="&#x171;" horiz-adv-x="610" d="M537 520 L537 0 L450 0 L443 89 Q382 -8 257 -8 Q170 -8 118.5 39.5 Q67 87 67 192 L67 520 L166 520 L166 202 Q166 136 198 102 Q230 68 287 68 Q338 68 372 93 Q406 118 422 157 Q438 196 438 239 L438 520 L537 520 Z M248 600 L174 600 L247 770 L340 770 L248 600 Z M405 600 L331 600 L404 770 L497 770 L405 600 Z " />
<glyph glyph-name="umacron" unicode="&#x16b;" horiz-adv-x="610" d="M537 520 L537 0 L450 0 L443 89 Q382 -8 257 -8 Q170 -8 118.5 39.5 Q67 87 67 192 L67 520 L166 520 L166 202 Q166 136 198 102 Q230 68 287 68 Q338 68 372 93 Q406 118 422 157 Q438 196 438 239 L438 520 L537 520 Z M461 635 L145 635 L145 697 L461 697 L461 635 Z " />
<glyph glyph-name="uogonek" unicode="&#x173;" horiz-adv-x="610" d="M537 520 L537 0 L450 0 L443 89 Q382 -8 257 -8 Q170 -8 118.5 39.5 Q67 87 67 192 L67 520 L166 520 L166 202 Q166 136 198 102 Q230 68 287 68 Q338 68 372 93 Q406 118 422 157 Q438 196 438 239 L438 520 L537 520 Z M484 -175 Q432 -175 399 -155 Q366 -135 366 -88 Q366 8 518 25 L536 0 Q485 -7 460.5 -20.5 Q436 -34 436 -62 Q436 -89 454.5 -100 Q473 -111 496 -111 Q528 -111 565 -100 L566 -164 Q529 -175 484 -175 Z " />
<glyph glyph-name="uring" unicode="&#x16f;" horiz-adv-x="610" d="M537 520 L537 0 L450 0 L443 89 Q382 -8 257 -8 Q170 -8 118.5 39.5 Q67 87 67 192 L67 520 L166 520 L166 202 Q166 136 198 102 Q230 68 287 68 Q338 68 372 93 Q406 118 422 157 Q438 196 438 239 L438 520 L537 520 Z M302 596 Q254 596 222.5 623 Q191 650 191 700 Q191 750 222.5 777 Q254 804 302 804 Q351 804 382.5 777 Q414 750 414 700 Q414 650 382.5 623 Q351 596 302 596 Z M302 639 Q326 639 343 654.5 Q360 670 360 700 Q360 731 343 745.5 Q326 760 302 760 Q278 760 261.5 745.5 Q245 731 245 700 Q245 670 261.5 654.5 Q278 639 302 639 Z " />
<glyph glyph-name="utilde" unicode="&#x169;" horiz-adv-x="610" d="M537 520 L537 0 L450 0 L443 89 Q382 -8 257 -8 Q170 -8 118.5 39.5 Q67 87 67 192 L67 520 L166 520 L166 202 Q166 136 198 102 Q230 68 287 68 Q338 68 372 93 Q406 118 422 157 Q438 196 438 239 L438 520 L537 520 Z M372 611 Q341 611 297 635 Q289 638 274.5 645 Q260 652 248 656 Q236 660 225 660 Q191 660 170 620 L133 636 Q148 681 174.5 704 Q201 727 237 727 Q269 727 313 704 Q321 700 335 693 Q349 686 361 682 Q373 678 384 678 Q404 678 416.5 689.5 Q429 701 439 719 L476 702 Q462 657 435.5 634 Q409 611 372 611 Z " />
<glyph glyph-name="v" unicode="v" horiz-adv-x="530" d="M518 520 L322 0 L207 0 L11 520 L115 520 L268 92 L271 92 L426 520 L518 520 Z " />
<glyph glyph-name="w" unicode="w" horiz-adv-x="806" d="M789 520 L636 0 L525 0 L404 382 L402 382 L282 0 L170 0 L17 520 L116 520 L232 101 L235 101 L359 515 L452 515 L581 101 L583 101 L700 520 L789 520 Z " />
<glyph glyph-name="wacute" unicode="&#x1e83;" horiz-adv-x="806" d="M789 520 L636 0 L525 0 L404 382 L402 382 L282 0 L170 0 L17 520 L116 520 L232 101 L235 101 L359 515 L452 515 L581 101 L583 101 L700 520 L789 520 Z M418 600 L344 600 L427 770 L521 770 L418 600 Z " />
<glyph glyph-name="wcircumflex" unicode="&#x175;" horiz-adv-x="806" d="M789 520 L636 0 L525 0 L404 382 L402 382 L282 0 L170 0 L17 520 L116 520 L232 101 L235 101 L359 515 L452 515 L581 101 L583 101 L700 520 L789 520 Z M488 599 L404 720 L323 599 L237 599 L356 763 L454 763 L574 599 L488 599 Z " />
<glyph glyph-name="wdieresis" unicode="&#x1e85;" horiz-adv-x="806" d="M789 520 L636 0 L525 0 L404 382 L402 382 L282 0 L170 0 L17 520 L116 520 L232 101 L235 101 L359 515 L452 515 L581 101 L583 101 L700 520 L789 520 Z M299 604 Q273 604 258.5 618 Q244 632 244 658 Q244 683 258.5 696.5 Q273 710 300 710 Q356 710 356 658 Q356 604 299 604 Z M508 604 Q481 604 467 618 Q453 632 453 658 Q453 710 508 710 Q564 710 564 658 Q564 604 508 604 Z " />
<glyph glyph-name="wgrave" unicode="&#x1e81;" horiz-adv-x="806" d="M789 520 L636 0 L525 0 L404 382 L402 382 L282 0 L170 0 L17 520 L116 520 L232 101 L235 101 L359 515 L452 515 L581 101 L583 101 L700 520 L789 520 Z M454 600 L380 600 L292 770 L384 770 L454 600 Z " />
<glyph glyph-name="x" unicode="x" horiz-adv-x="529" d="M406 0 L264 203 L117 0 L13 0 L202 257 L16 520 L127 520 L266 327 L409 520 L511 520 L327 270 L518 0 L406 0 Z " />
<glyph glyph-name="y" unicode="y" horiz-adv-x="539" d="M531 520 L264 -170 L160 -170 L225 -6 L8 520 L114 520 L280 97 L434 520 L531 520 Z " />
<glyph glyph-name="yacute" unicode="&#xfd;" horiz-adv-x="539" d="M531 520 L264 -170 L160 -170 L225 -6 L8 520 L114 520 L280 97 L434 520 L531 520 Z M318 600 L244 600 L327 770 L421 770 L318 600 Z " />
<glyph glyph-name="ycircumflex" unicode="&#x177;" horiz-adv-x="539" d="M531 520 L264 -170 L160 -170 L225 -6 L8 520 L114 520 L280 97 L434 520 L531 520 Z M362 599 L278 720 L197 599 L111 599 L230 763 L328 763 L448 599 L362 599 Z " />
<glyph glyph-name="ydieresis" unicode="&#xff;" horiz-adv-x="539" d="M531 520 L264 -170 L160 -170 L225 -6 L8 520 L114 520 L280 97 L434 520 L531 520 Z M180 604 Q154 604 139.5 618 Q125 632 125 658 Q125 683 139.5 696.5 Q154 710 181 710 Q237 710 237 658 Q237 604 180 604 Z M389 604 Q362 604 348 618 Q334 632 334 658 Q334 710 389 710 Q445 710 445 658 Q445 604 389 604 Z " />
<glyph glyph-name="ygrave" unicode="&#x1ef3;" horiz-adv-x="539" d="M531 520 L264 -170 L160 -170 L225 -6 L8 520 L114 520 L280 97 L434 520 L531 520 Z M335 600 L261 600 L173 770 L265 770 L335 600 Z " />
<glyph glyph-name="z" unicode="z" horiz-adv-x="512" d="M474 440 L151 69 L318 71 L474 71 L474 0 L34 0 L34 79 L363 452 L182 449 L41 449 L41 520 L474 520 L474 440 Z " />
<glyph glyph-name="zacute" unicode="&#x17a;" horiz-adv-x="512" d="M474 440 L151 69 L318 71 L474 71 L474 0 L34 0 L34 79 L363 452 L182 449 L41 449 L41 520 L474 520 L474 440 Z M284 600 L210 600 L293 770 L387 770 L284 600 Z " />
<glyph glyph-name="zcaron" unicode="&#x17e;" horiz-adv-x="512" d="M474 440 L151 69 L318 71 L474 71 L474 0 L34 0 L34 79 L363 452 L182 449 L41 449 L41 520 L474 520 L474 440 Z M425 763 L305 599 L207 599 L88 763 L174 763 L255 642 L339 763 L425 763 Z " />
<glyph glyph-name="zdotaccent" unicode="&#x17c;" horiz-adv-x="512" d="M474 440 L151 69 L318 71 L474 71 L474 0 L34 0 L34 79 L363 452 L182 449 L41 449 L41 520 L474 520 L474 440 Z M257 624 Q201 624 201 673 Q201 722 257 722 Q314 722 314 673 Q314 624 257 624 Z " />
<glyph glyph-name="ordfeminine" unicode="&#xaa;" horiz-adv-x="487" d="M400 392 Q408 392 428 397 L428 345 Q420 342 404 339.5 Q388 337 377 337 Q353 337 334 349 Q315 361 315 386 L315 389 Q299 365 268 350.5 Q237 336 198 336 Q140 336 103.5 363 Q67 390 67 445 Q67 557 221 557 Q261 557 306 552 L306 577 Q306 614 287 633 Q268 652 223 652 Q169 652 90 629 L86 691 Q117 699 159.5 705 Q202 711 236 711 Q309 711 342.5 681 Q376 651 376 590 L376 414 Q376 392 400 392 Z M306 512 Q253 517 241 517 Q191 517 160.5 503 Q130 489 130 450 Q130 418 152 400.5 Q174 383 210 383 Q252 383 279 407 Q306 431 306 472 L306 512 Z M70 259 L425 259 L425 197 L70 197 L70 259 Z " />
<glyph glyph-name="ordmasculine" unicode="&#xba;" horiz-adv-x="490" d="M245 337 Q164 337 114.5 385.5 Q65 434 65 520 Q65 609 114 659.5 Q163 710 245 710 Q327 710 375.5 659.5 Q424 609 424 520 Q424 435 374.5 386 Q325 337 245 337 Z M245 398 Q296 398 324 431.5 Q352 465 352 523 Q352 582 323 615.5 Q294 649 245 649 Q195 649 166.5 616 Q138 583 138 524 Q138 465 166 431.5 Q194 398 245 398 Z M75 257 L416 257 L416 197 L75 197 L75 257 Z " />
<glyph glyph-name="zero" unicode="0" horiz-adv-x="678" d="M339 -10 Q250 -10 187 34 Q124 78 91 159 Q58 240 58 350 Q58 459 91 540.5 Q124 622 187.5 666 Q251 710 340 710 Q428 710 491 666 Q554 622 587 541.5 Q620 461 620 352 Q620 242 587 160.5 Q554 79 490.5 34.5 Q427 -10 339 -10 Z M340 77 Q513 77 513 350 Q513 482 470.5 552.5 Q428 623 339 623 Q251 623 208 552.5 Q165 482 165 351 Q165 218 208 147.5 Q251 77 340 77 Z " />
<glyph glyph-name="one" unicode="1" horiz-adv-x="384" d="M294 704 L294 0 L192 0 L192 614 L19 554 L15 637 L208 704 L294 704 Z " />
<glyph glyph-name="two" unicode="2" horiz-adv-x="575" d="M355 227 Q253 139 216.5 115 Q180 91 173 86 L519 86 L519 0 L41 0 L41 77 Q156 175 210 217 Q261 258 271 267 Q320 309 349.5 339.5 Q379 370 396 405.5 Q413 441 413 484 Q413 547 373.5 585 Q334 623 256 623 Q178 623 49 572 L41 666 Q94 687 155 698 Q216 709 270 709 Q388 709 454 653.5 Q520 598 520 494 Q520 421 482.5 362 Q445 303 355 227 Z " />
<glyph glyph-name="three" unicode="3" horiz-adv-x="578" d="M377 365 Q447 352 487 306 Q527 260 527 190 Q527 91 452.5 41.5 Q378 -8 254 -8 Q193 -8 136.5 1.5 Q80 11 43 27 L52 113 Q101 96 146.5 84.5 Q192 73 241 73 Q317 73 366 104 Q415 135 415 200 Q415 268 362.5 299 Q310 330 237 330 L172 330 L172 406 L239 406 Q303 406 349.5 435 Q396 464 396 522 Q396 578 353.5 603.5 Q311 629 247 629 Q203 629 151.5 616 Q100 603 63 588 L53 672 Q85 686 145.5 698 Q206 710 267 710 Q379 710 441.5 665 Q504 620 504 536 Q504 477 471.5 431 Q439 385 377 365 Z " />
<glyph glyph-name="four" unicode="4" horiz-adv-x="592" d="M554 239 L554 161 L471 161 L471 0 L373 0 L373 161 L18 161 L18 236 L373 704 L471 704 L471 239 L554 239 Z M373 239 L373 572 L121 239 L373 239 Z " />
<glyph glyph-name="five" unicode="5" horiz-adv-x="586" d="M309 432 Q415 432 479.5 375.5 Q544 319 544 220 Q544 114 471 52.5 Q398 -9 271 -9 Q148 -9 55 32 L62 120 Q165 71 254 71 Q338 71 387.5 109.5 Q437 148 437 219 Q437 285 394.5 320 Q352 355 283 355 Q236 355 206.5 339 Q177 323 151 300 L72 317 L72 700 L509 700 L509 615 L159 615 L159 384 Q219 432 309 432 Z " />
<glyph glyph-name="six" unicode="6" horiz-adv-x="643" d="M368 447 Q473 447 538 389.5 Q603 332 603 226 Q603 115 530 53.5 Q457 -8 336 -8 Q168 -8 98 127 Q51 213 51 336 Q51 418 72 489 Q93 560 134 610 Q172 658 229.5 684 Q287 710 372 710 Q422 710 472 701 Q522 692 562 677 L552 593 Q514 609 469.5 619.5 Q425 630 380 630 Q315 630 272.5 608 Q230 586 202 545 Q159 481 156 368 Q156 346 157 336 Q183 387 237.5 417 Q292 447 368 447 Z M336 70 Q408 70 451 111.5 Q494 153 494 223 Q494 291 451.5 331.5 Q409 372 338 372 Q286 372 248.5 350.5 Q211 329 192 294 Q173 259 173 218 Q173 192 183 165 Q199 120 239.5 95 Q280 70 336 70 Z " />
<glyph glyph-name="seven" unicode="7" horiz-adv-x="512" d="M494 700 L494 605 L228 0 L107 0 L394 613 L18 613 L18 700 L494 700 Z " />
<glyph glyph-name="eight" unicode="8" horiz-adv-x="637" d="M441 371 Q508 352 548.5 306.5 Q589 261 589 188 Q589 90 515.5 40 Q442 -10 320 -10 Q198 -10 123.5 40.5 Q49 91 49 190 Q49 261 88.5 306.5 Q128 352 196 371 Q143 388 110.5 429.5 Q78 471 78 529 Q78 615 143.5 662.5 Q209 710 319 710 Q428 710 494 662 Q560 614 560 529 Q560 470 527 429 Q494 388 441 371 Z M319 634 Q254 634 217 604 Q180 574 180 518 Q180 469 216 436.5 Q252 404 319 404 Q386 404 422 436.5 Q458 469 458 518 Q458 574 421 604 Q384 634 319 634 Z M320 68 Q392 68 437 101.5 Q482 135 482 199 Q482 260 438.5 296.5 Q395 333 320 333 Q244 333 200.5 296.5 Q157 260 157 199 Q157 135 202 101.5 Q247 68 320 68 Z " />
<glyph glyph-name="nine" unicode="9" horiz-adv-x="644" d="M547 575 Q593 488 593 364 Q593 285 572 214 Q551 143 510 92 Q432 -8 273 -8 Q222 -8 170.5 1.5 Q119 11 80 26 L88 113 Q185 73 265 73 Q330 73 372.5 94.5 Q415 116 442 157 Q485 221 488 332 Q488 359 487 371 Q461 317 407 286 Q353 255 277 255 Q172 255 106.5 312.5 Q41 370 41 476 Q41 587 113.5 648.5 Q186 710 307 710 Q396 710 454 675 Q512 640 547 575 Z M307 330 Q359 330 396 351.5 Q433 373 452 408 Q471 443 471 484 Q471 513 462 537 Q446 582 405 607.5 Q364 633 309 633 Q237 633 194 591 Q151 549 151 479 Q151 411 193.5 370.5 Q236 330 307 330 Z " />
<glyph glyph-name="fraction" unicode="&#x2044;" horiz-adv-x="127" d="M-128 0 L-210 0 L255 720 L337 720 L-128 0 Z " />
<glyph glyph-name="asterisk" unicode="&#x2a;" horiz-adv-x="415" d="M230 584 L333 658 L366 602 L251 550 L366 496 L333 440 L230 514 L241 389 L179 389 L191 514 L87 440 L54 496 L169 550 L55 602 L87 658 L191 584 L179 710 L241 710 L230 584 Z " />
<glyph glyph-name="backslash" unicode="&#x5c;" horiz-adv-x="508" d="M493 -170 L412 -170 L15 802 L98 802 L493 -170 Z " />
<glyph glyph-name="middot" unicode="&#xb7;" horiz-adv-x="245" d="M122 240 Q92 240 75 256.5 Q58 273 58 301 Q58 327 75.5 344 Q93 361 122 361 Q153 361 169.5 344.5 Q186 328 186 301 Q186 274 169.5 257 Q153 240 122 240 Z " />
<glyph glyph-name="bullet" unicode="&#x2022;" horiz-adv-x="362" d="M181 249 Q138 249 109.5 275 Q81 301 81 346 Q81 391 109.5 417 Q138 443 181 443 Q224 443 252 417.5 Q280 392 280 346 Q280 300 252 274.5 Q224 249 181 249 Z " />
<glyph glyph-name="colon" unicode="&#x3a;" horiz-adv-x="253" d="M125 350 Q96 350 79 365.5 Q62 381 62 410 Q62 437 79.5 454 Q97 471 125 471 Q154 471 172 454 Q190 437 190 410 Q190 381 172.5 365.5 Q155 350 125 350 Z M125 -10 Q96 -10 79 6 Q62 22 62 51 Q62 78 79.5 95 Q97 112 125 112 Q154 112 172 95 Q190 78 190 51 Q190 22 172.5 6 Q155 -10 125 -10 Z " />
<glyph glyph-name="comma" unicode="&#x2c;" horiz-adv-x="242" d="M116 112 Q148 112 170 86 Q192 60 192 15 Q192 -37 161.5 -76 Q131 -115 87 -139 L63 -102 Q91 -84 112.5 -57 Q134 -30 135 7 L135 15 Q126 -4 105 -4 Q79 -4 65.5 10.5 Q52 25 52 51 Q52 79 69 95.5 Q86 112 116 112 Z " />
<glyph glyph-name="ellipsis" unicode="&#x2026;" horiz-adv-x="750" d="M115 -10 Q86 -10 68.5 6 Q51 22 51 51 Q51 78 69 95 Q87 112 115 112 Q144 112 162 95 Q180 78 180 51 Q180 22 162 6 Q144 -10 115 -10 Z M375 -10 Q346 -10 328.5 6 Q311 22 311 51 Q311 78 329 95 Q347 112 375 112 Q403 112 421 95 Q439 78 439 51 Q439 22 421.5 6 Q404 -10 375 -10 Z M634 -10 Q605 -10 587.5 6 Q570 22 570 51 Q570 78 588 95 Q606 112 634 112 Q663 112 681 95 Q699 78 699 51 Q699 22 681 6 Q663 -10 634 -10 Z " />
<glyph glyph-name="exclam" unicode="&#x21;" horiz-adv-x="262" d="M75 700 L188 700 L173 193 L91 193 L75 700 Z M130 -10 Q102 -10 85.5 4 Q69 18 69 47 Q69 74 86 88.5 Q103 103 130 103 Q158 103 174.5 89 Q191 75 191 47 Q191 18 174.5 4 Q158 -10 130 -10 Z " />
<glyph glyph-name="exclamdown" unicode="&#xa1;" horiz-adv-x="248" d="M124 414 Q96 414 79.5 428.5 Q63 443 63 471 Q63 500 79.5 514 Q96 528 124 528 Q152 528 168.5 514 Q185 500 185 471 Q185 443 168.5 428.5 Q152 414 124 414 Z M83 324 L164 324 L180 -185 L67 -185 L83 324 Z " />
<glyph glyph-name="numbersign" unicode="&#x23;" horiz-adv-x="724" d="M551 450 L514 243 L640 243 L640 162 L500 162 L471 0 L384 0 L413 162 L238 162 L209 0 L121 0 L150 162 L35 162 L35 243 L164 243 L201 450 L83 450 L83 530 L216 530 L246 700 L334 700 L304 530 L479 530 L509 700 L596 700 L566 530 L689 530 L689 450 L551 450 Z M464 450 L289 450 L252 243 L427 243 L464 450 Z " />
<glyph glyph-name="period" unicode="&#x2e;" horiz-adv-x="232" d="M115 -10 Q85 -10 68 7 Q51 24 51 51 Q51 78 68.5 95 Q86 112 115 112 Q146 112 163 95 Q180 78 180 51 Q180 24 163 7 Q146 -10 115 -10 Z " />
<glyph glyph-name="question" unicode="&#x3f;" horiz-adv-x="454" d="M146 260 Q147 297 161 324.5 Q175 352 194.5 371 Q214 390 245 414 Q286 446 305.5 470 Q325 494 325 531 Q325 577 291 604.5 Q257 632 200 632 Q132 632 38 588 L25 669 Q115 710 208 710 Q300 710 362.5 666.5 Q425 623 425 536 Q425 495 410.5 465.5 Q396 436 375 416.5 Q354 397 320 372 Q277 341 256.5 317 Q236 293 235 255 L234 224 L235 193 L146 193 L146 260 Z M192 -10 Q164 -10 147.5 4 Q131 18 131 47 Q131 74 148 88.5 Q165 103 192 103 Q220 103 236.5 89 Q253 75 253 47 Q253 18 236.5 4 Q220 -10 192 -10 Z " />
<glyph glyph-name="questiondown" unicode="&#xbf;" horiz-adv-x="449" d="M259 414 Q232 414 215 428.5 Q198 443 198 471 Q198 500 214.5 514 Q231 528 259 528 Q287 528 303.5 514 Q320 500 320 471 Q320 443 303.5 428.5 Q287 414 259 414 Z M243 -192 Q151 -192 89 -148.5 Q27 -105 27 -18 Q27 23 41.5 52.5 Q56 82 76.5 101.5 Q97 121 131 145 Q173 175 194.5 200 Q216 225 217 263 L217 324 L306 324 L306 257 Q304 205 279 172.5 Q254 140 208 105 Q166 72 146.5 47.5 Q127 23 127 -14 Q127 -60 160.5 -87 Q194 -114 250 -114 Q323 -114 413 -70 L427 -151 Q336 -192 243 -192 Z " />
<glyph glyph-name="quotedbl" unicode="&#x22;" horiz-adv-x="383" d="M135 466 L66 466 L64 700 L159 700 L135 466 Z M308 466 L238 466 L236 700 L331 700 L308 466 Z " />
<glyph glyph-name="quotesingle" unicode="&#x27;" horiz-adv-x="210" d="M137 474 L64 474 L63 700 L157 700 L137 474 Z " />
<glyph glyph-name="semicolon" unicode="&#x3b;" horiz-adv-x="275" d="M132 350 Q103 350 85.5 365.5 Q68 381 68 410 Q68 437 86 454 Q104 471 132 471 Q161 471 179 454 Q197 437 197 410 Q197 381 179.5 365.5 Q162 350 132 350 Z M134 112 Q165 112 187 86 Q209 60 209 15 Q209 -37 179 -76 Q149 -115 105 -139 L81 -102 Q109 -84 130 -57 Q151 -30 152 7 L152 14 Q143 -4 122 -4 Q96 -4 83 10.5 Q70 25 70 51 Q70 79 87 95.5 Q104 112 134 112 Z " />
<glyph glyph-name="slash" unicode="&#x2f;" horiz-adv-x="511" d="M99 -170 L15 -170 L411 802 L496 802 L99 -170 Z " />
<glyph glyph-name="underscore" unicode="&#x5f;" horiz-adv-x="450" d="M460 -140 L-10 -140 L-10 -70 L460 -70 L460 -140 Z " />
<glyph glyph-name="braceleft" unicode="&#x7b;" horiz-adv-x="342" d="M200 386 Q200 340 179 313 Q158 286 122 281 Q158 276 179 249 Q200 222 200 176 L200 -27 Q200 -66 217 -84 Q234 -102 272 -102 L315 -102 L315 -170 L253 -170 Q170 -170 139 -131.5 Q108 -93 108 -23 L108 182 Q108 249 48 249 L30 249 L30 313 L48 313 Q108 313 108 380 L108 585 Q108 655 139 693.5 Q170 732 253 732 L315 732 L315 664 L272 664 Q234 664 217 646 Q200 628 200 589 L200 386 Z " />
<glyph glyph-name="braceright" unicode="&#x7d;" horiz-adv-x="342" d="M312 313 L312 249 L293 249 Q233 249 233 182 L233 -23 Q233 -94 202.5 -132 Q172 -170 89 -170 L26 -170 L26 -102 L69 -102 Q108 -102 125 -84 Q142 -66 142 -27 L142 176 Q142 222 162.5 249 Q183 276 219 281 Q183 286 162.5 313 Q142 340 142 386 L142 589 Q142 628 125 646 Q108 664 69 664 L26 664 L26 732 L89 732 Q172 732 202.5 694 Q233 656 233 585 L233 380 Q233 313 293 313 L312 313 Z " />
<glyph glyph-name="bracketleft" unicode="&#x5b;" horiz-adv-x="311" d="M283 664 L176 664 L176 -102 L283 -102 L283 -170 L83 -170 L83 732 L283 732 L283 664 Z " />
<glyph glyph-name="bracketright" unicode="&#x5d;" horiz-adv-x="311" d="M227 -170 L27 -170 L27 -102 L133 -102 L133 664 L27 664 L27 732 L227 732 L227 -170 Z " />
<glyph glyph-name="parenleft" unicode="&#x28;" horiz-adv-x="321" d="M316 732 Q244 649 192.5 540 Q141 431 141 282 Q141 131 192 22.5 Q243 -86 316 -170 L214 -170 Q149 -101 97 15 Q45 131 45 282 Q45 431 97 547 Q149 663 214 732 L316 732 Z " />
<glyph glyph-name="parenright" unicode="&#x29;" horiz-adv-x="321" d="M107 732 Q172 663 224 547 Q276 431 276 282 Q276 131 224 15 Q172 -101 107 -170 L5 -170 Q78 -86 129 22.5 Q180 131 180 282 Q180 431 128.5 540 Q77 649 5 732 L107 732 Z " />
<glyph glyph-name="emdash" unicode="&#x2014;" horiz-adv-x="894" d="M830 230 L64 230 L64 304 L830 304 L830 230 Z " />
<glyph glyph-name="endash" unicode="&#x2013;" horiz-adv-x="598" d="M534 230 L64 230 L64 304 L534 304 L534 230 Z " />
<glyph glyph-name="hyphen" unicode="&#x2d;" horiz-adv-x="478" d="M413 230 L64 230 L64 304 L413 304 L413 230 Z " />
<glyph glyph-name="guillemotleft" unicode="&#xab;" horiz-adv-x="492" d="M238 483 L117 260 L238 37 L158 37 L37 260 L157 483 L238 483 Z M329 260 L451 37 L370 37 L250 260 L369 483 L451 483 L329 260 Z " />
<glyph glyph-name="guillemotright" unicode="&#xbb;" horiz-adv-x="492" d="M122 483 L242 260 L122 37 L41 37 L163 260 L41 483 L122 483 Z M455 260 L335 37 L253 37 L376 260 L253 483 L335 483 L455 260 Z " />
<glyph glyph-name="guilsinglleft" unicode="&#x2039;" horiz-adv-x="280" d="M117 260 L238 37 L158 37 L37 260 L157 483 L238 483 L117 260 Z " />
<glyph glyph-name="guilsinglright" unicode="&#x203a;" horiz-adv-x="280" d="M242 260 L122 37 L41 37 L163 260 L41 483 L122 483 L242 260 Z " />
<glyph glyph-name="quotedblbase" unicode="&#x201e;" horiz-adv-x="408" d="M108 100 Q138 100 157.5 77 Q177 54 177 13 Q177 -35 149 -69.5 Q121 -104 76 -126 L56 -93 Q126 -55 126 7 Q126 16 125 20 Q120 0 98 0 Q76 0 64 12.5 Q52 25 52 47 Q52 70 67.5 85 Q83 100 108 100 Z M287 100 Q317 100 336.5 77 Q356 54 356 13 Q356 -35 328 -69.5 Q300 -104 255 -126 L235 -93 Q305 -55 305 7 Q305 16 304 20 Q299 0 277 0 Q255 0 243 12.5 Q231 25 231 47 Q231 70 246.5 85 Q262 100 287 100 Z " />
<glyph glyph-name="quotedblleft" unicode="&#x201c;" horiz-adv-x="402" d="M125 573 Q147 573 159 560.5 Q171 548 171 526 Q171 503 155 488.5 Q139 474 114 474 Q84 474 65 497.5 Q46 521 46 562 Q46 609 73.5 643.5 Q101 678 147 700 L167 667 Q97 628 97 568 Q97 559 98 554 Q103 573 125 573 Z M305 573 Q327 573 339 560.5 Q351 548 351 526 Q351 503 335.5 488.5 Q320 474 295 474 Q264 474 245 497.5 Q226 521 226 562 Q226 609 253.5 643.5 Q281 678 327 700 L347 667 Q277 628 277 568 Q277 559 278 555 Q283 573 305 573 Z " />
<glyph glyph-name="quotedblright" unicode="&#x201d;" horiz-adv-x="400" d="M110 700 Q139 700 159 676 Q179 652 179 612 Q179 525 78 474 L57 507 Q128 544 128 607 Q128 616 127 621 Q121 600 100 600 Q78 600 66 612.5 Q54 625 54 647 Q54 670 69.5 685 Q85 700 110 700 Z M289 700 Q319 700 338.5 676 Q358 652 358 612 Q358 525 257 474 L237 507 Q307 545 307 606 Q307 615 306 620 Q301 600 279 600 Q257 600 245 612.5 Q233 625 233 647 Q233 670 248.5 685 Q264 700 289 700 Z " />
<glyph glyph-name="quoteleft" unicode="&#x2018;" horiz-adv-x="222" d="M125 573 Q147 573 159 560.5 Q171 548 171 526 Q171 503 155 488.5 Q139 474 114 474 Q84 474 65 497.5 Q46 521 46 562 Q46 609 73.5 643.5 Q101 678 147 700 L167 667 Q97 628 97 568 Q97 559 98 555 Q103 573 125 573 Z " />
<glyph glyph-name="quoteright" unicode="&#x2019;" horiz-adv-x="220" d="M110 700 Q139 700 159 676 Q179 652 179 612 Q179 525 78 474 L57 507 Q128 544 128 607 Q128 616 127 621 Q121 600 100 600 Q78 600 66 612.5 Q54 625 54 647 Q54 671 69.5 685.5 Q85 700 110 700 Z " />
<glyph glyph-name="quotesinglbase" unicode="&#x201a;" horiz-adv-x="229" d="M108 100 Q138 100 157.5 76 Q177 52 177 12 Q177 -36 149 -70 Q121 -104 76 -126 L56 -93 Q126 -55 126 6 Q126 15 125 20 Q120 0 98 0 Q76 0 64 12.5 Q52 25 52 47 Q52 70 67.5 85 Q83 100 108 100 Z " />
<glyph glyph-name="cent" unicode="&#xa2;" horiz-adv-x="539" d="M486 102 Q418 74 343 72 L344 -8 L288 -8 L289 74 Q177 86 111.5 155.5 Q46 225 46 340 Q46 455 111.5 524.5 Q177 594 289 605 L288 689 L344 689 L343 607 Q427 605 488 582 L479 500 Q453 513 417.5 522.5 Q382 532 344 532 Q248 532 197.5 479 Q147 426 147 340 Q147 253 197.5 200.5 Q248 148 345 148 Q408 148 479 181 L486 102 Z " />
<glyph glyph-name="dollar" unicode="&#x24;" horiz-adv-x="570" d="M533 192 Q533 99 474.5 49.5 Q416 0 314 -7 L314 -97 L257 -97 L257 -6 Q192 -1 145 12.5 Q98 26 49 47 L60 138 Q97 119 161 98 Q225 77 282 77 Q424 77 424 178 Q424 215 405 237.5 Q386 260 356.5 272.5 Q327 285 273 301 L246 309 Q183 328 141 349.5 Q99 371 72 410 Q45 449 45 511 Q45 599 101 651 Q157 703 257 710 L257 795 L314 795 L314 710 Q373 706 419 693.5 Q465 681 508 664 L496 572 Q464 589 407.5 607.5 Q351 626 294 626 Q224 626 189 598.5 Q154 571 154 521 Q154 484 174.5 461.5 Q195 439 226 426.5 Q257 414 311 399 Q321 395 334 392 Q430 365 481.5 321 Q533 277 533 192 Z " />
<glyph glyph-name="Euro" unicode="&#x20ac;" horiz-adv-x="715" d="M489 625 Q385 625 320.5 574 Q256 523 235 435 L559 435 L541 388 L227 388 Q225 362 225 348 Q225 335 227 311 L512 311 L494 263 L234 263 Q255 174 319.5 124.5 Q384 75 484 75 Q527 75 556 83 Q585 91 640 110 L641 19 Q600 4 560.5 -3 Q521 -10 468 -10 Q330 -10 237.5 62 Q145 134 121 263 L34 263 L51 311 L114 311 Q113 323 113 349 Q113 362 115 388 L29 388 L47 435 L121 435 Q145 565 239 637.5 Q333 710 470 710 Q525 710 581 698 Q637 686 678 666 L661 577 Q618 599 573.5 612 Q529 625 489 625 Z " />
<glyph glyph-name="sterling" unicode="&#xa3;" horiz-adv-x="582" d="M540 78 L540 0 L47 0 L47 72 Q47 68 78.5 82.5 Q110 97 135 130 Q160 163 160 221 Q160 259 147 300 L52 300 L52 366 L124 366 Q101 433 101 485 Q101 589 168 649.5 Q235 710 350 710 Q395 710 441 700 Q487 690 524 672 L513 582 Q481 600 439 613 Q397 626 359 626 Q282 626 243 588.5 Q204 551 204 483 Q204 453 210.5 426 Q217 399 229 366 L472 366 L472 300 L252 300 Q262 263 262 227 Q262 165 235.5 127.5 Q209 90 175 78 L540 78 Z " />
<glyph glyph-name="yen" unicode="&#xa5;" horiz-adv-x="635" d="M376 280 L509 280 L509 224 L371 224 L371 164 L509 164 L509 110 L371 110 L371 0 L265 0 L265 110 L127 110 L127 164 L265 164 L265 224 L127 224 L127 280 L261 280 L13 700 L123 700 L321 359 L518 700 L624 700 L376 280 Z " />
<glyph glyph-name="plus" unicode="&#x2b;" horiz-adv-x="680" d="M374 371 L559 371 L559 301 L374 301 L374 117 L304 117 L304 301 L120 301 L120 371 L304 371 L304 555 L374 555 L374 371 Z " />
<glyph glyph-name="multiply" unicode="&#xd7;" horiz-adv-x="680" d="M340 388 L492 541 L543 488 L392 336 L545 183 L493 131 L340 284 L189 130 L137 183 L288 336 L135 488 L188 541 L340 388 Z " />
<glyph glyph-name="divide" unicode="&#xf7;" horiz-adv-x="680" d="M341 460 Q319 460 305.5 472.5 Q292 485 292 508 Q292 530 305.5 541.5 Q319 553 341 553 Q363 553 376 541.5 Q389 530 389 508 Q389 485 376 472.5 Q363 460 341 460 Z M130 371 L550 371 L550 301 L130 301 L130 371 Z M341 120 Q319 120 305.5 132.5 Q292 145 292 168 Q292 190 305.5 201.5 Q319 213 341 213 Q363 213 376 201.5 Q389 190 389 168 Q389 145 376 132.5 Q363 120 341 120 Z " />
<glyph glyph-name="equal" unicode="&#x3d;" horiz-adv-x="680" d="M527 387 L153 387 L153 458 L527 458 L527 387 Z M527 213 L153 213 L153 282 L527 282 L527 213 Z " />
<glyph glyph-name="greater" unicode="&#x3e;" horiz-adv-x="679" d="M598 378 L598 295 L113 111 L113 197 L497 337 L113 476 L113 563 L598 378 Z " />
<glyph glyph-name="less" unicode="&#x3c;" horiz-adv-x="679" d="M566 476 L183 337 L566 197 L566 111 L81 295 L81 378 L566 563 L566 476 Z " />
<glyph glyph-name="plusminus" unicode="&#xb1;" horiz-adv-x="680" d="M375 387 L550 387 L550 317 L375 317 L375 163 L304 163 L304 317 L130 317 L130 387 L304 387 L304 543 L375 543 L375 387 Z M550 46 L130 46 L130 116 L550 116 L550 46 Z " />
<glyph glyph-name="percent" unicode="&#x25;" horiz-adv-x="796" d="M595 730 L688 730 L197 -30 L104 -30 L595 730 Z M188 375 Q117 375 73 420.5 Q29 466 29 541 Q29 618 73.5 665 Q118 712 190 712 Q262 712 306 665.5 Q350 619 350 542 Q350 466 306 420.5 Q262 375 188 375 Z M189 442 Q224 442 246.5 468.5 Q269 495 269 542 Q269 589 246.5 616.5 Q224 644 189 644 Q153 644 130.5 616 Q108 588 108 542 Q108 495 131 468.5 Q154 442 189 442 Z M604 -10 Q533 -10 489 35.5 Q445 81 445 156 Q445 234 489.5 280.5 Q534 327 607 327 Q679 327 722.5 281 Q766 235 766 158 Q766 82 721.5 36 Q677 -10 604 -10 Z M607 57 Q641 57 663.5 84.5 Q686 112 686 158 Q686 205 664 232 Q642 259 607 259 Q571 259 548 231.5 Q525 204 525 158 Q525 111 548.5 84 Q572 57 607 57 Z " />
<glyph glyph-name="perthousand" unicode="&#x2030;" horiz-adv-x="1194" d="M595 730 L688 730 L197 -30 L104 -30 L595 730 Z M188 375 Q117 375 73 420.5 Q29 466 29 541 Q29 618 73.5 665 Q118 712 190 712 Q262 712 306 665.5 Q350 619 350 542 Q350 466 306 420.5 Q262 375 188 375 Z M189 442 Q224 442 246.5 468.5 Q269 495 269 542 Q269 589 246.5 616.5 Q224 644 189 644 Q153 644 130.5 616 Q108 588 108 542 Q108 495 131 468.5 Q154 442 189 442 Z M604 -10 Q533 -10 489 35.5 Q445 81 445 156 Q445 234 489.5 280.5 Q534 327 607 327 Q679 327 722.5 281 Q766 235 766 158 Q766 82 721.5 36 Q677 -10 604 -10 Z M1006 -10 Q935 -10 891 35.5 Q847 81 847 156 Q847 234 891.5 280.5 Q936 327 1009 327 Q1081 327 1124 281.5 Q1167 236 1167 158 Q1167 82 1123 36 Q1079 -10 1006 -10 Z M607 57 Q641 57 663.5 84.5 Q686 112 686 158 Q686 205 664 232 Q642 259 607 259 Q571 259 548 231.5 Q525 204 525 158 Q525 111 548.5 84 Q572 57 607 57 Z M1008 57 Q1043 57 1065.5 84.5 Q1088 112 1088 158 Q1088 204 1065.5 231.5 Q1043 259 1008 259 Q972 259 949.5 231.5 Q927 204 927 158 Q927 111 950 84 Q973 57 1008 57 Z " />
<glyph glyph-name="at" unicode="&#x40;" horiz-adv-x="946" d="M637 215 Q635 201 635 194 Q635 139 698 139 Q768 139 804 201.5 Q840 264 840 353 Q840 499 747.5 568.5 Q655 638 511 638 Q389 638 298.5 591 Q208 544 160 458 Q112 372 112 258 Q112 98 204.5 19 Q297 -60 453 -60 Q524 -60 587 -45.5 Q650 -31 692 -12 L697 -69 Q578 -113 450 -113 Q323 -113 232.5 -69 Q142 -25 94.5 58 Q47 141 47 256 Q47 384 104 483 Q161 582 266.5 637 Q372 692 512 692 Q627 692 716 654 Q805 616 855.5 539.5 Q906 463 906 352 Q906 274 880 213 Q854 152 805 118 Q756 84 690 84 Q589 84 580 165 Q533 86 431 86 Q350 86 305 135 Q260 184 260 267 Q260 324 282 374.5 Q304 425 348 456 Q392 487 456 487 Q508 487 543 465.5 Q578 444 595 408 L612 481 L683 481 L637 215 Z M448 145 Q516 145 546.5 194 Q577 243 577 307 Q577 365 550 396.5 Q523 428 469 428 Q400 428 368.5 380 Q337 332 336 272 Q336 211 365.5 178 Q395 145 448 145 Z " />
<glyph glyph-name="ampersand" unicode="&#x26;" horiz-adv-x="650" d="M575 -22 Q529 13 464 66 Q375 -10 264 -10 Q169 -10 105.5 37 Q42 84 42 175 Q42 240 75 288 Q108 336 166 377 Q107 471 107 549 Q107 599 130 635.5 Q153 672 192 691 Q231 710 277 710 Q321 710 359 692.5 Q397 675 419.5 640.5 Q442 606 442 559 Q442 511 419.5 475 Q397 439 363.5 413.5 Q330 388 278 358 Q344 275 457 177 Q502 233 543 323 L615 287 Q574 193 520 124 Q571 82 645 25 L575 -22 Z M279 634 Q243 634 217.5 610 Q192 586 192 547 Q192 489 234 420 Q281 448 305 464.5 Q329 481 345 503.5 Q361 526 361 555 Q361 592 337.5 613 Q314 634 279 634 Z M271 73 Q340 73 401 119 Q280 225 209 316 Q173 290 153.5 260.5 Q134 231 134 190 Q134 135 173 104 Q212 73 271 73 Z " />
<glyph glyph-name="paragraph" unicode="&#xb6;" horiz-adv-x="575" d="M484 -87 L411 -87 L411 626 L311 626 L311 -87 L236 -87 L236 278 L211 278 Q123 279 75 339 Q27 399 27 491 Q27 558 55 605 Q83 652 129 676 Q175 700 227 700 L484 700 L484 -87 Z " />
<glyph glyph-name="section" unicode="&#xa7;" horiz-adv-x="593" d="M466 106 Q530 61 530 -13 Q530 -89 468 -130 Q406 -171 295 -171 Q184 -171 72 -128 L81 -34 Q90 -38 131.5 -55 Q173 -72 212.5 -82.5 Q252 -93 284 -93 Q348 -93 383 -69 Q418 -45 418 -7 Q418 20 399.5 38 Q381 56 353 66.5 Q325 77 273 92 Q240 101 237 102 Q178 120 139.5 137.5 Q101 155 73.5 187 Q46 219 46 270 Q46 320 71 358.5 Q96 397 126 423 Q62 468 62 542 Q62 619 124.5 660 Q187 701 298 701 Q406 701 521 659 L511 565 Q502 569 461 585.5 Q420 602 380.5 612 Q341 622 309 622 Q245 622 210 598 Q175 574 175 537 Q175 510 193 492.5 Q211 475 238 464 Q265 453 315 439 L356 427 Q417 408 454.5 391 Q492 374 519 342 Q546 310 546 259 Q546 209 521.5 170.5 Q497 132 466 106 Z M136 288 Q136 247 170 223.5 Q204 200 271 180 L308 169 Q363 153 400 139 Q457 188 457 242 Q457 282 422 306 Q387 330 318 351 L298 357 Q222 378 191 390 Q136 341 136 288 Z " />
<glyph glyph-name="copyright" unicode="&#xa9;" horiz-adv-x="824" d="M413 -10 Q310 -10 227 35.5 Q144 81 96 163 Q48 245 48 350 Q48 455 95.5 537 Q143 619 226.5 664.5 Q310 710 413 710 Q517 710 599.5 664.5 Q682 619 729 537 Q776 455 776 350 Q776 245 728.5 163 Q681 81 598.5 35.5 Q516 -10 413 -10 Z M413 33 Q503 33 575 73 Q647 113 688 185 Q729 257 729 349 Q729 442 688 514.5 Q647 587 574.5 627 Q502 667 413 667 Q323 667 250.5 627 Q178 587 136.5 514.5 Q95 442 95 349 Q95 256 136.5 184 Q178 112 250.5 72.5 Q323 33 413 33 Z M430 163 Q341 163 286.5 213 Q232 263 232 351 Q232 439 286.5 488.5 Q341 538 431 538 Q459 538 488 533 Q517 528 538 520 L529 465 Q490 481 440 481 Q375 481 341.5 445 Q308 409 308 351 Q308 292 341.5 256.5 Q375 221 441 221 Q468 221 492 227 Q516 233 532 241 L541 185 Q493 163 430 163 Z " />
<glyph glyph-name="registered" unicode="&#xae;" horiz-adv-x="825" d="M414 710 Q517 710 600 664.5 Q683 619 730 537 Q777 455 777 350 Q777 245 729.5 163 Q682 81 599.5 35.5 Q517 -10 414 -10 Q311 -10 227.5 35.5 Q144 81 96 163.5 Q48 246 48 350 Q48 455 95.5 537 Q143 619 226.5 664.5 Q310 710 414 710 Z M414 27 Q504 27 576 68 Q648 109 689 182.5 Q730 256 730 349 Q730 443 689 516.5 Q648 590 575.5 631.5 Q503 673 414 673 Q325 673 252 631.5 Q179 590 137.5 516.5 Q96 443 96 349 Q96 255 137.5 182 Q179 109 251.5 68 Q324 27 414 27 Z M560 419 Q560 380 542.5 353 Q525 326 492 315 L555 174 L493 174 L440 307 L340 307 L340 174 L282 174 L282 530 L447 530 Q497 530 528.5 498.5 Q560 467 560 419 Z M440 357 Q470 357 487 374.5 Q504 392 504 418 Q504 449 486.5 465 Q469 481 438 481 L341 481 L341 357 L440 357 Z " />
<glyph glyph-name="trademark" unicode="&#x2122;" horiz-adv-x="760" d="M32 700 L309 700 L309 649 L203 649 L203 388 L138 388 L138 649 L32 649 L32 700 Z M684 700 L684 388 L623 388 L623 595 L542 449 L496 449 L412 593 L412 388 L350 388 L350 700 L415 700 L519 513 L619 700 L684 700 Z " />
<glyph glyph-name="degree" unicode="&#xb0;" horiz-adv-x="403" d="M202 409 Q133 409 87.5 449.5 Q42 490 42 560 Q42 630 87.5 670 Q133 710 202 710 Q271 710 316 670 Q361 630 361 560 Q361 490 316 449.5 Q271 409 202 409 Z M201 461 Q245 461 272.5 488 Q300 515 300 560 Q300 605 272.5 631.5 Q245 658 201 658 Q157 658 130 631.5 Q103 605 103 560 Q103 514 130 487.5 Q157 461 201 461 Z " />
<glyph glyph-name="bar" unicode="&#x7c;" horiz-adv-x="246" d="M164 -164 L83 -164 L83 784 L164 784 L164 -164 Z " />
<glyph glyph-name="dagger" unicode="&#x2020;" horiz-adv-x="415" d="M356 550 L238 558 L246 291 L169 291 L176 558 L58 550 L58 619 L175 612 L168 745 L246 745 L239 612 L356 619 L356 550 Z " />
<glyph glyph-name="daggerdbl" unicode="&#x2021;" horiz-adv-x="415" d="M239 621 L356 628 L356 559 L239 566 L243 485 L241 404 L356 411 L356 342 L239 349 L246 205 L169 205 L175 349 L58 342 L58 411 L173 404 L171 485 L175 566 L58 559 L58 628 L176 621 L168 745 L246 745 L239 621 Z " />
<glyph glyph-name="uni0326" unicode="&#x326;" d="M-104 -74 Q-105 -132 -112 -167.5 Q-119 -203 -133 -242 L-204 -242 Q-194 -199 -189.5 -166 Q-185 -133 -186 -74 L-104 -74 Z " />
<glyph glyph-name="acute" unicode="&#xb4;" horiz-adv-x="337" d="M168 600 L94 600 L177 770 L271 770 L168 600 Z " />
<glyph glyph-name="breve" unicode="&#x2d8;" horiz-adv-x="468" d="M234 607 Q155 607 114.5 644 Q74 681 63 761 L127 769 Q138 714 160.5 688.5 Q183 663 234 662 Q285 662 307.5 688 Q330 714 341 769 L405 761 Q394 681 353.5 644 Q313 607 234 607 Z " />
<glyph glyph-name="caron" unicode="&#x2c7;" horiz-adv-x="490" d="M414 763 L294 599 L196 599 L77 763 L163 763 L244 642 L328 763 L414 763 Z " />
<glyph glyph-name="cedilla" unicode="&#xb8;" horiz-adv-x="350" d="M179 -44 Q223 -42 256.5 -62 Q290 -82 290 -130 Q290 -180 251.5 -202.5 Q213 -225 160 -225 Q138 -225 112 -221.5 Q86 -218 68 -213 L72 -164 Q84 -169 107.5 -173.5 Q131 -178 155 -178 Q182 -178 203.5 -166.5 Q225 -155 225 -128 Q225 -78 142 -78 Q124 -78 114 -79 L143 21 L196 21 L179 -44 Z " />
<glyph glyph-name="circumflex" unicode="&#x2c6;" horiz-adv-x="490" d="M328 599 L244 720 L163 599 L77 599 L196 763 L294 763 L414 599 L328 599 Z " />
<glyph glyph-name="dieresis" unicode="&#xa8;" horiz-adv-x="500" d="M145 604 Q119 604 104.5 618 Q90 632 90 658 Q90 683 104.5 696.5 Q119 710 146 710 Q202 710 202 658 Q202 604 145 604 Z M354 604 Q327 604 313 618 Q299 632 299 658 Q299 710 354 710 Q410 710 410 658 Q410 604 354 604 Z " />
<glyph glyph-name="dotaccent" unicode="&#x2d9;" horiz-adv-x="275" d="M138 624 Q82 624 82 673 Q82 722 138 722 Q195 722 195 673 Q195 624 138 624 Z " />
<glyph glyph-name="grave" unicode="&#x60;" horiz-adv-x="344" d="M270 600 L196 600 L108 770 L200 770 L270 600 Z " />
<glyph glyph-name="hungarumlaut" unicode="&#x2dd;" horiz-adv-x="516" d="M174 600 L100 600 L173 770 L266 770 L174 600 Z M331 600 L257 600 L330 770 L423 770 L331 600 Z " />
<glyph glyph-name="overscore" unicode="&#xaf;" horiz-adv-x="500" d="M408 635 L92 635 L92 697 L408 697 L408 635 Z " />
<glyph glyph-name="ogonek" unicode="&#x2db;" horiz-adv-x="336" d="M187 -175 Q135 -175 102 -155 Q69 -135 69 -88 Q69 8 221 25 L239 0 Q188 -7 163.5 -20.5 Q139 -34 139 -62 Q139 -89 157.5 -100 Q176 -111 199 -111 Q231 -111 268 -100 L269 -164 Q232 -175 187 -175 Z " />
<glyph glyph-name="ring" unicode="&#x2da;" horiz-adv-x="367" d="M184 596 Q136 596 104.5 623 Q73 650 73 700 Q73 750 104.5 777 Q136 804 184 804 Q233 804 264.5 777 Q296 750 296 700 Q296 650 264.5 623 Q233 596 184 596 Z M184 639 Q208 639 225 654.5 Q242 670 242 700 Q242 731 225 745.5 Q208 760 184 760 Q160 760 143.5 745.5 Q127 731 127 700 Q127 670 143.5 654.5 Q160 639 184 639 Z " />
<glyph glyph-name="tilde" unicode="&#x2dc;" horiz-adv-x="491" d="M313 611 Q282 611 238 635 Q230 638 215.5 645 Q201 652 189 656 Q177 660 166 660 Q132 660 111 620 L74 636 Q89 681 115.5 704 Q142 727 178 727 Q210 727 254 704 Q262 700 276 693 Q290 686 302 682 Q314 678 325 678 Q345 678 357.5 689.5 Q370 701 380 719 L417 702 Q403 657 376.5 634 Q350 611 313 611 Z " />
</font>
</svg>
