<?xml version="1.0" encoding="UTF-8"?>
<svg xmlns="http://www.w3.org/2000/svg" xmlns:xlink="http://www.w3.org/1999/xlink" version="1.2" >
<font id="Centrale Sans Book Italic">
<font-face  font-family="Centrale Sans" units-per-em="1000" ascent="1000" descent="-360" font-style="normal" font-weight="400" font-stretch="normal" slope="-10" cap-height="700" x-height="520" underline-position="-225" underline-thickness="50" />
<missing-glyph  horiz-adv-x="670" d="M649 732 L499 -121 L28 -121 L178 732 L649 732 Z M234 682 L346 360 L570 682 L234 682 Z M98 2 L310 308 L205 609 L98 2 Z M578 609 L366 304 L471 2 L578 609 Z M442 -70 L330 252 L106 -70 L442 -70 Z " />
<glyph glyph-name="nonmarkingreturn" unicode="&#xd;" horiz-adv-x="4" d="" />
<glyph glyph-name="space" unicode="&#x20;" horiz-adv-x="273" d="" />
<glyph glyph-name="A" unicode="A" horiz-adv-x="684" d="M495 180 L149 180 L50 0 L-44 0 L351 704 L470 704 L624 0 L533 0 L495 180 Z M186 249 L483 249 L402 634 L186 249 Z " />
<glyph glyph-name="Aacute" unicode="&#xc1;" horiz-adv-x="684" d="M495 180 L149 180 L50 0 L-44 0 L351 704 L470 704 L624 0 L533 0 L495 180 Z M186 249 L483 249 L402 634 L186 249 Z M454 769 L392 769 L478 889 L555 889 L454 769 Z " />
<glyph glyph-name="Abreve" unicode="&#x102;" horiz-adv-x="684" d="M495 180 L149 180 L50 0 L-44 0 L351 704 L470 704 L624 0 L533 0 L495 180 Z M186 249 L483 249 L402 634 L186 249 Z M576 893 Q559 833 521 805.5 Q483 778 423 778 Q369 778 337 806.5 Q305 835 304 893 L355 896 Q358 824 428 824 Q502 824 526 896 L576 893 Z " />
<glyph glyph-name="Acircumflex" unicode="&#xc2;" horiz-adv-x="684" d="M495 180 L149 180 L50 0 L-44 0 L351 704 L470 704 L624 0 L533 0 L495 180 Z M186 249 L483 249 L402 634 L186 249 Z M560 770 L496 770 L431 857 L335 770 L265 770 L396 891 L472 891 L560 770 Z " />
<glyph glyph-name="Adieresis" unicode="&#xc4;" horiz-adv-x="684" d="M495 180 L149 180 L50 0 L-44 0 L351 704 L470 704 L624 0 L533 0 L495 180 Z M186 249 L483 249 L402 634 L186 249 Z M327 888 Q348 888 360 877 Q372 866 372 848 Q372 823 358.5 810 Q345 797 321 797 Q300 797 288 807.5 Q276 818 276 836 Q276 861 289.5 874.5 Q303 888 327 888 Z M534 888 Q555 888 567 877 Q579 866 579 848 Q579 823 565.5 810 Q552 797 528 797 Q507 797 495 807.5 Q483 818 483 836 Q483 861 496.5 874.5 Q510 888 534 888 Z " />
<glyph glyph-name="Agrave" unicode="&#xc0;" horiz-adv-x="684" d="M495 180 L149 180 L50 0 L-44 0 L351 704 L470 704 L624 0 L533 0 L495 180 Z M186 249 L483 249 L402 634 L186 249 Z M450 769 L389 769 L335 889 L412 889 L450 769 Z " />
<glyph glyph-name="Amacron" unicode="&#x100;" horiz-adv-x="684" d="M495 180 L149 180 L50 0 L-44 0 L351 704 L470 704 L624 0 L533 0 L495 180 Z M186 249 L483 249 L402 634 L186 249 Z M576 824 L279 824 L288 873 L585 873 L576 824 Z " />
<glyph glyph-name="Aogonek" unicode="&#x104;" horiz-adv-x="684" d="M495 180 L149 180 L50 0 L-44 0 L351 704 L470 704 L624 0 L533 0 L495 180 Z M186 249 L483 249 L402 634 L186 249 Z M554 -172 Q509 -172 480 -153.5 Q451 -135 451 -93 Q451 -34 502 -8 Q553 18 611 24 L624 0 Q573 -9 546.5 -24 Q520 -39 520 -71 Q520 -97 535.5 -107 Q551 -117 572 -117 Q601 -117 634 -106 L626 -162 Q586 -172 554 -172 Z " />
<glyph glyph-name="Aring" unicode="&#xc5;" horiz-adv-x="684" d="M495 180 L149 180 L50 0 L-44 0 L351 704 L470 704 L624 0 L533 0 L495 180 Z M186 249 L483 249 L402 634 L186 249 Z M436 979 Q482 979 511 955 Q540 931 540 884 Q540 834 508 807 Q476 780 428 780 Q385 780 355 803 Q325 826 325 875 Q325 926 356.5 952.5 Q388 979 436 979 Z M434 941 Q403 941 386 924 Q369 907 369 877 Q369 845 387 831.5 Q405 818 430 818 Q460 818 476.5 834.5 Q493 851 493 882 Q493 941 434 941 Z " />
<glyph glyph-name="Atilde" unicode="&#xc3;" horiz-adv-x="684" d="M495 180 L149 180 L50 0 L-44 0 L351 704 L470 704 L624 0 L533 0 L495 180 Z M186 249 L483 249 L402 634 L186 249 Z M374 906 Q405 906 448 881 Q468 869 481 863.5 Q494 858 509 858 Q533 858 547.5 869 Q562 880 574 899 L603 885 Q563 802 492 802 Q461 802 424 824 Q420 826 406.5 833.5 Q393 841 381 845 Q369 849 357 849 Q317 849 292 808 L263 823 Q304 906 374 906 Z " />
<glyph glyph-name="AE" unicode="&#xc6;" horiz-adv-x="997" d="M607 631 L562 376 L909 376 L897 306 L550 306 L508 69 L924 69 L911 0 L406 0 L441 192 L177 192 L39 0 L-63 0 L451 700 L1022 700 L1009 631 L607 631 Z M518 631 L492 631 L228 263 L453 263 L518 631 Z " />
<glyph glyph-name="AEacute" unicode="&#x1fc;" horiz-adv-x="997" d="M607 631 L562 376 L909 376 L897 306 L550 306 L508 69 L924 69 L911 0 L406 0 L441 192 L177 192 L39 0 L-63 0 L451 700 L1022 700 L1009 631 L607 631 Z M518 631 L492 631 L228 263 L453 263 L518 631 Z M741 769 L679 769 L765 889 L842 889 L741 769 Z " />
<glyph glyph-name="B" unicode="B" horiz-adv-x="700" d="M507 358 Q561 344 596.5 303 Q632 262 632 197 Q632 138 602 93.5 Q572 49 518.5 24.5 Q465 0 396 0 L43 0 L166 700 L469 700 Q521 700 562 678 Q603 656 626.5 617 Q650 578 650 529 Q650 458 607 413 Q564 368 507 358 Z M199 388 L426 388 Q484 388 523 423.5 Q562 459 562 515 Q562 565 528.5 598.5 Q495 632 442 632 L242 632 L199 388 Z M394 68 Q434 68 467.5 85.5 Q501 103 520.5 134.5 Q540 166 540 205 Q540 253 509.5 288 Q479 323 428 323 L187 323 L142 68 L394 68 Z " />
<glyph glyph-name="C" unicode="C" horiz-adv-x="675" d="M481 709 Q544 709 601.5 699.5 Q659 690 699 674 L679 596 Q643 613 589.5 624.5 Q536 636 481 636 Q371 636 298 594.5 Q225 553 189.5 482.5 Q154 412 154 325 Q154 200 225.5 131.5 Q297 63 418 63 Q463 63 511.5 73 Q560 83 603 102 L600 25 Q509 -9 412 -9 Q307 -9 227.5 28 Q148 65 104 138 Q60 211 60 317 Q60 432 110.5 520.5 Q161 609 256.5 659 Q352 709 481 709 Z " />
<glyph glyph-name="Cacute" unicode="&#x106;" horiz-adv-x="675" d="M481 709 Q544 709 601.5 699.5 Q659 690 699 674 L679 596 Q643 613 589.5 624.5 Q536 636 481 636 Q371 636 298 594.5 Q225 553 189.5 482.5 Q154 412 154 325 Q154 200 225.5 131.5 Q297 63 418 63 Q463 63 511.5 73 Q560 83 603 102 L600 25 Q509 -9 412 -9 Q307 -9 227.5 28 Q148 65 104 138 Q60 211 60 317 Q60 432 110.5 520.5 Q161 609 256.5 659 Q352 709 481 709 Z M506 769 L444 769 L530 889 L607 889 L506 769 Z " />
<glyph glyph-name="Ccaron" unicode="&#x10c;" horiz-adv-x="675" d="M481 709 Q544 709 601.5 699.5 Q659 690 699 674 L679 596 Q643 613 589.5 624.5 Q536 636 481 636 Q371 636 298 594.5 Q225 553 189.5 482.5 Q154 412 154 325 Q154 200 225.5 131.5 Q297 63 418 63 Q463 63 511.5 73 Q560 83 603 102 L600 25 Q509 -9 412 -9 Q307 -9 227.5 28 Q148 65 104 138 Q60 211 60 317 Q60 432 110.5 520.5 Q161 609 256.5 659 Q352 709 481 709 Z M502 770 L426 770 L340 891 L404 891 L467 806 L564 891 L635 891 L502 770 Z " />
<glyph glyph-name="Ccedilla" unicode="&#xc7;" horiz-adv-x="675" d="M481 709 Q544 709 601.5 699.5 Q659 690 699 674 L679 596 Q643 613 589.5 624.5 Q536 636 481 636 Q371 636 298 594.5 Q225 553 189.5 482.5 Q154 412 154 325 Q154 200 225.5 131.5 Q297 63 418 63 Q463 63 511.5 73 Q560 83 603 102 L600 25 Q509 -9 412 -9 Q307 -9 227.5 28 Q148 65 104 138 Q60 211 60 317 Q60 432 110.5 520.5 Q161 609 256.5 659 Q352 709 481 709 Z M347 -44 Q386 -42 414 -59.5 Q442 -77 442 -119 Q442 -172 398.5 -197 Q355 -222 299 -222 Q278 -222 254.5 -218.5 Q231 -215 215 -210 L225 -168 Q237 -173 259 -177 Q281 -181 305 -181 Q335 -181 360.5 -167.5 Q386 -154 386 -120 Q386 -77 311 -77 Q293 -77 283 -78 L330 20 L376 20 L347 -44 Z " />
<glyph glyph-name="Ccircumflex" unicode="&#x108;" horiz-adv-x="675" d="M481 709 Q544 709 601.5 699.5 Q659 690 699 674 L679 596 Q643 613 589.5 624.5 Q536 636 481 636 Q371 636 298 594.5 Q225 553 189.5 482.5 Q154 412 154 325 Q154 200 225.5 131.5 Q297 63 418 63 Q463 63 511.5 73 Q560 83 603 102 L600 25 Q509 -9 412 -9 Q307 -9 227.5 28 Q148 65 104 138 Q60 211 60 317 Q60 432 110.5 520.5 Q161 609 256.5 659 Q352 709 481 709 Z M612 770 L548 770 L483 857 L387 770 L317 770 L448 891 L524 891 L612 770 Z " />
<glyph glyph-name="Cdotaccent" unicode="&#x10a;" horiz-adv-x="675" d="M481 709 Q544 709 601.5 699.5 Q659 690 699 674 L679 596 Q643 613 589.5 624.5 Q536 636 481 636 Q371 636 298 594.5 Q225 553 189.5 482.5 Q154 412 154 325 Q154 200 225.5 131.5 Q297 63 418 63 Q463 63 511.5 73 Q560 83 603 102 L600 25 Q509 -9 412 -9 Q307 -9 227.5 28 Q148 65 104 138 Q60 211 60 317 Q60 432 110.5 520.5 Q161 609 256.5 659 Q352 709 481 709 Z M483 886 Q508 886 520 874 Q532 862 532 841 Q530 796 483 796 Q460 796 447.5 807 Q435 818 435 839 Q435 861 447.5 873.5 Q460 886 483 886 Z " />
<glyph glyph-name="D" unicode="D" horiz-adv-x="757" d="M364 700 Q524 700 618.5 620.5 Q713 541 713 383 Q713 271 664.5 184.5 Q616 98 525.5 49 Q435 0 313 0 L42 0 L166 700 L364 700 Z M317 69 Q406 69 474.5 108.5 Q543 148 581.5 219 Q620 290 620 382 Q620 500 556 565.5 Q492 631 376 631 L242 631 L142 69 L317 69 Z " />
<glyph glyph-name="Eth" unicode="&#xd0;" horiz-adv-x="773" d="M380 700 Q540 700 634.5 620.5 Q729 541 729 383 Q729 271 680.5 184.5 Q632 98 541.5 49 Q451 0 329 0 L58 0 L116 330 L5 330 L13 373 L124 373 L182 700 L380 700 Z M333 69 Q422 69 490.5 108.5 Q559 148 597.5 219 Q636 290 636 382 Q636 500 572 565.5 Q508 631 392 631 L258 631 L212 373 L365 373 L357 330 L204 330 L158 69 L333 69 Z " />
<glyph glyph-name="Dcaron" unicode="&#x10e;" horiz-adv-x="757" d="M364 700 Q524 700 618.5 620.5 Q713 541 713 383 Q713 271 664.5 184.5 Q616 98 525.5 49 Q435 0 313 0 L42 0 L166 700 L364 700 Z M317 69 Q406 69 474.5 108.5 Q543 148 581.5 219 Q620 290 620 382 Q620 500 556 565.5 Q492 631 376 631 L242 631 L142 69 L317 69 Z M451 770 L375 770 L289 891 L353 891 L416 806 L513 891 L584 891 L451 770 Z " />
<glyph glyph-name="Dcroat" unicode="&#x110;" horiz-adv-x="773" d="M380 700 Q540 700 634.5 620.5 Q729 541 729 383 Q729 271 680.5 184.5 Q632 98 541.5 49 Q451 0 329 0 L58 0 L116 330 L5 330 L13 373 L124 373 L182 700 L380 700 Z M333 69 Q422 69 490.5 108.5 Q559 148 597.5 219 Q636 290 636 382 Q636 500 572 565.5 Q508 631 392 631 L258 631 L212 373 L365 373 L357 330 L204 330 L158 69 L333 69 Z " />
<glyph glyph-name="E" unicode="E" horiz-adv-x="632" d="M644 631 L241 631 L196 376 L544 376 L532 307 L184 307 L142 69 L559 69 L546 0 L42 0 L166 700 L657 700 L644 631 Z " />
<glyph glyph-name="Eacute" unicode="&#xc9;" horiz-adv-x="632" d="M644 631 L241 631 L196 376 L544 376 L532 307 L184 307 L142 69 L559 69 L546 0 L42 0 L166 700 L657 700 L644 631 Z M455 769 L393 769 L479 889 L556 889 L455 769 Z " />
<glyph glyph-name="Ebreve" unicode="&#x114;" horiz-adv-x="632" d="M644 631 L241 631 L196 376 L544 376 L532 307 L184 307 L142 69 L559 69 L546 0 L42 0 L166 700 L657 700 L644 631 Z M577 893 Q560 833 522 805.5 Q484 778 424 778 Q370 778 338 806.5 Q306 835 305 893 L356 896 Q359 824 429 824 Q503 824 527 896 L577 893 Z " />
<glyph glyph-name="Ecaron" unicode="&#x11a;" horiz-adv-x="632" d="M644 631 L241 631 L196 376 L544 376 L532 307 L184 307 L142 69 L559 69 L546 0 L42 0 L166 700 L657 700 L644 631 Z M451 770 L375 770 L289 891 L353 891 L416 806 L513 891 L584 891 L451 770 Z " />
<glyph glyph-name="Ecircumflex" unicode="&#xca;" horiz-adv-x="632" d="M644 631 L241 631 L196 376 L544 376 L532 307 L184 307 L142 69 L559 69 L546 0 L42 0 L166 700 L657 700 L644 631 Z M561 770 L497 770 L432 857 L336 770 L266 770 L397 891 L473 891 L561 770 Z " />
<glyph glyph-name="Edieresis" unicode="&#xcb;" horiz-adv-x="632" d="M644 631 L241 631 L196 376 L544 376 L532 307 L184 307 L142 69 L559 69 L546 0 L42 0 L166 700 L657 700 L644 631 Z M328 888 Q349 888 361 877 Q373 866 373 848 Q373 823 359.5 810 Q346 797 322 797 Q301 797 289 807.5 Q277 818 277 836 Q277 861 290.5 874.5 Q304 888 328 888 Z M535 888 Q556 888 568 877 Q580 866 580 848 Q580 823 566.5 810 Q553 797 529 797 Q508 797 496 807.5 Q484 818 484 836 Q484 861 497.5 874.5 Q511 888 535 888 Z " />
<glyph glyph-name="Edotaccent" unicode="&#x116;" horiz-adv-x="632" d="M644 631 L241 631 L196 376 L544 376 L532 307 L184 307 L142 69 L559 69 L546 0 L42 0 L166 700 L657 700 L644 631 Z M431 886 Q456 886 468 874 Q480 862 480 841 Q478 796 431 796 Q408 796 395.5 807 Q383 818 383 839 Q383 861 395.5 873.5 Q408 886 431 886 Z " />
<glyph glyph-name="Egrave" unicode="&#xc8;" horiz-adv-x="632" d="M644 631 L241 631 L196 376 L544 376 L532 307 L184 307 L142 69 L559 69 L546 0 L42 0 L166 700 L657 700 L644 631 Z M451 769 L390 769 L336 889 L413 889 L451 769 Z " />
<glyph glyph-name="Emacron" unicode="&#x112;" horiz-adv-x="632" d="M644 631 L241 631 L196 376 L544 376 L532 307 L184 307 L142 69 L559 69 L546 0 L42 0 L166 700 L657 700 L644 631 Z M577 824 L280 824 L289 873 L586 873 L577 824 Z " />
<glyph glyph-name="Eogonek" unicode="&#x118;" horiz-adv-x="632" d="M644 631 L241 631 L196 376 L544 376 L532 307 L184 307 L142 69 L559 69 L546 0 L42 0 L166 700 L657 700 L644 631 Z M417 -172 Q372 -172 343 -153.5 Q314 -135 314 -93 Q314 -34 365 -8 Q416 18 474 24 L487 0 Q436 -9 409.5 -24 Q383 -39 383 -71 Q383 -97 398.5 -107 Q414 -117 435 -117 Q464 -117 497 -106 L489 -162 Q449 -172 417 -172 Z " />
<glyph glyph-name="F" unicode="F" horiz-adv-x="614" d="M242 631 L194 368 L544 368 L531 299 L183 299 L130 0 L42 0 L166 700 L659 700 L646 631 L242 631 Z " />
<glyph glyph-name="G" unicode="G" horiz-adv-x="759" d="M469 639 Q365 639 294 596 Q223 553 188 480.5 Q153 408 153 320 Q153 242 184.5 183.5 Q216 125 274.5 93.5 Q333 62 414 62 Q504 62 595 102 L626 294 L444 294 L455 354 L711 354 L660 48 Q542 -9 409 -9 Q304 -9 225 28.5 Q146 66 103 138.5 Q60 211 60 313 Q60 429 110 519 Q160 609 253.5 659 Q347 709 474 709 Q545 709 615.5 699 Q686 689 739 668 L720 592 Q679 612 607.5 625.5 Q536 639 469 639 Z " />
<glyph glyph-name="Gbreve" unicode="&#x11e;" horiz-adv-x="759" d="M469 639 Q365 639 294 596 Q223 553 188 480.5 Q153 408 153 320 Q153 242 184.5 183.5 Q216 125 274.5 93.5 Q333 62 414 62 Q504 62 595 102 L626 294 L444 294 L455 354 L711 354 L660 48 Q542 -9 409 -9 Q304 -9 225 28.5 Q146 66 103 138.5 Q60 211 60 313 Q60 429 110 519 Q160 609 253.5 659 Q347 709 474 709 Q545 709 615.5 699 Q686 689 739 668 L720 592 Q679 612 607.5 625.5 Q536 639 469 639 Z M634 893 Q617 833 579 805.5 Q541 778 481 778 Q427 778 395 806.5 Q363 835 362 893 L413 896 Q416 824 486 824 Q560 824 584 896 L634 893 Z " />
<glyph glyph-name="Gcircumflex" unicode="&#x11c;" horiz-adv-x="759" d="M469 639 Q365 639 294 596 Q223 553 188 480.5 Q153 408 153 320 Q153 242 184.5 183.5 Q216 125 274.5 93.5 Q333 62 414 62 Q504 62 595 102 L626 294 L444 294 L455 354 L711 354 L660 48 Q542 -9 409 -9 Q304 -9 225 28.5 Q146 66 103 138.5 Q60 211 60 313 Q60 429 110 519 Q160 609 253.5 659 Q347 709 474 709 Q545 709 615.5 699 Q686 689 739 668 L720 592 Q679 612 607.5 625.5 Q536 639 469 639 Z M618 770 L554 770 L489 857 L393 770 L323 770 L454 891 L530 891 L618 770 Z " />
<glyph glyph-name="Gcommaaccent" unicode="&#x122;" horiz-adv-x="759" d="M469 639 Q365 639 294 596 Q223 553 188 480.5 Q153 408 153 320 Q153 242 184.5 183.5 Q216 125 274.5 93.5 Q333 62 414 62 Q504 62 595 102 L626 294 L444 294 L455 354 L711 354 L660 48 Q542 -9 409 -9 Q304 -9 225 28.5 Q146 66 103 138.5 Q60 211 60 313 Q60 429 110 519 Q160 609 253.5 659 Q347 709 474 709 Q545 709 615.5 699 Q686 689 739 668 L720 592 Q679 612 607.5 625.5 Q536 639 469 639 Z M416 -74 Q407 -122 398 -150 Q389 -178 370 -226 L317 -226 Q330 -184 338.5 -153.5 Q347 -123 356 -74 L416 -74 Z " />
<glyph glyph-name="Gdotaccent" unicode="&#x120;" horiz-adv-x="759" d="M469 639 Q365 639 294 596 Q223 553 188 480.5 Q153 408 153 320 Q153 242 184.5 183.5 Q216 125 274.5 93.5 Q333 62 414 62 Q504 62 595 102 L626 294 L444 294 L455 354 L711 354 L660 48 Q542 -9 409 -9 Q304 -9 225 28.5 Q146 66 103 138.5 Q60 211 60 313 Q60 429 110 519 Q160 609 253.5 659 Q347 709 474 709 Q545 709 615.5 699 Q686 689 739 668 L720 592 Q679 612 607.5 625.5 Q536 639 469 639 Z M489 886 Q514 886 526 874 Q538 862 538 841 Q536 796 489 796 Q466 796 453.5 807 Q441 818 441 839 Q441 861 453.5 873.5 Q466 886 489 886 Z " />
<glyph glyph-name="H" unicode="H" horiz-adv-x="761" d="M166 700 L253 700 L197 381 L592 381 L648 700 L736 700 L613 0 L525 0 L580 311 L185 311 L130 0 L42 0 L166 700 Z " />
<glyph glyph-name="Hbar" unicode="&#x126;" horiz-adv-x="761" d="M763 535 L708 535 L614 0 L526 0 L581 311 L186 311 L131 0 L43 0 L138 535 L76 535 L83 576 L145 576 L167 700 L254 700 L232 576 L627 576 L649 700 L737 700 L715 576 L771 576 L763 535 Z M620 535 L225 535 L198 381 L593 381 L620 535 Z " />
<glyph glyph-name="Hcircumflex" unicode="&#x124;" horiz-adv-x="761" d="M166 700 L253 700 L197 381 L592 381 L648 700 L736 700 L613 0 L525 0 L580 311 L185 311 L130 0 L42 0 L166 700 Z M598 770 L534 770 L469 857 L373 770 L303 770 L434 891 L510 891 L598 770 Z " />
<glyph glyph-name="I" unicode="I" horiz-adv-x="279" d="M130 0 L42 0 L167 700 L255 700 L130 0 Z " />
<glyph glyph-name="Iacute" unicode="&#xcd;" horiz-adv-x="279" d="M130 0 L42 0 L167 700 L255 700 L130 0 Z M256 769 L194 769 L280 889 L357 889 L256 769 Z " />
<glyph glyph-name="Ibreve" unicode="&#x12c;" horiz-adv-x="278" d="M130 0 L42 0 L167 700 L255 700 L130 0 Z M369 893 Q352 833 314 805.5 Q276 778 216 778 Q162 778 130 806.5 Q98 835 97 893 L148 896 Q151 824 221 824 Q295 824 319 896 L369 893 Z " />
<glyph glyph-name="Icircumflex" unicode="&#xce;" horiz-adv-x="278" d="M130 0 L42 0 L167 700 L255 700 L130 0 Z M362 770 L298 770 L233 857 L137 770 L67 770 L198 891 L274 891 L362 770 Z " />
<glyph glyph-name="Idieresis" unicode="&#xcf;" horiz-adv-x="278" d="M130 0 L42 0 L167 700 L255 700 L130 0 Z M129 888 Q150 888 162 877 Q174 866 174 848 Q174 823 160.5 810 Q147 797 123 797 Q102 797 90 807.5 Q78 818 78 836 Q78 861 91.5 874.5 Q105 888 129 888 Z M336 888 Q357 888 369 877 Q381 866 381 848 Q381 823 367.5 810 Q354 797 330 797 Q309 797 297 807.5 Q285 818 285 836 Q285 861 298.5 874.5 Q312 888 336 888 Z " />
<glyph glyph-name="Idot" unicode="&#x130;" horiz-adv-x="278" d="M130 0 L42 0 L167 700 L255 700 L130 0 Z M233 886 Q258 886 270 874 Q282 862 282 841 Q280 796 233 796 Q210 796 197.5 807 Q185 818 185 839 Q185 861 197.5 873.5 Q210 886 233 886 Z " />
<glyph glyph-name="Igrave" unicode="&#xcc;" horiz-adv-x="278" d="M130 0 L42 0 L167 700 L255 700 L130 0 Z M253 769 L192 769 L138 889 L215 889 L253 769 Z " />
<glyph glyph-name="Imacron" unicode="&#x12a;" horiz-adv-x="278" d="M130 0 L42 0 L167 700 L255 700 L130 0 Z M378 824 L81 824 L90 873 L387 873 L378 824 Z " />
<glyph glyph-name="Iogonek" unicode="&#x12e;" horiz-adv-x="278" d="M130 0 L42 0 L167 700 L255 700 L130 0 Z M60 -172 Q15 -172 -14 -153.5 Q-43 -135 -43 -93 Q-43 -34 8 -8 Q59 18 117 24 L130 0 Q79 -9 52.5 -24 Q26 -39 26 -71 Q26 -97 41.5 -107 Q57 -117 78 -117 Q107 -117 140 -106 L132 -162 Q92 -172 60 -172 Z " />
<glyph glyph-name="Itilde" unicode="&#x128;" horiz-adv-x="278" d="M130 0 L42 0 L167 700 L255 700 L130 0 Z M177 906 Q208 906 251 881 Q271 869 284 863.5 Q297 858 312 858 Q336 858 350.5 869 Q365 880 377 899 L406 885 Q366 802 295 802 Q264 802 227 824 Q223 826 209.5 833.5 Q196 841 184 845 Q172 849 160 849 Q120 849 95 808 L66 823 Q107 906 177 906 Z " />
<glyph glyph-name="J" unicode="J" horiz-adv-x="486" d="M383 208 Q364 97 300 44 Q236 -9 134 -9 Q47 -9 -31 31 L-10 103 Q21 83 60.5 72.5 Q100 62 134 62 Q270 62 296 208 L370 634 L176 634 L188 700 L470 700 L383 208 Z " />
<glyph glyph-name="Jcircumflex" unicode="&#x134;" horiz-adv-x="486" d="M383 208 Q364 97 300 44 Q236 -9 134 -9 Q47 -9 -31 31 L-10 103 Q21 83 60.5 72.5 Q100 62 134 62 Q270 62 296 208 L370 634 L176 634 L188 700 L470 700 L383 208 Z M482 770 L418 770 L353 857 L257 770 L187 770 L318 891 L394 891 L482 770 Z " />
<glyph glyph-name="K" unicode="K" horiz-adv-x="663" d="M416 431 L605 0 L505 0 L346 368 L166 204 L130 0 L42 0 L166 700 L254 700 L186 317 L606 700 L712 700 L416 431 Z " />
<glyph glyph-name="Kcommaaccent" unicode="&#x136;" horiz-adv-x="663" d="M416 431 L605 0 L505 0 L346 368 L166 204 L130 0 L42 0 L166 700 L254 700 L186 317 L606 700 L712 700 L416 431 Z M340 -74 Q331 -122 322 -150 Q313 -178 294 -226 L241 -226 Q254 -184 262.5 -153.5 Q271 -123 280 -74 L340 -74 Z " />
<glyph glyph-name="L" unicode="L" horiz-adv-x="558" d="M143 70 L511 70 L498 0 L42 0 L166 700 L254 700 L143 70 Z " />
<glyph glyph-name="Lacute" unicode="&#x139;" horiz-adv-x="558" d="M143 70 L511 70 L498 0 L42 0 L166 700 L254 700 L143 70 Z M257 769 L195 769 L281 889 L358 889 L257 769 Z " />
<glyph glyph-name="Lcaron" unicode="&#x13d;" horiz-adv-x="558" d="M143 70 L511 70 L498 0 L42 0 L166 700 L254 700 L143 70 Z M476 700 Q457 612 424 543 L382 543 Q403 630 417 700 L476 700 Z " />
<glyph glyph-name="Lcommaaccent" unicode="&#x13b;" horiz-adv-x="558" d="M143 70 L511 70 L498 0 L42 0 L166 700 L254 700 L143 70 Z M300 -74 Q291 -122 282 -150 Q273 -178 254 -226 L201 -226 Q214 -184 222.5 -153.5 Q231 -123 240 -74 L300 -74 Z " />
<glyph glyph-name="Lslash" unicode="&#x141;" horiz-adv-x="577" d="M530 70 L517 0 L61 0 L109 272 L9 218 L16 261 L117 316 L185 700 L273 700 L215 369 L391 464 L382 420 L207 325 L162 70 L530 70 Z " />
<glyph glyph-name="M" unicode="M" horiz-adv-x="932" d="M908 700 L784 0 L699 0 L769 397 L816 618 L468 78 L387 78 L228 615 L197 397 L127 0 L42 0 L166 700 L291 700 L446 168 L785 700 L908 700 Z " />
<glyph glyph-name="N" unicode="N" horiz-adv-x="748" d="M724 700 L600 0 L511 0 L229 578 L128 0 L42 0 L166 700 L256 700 L538 131 L637 700 L724 700 Z " />
<glyph glyph-name="Nacute" unicode="&#x143;" horiz-adv-x="748" d="M724 700 L600 0 L511 0 L229 578 L128 0 L42 0 L166 700 L256 700 L538 131 L637 700 L724 700 Z M495 769 L433 769 L519 889 L596 889 L495 769 Z " />
<glyph glyph-name="Ncaron" unicode="&#x147;" horiz-adv-x="748" d="M724 700 L600 0 L511 0 L229 578 L128 0 L42 0 L166 700 L256 700 L538 131 L637 700 L724 700 Z M491 770 L415 770 L329 891 L393 891 L456 806 L553 891 L624 891 L491 770 Z " />
<glyph glyph-name="Ncommaaccent" unicode="&#x145;" horiz-adv-x="748" d="M724 700 L600 0 L511 0 L229 578 L128 0 L42 0 L166 700 L256 700 L538 131 L637 700 L724 700 Z M350 -74 Q341 -122 332 -150 Q323 -178 304 -226 L251 -226 Q264 -184 272.5 -153.5 Q281 -123 290 -74 L350 -74 Z " />
<glyph glyph-name="Eng" unicode="&#x14a;" horiz-adv-x="750" d="M726 700 L603 8 Q589 -72 537 -109.5 Q485 -147 408 -162 L397 -98 Q438 -89 471 -68.5 Q504 -48 513 -4 L517 18 L230 571 L130 0 L43 0 L166 700 L257 700 L540 148 L637 700 L726 700 Z " />
<glyph glyph-name="Ntilde" unicode="&#xd1;" horiz-adv-x="748" d="M724 700 L600 0 L511 0 L229 578 L128 0 L42 0 L166 700 L256 700 L538 131 L637 700 L724 700 Z M416 906 Q447 906 490 881 Q510 869 523 863.5 Q536 858 551 858 Q575 858 589.5 869 Q604 880 616 899 L645 885 Q605 802 534 802 Q503 802 466 824 Q462 826 448.5 833.5 Q435 841 423 845 Q411 849 399 849 Q359 849 334 808 L305 823 Q346 906 416 906 Z " />
<glyph glyph-name="O" unicode="O" horiz-adv-x="814" d="M446 709 Q542 709 616 672 Q690 635 731 564 Q772 493 772 394 Q772 295 732 203 Q692 111 605 51 Q518 -9 385 -9 Q289 -9 215 28.5 Q141 66 100 137 Q59 208 59 307 Q59 406 99 498 Q139 590 226 649.5 Q313 709 446 709 Z M444 638 Q348 638 282 590 Q216 542 184 466 Q152 390 152 305 Q152 188 217 125 Q282 62 388 62 Q484 62 549.5 109.5 Q615 157 647.5 233 Q680 309 680 394 Q680 511 615 574.5 Q550 638 444 638 Z " />
<glyph glyph-name="Oacute" unicode="&#xd3;" horiz-adv-x="814" d="M446 709 Q542 709 616 672 Q690 635 731 564 Q772 493 772 394 Q772 295 732 203 Q692 111 605 51 Q518 -9 385 -9 Q289 -9 215 28.5 Q141 66 100 137 Q59 208 59 307 Q59 406 99 498 Q139 590 226 649.5 Q313 709 446 709 Z M444 638 Q348 638 282 590 Q216 542 184 466 Q152 390 152 305 Q152 188 217 125 Q282 62 388 62 Q484 62 549.5 109.5 Q615 157 647.5 233 Q680 309 680 394 Q680 511 615 574.5 Q550 638 444 638 Z M495 769 L433 769 L519 889 L596 889 L495 769 Z " />
<glyph glyph-name="Obreve" unicode="&#x14e;" horiz-adv-x="814" d="M446 709 Q542 709 616 672 Q690 635 731 564 Q772 493 772 394 Q772 295 732 203 Q692 111 605 51 Q518 -9 385 -9 Q289 -9 215 28.5 Q141 66 100 137 Q59 208 59 307 Q59 406 99 498 Q139 590 226 649.5 Q313 709 446 709 Z M444 638 Q348 638 282 590 Q216 542 184 466 Q152 390 152 305 Q152 188 217 125 Q282 62 388 62 Q484 62 549.5 109.5 Q615 157 647.5 233 Q680 309 680 394 Q680 511 615 574.5 Q550 638 444 638 Z M617 893 Q600 833 562 805.5 Q524 778 464 778 Q410 778 378 806.5 Q346 835 345 893 L396 896 Q399 824 469 824 Q543 824 567 896 L617 893 Z " />
<glyph glyph-name="Ocircumflex" unicode="&#xd4;" horiz-adv-x="814" d="M446 709 Q542 709 616 672 Q690 635 731 564 Q772 493 772 394 Q772 295 732 203 Q692 111 605 51 Q518 -9 385 -9 Q289 -9 215 28.5 Q141 66 100 137 Q59 208 59 307 Q59 406 99 498 Q139 590 226 649.5 Q313 709 446 709 Z M444 638 Q348 638 282 590 Q216 542 184 466 Q152 390 152 305 Q152 188 217 125 Q282 62 388 62 Q484 62 549.5 109.5 Q615 157 647.5 233 Q680 309 680 394 Q680 511 615 574.5 Q550 638 444 638 Z M601 770 L537 770 L472 857 L376 770 L306 770 L437 891 L513 891 L601 770 Z " />
<glyph glyph-name="Odieresis" unicode="&#xd6;" horiz-adv-x="814" d="M446 709 Q542 709 616 672 Q690 635 731 564 Q772 493 772 394 Q772 295 732 203 Q692 111 605 51 Q518 -9 385 -9 Q289 -9 215 28.5 Q141 66 100 137 Q59 208 59 307 Q59 406 99 498 Q139 590 226 649.5 Q313 709 446 709 Z M444 638 Q348 638 282 590 Q216 542 184 466 Q152 390 152 305 Q152 188 217 125 Q282 62 388 62 Q484 62 549.5 109.5 Q615 157 647.5 233 Q680 309 680 394 Q680 511 615 574.5 Q550 638 444 638 Z M368 888 Q389 888 401 877 Q413 866 413 848 Q413 823 399.5 810 Q386 797 362 797 Q341 797 329 807.5 Q317 818 317 836 Q317 861 330.5 874.5 Q344 888 368 888 Z M575 888 Q596 888 608 877 Q620 866 620 848 Q620 823 606.5 810 Q593 797 569 797 Q548 797 536 807.5 Q524 818 524 836 Q524 861 537.5 874.5 Q551 888 575 888 Z " />
<glyph glyph-name="Ograve" unicode="&#xd2;" horiz-adv-x="814" d="M446 709 Q542 709 616 672 Q690 635 731 564 Q772 493 772 394 Q772 295 732 203 Q692 111 605 51 Q518 -9 385 -9 Q289 -9 215 28.5 Q141 66 100 137 Q59 208 59 307 Q59 406 99 498 Q139 590 226 649.5 Q313 709 446 709 Z M444 638 Q348 638 282 590 Q216 542 184 466 Q152 390 152 305 Q152 188 217 125 Q282 62 388 62 Q484 62 549.5 109.5 Q615 157 647.5 233 Q680 309 680 394 Q680 511 615 574.5 Q550 638 444 638 Z M492 769 L431 769 L377 889 L454 889 L492 769 Z " />
<glyph glyph-name="Ohungarumlaut" unicode="&#x150;" horiz-adv-x="814" d="M446 709 Q542 709 616 672 Q690 635 731 564 Q772 493 772 394 Q772 295 732 203 Q692 111 605 51 Q518 -9 385 -9 Q289 -9 215 28.5 Q141 66 100 137 Q59 208 59 307 Q59 406 99 498 Q139 590 226 649.5 Q313 709 446 709 Z M444 638 Q348 638 282 590 Q216 542 184 466 Q152 390 152 305 Q152 188 217 125 Q282 62 388 62 Q484 62 549.5 109.5 Q615 157 647.5 233 Q680 309 680 394 Q680 511 615 574.5 Q550 638 444 638 Z M407 769 L345 769 L431 888 L510 888 L407 769 Z M555 769 L493 769 L579 888 L658 888 L555 769 Z " />
<glyph glyph-name="Omacron" unicode="&#x14c;" horiz-adv-x="814" d="M446 709 Q542 709 616 672 Q690 635 731 564 Q772 493 772 394 Q772 295 732 203 Q692 111 605 51 Q518 -9 385 -9 Q289 -9 215 28.5 Q141 66 100 137 Q59 208 59 307 Q59 406 99 498 Q139 590 226 649.5 Q313 709 446 709 Z M444 638 Q348 638 282 590 Q216 542 184 466 Q152 390 152 305 Q152 188 217 125 Q282 62 388 62 Q484 62 549.5 109.5 Q615 157 647.5 233 Q680 309 680 394 Q680 511 615 574.5 Q550 638 444 638 Z M617 824 L320 824 L329 873 L626 873 L617 824 Z " />
<glyph glyph-name="Oslash" unicode="&#xd8;" horiz-adv-x="814" d="M670 637 Q719 596 745.5 534.5 Q772 473 772 395 Q772 295 732 203 Q692 111 605 51 Q518 -9 385 -9 Q265 -9 183 47 L116 -35 L59 -35 L149 74 Q105 115 82 173.5 Q59 232 59 305 Q59 405 99 497 Q139 589 226 649 Q313 709 446 709 Q555 709 634 662 L692 733 L750 733 L670 637 Z M152 306 Q152 204 203 140 L583 601 Q524 638 444 638 Q348 638 282 590.5 Q216 543 184 467 Q152 391 152 306 Z M680 394 Q680 507 617 572 L235 109 Q296 62 388 62 Q484 62 549.5 109.5 Q615 157 647.5 233 Q680 309 680 394 Z " />
<glyph glyph-name="Oslashacute" unicode="&#x1fe;" horiz-adv-x="814" d="M475 769 L413 769 L499 889 L576 889 L475 769 Z M670 637 Q719 596 745.5 534.5 Q772 473 772 395 Q772 295 732 203 Q692 111 605 51 Q518 -9 385 -9 Q265 -9 183 47 L116 -35 L59 -35 L149 74 Q105 115 82 173.5 Q59 232 59 305 Q59 405 99 497 Q139 589 226 649 Q313 709 446 709 Q555 709 634 662 L692 733 L750 733 L670 637 Z M152 306 Q152 204 203 140 L583 601 Q524 638 444 638 Q348 638 282 590.5 Q216 543 184 467 Q152 391 152 306 Z M680 394 Q680 507 617 572 L235 109 Q296 62 388 62 Q484 62 549.5 109.5 Q615 157 647.5 233 Q680 309 680 394 Z " />
<glyph glyph-name="Otilde" unicode="&#xd5;" horiz-adv-x="814" d="M446 709 Q542 709 616 672 Q690 635 731 564 Q772 493 772 394 Q772 295 732 203 Q692 111 605 51 Q518 -9 385 -9 Q289 -9 215 28.5 Q141 66 100 137 Q59 208 59 307 Q59 406 99 498 Q139 590 226 649.5 Q313 709 446 709 Z M444 638 Q348 638 282 590 Q216 542 184 466 Q152 390 152 305 Q152 188 217 125 Q282 62 388 62 Q484 62 549.5 109.5 Q615 157 647.5 233 Q680 309 680 394 Q680 511 615 574.5 Q550 638 444 638 Z M416 906 Q447 906 490 881 Q510 869 523 863.5 Q536 858 551 858 Q575 858 589.5 869 Q604 880 616 899 L645 885 Q605 802 534 802 Q503 802 466 824 Q462 826 448.5 833.5 Q435 841 423 845 Q411 849 399 849 Q359 849 334 808 L305 823 Q346 906 416 906 Z " />
<glyph glyph-name="OE" unicode="&#x152;" horiz-adv-x="1213" d="M446 709 Q543 709 615.5 667.5 Q688 626 720 547 L747 700 L1238 700 L1226 631 L823 631 L778 376 L1125 376 L1113 307 L766 307 L724 69 L1140 69 L1128 0 L623 0 L641 99 Q597 48 532.5 19.5 Q468 -9 385 -9 Q289 -9 215 28.5 Q141 66 100 137 Q59 208 59 307 Q59 406 99 498 Q139 590 226 649.5 Q313 709 446 709 Z M444 638 Q327 638 251 567 Q201 520 176.5 450 Q152 380 152 305 Q152 188 217 125 Q282 62 388 62 Q508 62 587 141 Q632 188 656 255.5 Q680 323 680 394 Q680 511 615 574.5 Q550 638 444 638 Z " />
<glyph glyph-name="P" unicode="P" horiz-adv-x="690" d="M462 700 Q536 700 586.5 670.5 Q637 641 661.5 592 Q686 543 686 486 Q686 427 658.5 373.5 Q631 320 573 286 Q515 252 430 252 L175 252 L131 0 L43 0 L166 700 L462 700 Z M418 321 Q475 321 515 343.5 Q555 366 574.5 403 Q594 440 594 484 Q594 545 555.5 588 Q517 631 439 631 L242 631 L187 321 L418 321 Z " />
<glyph glyph-name="Thorn" unicode="&#xde;" horiz-adv-x="681" d="M229 567 L432 567 Q506 567 556.5 539.5 Q607 512 632 466 Q657 420 657 364 Q657 304 629.5 253.5 Q602 203 544 171.5 Q486 140 400 140 L155 140 L130 0 L43 0 L166 700 L253 700 L229 567 Z M217 498 L167 209 L389 209 Q474 209 519.5 252.5 Q565 296 565 361 Q565 420 526.5 459 Q488 498 414 498 L217 498 Z " />
<glyph glyph-name="Q" unicode="Q" horiz-adv-x="814" d="M772 394 Q772 313 745.5 236 Q719 159 662.5 98.5 Q606 38 519 10 Q561 1 615 -25 L693 -62 L651 -131 L391 -9 L385 -9 Q289 -9 215 28.5 Q141 66 100 137 Q59 208 59 307 Q59 406 99 498 Q139 590 226 649.5 Q313 709 446 709 Q542 709 616 672 Q690 635 731 564 Q772 493 772 394 Z M388 62 Q484 62 549.5 109.5 Q615 157 647.5 233 Q680 309 680 394 Q680 511 615 574.5 Q550 638 444 638 Q348 638 282 590 Q216 542 184 466 Q152 390 152 305 Q152 188 217 125 Q282 62 388 62 Z " />
<glyph glyph-name="R" unicode="R" horiz-adv-x="704" d="M469 700 Q540 700 589 673 Q638 646 662.5 600.5 Q687 555 687 500 Q687 419 637.5 362.5 Q588 306 501 290 L591 0 L500 0 L419 280 L393 280 L179 280 L130 0 L42 0 L166 700 L469 700 Z M242 631 L192 349 L433 349 Q507 349 553 390 Q599 431 599 497 Q599 555 561 593 Q523 631 451 631 L242 631 Z " />
<glyph glyph-name="Racute" unicode="&#x154;" horiz-adv-x="704" d="M469 700 Q540 700 589 673 Q638 646 662.5 600.5 Q687 555 687 500 Q687 419 637.5 362.5 Q588 306 501 290 L591 0 L500 0 L419 280 L393 280 L179 280 L130 0 L42 0 L166 700 L469 700 Z M242 631 L192 349 L433 349 Q507 349 553 390 Q599 431 599 497 Q599 555 561 593 Q523 631 451 631 L242 631 Z M446 769 L384 769 L470 889 L547 889 L446 769 Z " />
<glyph glyph-name="Rcaron" unicode="&#x158;" horiz-adv-x="704" d="M469 700 Q540 700 589 673 Q638 646 662.5 600.5 Q687 555 687 500 Q687 419 637.5 362.5 Q588 306 501 290 L591 0 L500 0 L419 280 L393 280 L179 280 L130 0 L42 0 L166 700 L469 700 Z M242 631 L192 349 L433 349 Q507 349 553 390 Q599 431 599 497 Q599 555 561 593 Q523 631 451 631 L242 631 Z M443 770 L367 770 L281 891 L345 891 L408 806 L505 891 L576 891 L443 770 Z " />
<glyph glyph-name="Rcommaaccent" unicode="&#x156;" horiz-adv-x="704" d="M469 700 Q540 700 589 673 Q638 646 662.5 600.5 Q687 555 687 500 Q687 419 637.5 362.5 Q588 306 501 290 L591 0 L500 0 L419 280 L393 280 L179 280 L130 0 L42 0 L166 700 L469 700 Z M242 631 L192 349 L433 349 Q507 349 553 390 Q599 431 599 497 Q599 555 561 593 Q523 631 451 631 L242 631 Z M333 -74 Q324 -122 315 -150 Q306 -178 287 -226 L234 -226 Q247 -184 255.5 -153.5 Q264 -123 273 -74 L333 -74 Z " />
<glyph glyph-name="S" unicode="S" horiz-adv-x="613" d="M352 709 Q422 709 478.5 695.5 Q535 682 591 659 L573 579 Q510 610 457.5 624 Q405 638 355 638 Q265 638 227 606.5 Q189 575 189 526 Q189 491 206.5 468 Q224 445 254.5 429.5 Q285 414 341 394 Q418 366 461.5 341.5 Q505 317 528.5 281 Q552 245 552 190 Q552 92 485.5 41.5 Q419 -9 298 -9 Q217 -9 142 11.5 Q67 32 9 66 L33 146 Q176 62 301 62 Q376 62 418 91.5 Q460 121 460 177 Q460 211 440.5 235 Q421 259 383.5 277 Q346 295 279 319 Q217 341 180 362 Q143 383 120.5 419 Q98 455 98 511 Q98 611 166 660 Q234 709 352 709 Z " />
<glyph glyph-name="Sacute" unicode="&#x15a;" horiz-adv-x="613" d="M352 709 Q422 709 478.5 695.5 Q535 682 591 659 L573 579 Q510 610 457.5 624 Q405 638 355 638 Q265 638 227 606.5 Q189 575 189 526 Q189 491 206.5 468 Q224 445 254.5 429.5 Q285 414 341 394 Q418 366 461.5 341.5 Q505 317 528.5 281 Q552 245 552 190 Q552 92 485.5 41.5 Q419 -9 298 -9 Q217 -9 142 11.5 Q67 32 9 66 L33 146 Q176 62 301 62 Q376 62 418 91.5 Q460 121 460 177 Q460 211 440.5 235 Q421 259 383.5 277 Q346 295 279 319 Q217 341 180 362 Q143 383 120.5 419 Q98 455 98 511 Q98 611 166 660 Q234 709 352 709 Z M411 769 L349 769 L435 889 L512 889 L411 769 Z " />
<glyph glyph-name="Scaron" unicode="&#x160;" horiz-adv-x="613" d="M352 709 Q422 709 478.5 695.5 Q535 682 591 659 L573 579 Q510 610 457.5 624 Q405 638 355 638 Q265 638 227 606.5 Q189 575 189 526 Q189 491 206.5 468 Q224 445 254.5 429.5 Q285 414 341 394 Q418 366 461.5 341.5 Q505 317 528.5 281 Q552 245 552 190 Q552 92 485.5 41.5 Q419 -9 298 -9 Q217 -9 142 11.5 Q67 32 9 66 L33 146 Q176 62 301 62 Q376 62 418 91.5 Q460 121 460 177 Q460 211 440.5 235 Q421 259 383.5 277 Q346 295 279 319 Q217 341 180 362 Q143 383 120.5 419 Q98 455 98 511 Q98 611 166 660 Q234 709 352 709 Z M407 770 L331 770 L245 891 L309 891 L372 806 L469 891 L540 891 L407 770 Z " />
<glyph glyph-name="Scedilla" unicode="&#x15e;" horiz-adv-x="613" d="M352 709 Q422 709 478.5 695.5 Q535 682 591 659 L573 579 Q510 610 457.5 624 Q405 638 355 638 Q265 638 227 606.5 Q189 575 189 526 Q189 491 206.5 468 Q224 445 254.5 429.5 Q285 414 341 394 Q418 366 461.5 341.5 Q505 317 528.5 281 Q552 245 552 190 Q552 92 485.5 41.5 Q419 -9 298 -9 Q217 -9 142 11.5 Q67 32 9 66 L33 146 Q176 62 301 62 Q376 62 418 91.5 Q460 121 460 177 Q460 211 440.5 235 Q421 259 383.5 277 Q346 295 279 319 Q217 341 180 362 Q143 383 120.5 419 Q98 455 98 511 Q98 611 166 660 Q234 709 352 709 Z M268 -44 Q307 -42 335 -59.5 Q363 -77 363 -119 Q363 -172 319.5 -197 Q276 -222 220 -222 Q199 -222 175.5 -218.5 Q152 -215 136 -210 L146 -168 Q158 -173 180 -177 Q202 -181 226 -181 Q256 -181 281.5 -167.5 Q307 -154 307 -120 Q307 -77 232 -77 Q214 -77 204 -78 L251 20 L297 20 L268 -44 Z " />
<glyph glyph-name="Scircumflex" unicode="&#x15c;" horiz-adv-x="613" d="M352 709 Q422 709 478.5 695.5 Q535 682 591 659 L573 579 Q510 610 457.5 624 Q405 638 355 638 Q265 638 227 606.5 Q189 575 189 526 Q189 491 206.5 468 Q224 445 254.5 429.5 Q285 414 341 394 Q418 366 461.5 341.5 Q505 317 528.5 281 Q552 245 552 190 Q552 92 485.5 41.5 Q419 -9 298 -9 Q217 -9 142 11.5 Q67 32 9 66 L33 146 Q176 62 301 62 Q376 62 418 91.5 Q460 121 460 177 Q460 211 440.5 235 Q421 259 383.5 277 Q346 295 279 319 Q217 341 180 362 Q143 383 120.5 419 Q98 455 98 511 Q98 611 166 660 Q234 709 352 709 Z M517 770 L453 770 L388 857 L292 770 L222 770 L353 891 L429 891 L517 770 Z " />
<glyph glyph-name="Scommaaccent" unicode="&#x218;" horiz-adv-x="613" d="M352 709 Q422 709 478.5 695.5 Q535 682 591 659 L573 579 Q510 610 457.5 624 Q405 638 355 638 Q265 638 227 606.5 Q189 575 189 526 Q189 491 206.5 468 Q224 445 254.5 429.5 Q285 414 341 394 Q418 366 461.5 341.5 Q505 317 528.5 281 Q552 245 552 190 Q552 92 485.5 41.5 Q419 -9 298 -9 Q217 -9 142 11.5 Q67 32 9 66 L33 146 Q176 62 301 62 Q376 62 418 91.5 Q460 121 460 177 Q460 211 440.5 235 Q421 259 383.5 277 Q346 295 279 319 Q217 341 180 362 Q143 383 120.5 419 Q98 455 98 511 Q98 611 166 660 Q234 709 352 709 Z M296 -74 Q287 -122 278 -150 Q269 -178 250 -226 L197 -226 Q210 -184 218.5 -153.5 Q227 -123 236 -74 L296 -74 Z " />
<glyph glyph-name="T" unicode="T" horiz-adv-x="589" d="M638 631 L396 631 L284 0 L197 0 L309 631 L67 631 L80 700 L650 700 L638 631 Z " />
<glyph glyph-name="Tbar" unicode="&#x166;" horiz-adv-x="589" d="M396 631 L351 377 L515 377 L507 335 L343 335 L284 0 L197 0 L256 335 L85 335 L93 377 L264 377 L309 631 L67 631 L80 700 L650 700 L638 631 L396 631 Z " />
<glyph glyph-name="Tcaron" unicode="&#x164;" horiz-adv-x="589" d="M638 631 L396 631 L284 0 L197 0 L309 631 L67 631 L80 700 L650 700 L638 631 Z M404 770 L328 770 L242 891 L306 891 L369 806 L466 891 L537 891 L404 770 Z " />
<glyph glyph-name="uni0162" unicode="&#x162;" horiz-adv-x="589" d="M638 631 L396 631 L284 0 L197 0 L309 631 L67 631 L80 700 L650 700 L638 631 Z M261 -74 Q252 -122 243 -150 Q234 -178 215 -226 L162 -226 Q175 -184 183.5 -153.5 Q192 -123 201 -74 L261 -74 Z " />
<glyph glyph-name="uni021A" unicode="&#x21a;" horiz-adv-x="589" d="M638 631 L396 631 L284 0 L197 0 L309 631 L67 631 L80 700 L650 700 L638 631 Z M270 -74 Q261 -122 252 -150 Q243 -178 224 -226 L171 -226 Q184 -184 192.5 -153.5 Q201 -123 210 -74 L270 -74 Z " />
<glyph glyph-name="U" unicode="U" horiz-adv-x="725" d="M626 232 Q607 122 535.5 56.5 Q464 -9 335 -9 Q239 -9 181.5 24 Q124 57 101 105 Q78 153 78 204 Q78 232 80.5 257 Q83 282 84 289 L156 700 L245 700 L173 290 Q164 237 166 208 Q168 141 215.5 101.5 Q263 62 341 62 Q429 62 480 109 Q531 156 543 225 L627 700 L708 700 L626 232 Z " />
<glyph glyph-name="Uacute" unicode="&#xda;" horiz-adv-x="725" d="M626 232 Q607 122 535.5 56.5 Q464 -9 335 -9 Q239 -9 181.5 24 Q124 57 101 105 Q78 153 78 204 Q78 232 80.5 257 Q83 282 84 289 L156 700 L245 700 L173 290 Q164 237 166 208 Q168 141 215.5 101.5 Q263 62 341 62 Q429 62 480 109 Q531 156 543 225 L627 700 L708 700 L626 232 Z M473 769 L411 769 L497 889 L574 889 L473 769 Z " />
<glyph glyph-name="Ubreve" unicode="&#x16c;" horiz-adv-x="725" d="M626 232 Q607 122 535.5 56.5 Q464 -9 335 -9 Q239 -9 181.5 24 Q124 57 101 105 Q78 153 78 204 Q78 232 80.5 257 Q83 282 84 289 L156 700 L245 700 L173 290 Q164 237 166 208 Q168 141 215.5 101.5 Q263 62 341 62 Q429 62 480 109 Q531 156 543 225 L627 700 L708 700 L626 232 Z M595 893 Q578 833 540 805.5 Q502 778 442 778 Q388 778 356 806.5 Q324 835 323 893 L374 896 Q377 824 447 824 Q521 824 545 896 L595 893 Z " />
<glyph glyph-name="Ucircumflex" unicode="&#xdb;" horiz-adv-x="725" d="M626 232 Q607 122 535.5 56.5 Q464 -9 335 -9 Q239 -9 181.5 24 Q124 57 101 105 Q78 153 78 204 Q78 232 80.5 257 Q83 282 84 289 L156 700 L245 700 L173 290 Q164 237 166 208 Q168 141 215.5 101.5 Q263 62 341 62 Q429 62 480 109 Q531 156 543 225 L627 700 L708 700 L626 232 Z M579 770 L515 770 L450 857 L354 770 L284 770 L415 891 L491 891 L579 770 Z " />
<glyph glyph-name="Udieresis" unicode="&#xdc;" horiz-adv-x="725" d="M626 232 Q607 122 535.5 56.5 Q464 -9 335 -9 Q239 -9 181.5 24 Q124 57 101 105 Q78 153 78 204 Q78 232 80.5 257 Q83 282 84 289 L156 700 L245 700 L173 290 Q164 237 166 208 Q168 141 215.5 101.5 Q263 62 341 62 Q429 62 480 109 Q531 156 543 225 L627 700 L708 700 L626 232 Z M346 888 Q367 888 379 877 Q391 866 391 848 Q391 823 377.5 810 Q364 797 340 797 Q319 797 307 807.5 Q295 818 295 836 Q295 861 308.5 874.5 Q322 888 346 888 Z M553 888 Q574 888 586 877 Q598 866 598 848 Q598 823 584.5 810 Q571 797 547 797 Q526 797 514 807.5 Q502 818 502 836 Q502 861 515.5 874.5 Q529 888 553 888 Z " />
<glyph glyph-name="Ugrave" unicode="&#xd9;" horiz-adv-x="725" d="M626 232 Q607 122 535.5 56.5 Q464 -9 335 -9 Q239 -9 181.5 24 Q124 57 101 105 Q78 153 78 204 Q78 232 80.5 257 Q83 282 84 289 L156 700 L245 700 L173 290 Q164 237 166 208 Q168 141 215.5 101.5 Q263 62 341 62 Q429 62 480 109 Q531 156 543 225 L627 700 L708 700 L626 232 Z M470 769 L409 769 L355 889 L432 889 L470 769 Z " />
<glyph glyph-name="Uhungarumlaut" unicode="&#x170;" horiz-adv-x="725" d="M626 232 Q607 122 535.5 56.5 Q464 -9 335 -9 Q239 -9 181.5 24 Q124 57 101 105 Q78 153 78 204 Q78 232 80.5 257 Q83 282 84 289 L156 700 L245 700 L173 290 Q164 237 166 208 Q168 141 215.5 101.5 Q263 62 341 62 Q429 62 480 109 Q531 156 543 225 L627 700 L708 700 L626 232 Z M385 769 L323 769 L409 888 L488 888 L385 769 Z M533 769 L471 769 L557 888 L636 888 L533 769 Z " />
<glyph glyph-name="Umacron" unicode="&#x16a;" horiz-adv-x="725" d="M626 232 Q607 122 535.5 56.5 Q464 -9 335 -9 Q239 -9 181.5 24 Q124 57 101 105 Q78 153 78 204 Q78 232 80.5 257 Q83 282 84 289 L156 700 L245 700 L173 290 Q164 237 166 208 Q168 141 215.5 101.5 Q263 62 341 62 Q429 62 480 109 Q531 156 543 225 L627 700 L708 700 L626 232 Z M595 824 L298 824 L307 873 L604 873 L595 824 Z " />
<glyph glyph-name="Uogonek" unicode="&#x172;" horiz-adv-x="725" d="M708 700 L626 232 Q610 140 557.5 78.5 Q505 17 413 -2 Q366 -14 346 -28 Q326 -42 326 -73 Q326 -98 343.5 -107.5 Q361 -117 382 -117 Q417 -117 450 -106 L442 -161 Q398 -172 362 -172 Q317 -172 287 -153.5 Q257 -135 257 -92 Q257 -39 305 -8 Q220 -2 169.5 31 Q119 64 98.5 110 Q78 156 78 204 Q78 232 80.5 257 Q83 282 84 289 L156 700 L245 700 L173 290 Q164 237 166 208 Q168 141 215.5 101.5 Q263 62 341 62 Q429 62 480 109 Q531 156 543 225 L627 700 L708 700 Z " />
<glyph glyph-name="Uring" unicode="&#x16e;" horiz-adv-x="725" d="M626 232 Q607 122 535.5 56.5 Q464 -9 335 -9 Q239 -9 181.5 24 Q124 57 101 105 Q78 153 78 204 Q78 232 80.5 257 Q83 282 84 289 L156 700 L245 700 L173 290 Q164 237 166 208 Q168 141 215.5 101.5 Q263 62 341 62 Q429 62 480 109 Q531 156 543 225 L627 700 L708 700 L626 232 Z M455 979 Q501 979 530 955 Q559 931 559 884 Q559 834 527 807 Q495 780 447 780 Q404 780 374 803 Q344 826 344 875 Q344 926 375.5 952.5 Q407 979 455 979 Z M453 941 Q422 941 405 924 Q388 907 388 877 Q388 845 406 831.5 Q424 818 449 818 Q479 818 495.5 834.5 Q512 851 512 882 Q512 941 453 941 Z " />
<glyph glyph-name="Utilde" unicode="&#x168;" horiz-adv-x="725" d="M626 232 Q607 122 535.5 56.5 Q464 -9 335 -9 Q239 -9 181.5 24 Q124 57 101 105 Q78 153 78 204 Q78 232 80.5 257 Q83 282 84 289 L156 700 L245 700 L173 290 Q164 237 166 208 Q168 141 215.5 101.5 Q263 62 341 62 Q429 62 480 109 Q531 156 543 225 L627 700 L708 700 L626 232 Z M394 906 Q425 906 468 881 Q488 869 501 863.5 Q514 858 529 858 Q553 858 567.5 869 Q582 880 594 899 L623 885 Q583 802 512 802 Q481 802 444 824 Q440 826 426.5 833.5 Q413 841 401 845 Q389 849 377 849 Q337 849 312 808 L283 823 Q324 906 394 906 Z " />
<glyph glyph-name="V" unicode="V" horiz-adv-x="650" d="M708 700 L329 0 L213 0 L84 700 L176 700 L287 93 L609 700 L708 700 Z " />
<glyph glyph-name="W" unicode="W" horiz-adv-x="974" d="M1023 700 L701 0 L592 0 L534 571 L274 0 L165 0 L89 700 L179 700 L240 93 L509 695 L605 695 L663 95 L935 700 L1023 700 Z " />
<glyph glyph-name="Wacute" unicode="&#x1e82;" horiz-adv-x="974" d="M1023 700 L701 0 L592 0 L534 571 L274 0 L165 0 L89 700 L179 700 L240 93 L509 695 L605 695 L663 95 L935 700 L1023 700 Z M600 769 L538 769 L624 889 L701 889 L600 769 Z " />
<glyph glyph-name="Wcircumflex" unicode="&#x174;" horiz-adv-x="974" d="M1023 700 L701 0 L592 0 L534 571 L274 0 L165 0 L89 700 L179 700 L240 93 L509 695 L605 695 L663 95 L935 700 L1023 700 Z M706 770 L642 770 L577 857 L481 770 L411 770 L542 891 L618 891 L706 770 Z " />
<glyph glyph-name="Wdieresis" unicode="&#x1e84;" horiz-adv-x="974" d="M1023 700 L701 0 L592 0 L534 571 L274 0 L165 0 L89 700 L179 700 L240 93 L509 695 L605 695 L663 95 L935 700 L1023 700 Z M473 888 Q494 888 506 877 Q518 866 518 848 Q518 823 504.5 810 Q491 797 467 797 Q446 797 434 807.5 Q422 818 422 836 Q422 861 435.5 874.5 Q449 888 473 888 Z M680 888 Q701 888 713 877 Q725 866 725 848 Q725 823 711.5 810 Q698 797 674 797 Q653 797 641 807.5 Q629 818 629 836 Q629 861 642.5 874.5 Q656 888 680 888 Z " />
<glyph glyph-name="Wgrave" unicode="&#x1e80;" horiz-adv-x="974" d="M1023 700 L701 0 L592 0 L534 571 L274 0 L165 0 L89 700 L179 700 L240 93 L509 695 L605 695 L663 95 L935 700 L1023 700 Z M597 769 L536 769 L482 889 L559 889 L597 769 Z " />
<glyph glyph-name="X" unicode="X" horiz-adv-x="658" d="M396 353 L593 0 L489 0 L334 282 L72 0 L-41 0 L283 344 L82 700 L186 700 L347 413 L612 700 L718 700 L396 353 Z " />
<glyph glyph-name="Y" unicode="Y" horiz-adv-x="613" d="M347 276 L298 0 L210 0 L258 275 L81 700 L172 700 L316 345 L585 700 L673 700 L347 276 Z " />
<glyph glyph-name="Yacute" unicode="&#xdd;" horiz-adv-x="613" d="M347 276 L298 0 L210 0 L258 275 L81 700 L172 700 L316 345 L585 700 L673 700 L347 276 Z M410 769 L348 769 L434 889 L511 889 L410 769 Z " />
<glyph glyph-name="Ycircumflex" unicode="&#x176;" horiz-adv-x="613" d="M347 276 L298 0 L210 0 L258 275 L81 700 L172 700 L316 345 L585 700 L673 700 L347 276 Z M516 770 L452 770 L387 857 L291 770 L221 770 L352 891 L428 891 L516 770 Z " />
<glyph glyph-name="Ydieresis" unicode="&#x178;" horiz-adv-x="613" d="M347 276 L298 0 L210 0 L258 275 L81 700 L172 700 L316 345 L585 700 L673 700 L347 276 Z M283 888 Q304 888 316 877 Q328 866 328 848 Q328 823 314.5 810 Q301 797 277 797 Q256 797 244 807.5 Q232 818 232 836 Q232 861 245.5 874.5 Q259 888 283 888 Z M490 888 Q511 888 523 877 Q535 866 535 848 Q535 823 521.5 810 Q508 797 484 797 Q463 797 451 807.5 Q439 818 439 836 Q439 861 452.5 874.5 Q466 888 490 888 Z " />
<glyph glyph-name="Ygrave" unicode="&#x1ef2;" horiz-adv-x="613" d="M347 276 L298 0 L210 0 L258 275 L81 700 L172 700 L316 345 L585 700 L673 700 L347 276 Z M407 769 L346 769 L292 889 L369 889 L407 769 Z " />
<glyph glyph-name="Z" unicode="Z" horiz-adv-x="610" d="M631 640 L108 67 L535 69 L522 0 L-24 0 L-13 60 L512 633 L102 631 L115 700 L641 700 L631 640 Z " />
<glyph glyph-name="Zacute" unicode="&#x179;" horiz-adv-x="610" d="M631 640 L108 67 L535 69 L522 0 L-24 0 L-13 60 L512 633 L102 631 L115 700 L641 700 L631 640 Z M414 769 L352 769 L438 889 L515 889 L414 769 Z " />
<glyph glyph-name="Zcaron" unicode="&#x17d;" horiz-adv-x="610" d="M631 640 L108 67 L535 69 L522 0 L-24 0 L-13 60 L512 633 L102 631 L115 700 L641 700 L631 640 Z M411 770 L335 770 L249 891 L313 891 L376 806 L473 891 L544 891 L411 770 Z " />
<glyph glyph-name="Zdotaccent" unicode="&#x17b;" horiz-adv-x="610" d="M631 640 L108 67 L535 69 L522 0 L-24 0 L-13 60 L512 633 L102 631 L115 700 L641 700 L631 640 Z M391 886 Q416 886 428 874 Q440 862 440 841 Q438 796 391 796 Q368 796 355.5 807 Q343 818 343 839 Q343 861 355.5 873.5 Q368 886 391 886 Z " />
<glyph glyph-name="a" unicode="a" horiz-adv-x="638" d="M599 520 L531 131 L515 0 L435 0 L447 85 Q384 -7 258 -7 Q154 -7 97.5 57.5 Q41 122 40 232 Q40 310 69 377 Q98 444 156.5 485.5 Q215 527 300 527 Q374 527 425.5 492.5 Q477 458 495 397 L520 520 L599 520 Z M404 102 Q438 134 455 183 Q472 232 472 288 Q472 369 430.5 416.5 Q389 464 314 464 Q237 464 187 412 Q156 379 140 332 Q124 285 124 234 Q124 152 166 104.5 Q208 57 284 57 Q356 57 404 102 Z " />
<glyph glyph-name="aacute" unicode="&#xe1;" horiz-adv-x="638" d="M599 520 L531 131 L515 0 L435 0 L447 85 Q384 -7 258 -7 Q154 -7 97.5 57.5 Q41 122 40 232 Q40 310 69 377 Q98 444 156.5 485.5 Q215 527 300 527 Q374 527 425.5 492.5 Q477 458 495 397 L520 520 L599 520 Z M404 102 Q438 134 455 183 Q472 232 472 288 Q472 369 430.5 416.5 Q389 464 314 464 Q237 464 187 412 Q156 379 140 332 Q124 285 124 234 Q124 152 166 104.5 Q208 57 284 57 Q356 57 404 102 Z M383 600 L321 600 L427 760 L503 760 L383 600 Z " />
<glyph glyph-name="abreve" unicode="&#x103;" horiz-adv-x="638" d="M599 520 L531 131 L515 0 L435 0 L447 85 Q384 -7 258 -7 Q154 -7 97.5 57.5 Q41 122 40 232 Q40 310 69 377 Q98 444 156.5 485.5 Q215 527 300 527 Q374 527 425.5 492.5 Q477 458 495 397 L520 520 L599 520 Z M404 102 Q438 134 455 183 Q472 232 472 288 Q472 369 430.5 416.5 Q389 464 314 464 Q237 464 187 412 Q156 379 140 332 Q124 285 124 234 Q124 152 166 104.5 Q208 57 284 57 Q356 57 404 102 Z M519 736 Q500 669 459 637.5 Q418 606 349 606 Q284 606 249.5 637.5 Q215 669 213 736 L269 742 Q271 698 291 675 Q311 652 355 652 Q395 652 422.5 675 Q450 698 463 742 L519 736 Z " />
<glyph glyph-name="acircumflex" unicode="&#xe2;" horiz-adv-x="638" d="M599 520 L531 131 L515 0 L435 0 L447 85 Q384 -7 258 -7 Q154 -7 97.5 57.5 Q41 122 40 232 Q40 310 69 377 Q98 444 156.5 485.5 Q215 527 300 527 Q374 527 425.5 492.5 Q477 458 495 397 L520 520 L599 520 Z M404 102 Q438 134 455 183 Q472 232 472 288 Q472 369 430.5 416.5 Q389 464 314 464 Q237 464 187 412 Q156 379 140 332 Q124 285 124 234 Q124 152 166 104.5 Q208 57 284 57 Q356 57 404 102 Z M508 600 L443 600 L384 727 L281 600 L212 600 L348 761 L424 761 L508 600 Z " />
<glyph glyph-name="adieresis" unicode="&#xe4;" horiz-adv-x="638" d="M599 520 L531 131 L515 0 L435 0 L447 85 Q384 -7 258 -7 Q154 -7 97.5 57.5 Q41 122 40 232 Q40 310 69 377 Q98 444 156.5 485.5 Q215 527 300 527 Q374 527 425.5 492.5 Q477 458 495 397 L520 520 L599 520 Z M404 102 Q438 134 455 183 Q472 232 472 288 Q472 369 430.5 416.5 Q389 464 314 464 Q237 464 187 412 Q156 379 140 332 Q124 285 124 234 Q124 152 166 104.5 Q208 57 284 57 Q356 57 404 102 Z M256 704 Q279 704 291 692.5 Q303 681 303 662 Q303 637 288.5 623.5 Q274 610 250 610 Q229 610 216.5 621 Q204 632 204 651 Q204 676 218 690 Q232 704 256 704 Z M462 704 Q485 704 497 692.5 Q509 681 509 662 Q509 637 494.5 623.5 Q480 610 456 610 Q435 610 422.5 621 Q410 632 410 651 Q410 676 424 690 Q438 704 462 704 Z " />
<glyph glyph-name="agrave" unicode="&#xe0;" horiz-adv-x="638" d="M599 520 L531 131 L515 0 L435 0 L447 85 Q384 -7 258 -7 Q154 -7 97.5 57.5 Q41 122 40 232 Q40 310 69 377 Q98 444 156.5 485.5 Q215 527 300 527 Q374 527 425.5 492.5 Q477 458 495 397 L520 520 L599 520 Z M404 102 Q438 134 455 183 Q472 232 472 288 Q472 369 430.5 416.5 Q389 464 314 464 Q237 464 187 412 Q156 379 140 332 Q124 285 124 234 Q124 152 166 104.5 Q208 57 284 57 Q356 57 404 102 Z M383 600 L322 600 L262 760 L340 760 L383 600 Z " />
<glyph glyph-name="amacron" unicode="&#x101;" horiz-adv-x="638" d="M599 520 L531 131 L515 0 L435 0 L447 85 Q384 -7 258 -7 Q154 -7 97.5 57.5 Q41 122 40 232 Q40 310 69 377 Q98 444 156.5 485.5 Q215 527 300 527 Q374 527 425.5 492.5 Q477 458 495 397 L520 520 L599 520 Z M404 102 Q438 134 455 183 Q472 232 472 288 Q472 369 430.5 416.5 Q389 464 314 464 Q237 464 187 412 Q156 379 140 332 Q124 285 124 234 Q124 152 166 104.5 Q208 57 284 57 Q356 57 404 102 Z M500 644 L203 644 L212 693 L509 693 L500 644 Z " />
<glyph glyph-name="aogonek" unicode="&#x105;" horiz-adv-x="667" d="M599 520 L531 131 L515 0 L435 0 L447 85 Q384 -7 258 -7 Q154 -7 97.5 57.5 Q41 122 40 232 Q40 310 69 377 Q98 444 156.5 485.5 Q215 527 300 527 Q374 527 425.5 492.5 Q477 458 495 397 L520 520 L599 520 Z M404 102 Q438 134 455 183 Q472 232 472 288 Q472 369 430.5 416.5 Q389 464 314 464 Q237 464 187 412 Q156 379 140 332 Q124 285 124 234 Q124 152 166 104.5 Q208 57 284 57 Q356 57 404 102 Z M444 -172 Q399 -172 370 -153.5 Q341 -135 341 -93 Q341 -34 392 -8 Q443 18 501 24 L514 0 Q463 -9 436.5 -24 Q410 -39 410 -71 Q410 -97 425.5 -107 Q441 -117 462 -117 Q491 -117 524 -106 L516 -162 Q476 -172 444 -172 Z " />
<glyph glyph-name="aring" unicode="&#xe5;" horiz-adv-x="638" d="M599 520 L531 131 L515 0 L435 0 L447 85 Q384 -7 258 -7 Q154 -7 97.5 57.5 Q41 122 40 232 Q40 310 69 377 Q98 444 156.5 485.5 Q215 527 300 527 Q374 527 425.5 492.5 Q477 458 495 397 L520 520 L599 520 Z M404 102 Q438 134 455 183 Q472 232 472 288 Q472 369 430.5 416.5 Q389 464 314 464 Q237 464 187 412 Q156 379 140 332 Q124 285 124 234 Q124 152 166 104.5 Q208 57 284 57 Q356 57 404 102 Z M360 799 Q406 799 435 775 Q464 751 464 704 Q464 654 432 627 Q400 600 352 600 Q309 600 279 623 Q249 646 249 695 Q249 746 280.5 772.5 Q312 799 360 799 Z M358 761 Q327 761 310 744 Q293 727 293 697 Q293 665 311 651.5 Q329 638 354 638 Q384 638 400.5 654.5 Q417 671 417 702 Q417 761 358 761 Z " />
<glyph glyph-name="atilde" unicode="&#xe3;" horiz-adv-x="640" d="M599 520 L531 131 L515 0 L435 0 L447 85 Q384 -7 258 -7 Q154 -7 97.5 57.5 Q41 122 40 232 Q40 310 69 377 Q98 444 156.5 485.5 Q215 527 300 527 Q374 527 425.5 492.5 Q477 458 495 397 L520 520 L599 520 Z M404 102 Q438 134 455 183 Q472 232 472 288 Q472 369 430.5 416.5 Q389 464 314 464 Q237 464 187 412 Q156 379 140 332 Q124 285 124 234 Q124 152 166 104.5 Q208 57 284 57 Q356 57 404 102 Z M299 726 Q330 726 373 701 Q393 689 406 683.5 Q419 678 434 678 Q458 678 472.5 689 Q487 700 499 719 L528 705 Q488 622 417 622 Q386 622 349 644 Q345 646 331.5 653.5 Q318 661 306 665 Q294 669 282 669 Q242 669 217 628 L188 643 Q229 726 299 726 Z " />
<glyph glyph-name="ae" unicode="&#xe6;" horiz-adv-x="961" d="M488 233 Q485 215 485 198 Q485 128 532 91 Q579 54 657 54 Q705 54 757.5 67 Q810 80 855 100 L848 30 Q749 -7 656 -7 Q484 -7 433 110 Q394 51 334 22 Q274 -7 201 -7 Q8 -7 8 138 Q8 232 79.5 270.5 Q151 309 275 309 Q335 309 417 301 L427 359 Q429 368 429 385 Q429 426 400 444.5 Q371 463 312 463 Q266 463 211 453.5 Q156 444 110 430 L117 500 Q223 527 317 527 Q393 527 439 502.5 Q485 478 492 426 Q570 527 708 527 Q808 527 864 471 Q920 415 920 324 Q920 292 914 266.5 Q908 241 904 233 L488 233 Z M709 466 Q635 466 579 420 Q523 374 500 287 L839 287 Q843 308 843 333 Q843 396 808.5 431 Q774 466 709 466 Z M407 249 Q337 257 280 257 Q94 257 94 141 Q94 51 202 51 Q275 51 330.5 88.5 Q386 126 397 190 L407 249 Z " />
<glyph glyph-name="aeacute" unicode="&#x1fd;" horiz-adv-x="961" d="M488 233 Q485 215 485 198 Q485 128 532 91 Q579 54 657 54 Q705 54 757.5 67 Q810 80 855 100 L848 30 Q749 -7 656 -7 Q484 -7 433 110 Q394 51 334 22 Q274 -7 201 -7 Q8 -7 8 138 Q8 232 79.5 270.5 Q151 309 275 309 Q335 309 417 301 L427 359 Q429 368 429 385 Q429 426 400 444.5 Q371 463 312 463 Q266 463 211 453.5 Q156 444 110 430 L117 500 Q223 527 317 527 Q393 527 439 502.5 Q485 478 492 426 Q570 527 708 527 Q808 527 864 471 Q920 415 920 324 Q920 292 914 266.5 Q908 241 904 233 L488 233 Z M709 466 Q635 466 579 420 Q523 374 500 287 L839 287 Q843 308 843 333 Q843 396 808.5 431 Q774 466 709 466 Z M407 249 Q337 257 280 257 Q94 257 94 141 Q94 51 202 51 Q275 51 330.5 88.5 Q386 126 397 190 L407 249 Z M523 600 L461 600 L567 760 L643 760 L523 600 Z " />
<glyph glyph-name="b" unicode="b" horiz-adv-x="638" d="M371 527 Q474 527 529.5 462 Q585 397 585 287 Q585 209 557 142 Q529 75 470.5 34 Q412 -7 327 -7 Q251 -8 199.5 26.5 Q148 61 128 123 L103 0 L26 0 L155 732 L238 732 L187 442 Q219 482 266 504.5 Q313 527 371 527 Z M439 109 Q469 140 485 186 Q501 232 501 282 Q501 365 459.5 414 Q418 463 343 463 Q270 463 221 417 Q188 386 170.5 338 Q153 290 153 238 Q153 155 195.5 106 Q238 57 312 57 Q387 57 439 109 Z " />
<glyph glyph-name="c" unicode="c" horiz-adv-x="532" d="M300 -7 Q185 -7 112.5 53 Q40 113 40 235 Q40 321 78 387.5 Q116 454 184 490.5 Q252 527 337 527 Q379 527 425 518.5 Q471 510 513 492 L494 426 Q414 464 339 464 Q272 464 223.5 435 Q175 406 149.5 356 Q124 306 124 243 Q124 151 176 103.5 Q228 56 315 56 Q352 56 390.5 66 Q429 76 462 92 L459 21 Q384 -7 300 -7 Z " />
<glyph glyph-name="cacute" unicode="&#x107;" horiz-adv-x="532" d="M300 -7 Q185 -7 112.5 53 Q40 113 40 235 Q40 321 78 387.5 Q116 454 184 490.5 Q252 527 337 527 Q379 527 425 518.5 Q471 510 513 492 L494 426 Q414 464 339 464 Q272 464 223.5 435 Q175 406 149.5 356 Q124 306 124 243 Q124 151 176 103.5 Q228 56 315 56 Q352 56 390.5 66 Q429 76 462 92 L459 21 Q384 -7 300 -7 Z M372 600 L310 600 L416 760 L492 760 L372 600 Z " />
<glyph glyph-name="ccaron" unicode="&#x10d;" horiz-adv-x="532" d="M300 -7 Q185 -7 112.5 53 Q40 113 40 235 Q40 321 78 387.5 Q116 454 184 490.5 Q252 527 337 527 Q379 527 425 518.5 Q471 510 513 492 L494 426 Q414 464 339 464 Q272 464 223.5 435 Q175 406 149.5 356 Q124 306 124 243 Q124 151 176 103.5 Q228 56 315 56 Q352 56 390.5 66 Q429 76 462 92 L459 21 Q384 -7 300 -7 Z M380 600 L303 600 L220 761 L284 761 L344 634 L446 761 L516 761 L380 600 Z " />
<glyph glyph-name="ccedilla" unicode="&#xe7;" horiz-adv-x="532" d="M300 -7 Q185 -7 112.5 53 Q40 113 40 235 Q40 321 78 387.5 Q116 454 184 490.5 Q252 527 337 527 Q379 527 425 518.5 Q471 510 513 492 L494 426 Q414 464 339 464 Q272 464 223.5 435 Q175 406 149.5 356 Q124 306 124 243 Q124 151 176 103.5 Q228 56 315 56 Q352 56 390.5 66 Q429 76 462 92 L459 21 Q384 -7 300 -7 Z M261 -44 Q300 -42 328 -59.5 Q356 -77 356 -119 Q356 -172 312.5 -197 Q269 -222 213 -222 Q192 -222 168.5 -218.5 Q145 -215 129 -210 L139 -168 Q151 -173 173 -177 Q195 -181 219 -181 Q249 -181 274.5 -167.5 Q300 -154 300 -120 Q300 -77 225 -77 Q207 -77 197 -78 L244 20 L290 20 L261 -44 Z " />
<glyph glyph-name="ccircumflex" unicode="&#x109;" horiz-adv-x="532" d="M300 -7 Q185 -7 112.5 53 Q40 113 40 235 Q40 321 78 387.5 Q116 454 184 490.5 Q252 527 337 527 Q379 527 425 518.5 Q471 510 513 492 L494 426 Q414 464 339 464 Q272 464 223.5 435 Q175 406 149.5 356 Q124 306 124 243 Q124 151 176 103.5 Q228 56 315 56 Q352 56 390.5 66 Q429 76 462 92 L459 21 Q384 -7 300 -7 Z M497 600 L432 600 L373 727 L270 600 L201 600 L337 761 L413 761 L497 600 Z " />
<glyph glyph-name="cdotaccent" unicode="&#x10b;" horiz-adv-x="532" d="M300 -7 Q185 -7 112.5 53 Q40 113 40 235 Q40 321 78 387.5 Q116 454 184 490.5 Q252 527 337 527 Q379 527 425 518.5 Q471 510 513 492 L494 426 Q414 464 339 464 Q272 464 223.5 435 Q175 406 149.5 356 Q124 306 124 243 Q124 151 176 103.5 Q228 56 315 56 Q352 56 390.5 66 Q429 76 462 92 L459 21 Q384 -7 300 -7 Z M351 720 Q376 720 389 707.5 Q402 695 400 674 Q394 627 345 627 Q322 627 309 638 Q296 649 296 668 Q296 693 310.5 706.5 Q325 720 351 720 Z " />
<glyph glyph-name="d" unicode="d" horiz-adv-x="638" d="M634 732 L529 131 L512 0 L436 0 L448 91 Q381 -7 256 -7 Q152 -7 96 56.5 Q40 120 40 231 Q40 310 68.5 377.5 Q97 445 155 486 Q213 527 297 527 Q370 527 421 493 Q472 459 491 401 L550 732 L634 732 Z M400 101 Q434 132 452.5 181.5 Q471 231 471 286 Q471 369 429.5 416.5 Q388 464 312 464 Q231 464 183 408 Q154 376 139 331 Q124 286 124 237 Q124 154 165.5 105.5 Q207 57 282 57 Q353 57 400 101 Z " />
<glyph glyph-name="eth" unicode="&#xf0;" horiz-adv-x="610" d="M460 674 Q560 533 560 352 Q560 249 527.5 167.5 Q495 86 430.5 39.5 Q366 -7 275 -7 Q161 -7 98.5 52 Q36 111 36 217 Q36 291 65.5 351.5 Q95 412 152 447.5 Q209 483 288 483 Q353 483 402 457.5 Q451 432 476 388 Q475 403 471 433 Q461 537 397 636 L299 576 L284 602 L380 661 Q349 705 301 749 L357 784 Q405 744 441 699 L541 760 L558 733 L460 674 Z M275 55 Q332 55 373 82 Q414 109 435.5 154.5 Q457 200 457 255 Q457 329 416.5 374.5 Q376 420 301 420 Q243 420 202 392.5 Q161 365 141 319 Q121 273 121 220 Q121 146 160.5 100.5 Q200 55 275 55 Z " />
<glyph glyph-name="dcaron" unicode="&#x10f;" horiz-adv-x="638" d="M550 732 L634 732 L529 131 L512 0 L436 0 L448 91 Q381 -7 256 -7 Q152 -7 96 56.5 Q40 120 40 231 Q40 310 68.5 377.5 Q97 445 155 486 Q213 527 297 527 Q370 527 421 493 Q472 459 491 401 L550 732 Z M762 732 Q746 656 714 576 L667 576 Q677 617 701 732 L762 732 Z M400 101 Q434 132 452.5 181.5 Q471 231 471 286 Q471 369 429.5 416.5 Q388 464 312 464 Q231 464 183 408 Q154 376 139 331 Q124 286 124 237 Q124 154 165.5 105.5 Q207 57 282 57 Q353 57 400 101 Z " />
<glyph glyph-name="dslash" unicode="&#x111;" horiz-adv-x="637" d="M678 606 L612 606 L529 131 L512 0 L436 0 L448 91 Q381 -7 256 -7 Q152 -7 96 56.5 Q40 120 40 231 Q40 310 68.5 377.5 Q97 445 155 486 Q213 527 297 527 Q370 527 421 493 Q472 459 491 401 L528 606 L365 606 L370 637 L533 637 L550 732 L634 732 L617 637 L682 637 L678 606 Z M400 101 Q434 132 452.5 181.5 Q471 231 471 286 Q471 369 429.5 416.5 Q388 464 312 464 Q231 464 183 408 Q154 376 139 331 Q124 286 124 237 Q124 154 165.5 105.5 Q207 57 282 57 Q353 57 400 101 Z " />
<glyph glyph-name="e" unicode="e" horiz-adv-x="574" d="M541 394 Q541 207 125 214 Q130 136 176 95 Q222 54 296 54 Q346 54 390.5 66.5 Q435 79 486 101 L483 31 Q441 12 388.5 2.5 Q336 -7 287 -7 Q170 -7 104.5 55 Q39 117 39 231 Q39 316 76 383.5 Q113 451 184 489 Q255 527 353 527 Q436 527 488.5 495 Q541 463 541 394 Z M346 466 Q256 466 197 413.5 Q138 361 127 274 L170 273 Q305 273 381 302 Q457 331 457 390 Q457 428 426 447 Q395 466 346 466 Z " />
<glyph glyph-name="eacute" unicode="&#xe9;" horiz-adv-x="574" d="M541 394 Q541 207 125 214 Q130 136 176 95 Q222 54 296 54 Q346 54 390.5 66.5 Q435 79 486 101 L483 31 Q441 12 388.5 2.5 Q336 -7 287 -7 Q170 -7 104.5 55 Q39 117 39 231 Q39 316 76 383.5 Q113 451 184 489 Q255 527 353 527 Q436 527 488.5 495 Q541 463 541 394 Z M346 466 Q256 466 197 413.5 Q138 361 127 274 L170 273 Q305 273 381 302 Q457 331 457 390 Q457 428 426 447 Q395 466 346 466 Z M362 600 L300 600 L406 760 L482 760 L362 600 Z " />
<glyph glyph-name="ebreve" unicode="&#x115;" horiz-adv-x="574" d="M541 394 Q541 207 125 214 Q130 136 176 95 Q222 54 296 54 Q346 54 390.5 66.5 Q435 79 486 101 L483 31 Q441 12 388.5 2.5 Q336 -7 287 -7 Q170 -7 104.5 55 Q39 117 39 231 Q39 316 76 383.5 Q113 451 184 489 Q255 527 353 527 Q436 527 488.5 495 Q541 463 541 394 Z M346 466 Q256 466 197 413.5 Q138 361 127 274 L170 273 Q305 273 381 302 Q457 331 457 390 Q457 428 426 447 Q395 466 346 466 Z M519 736 Q500 669 459 637.5 Q418 606 349 606 Q284 606 249.5 637.5 Q215 669 213 736 L269 742 Q271 698 291 675 Q311 652 355 652 Q395 652 422.5 675 Q450 698 463 742 L519 736 Z " />
<glyph glyph-name="ecaron" unicode="&#x11b;" horiz-adv-x="574" d="M541 394 Q541 207 125 214 Q130 136 176 95 Q222 54 296 54 Q346 54 390.5 66.5 Q435 79 486 101 L483 31 Q441 12 388.5 2.5 Q336 -7 287 -7 Q170 -7 104.5 55 Q39 117 39 231 Q39 316 76 383.5 Q113 451 184 489 Q255 527 353 527 Q436 527 488.5 495 Q541 463 541 394 Z M346 466 Q256 466 197 413.5 Q138 361 127 274 L170 273 Q305 273 381 302 Q457 331 457 390 Q457 428 426 447 Q395 466 346 466 Z M391 600 L314 600 L231 761 L295 761 L355 634 L457 761 L527 761 L391 600 Z " />
<glyph glyph-name="ecircumflex" unicode="&#xea;" horiz-adv-x="574" d="M541 394 Q541 207 125 214 Q130 136 176 95 Q222 54 296 54 Q346 54 390.5 66.5 Q435 79 486 101 L483 31 Q441 12 388.5 2.5 Q336 -7 287 -7 Q170 -7 104.5 55 Q39 117 39 231 Q39 316 76 383.5 Q113 451 184 489 Q255 527 353 527 Q436 527 488.5 495 Q541 463 541 394 Z M346 466 Q256 466 197 413.5 Q138 361 127 274 L170 273 Q305 273 381 302 Q457 331 457 390 Q457 428 426 447 Q395 466 346 466 Z M507 600 L442 600 L383 727 L280 600 L211 600 L347 761 L423 761 L507 600 Z " />
<glyph glyph-name="edieresis" unicode="&#xeb;" horiz-adv-x="574" d="M541 394 Q541 207 125 214 Q130 136 176 95 Q222 54 296 54 Q346 54 390.5 66.5 Q435 79 486 101 L483 31 Q441 12 388.5 2.5 Q336 -7 287 -7 Q170 -7 104.5 55 Q39 117 39 231 Q39 316 76 383.5 Q113 451 184 489 Q255 527 353 527 Q436 527 488.5 495 Q541 463 541 394 Z M346 466 Q256 466 197 413.5 Q138 361 127 274 L170 273 Q305 273 381 302 Q457 331 457 390 Q457 428 426 447 Q395 466 346 466 Z M255 704 Q278 704 290 692.5 Q302 681 302 662 Q302 637 287.5 623.5 Q273 610 249 610 Q228 610 215.5 621 Q203 632 203 651 Q203 676 217 690 Q231 704 255 704 Z M461 704 Q484 704 496 692.5 Q508 681 508 662 Q508 637 493.5 623.5 Q479 610 455 610 Q434 610 421.5 621 Q409 632 409 651 Q409 676 423 690 Q437 704 461 704 Z " />
<glyph glyph-name="edotaccent" unicode="&#x117;" horiz-adv-x="574" d="M541 394 Q541 207 125 214 Q130 136 176 95 Q222 54 296 54 Q346 54 390.5 66.5 Q435 79 486 101 L483 31 Q441 12 388.5 2.5 Q336 -7 287 -7 Q170 -7 104.5 55 Q39 117 39 231 Q39 316 76 383.5 Q113 451 184 489 Q255 527 353 527 Q436 527 488.5 495 Q541 463 541 394 Z M346 466 Q256 466 197 413.5 Q138 361 127 274 L170 273 Q305 273 381 302 Q457 331 457 390 Q457 428 426 447 Q395 466 346 466 Z M361 720 Q386 720 399 707.5 Q412 695 410 674 Q404 627 355 627 Q332 627 319 638 Q306 649 306 668 Q306 693 320.5 706.5 Q335 720 361 720 Z " />
<glyph glyph-name="egrave" unicode="&#xe8;" horiz-adv-x="574" d="M541 394 Q541 207 125 214 Q130 136 176 95 Q222 54 296 54 Q346 54 390.5 66.5 Q435 79 486 101 L483 31 Q441 12 388.5 2.5 Q336 -7 287 -7 Q170 -7 104.5 55 Q39 117 39 231 Q39 316 76 383.5 Q113 451 184 489 Q255 527 353 527 Q436 527 488.5 495 Q541 463 541 394 Z M346 466 Q256 466 197 413.5 Q138 361 127 274 L170 273 Q305 273 381 302 Q457 331 457 390 Q457 428 426 447 Q395 466 346 466 Z M382 600 L321 600 L261 760 L339 760 L382 600 Z " />
<glyph glyph-name="emacron" unicode="&#x113;" horiz-adv-x="574" d="M541 394 Q541 207 125 214 Q130 136 176 95 Q222 54 296 54 Q346 54 390.5 66.5 Q435 79 486 101 L483 31 Q441 12 388.5 2.5 Q336 -7 287 -7 Q170 -7 104.5 55 Q39 117 39 231 Q39 316 76 383.5 Q113 451 184 489 Q255 527 353 527 Q436 527 488.5 495 Q541 463 541 394 Z M346 466 Q256 466 197 413.5 Q138 361 127 274 L170 273 Q305 273 381 302 Q457 331 457 390 Q457 428 426 447 Q395 466 346 466 Z M500 644 L203 644 L212 693 L509 693 L500 644 Z " />
<glyph glyph-name="eogonek" unicode="&#x119;" horiz-adv-x="574" d="M541 394 Q541 207 125 214 Q130 136 176 95 Q222 54 296 54 Q346 54 390.5 66.5 Q435 79 486 101 L483 31 Q445 14 402 5 Q358 -8 339 -23.5 Q320 -39 320 -73 Q320 -98 337.5 -107.5 Q355 -117 376 -117 Q411 -117 444 -106 L436 -161 Q392 -172 356 -172 Q311 -172 281 -153.5 Q251 -135 251 -92 Q251 -39 293 -7 L287 -7 Q170 -7 104.5 55 Q39 117 39 231 Q39 316 76 383.5 Q113 451 184 489 Q255 527 353 527 Q436 527 488.5 495 Q541 463 541 394 Z M346 466 Q256 466 197 413.5 Q138 361 127 274 L170 273 Q305 273 381 302 Q457 331 457 390 Q457 428 426 447 Q395 466 346 466 Z " />
<glyph glyph-name="f" unicode="f" horiz-adv-x="351" d="M323 739 Q391 739 430 727 L415 661 Q379 678 334 678 Q290 678 267 653 Q244 628 235 577 L225 520 L381 520 L371 461 L214 461 L114 -110 L32 -110 L132 461 L57 461 L67 520 L143 520 L154 583 Q167 658 205.5 698.5 Q244 739 323 739 Z " />
<glyph glyph-name="g" unicode="g" horiz-adv-x="629" d="M597 520 L515 48 Q494 -68 419.5 -121 Q345 -174 232 -174 Q170 -174 107.5 -162.5 Q45 -151 0 -132 L21 -62 Q67 -83 117 -97 Q167 -111 229 -111 Q407 -111 435 45 L446 106 Q393 17 270 17 Q165 17 103.5 75 Q42 133 42 246 Q42 329 74.5 392.5 Q107 456 166.5 491.5 Q226 527 304 527 Q379 527 428.5 493.5 Q478 460 496 402 L521 520 L597 520 Z M472 291 Q472 372 431.5 418.5 Q391 465 317 465 Q258 465 214.5 436 Q171 407 148.5 358.5 Q126 310 126 253 Q126 174 169.5 126.5 Q213 79 290 79 Q352 79 393 109 Q434 139 453 187.5 Q472 236 472 291 Z " />
<glyph glyph-name="gbreve" unicode="&#x11f;" horiz-adv-x="629" d="M597 520 L515 48 Q494 -68 419.5 -121 Q345 -174 232 -174 Q170 -174 107.5 -162.5 Q45 -151 0 -132 L21 -62 Q67 -83 117 -97 Q167 -111 229 -111 Q407 -111 435 45 L446 106 Q393 17 270 17 Q165 17 103.5 75 Q42 133 42 246 Q42 329 74.5 392.5 Q107 456 166.5 491.5 Q226 527 304 527 Q379 527 428.5 493.5 Q478 460 496 402 L521 520 L597 520 Z M472 291 Q472 372 431.5 418.5 Q391 465 317 465 Q258 465 214.5 436 Q171 407 148.5 358.5 Q126 310 126 253 Q126 174 169.5 126.5 Q213 79 290 79 Q352 79 393 109 Q434 139 453 187.5 Q472 236 472 291 Z M519 736 Q500 669 459 637.5 Q418 606 349 606 Q284 606 249.5 637.5 Q215 669 213 736 L269 742 Q271 698 291 675 Q311 652 355 652 Q395 652 422.5 675 Q450 698 463 742 L519 736 Z " />
<glyph glyph-name="gcircumflex" unicode="&#x11d;" horiz-adv-x="629" d="M597 520 L515 48 Q494 -68 419.5 -121 Q345 -174 232 -174 Q170 -174 107.5 -162.5 Q45 -151 0 -132 L21 -62 Q67 -83 117 -97 Q167 -111 229 -111 Q407 -111 435 45 L446 106 Q393 17 270 17 Q165 17 103.5 75 Q42 133 42 246 Q42 329 74.5 392.5 Q107 456 166.5 491.5 Q226 527 304 527 Q379 527 428.5 493.5 Q478 460 496 402 L521 520 L597 520 Z M472 291 Q472 372 431.5 418.5 Q391 465 317 465 Q258 465 214.5 436 Q171 407 148.5 358.5 Q126 310 126 253 Q126 174 169.5 126.5 Q213 79 290 79 Q352 79 393 109 Q434 139 453 187.5 Q472 236 472 291 Z M507 600 L442 600 L383 727 L280 600 L211 600 L347 761 L423 761 L507 600 Z " />
<glyph glyph-name="gcommaaccent" unicode="&#x123;" horiz-adv-x="629" d="M326 594 Q335 642 344 670 Q353 698 372 746 L425 746 Q412 704 403.5 673.5 Q395 643 386 594 L326 594 Z M597 520 L515 48 Q494 -68 419.5 -121 Q345 -174 232 -174 Q170 -174 107.5 -162.5 Q45 -151 0 -132 L21 -62 Q67 -83 117 -97 Q167 -111 229 -111 Q407 -111 435 45 L446 106 Q393 17 270 17 Q165 17 103.5 75 Q42 133 42 246 Q42 329 74.5 392.5 Q107 456 166.5 491.5 Q226 527 304 527 Q379 527 428.5 493.5 Q478 460 496 402 L521 520 L597 520 Z M472 291 Q472 372 431.5 418.5 Q391 465 317 465 Q258 465 214.5 436 Q171 407 148.5 358.5 Q126 310 126 253 Q126 174 169.5 126.5 Q213 79 290 79 Q352 79 393 109 Q434 139 453 187.5 Q472 236 472 291 Z " />
<glyph glyph-name="gdotaccent" unicode="&#x121;" horiz-adv-x="629" d="M597 520 L515 48 Q494 -68 419.5 -121 Q345 -174 232 -174 Q170 -174 107.5 -162.5 Q45 -151 0 -132 L21 -62 Q67 -83 117 -97 Q167 -111 229 -111 Q407 -111 435 45 L446 106 Q393 17 270 17 Q165 17 103.5 75 Q42 133 42 246 Q42 329 74.5 392.5 Q107 456 166.5 491.5 Q226 527 304 527 Q379 527 428.5 493.5 Q478 460 496 402 L521 520 L597 520 Z M472 291 Q472 372 431.5 418.5 Q391 465 317 465 Q258 465 214.5 436 Q171 407 148.5 358.5 Q126 310 126 253 Q126 174 169.5 126.5 Q213 79 290 79 Q352 79 393 109 Q434 139 453 187.5 Q472 236 472 291 Z M361 720 Q386 720 399 707.5 Q412 695 410 674 Q404 627 355 627 Q332 627 319 638 Q306 649 306 668 Q306 693 320.5 706.5 Q335 720 361 720 Z " />
<glyph glyph-name="h" unicode="h" horiz-adv-x="613" d="M372 527 Q464 527 504.5 478.5 Q545 430 545 355 Q545 331 539 291 L487 0 L404 0 L455 291 Q460 324 460 343 Q460 399 431 431.5 Q402 464 342 464 Q267 464 220.5 412.5 Q174 361 158 272 L110 0 L26 0 L155 732 L238 732 L186 432 Q250 527 372 527 Z " />
<glyph glyph-name="hbar" unicode="&#x127;" horiz-adv-x="614" d="M373 527 Q465 527 505.5 478.5 Q546 430 546 355 Q546 331 540 291 L488 0 L405 0 L456 291 Q461 324 461 343 Q461 399 432 431.5 Q403 464 343 464 Q268 464 221.5 412.5 Q175 361 159 272 L111 0 L27 0 L133 602 L63 602 L70 642 L140 642 L156 732 L239 732 L223 642 L380 642 L373 602 L216 602 L187 432 Q251 527 373 527 Z " />
<glyph glyph-name="hcircumflex" unicode="&#x125;" horiz-adv-x="613" d="M372 527 Q464 527 504.5 478.5 Q545 430 545 355 Q545 331 539 291 L487 0 L404 0 L455 291 Q460 324 460 343 Q460 399 431 431.5 Q402 464 342 464 Q267 464 220.5 412.5 Q174 361 158 272 L110 0 L26 0 L155 732 L238 732 L186 432 Q250 527 372 527 Z M341 770 L277 770 L212 857 L116 770 L46 770 L177 891 L253 891 L341 770 Z " />
<glyph glyph-name="i" unicode="i" horiz-adv-x="252" d="M196 702 Q220 702 232.5 691.5 Q245 681 245 661 Q245 635 230.5 621.5 Q216 608 190 608 Q167 608 154 619 Q141 630 141 649 Q141 675 155.5 688.5 Q170 702 196 702 Z M129 0 L45 0 L127 461 L30 461 L41 520 L221 520 L129 0 Z " />
<glyph glyph-name="dotlessi" unicode="&#x131;" horiz-adv-x="244" d="M121 0 L37 0 L119 461 L30 461 L41 520 L213 520 L121 0 Z " />
<glyph glyph-name="iacute" unicode="&#xed;" horiz-adv-x="244" d="M121 0 L37 0 L119 461 L30 461 L41 520 L213 520 L121 0 Z M184 600 L122 600 L228 760 L304 760 L184 600 Z " />
<glyph glyph-name="ibreve" unicode="&#x12d;" horiz-adv-x="244" d="M121 0 L37 0 L119 461 L30 461 L41 520 L213 520 L121 0 Z M311 736 Q292 669 251 637.5 Q210 606 141 606 Q76 606 41.5 637.5 Q7 669 5 736 L61 742 Q63 698 83 675 Q103 652 147 652 Q187 652 214.5 675 Q242 698 255 742 L311 736 Z " />
<glyph glyph-name="icircumflex" unicode="&#xee;" horiz-adv-x="261" d="M121 0 L37 0 L119 461 L30 461 L41 520 L213 520 L121 0 Z M289 600 L224 600 L165 727 L62 600 L-7 600 L129 761 L205 761 L289 600 Z " />
<glyph glyph-name="idieresis" unicode="&#xef;" horiz-adv-x="244" d="M121 0 L37 0 L119 461 L30 461 L41 520 L213 520 L121 0 Z M52 704 Q75 704 87 692.5 Q99 681 99 662 Q99 637 84.5 623.5 Q70 610 46 610 Q25 610 12.5 621 Q0 632 0 651 Q0 676 14 690 Q28 704 52 704 Z M258 704 Q281 704 293 692.5 Q305 681 305 662 Q305 637 290.5 623.5 Q276 610 252 610 Q231 610 218.5 621 Q206 632 206 651 Q206 676 220 690 Q234 704 258 704 Z " />
<glyph glyph-name="igrave" unicode="&#xec;" horiz-adv-x="261" d="M121 0 L37 0 L119 461 L30 461 L41 520 L213 520 L121 0 Z M185 600 L124 600 L64 760 L142 760 L185 600 Z " />
<glyph glyph-name="imacron" unicode="&#x12b;" horiz-adv-x="244" d="M121 0 L37 0 L119 461 L30 461 L41 520 L213 520 L121 0 Z M295 644 L-2 644 L7 693 L304 693 L295 644 Z " />
<glyph glyph-name="iogonek" unicode="&#x12f;" horiz-adv-x="252" d="M196 702 Q220 702 232.5 691.5 Q245 681 245 661 Q245 635 230.5 621.5 Q216 608 190 608 Q167 608 154 619 Q141 630 141 649 Q141 675 155.5 688.5 Q170 702 196 702 Z M129 0 L45 0 L127 461 L30 461 L41 520 L221 520 L129 0 Z M59 -172 Q14 -172 -15 -153.5 Q-44 -135 -44 -93 Q-44 -34 7 -8 Q58 18 116 24 L129 0 Q78 -9 51.5 -24 Q25 -39 25 -71 Q25 -97 40.5 -107 Q56 -117 77 -117 Q106 -117 139 -106 L131 -162 Q91 -172 59 -172 Z " />
<glyph glyph-name="itilde" unicode="&#x129;" horiz-adv-x="261" d="M121 0 L37 0 L119 461 L30 461 L41 520 L213 520 L121 0 Z M101 726 Q132 726 175 701 Q195 689 208 683.5 Q221 678 236 678 Q260 678 274.5 689 Q289 700 301 719 L330 705 Q290 622 219 622 Q188 622 151 644 Q147 646 133.5 653.5 Q120 661 108 665 Q96 669 84 669 Q44 669 19 628 L-10 643 Q31 726 101 726 Z " />
<glyph glyph-name="j" unicode="j" horiz-adv-x="252" d="M196 702 Q220 702 232.5 691.5 Q245 681 245 661 Q245 635 230.5 621.5 Q216 608 190 608 Q167 608 154 619 Q141 630 141 649 Q141 675 155.5 688.5 Q170 702 196 702 Z M122 -42 Q100 -172 -38 -172 Q-89 -172 -124 -160 L-111 -99 Q-82 -111 -45 -111 Q-10 -111 12 -95 Q34 -79 40 -40 L128 461 L32 461 L42 520 L221 520 L122 -42 Z " />
<glyph glyph-name="jcircumflex" unicode="&#x135;" horiz-adv-x="252" d="M293 600 L228 600 L169 727 L66 600 L-3 600 L133 761 L209 761 L293 600 Z M122 -42 Q100 -172 -38 -172 Q-89 -172 -124 -160 L-111 -99 Q-82 -111 -45 -111 Q-10 -111 12 -95 Q34 -79 40 -40 L128 461 L32 461 L42 520 L221 520 L122 -42 Z " />
<glyph glyph-name="k" unicode="k" horiz-adv-x="533" d="M327 323 L470 0 L382 0 L264 269 L136 158 L108 0 L26 0 L156 732 L238 732 L153 255 L457 520 L555 520 L327 323 Z " />
<glyph glyph-name="kcommaaccent" unicode="&#x137;" horiz-adv-x="533" d="M327 323 L470 0 L382 0 L264 269 L136 158 L108 0 L26 0 L156 732 L238 732 L153 255 L457 520 L555 520 L327 323 Z M275 -74 Q266 -122 257 -150 Q248 -178 229 -226 L176 -226 Q189 -184 197.5 -153.5 Q206 -123 215 -74 L275 -74 Z " />
<glyph glyph-name="kgreenlandic" unicode="&#x138;" horiz-adv-x="526" d="M320 322 L463 0 L373 0 L256 267 L131 158 L103 0 L18 0 L111 520 L195 520 L148 255 L452 520 L548 520 L320 322 Z " />
<glyph glyph-name="l" unicode="l" horiz-adv-x="268" d="M130 122 Q125 95 125 86 Q125 70 134.5 63.5 Q144 57 163 57 Q175 57 195 62.5 Q215 68 223 70 L211 2 Q164 -7 127 -7 Q83 -7 61.5 10.5 Q40 28 40 66 Q40 74 44 102 L156 732 L238 732 L130 122 Z " />
<glyph glyph-name="lacute" unicode="&#x13a;" horiz-adv-x="268" d="M130 122 Q125 95 125 86 Q125 70 134.5 63.5 Q144 57 163 57 Q175 57 195 62.5 Q215 68 223 70 L211 2 Q164 -7 127 -7 Q83 -7 61.5 10.5 Q40 28 40 66 Q40 74 44 102 L156 732 L238 732 L130 122 Z M235 769 L173 769 L259 889 L336 889 L235 769 Z " />
<glyph glyph-name="lcaron" unicode="&#x13e;" horiz-adv-x="269" d="M130 122 Q125 95 125 86 Q125 70 134.5 63.5 Q144 57 163 57 Q175 57 195 62.5 Q215 68 223 70 L211 2 Q164 -7 127 -7 Q83 -7 61.5 10.5 Q40 28 40 66 Q40 74 44 102 L156 732 L238 732 L130 122 Z M371 732 Q355 656 323 576 L276 576 Q286 617 310 732 L371 732 Z " />
<glyph glyph-name="lcommaaccent" unicode="&#x13c;" horiz-adv-x="268" d="M130 122 Q125 95 125 86 Q125 70 134.5 63.5 Q144 57 163 57 Q175 57 195 62.5 Q215 68 223 70 L211 2 Q164 -7 127 -7 Q83 -7 61.5 10.5 Q40 28 40 66 Q40 74 44 102 L156 732 L238 732 L130 122 Z M143 -74 Q134 -122 125 -150 Q116 -178 97 -226 L44 -226 Q57 -184 65.5 -153.5 Q74 -123 83 -74 L143 -74 Z " />
<glyph glyph-name="lslash" unicode="&#x142;" horiz-adv-x="309" d="M153 122 Q148 95 148 86 Q148 70 157.5 63.5 Q167 57 186 57 Q198 57 218 62.5 Q238 68 246 70 L234 2 Q187 -7 150 -7 Q106 -7 84.5 10.5 Q63 28 63 66 Q63 74 67 102 L99 280 L8 231 L17 279 L107 328 L179 732 L261 732 L198 377 L301 433 L293 385 L190 329 L153 122 Z " />
<glyph glyph-name="m" unicode="m" horiz-adv-x="909" d="M687 527 Q769 527 806 482 Q843 437 843 366 Q843 337 838 309 L784 0 L701 0 L755 308 Q759 329 759 356 Q759 464 659 464 Q596 464 555.5 419.5 Q515 375 500 295 L448 0 L364 0 L413 271 L416 292 Q423 329 423 351 Q423 402 398.5 433 Q374 464 321 464 Q253 464 214 416 Q175 368 163 297 L110 0 L27 0 L96 391 L110 520 L185 520 L176 435 Q204 480 249 503.5 Q294 527 346 527 Q406 527 443 498 Q480 469 494 419 Q526 472 575.5 499.5 Q625 527 687 527 Z " />
<glyph glyph-name="n" unicode="n" horiz-adv-x="614" d="M385 527 Q469 527 509 481.5 Q549 436 549 362 Q549 334 543 304 L489 0 L407 0 L458 293 Q464 329 464 347 Q464 464 354 464 Q275 464 224.5 408 Q174 352 159 271 L111 0 L28 0 L94 375 L110 520 L186 520 L176 420 Q212 473 266.5 500 Q321 527 385 527 Z " />
<glyph glyph-name="nacute" unicode="&#x144;" horiz-adv-x="614" d="M385 527 Q469 527 509 481.5 Q549 436 549 362 Q549 334 543 304 L489 0 L407 0 L458 293 Q464 329 464 347 Q464 464 354 464 Q275 464 224.5 408 Q174 352 159 271 L111 0 L28 0 L94 375 L110 520 L186 520 L176 420 Q212 473 266.5 500 Q321 527 385 527 Z M379 600 L317 600 L423 760 L499 760 L379 600 Z " />
<glyph glyph-name="ncaron" unicode="&#x148;" horiz-adv-x="614" d="M385 527 Q469 527 509 481.5 Q549 436 549 362 Q549 334 543 304 L489 0 L407 0 L458 293 Q464 329 464 347 Q464 464 354 464 Q275 464 224.5 408 Q174 352 159 271 L111 0 L28 0 L94 375 L110 520 L186 520 L176 420 Q212 473 266.5 500 Q321 527 385 527 Z M388 600 L311 600 L228 761 L292 761 L352 634 L454 761 L524 761 L388 600 Z " />
<glyph glyph-name="ncommaaccent" unicode="&#x146;" horiz-adv-x="614" d="M385 527 Q469 527 509 481.5 Q549 436 549 362 Q549 334 543 304 L489 0 L407 0 L458 293 Q464 329 464 347 Q464 464 354 464 Q275 464 224.5 408 Q174 352 159 271 L111 0 L28 0 L94 375 L110 520 L186 520 L176 420 Q212 473 266.5 500 Q321 527 385 527 Z M296 -74 Q287 -122 278 -150 Q269 -178 250 -226 L197 -226 Q210 -184 218.5 -153.5 Q227 -123 236 -74 L296 -74 Z " />
<glyph glyph-name="eng" unicode="&#x14b;" horiz-adv-x="615" d="M383 527 Q469 527 509 482 Q549 437 549 363 Q549 329 544 304 L489 -9 Q476 -80 429 -113.5 Q382 -147 301 -162 L292 -106 Q391 -86 405 -9 L458 293 Q464 331 464 348 Q464 399 437 431 Q410 463 350 463 Q271 463 223 407.5 Q175 352 161 271 L113 0 L28 0 L94 375 L110 520 L187 520 L176 415 Q211 469 264 498 Q317 527 383 527 Z " />
<glyph glyph-name="ntilde" unicode="&#xf1;" horiz-adv-x="614" d="M385 527 Q469 527 509 481.5 Q549 436 549 362 Q549 334 543 304 L489 0 L407 0 L458 293 Q464 329 464 347 Q464 464 354 464 Q275 464 224.5 408 Q174 352 159 271 L111 0 L28 0 L94 375 L110 520 L186 520 L176 420 Q212 473 266.5 500 Q321 527 385 527 Z M295 726 Q326 726 369 701 Q389 689 402 683.5 Q415 678 430 678 Q454 678 468.5 689 Q483 700 495 719 L524 705 Q484 622 413 622 Q382 622 345 644 Q341 646 327.5 653.5 Q314 661 302 665 Q290 669 278 669 Q238 669 213 628 L184 643 Q225 726 295 726 Z " />
<glyph glyph-name="o" unicode="o" horiz-adv-x="621" d="M327 527 Q397 527 451.5 500.5 Q506 474 537 421 Q568 368 568 292 Q568 206 534.5 138 Q501 70 436 31 Q371 -8 281 -8 Q211 -8 156 19 Q101 46 70 99.5 Q39 153 39 230 Q39 315 73 382.5 Q107 450 172 488.5 Q237 527 327 527 Z M320 464 Q258 464 213.5 432 Q169 400 146 346.5 Q123 293 123 229 Q123 145 168 100.5 Q213 56 287 56 Q350 56 394.5 88 Q439 120 462 173.5 Q485 227 485 291 Q485 375 439.5 419.5 Q394 464 320 464 Z " />
<glyph glyph-name="oacute" unicode="&#xf3;" horiz-adv-x="621" d="M327 527 Q397 527 451.5 500.5 Q506 474 537 421 Q568 368 568 292 Q568 206 534.5 138 Q501 70 436 31 Q371 -8 281 -8 Q211 -8 156 19 Q101 46 70 99.5 Q39 153 39 230 Q39 315 73 382.5 Q107 450 172 488.5 Q237 527 327 527 Z M320 464 Q258 464 213.5 432 Q169 400 146 346.5 Q123 293 123 229 Q123 145 168 100.5 Q213 56 287 56 Q350 56 394.5 88 Q439 120 462 173.5 Q485 227 485 291 Q485 375 439.5 419.5 Q394 464 320 464 Z M367 600 L305 600 L411 760 L487 760 L367 600 Z " />
<glyph glyph-name="obreve" unicode="&#x14f;" horiz-adv-x="621" d="M327 527 Q397 527 451.5 500.5 Q506 474 537 421 Q568 368 568 292 Q568 206 534.5 138 Q501 70 436 31 Q371 -8 281 -8 Q211 -8 156 19 Q101 46 70 99.5 Q39 153 39 230 Q39 315 73 382.5 Q107 450 172 488.5 Q237 527 327 527 Z M320 464 Q258 464 213.5 432 Q169 400 146 346.5 Q123 293 123 229 Q123 145 168 100.5 Q213 56 287 56 Q350 56 394.5 88 Q439 120 462 173.5 Q485 227 485 291 Q485 375 439.5 419.5 Q394 464 320 464 Z M503 736 Q484 669 443 637.5 Q402 606 333 606 Q268 606 233.5 637.5 Q199 669 197 736 L253 742 Q255 698 275 675 Q295 652 339 652 Q379 652 406.5 675 Q434 698 447 742 L503 736 Z " />
<glyph glyph-name="ocircumflex" unicode="&#xf4;" horiz-adv-x="621" d="M327 527 Q397 527 451.5 500.5 Q506 474 537 421 Q568 368 568 292 Q568 206 534.5 138 Q501 70 436 31 Q371 -8 281 -8 Q211 -8 156 19 Q101 46 70 99.5 Q39 153 39 230 Q39 315 73 382.5 Q107 450 172 488.5 Q237 527 327 527 Z M320 464 Q258 464 213.5 432 Q169 400 146 346.5 Q123 293 123 229 Q123 145 168 100.5 Q213 56 287 56 Q350 56 394.5 88 Q439 120 462 173.5 Q485 227 485 291 Q485 375 439.5 419.5 Q394 464 320 464 Z M492 600 L427 600 L368 727 L265 600 L196 600 L332 761 L408 761 L492 600 Z " />
<glyph glyph-name="odieresis" unicode="&#xf6;" horiz-adv-x="621" d="M327 527 Q397 527 451.5 500.5 Q506 474 537 421 Q568 368 568 292 Q568 206 534.5 138 Q501 70 436 31 Q371 -8 281 -8 Q211 -8 156 19 Q101 46 70 99.5 Q39 153 39 230 Q39 315 73 382.5 Q107 450 172 488.5 Q237 527 327 527 Z M320 464 Q258 464 213.5 432 Q169 400 146 346.5 Q123 293 123 229 Q123 145 168 100.5 Q213 56 287 56 Q350 56 394.5 88 Q439 120 462 173.5 Q485 227 485 291 Q485 375 439.5 419.5 Q394 464 320 464 Z M240 704 Q263 704 275 692.5 Q287 681 287 662 Q287 637 272.5 623.5 Q258 610 234 610 Q213 610 200.5 621 Q188 632 188 651 Q188 676 202 690 Q216 704 240 704 Z M446 704 Q469 704 481 692.5 Q493 681 493 662 Q493 637 478.5 623.5 Q464 610 440 610 Q419 610 406.5 621 Q394 632 394 651 Q394 676 408 690 Q422 704 446 704 Z " />
<glyph glyph-name="ograve" unicode="&#xf2;" horiz-adv-x="621" d="M327 527 Q397 527 451.5 500.5 Q506 474 537 421 Q568 368 568 292 Q568 206 534.5 138 Q501 70 436 31 Q371 -8 281 -8 Q211 -8 156 19 Q101 46 70 99.5 Q39 153 39 230 Q39 315 73 382.5 Q107 450 172 488.5 Q237 527 327 527 Z M320 464 Q258 464 213.5 432 Q169 400 146 346.5 Q123 293 123 229 Q123 145 168 100.5 Q213 56 287 56 Q350 56 394.5 88 Q439 120 462 173.5 Q485 227 485 291 Q485 375 439.5 419.5 Q394 464 320 464 Z M367 600 L306 600 L246 760 L324 760 L367 600 Z " />
<glyph glyph-name="ohungarumlaut" unicode="&#x151;" horiz-adv-x="621" d="M327 527 Q397 527 451.5 500.5 Q506 474 537 421 Q568 368 568 292 Q568 206 534.5 138 Q501 70 436 31 Q371 -8 281 -8 Q211 -8 156 19 Q101 46 70 99.5 Q39 153 39 230 Q39 315 73 382.5 Q107 450 172 488.5 Q237 527 327 527 Z M320 464 Q258 464 213.5 432 Q169 400 146 346.5 Q123 293 123 229 Q123 145 168 100.5 Q213 56 287 56 Q350 56 394.5 88 Q439 120 462 173.5 Q485 227 485 291 Q485 375 439.5 419.5 Q394 464 320 464 Z M283 600 L221 600 L324 760 L404 760 L283 600 Z M431 600 L369 600 L472 760 L552 760 L431 600 Z " />
<glyph glyph-name="omacron" unicode="&#x14d;" horiz-adv-x="621" d="M327 527 Q397 527 451.5 500.5 Q506 474 537 421 Q568 368 568 292 Q568 206 534.5 138 Q501 70 436 31 Q371 -8 281 -8 Q211 -8 156 19 Q101 46 70 99.5 Q39 153 39 230 Q39 315 73 382.5 Q107 450 172 488.5 Q237 527 327 527 Z M320 464 Q258 464 213.5 432 Q169 400 146 346.5 Q123 293 123 229 Q123 145 168 100.5 Q213 56 287 56 Q350 56 394.5 88 Q439 120 462 173.5 Q485 227 485 291 Q485 375 439.5 419.5 Q394 464 320 464 Z M494 644 L197 644 L206 693 L503 693 L494 644 Z " />
<glyph glyph-name="oslash" unicode="&#xf8;" horiz-adv-x="621" d="M494 472 Q529 442 548.5 396.5 Q568 351 568 293 Q568 207 534.5 138.5 Q501 70 436 31 Q371 -8 281 -8 Q193 -8 132 33 L77 -33 L30 -33 L104 56 Q39 119 39 230 Q39 315 73 382.5 Q107 450 172 488.5 Q237 527 327 527 Q407 527 465 493 L514 553 L561 553 L494 472 Z M123 228 Q123 163 154 117 L418 437 Q377 464 320 464 Q258 464 213.5 431.5 Q169 399 146 345.5 Q123 292 123 228 Z M485 291 Q485 367 445 413 L179 91 Q220 56 287 56 Q350 56 394.5 88 Q439 120 462 173.5 Q485 227 485 291 Z " />
<glyph glyph-name="oslashacute" unicode="&#x1ff;" horiz-adv-x="621" d="M351 600 L289 600 L395 760 L471 760 L351 600 Z M498 469 Q568 404 568 293 Q568 207 534.5 138.5 Q501 70 436 31 Q371 -8 281 -8 Q197 -8 136 30 L84 -33 L37 -33 L108 53 Q75 83 57 128 Q39 173 39 231 Q39 316 73 383 Q107 450 172 488.5 Q237 527 327 527 Q411 527 469 490 L521 553 L568 553 L498 469 Z M123 228 Q123 158 157 113 L422 434 Q382 464 320 464 Q258 464 213.5 431.5 Q169 399 146 345.5 Q123 292 123 228 Z M485 291 Q485 362 449 409 L183 87 Q224 56 287 56 Q350 56 394.5 88 Q439 120 462 173.5 Q485 227 485 291 Z " />
<glyph glyph-name="otilde" unicode="&#xf5;" horiz-adv-x="621" d="M327 527 Q397 527 451.5 500.5 Q506 474 537 421 Q568 368 568 292 Q568 206 534.5 138 Q501 70 436 31 Q371 -8 281 -8 Q211 -8 156 19 Q101 46 70 99.5 Q39 153 39 230 Q39 315 73 382.5 Q107 450 172 488.5 Q237 527 327 527 Z M320 464 Q258 464 213.5 432 Q169 400 146 346.5 Q123 293 123 229 Q123 145 168 100.5 Q213 56 287 56 Q350 56 394.5 88 Q439 120 462 173.5 Q485 227 485 291 Q485 375 439.5 419.5 Q394 464 320 464 Z M283 726 Q314 726 357 701 Q377 689 390 683.5 Q403 678 418 678 Q442 678 456.5 689 Q471 700 483 719 L512 705 Q472 622 401 622 Q370 622 333 644 Q329 646 315.5 653.5 Q302 661 290 665 Q278 669 266 669 Q226 669 201 628 L172 643 Q213 726 283 726 Z " />
<glyph glyph-name="oe" unicode="&#x153;" horiz-adv-x="1019" d="M698 221 Q624 221 569 231 L569 225 Q569 54 744 54 Q794 54 843 66 Q892 78 931 97 L928 31 Q885 12 832.5 2.5 Q780 -7 728 -7 Q646 -7 591.5 23 Q537 53 512 111 Q477 55 418.5 23.5 Q360 -8 281 -8 Q211 -8 156 19 Q101 46 70 99.5 Q39 153 39 230 Q39 315 73 382.5 Q107 450 172 488.5 Q237 527 327 527 Q404 527 461 493.5 Q518 460 541 395 Q580 457 644.5 492 Q709 527 796 527 Q880 527 932.5 493 Q985 459 985 385 Q985 221 698 221 Z M485 291 Q485 375 439.5 419.5 Q394 464 320 464 Q258 464 213.5 432 Q169 400 146 346.5 Q123 293 123 229 Q123 145 168 100.5 Q213 56 287 56 Q350 56 394.5 88 Q439 120 462 173.5 Q485 227 485 291 Z M790 464 Q706 464 649 414 Q592 364 576 284 Q583 283 616.5 279.5 Q650 276 691 276 Q901 276 902 382 Q902 424 871.5 444 Q841 464 790 464 Z " />
<glyph glyph-name="p" unicode="p" horiz-adv-x="644" d="M370 527 Q475 527 533 462.5 Q591 398 591 288 Q591 210 561.5 142.5 Q532 75 472.5 34 Q413 -7 328 -7 Q255 -7 203 26 Q151 59 132 119 L80 -170 L-3 -170 L93 376 L110 520 L182 520 L172 429 Q205 475 255.5 501 Q306 527 370 527 Z M446 112 Q476 145 491.5 191.5 Q507 238 507 286 Q507 367 463.5 415 Q420 463 345 463 Q273 463 225 418 Q189 386 171 335 Q153 284 153 232 Q153 152 196 104 Q239 56 315 56 Q395 56 446 112 Z " />
<glyph glyph-name="thorn" unicode="&#xfe;" horiz-adv-x="638" d="M363 527 Q469 527 527 463 Q585 399 585 288 Q585 210 555.5 142.5 Q526 75 467 33.5 Q408 -8 323 -8 Q249 -8 197.5 23.5 Q146 55 124 111 L74 -170 L-11 -170 L142 700 L227 700 L183 450 Q217 486 263 506.5 Q309 527 363 527 Z M446 118 Q474 151 487.5 195.5 Q501 240 501 286 Q501 367 457.5 414.5 Q414 462 339 462 Q266 462 216 415 Q181 383 164 333 Q147 283 147 232 Q147 152 190.5 104.5 Q234 57 309 57 Q393 57 446 118 Z " />
<glyph glyph-name="q" unicode="q" horiz-adv-x="628" d="M597 520 L475 -170 L392 -170 L435 74 Q374 -7 259 -7 Q153 -7 97 57 Q41 121 40 231 Q40 309 68.5 376.5 Q97 444 156 485.5 Q215 527 301 527 Q372 527 423.5 493 Q475 459 494 398 L519 520 L597 520 Z M400 101 Q435 133 453 182.5 Q471 232 471 288 Q471 369 429 416.5 Q387 464 312 464 Q241 464 191 416 Q158 385 141 336 Q124 287 124 233 Q124 152 166 104.5 Q208 57 283 57 Q353 57 400 101 Z " />
<glyph glyph-name="r" unicode="r" horiz-adv-x="359" d="M342 526 Q364 526 388 520 L373 443 Q352 447 330 447 Q254 447 210.5 394 Q167 341 152 251 L109 0 L25 0 L95 398 L110 520 L185 520 L172 412 Q197 464 239 495 Q281 526 342 526 Z " />
<glyph glyph-name="racute" unicode="&#x155;" horiz-adv-x="359" d="M342 526 Q364 526 388 520 L373 443 Q352 447 330 447 Q254 447 210.5 394 Q167 341 152 251 L109 0 L25 0 L95 398 L110 520 L185 520 L172 412 Q197 464 239 495 Q281 526 342 526 Z M279 600 L217 600 L323 760 L399 760 L279 600 Z " />
<glyph glyph-name="rcaron" unicode="&#x159;" horiz-adv-x="359" d="M342 526 Q364 526 388 520 L373 443 Q352 447 330 447 Q254 447 210.5 394 Q167 341 152 251 L109 0 L25 0 L95 398 L110 520 L185 520 L172 412 Q197 464 239 495 Q281 526 342 526 Z M288 600 L211 600 L128 761 L192 761 L252 634 L354 761 L424 761 L288 600 Z " />
<glyph glyph-name="rcommaaccent" unicode="&#x157;" horiz-adv-x="359" d="M342 526 Q364 526 388 520 L373 443 Q352 447 330 447 Q254 447 210.5 394 Q167 341 152 251 L109 0 L25 0 L95 398 L110 520 L185 520 L172 412 Q197 464 239 495 Q281 526 342 526 Z M85 -74 Q76 -122 67 -150 Q58 -178 39 -226 L-14 -226 Q-1 -184 7.5 -153.5 Q16 -123 25 -74 L85 -74 Z " />
<glyph glyph-name="s" unicode="s" horiz-adv-x="487" d="M209 -7 Q82 -7 -3 39 L14 108 Q112 54 207 54 Q333 54 333 141 Q333 165 322 179.5 Q311 194 287.5 205 Q264 216 213 233 Q163 249 134 263 Q105 277 85.5 304.5 Q66 332 66 378 Q66 454 119.5 490.5 Q173 527 266 527 Q361 527 453 490 L438 420 Q391 442 349 454.5 Q307 467 266 467 Q150 467 150 390 Q150 365 162.5 349 Q175 333 196 323.5 Q217 314 257 301 Q317 281 346.5 267 Q376 253 397 224.5 Q418 196 418 148 Q418 70 362.5 31.5 Q307 -7 209 -7 Z " />
<glyph glyph-name="sacute" unicode="&#x15b;" horiz-adv-x="487" d="M209 -7 Q82 -7 -3 39 L14 108 Q112 54 207 54 Q333 54 333 141 Q333 165 322 179.5 Q311 194 287.5 205 Q264 216 213 233 Q163 249 134 263 Q105 277 85.5 304.5 Q66 332 66 378 Q66 454 119.5 490.5 Q173 527 266 527 Q361 527 453 490 L438 420 Q391 442 349 454.5 Q307 467 266 467 Q150 467 150 390 Q150 365 162.5 349 Q175 333 196 323.5 Q217 314 257 301 Q317 281 346.5 267 Q376 253 397 224.5 Q418 196 418 148 Q418 70 362.5 31.5 Q307 -7 209 -7 Z M316 600 L254 600 L360 760 L436 760 L316 600 Z " />
<glyph glyph-name="scaron" unicode="&#x161;" horiz-adv-x="487" d="M209 -7 Q82 -7 -3 39 L14 108 Q112 54 207 54 Q333 54 333 141 Q333 165 322 179.5 Q311 194 287.5 205 Q264 216 213 233 Q163 249 134 263 Q105 277 85.5 304.5 Q66 332 66 378 Q66 454 119.5 490.5 Q173 527 266 527 Q361 527 453 490 L438 420 Q391 442 349 454.5 Q307 467 266 467 Q150 467 150 390 Q150 365 162.5 349 Q175 333 196 323.5 Q217 314 257 301 Q317 281 346.5 267 Q376 253 397 224.5 Q418 196 418 148 Q418 70 362.5 31.5 Q307 -7 209 -7 Z M325 600 L248 600 L165 761 L229 761 L289 634 L391 761 L461 761 L325 600 Z " />
<glyph glyph-name="scedilla" unicode="&#x15f;" horiz-adv-x="487" d="M209 -7 Q82 -7 -3 39 L14 108 Q112 54 207 54 Q333 54 333 141 Q333 165 322 179.5 Q311 194 287.5 205 Q264 216 213 233 Q163 249 134 263 Q105 277 85.5 304.5 Q66 332 66 378 Q66 454 119.5 490.5 Q173 527 266 527 Q361 527 453 490 L438 420 Q391 442 349 454.5 Q307 467 266 467 Q150 467 150 390 Q150 365 162.5 349 Q175 333 196 323.5 Q217 314 257 301 Q317 281 346.5 267 Q376 253 397 224.5 Q418 196 418 148 Q418 70 362.5 31.5 Q307 -7 209 -7 Z M204 -44 Q243 -42 271 -59.5 Q299 -77 299 -119 Q299 -172 255.5 -197 Q212 -222 156 -222 Q135 -222 111.5 -218.5 Q88 -215 72 -210 L82 -168 Q94 -173 116 -177 Q138 -181 162 -181 Q192 -181 217.5 -167.5 Q243 -154 243 -120 Q243 -77 168 -77 Q150 -77 140 -78 L187 20 L233 20 L204 -44 Z " />
<glyph glyph-name="scircumflex" unicode="&#x15d;" horiz-adv-x="487" d="M209 -7 Q82 -7 -3 39 L14 108 Q112 54 207 54 Q333 54 333 141 Q333 165 322 179.5 Q311 194 287.5 205 Q264 216 213 233 Q163 249 134 263 Q105 277 85.5 304.5 Q66 332 66 378 Q66 454 119.5 490.5 Q173 527 266 527 Q361 527 453 490 L438 420 Q391 442 349 454.5 Q307 467 266 467 Q150 467 150 390 Q150 365 162.5 349 Q175 333 196 323.5 Q217 314 257 301 Q317 281 346.5 267 Q376 253 397 224.5 Q418 196 418 148 Q418 70 362.5 31.5 Q307 -7 209 -7 Z M441 600 L376 600 L317 727 L214 600 L145 600 L281 761 L357 761 L441 600 Z " />
<glyph glyph-name="scommaaccent" unicode="&#x219;" horiz-adv-x="487" d="M209 -7 Q82 -7 -3 39 L14 108 Q112 54 207 54 Q333 54 333 141 Q333 165 322 179.5 Q311 194 287.5 205 Q264 216 213 233 Q163 249 134 263 Q105 277 85.5 304.5 Q66 332 66 378 Q66 454 119.5 490.5 Q173 527 266 527 Q361 527 453 490 L438 420 Q391 442 349 454.5 Q307 467 266 467 Q150 467 150 390 Q150 365 162.5 349 Q175 333 196 323.5 Q217 314 257 301 Q317 281 346.5 267 Q376 253 397 224.5 Q418 196 418 148 Q418 70 362.5 31.5 Q307 -7 209 -7 Z M224 -74 Q215 -122 206 -150 Q197 -178 178 -226 L125 -226 Q138 -184 146.5 -153.5 Q155 -123 164 -74 L224 -74 Z " />
<glyph glyph-name="germandbls" unicode="&#xdf;" horiz-adv-x="627" d="M380 -9 Q337 -9 293.5 2.5 Q250 14 217 31 L241 99 Q280 76 307.5 64 Q335 52 370 52 Q432 52 462 79 Q492 106 492 142 Q492 175 478 196 Q464 217 435 244 Q405 271 390 293.5 Q375 316 375 352 Q375 392 391.5 414.5 Q408 437 441 463 Q472 486 488 508 Q504 530 504 567 Q504 605 464.5 623.5 Q425 642 376 642 Q307 642 269 603.5 Q231 565 220 504 L130 0 L47 0 L128 461 L31 461 L41 520 L138 520 Q158 616 225.5 661.5 Q293 707 383 707 Q433 707 478 691.5 Q523 676 552 645.5 Q581 615 581 570 Q581 537 570 512.5 Q559 488 544 472 Q529 456 504 435 Q476 412 462 394.5 Q448 377 448 352 Q448 329 460.5 313 Q473 297 500 273 Q535 243 553.5 216 Q572 189 572 145 Q572 80 523.5 35.5 Q475 -9 380 -9 Z " />
<glyph glyph-name="t" unicode="t" horiz-adv-x="378" d="M202 -7 Q129 -7 100.5 19 Q72 45 72 96 Q72 121 77 151 L131 461 L51 461 L62 520 L143 520 L180 670 L249 670 L223 520 L403 520 L392 461 L213 461 L160 159 Q155 129 155 112 Q155 84 171.5 71 Q188 58 231 58 Q251 58 272.5 64 Q294 70 324 81 L315 9 Q259 -7 202 -7 Z " />
<glyph glyph-name="tbar" unicode="&#x167;" horiz-adv-x="378" d="M213 461 L197 370 L375 370 L369 339 L192 339 L160 159 Q155 129 155 112 Q155 84 171.5 71 Q188 58 231 58 Q251 58 272.5 64 Q294 70 324 81 L315 9 Q259 -7 202 -7 Q129 -7 100.5 19 Q72 45 72 96 Q72 121 77 151 L110 339 L31 339 L37 370 L115 370 L131 461 L51 461 L62 520 L143 520 L180 670 L249 670 L223 520 L403 520 L392 461 L213 461 Z " />
<glyph glyph-name="tcaron" unicode="&#x165;" horiz-adv-x="378" d="M409 732 Q393 656 361 576 L314 576 Q324 617 348 732 L409 732 Z M202 -7 Q129 -7 100.5 19 Q72 45 72 96 Q72 121 77 151 L131 461 L51 461 L62 520 L143 520 L180 670 L249 670 L223 520 L403 520 L392 461 L213 461 L160 159 Q155 129 155 112 Q155 84 171.5 71 Q188 58 231 58 Q251 58 272.5 64 Q294 70 324 81 L315 9 Q259 -7 202 -7 Z " />
<glyph glyph-name="uni0163" unicode="&#x163;" horiz-adv-x="378" d="M202 -7 Q129 -7 100.5 19 Q72 45 72 96 Q72 121 77 151 L131 461 L51 461 L62 520 L143 520 L180 670 L249 670 L223 520 L403 520 L392 461 L213 461 L160 159 Q155 129 155 112 Q155 84 171.5 71 Q188 58 231 58 Q251 58 272.5 64 Q294 70 324 81 L315 9 Q259 -7 202 -7 Z M210 -74 Q201 -122 192 -150 Q183 -178 164 -226 L111 -226 Q124 -184 132.5 -153.5 Q141 -123 150 -74 L210 -74 Z " />
<glyph glyph-name="uni021B" unicode="&#x21b;" horiz-adv-x="378" d="M202 -7 Q129 -7 100.5 19 Q72 45 72 96 Q72 121 77 151 L131 461 L51 461 L62 520 L143 520 L180 670 L249 670 L223 520 L403 520 L392 461 L213 461 L160 159 Q155 129 155 112 Q155 84 171.5 71 Q188 58 231 58 Q251 58 272.5 64 Q294 70 324 81 L315 9 Q259 -7 202 -7 Z M210 -74 Q201 -122 192 -150 Q183 -178 164 -226 L111 -226 Q124 -184 132.5 -153.5 Q141 -123 150 -74 L210 -74 Z " />
<glyph glyph-name="u" unicode="u" horiz-adv-x="612" d="M571 520 L505 145 L489 0 L414 0 L424 105 Q390 50 337.5 21.5 Q285 -7 220 -7 Q132 -7 92 38 Q52 83 52 155 Q52 189 60 227 L111 520 L195 520 L143 224 Q137 188 137 168 Q137 117 163.5 86.5 Q190 56 249 56 Q329 56 377 111 Q425 166 440 249 L488 520 L571 520 Z " />
<glyph glyph-name="uacute" unicode="&#xfa;" horiz-adv-x="612" d="M571 520 L505 145 L489 0 L414 0 L424 105 Q390 50 337.5 21.5 Q285 -7 220 -7 Q132 -7 92 38 Q52 83 52 155 Q52 189 60 227 L111 520 L195 520 L143 224 Q137 188 137 168 Q137 117 163.5 86.5 Q190 56 249 56 Q329 56 377 111 Q425 166 440 249 L488 520 L571 520 Z M379 600 L317 600 L423 760 L499 760 L379 600 Z " />
<glyph glyph-name="ubreve" unicode="&#x16d;" horiz-adv-x="612" d="M571 520 L505 145 L489 0 L414 0 L424 105 Q390 50 337.5 21.5 Q285 -7 220 -7 Q132 -7 92 38 Q52 83 52 155 Q52 189 60 227 L111 520 L195 520 L143 224 Q137 188 137 168 Q137 117 163.5 86.5 Q190 56 249 56 Q329 56 377 111 Q425 166 440 249 L488 520 L571 520 Z M515 736 Q496 669 455 637.5 Q414 606 345 606 Q280 606 245.5 637.5 Q211 669 209 736 L265 742 Q267 698 287 675 Q307 652 351 652 Q391 652 418.5 675 Q446 698 459 742 L515 736 Z " />
<glyph glyph-name="ucircumflex" unicode="&#xfb;" horiz-adv-x="612" d="M571 520 L505 145 L489 0 L414 0 L424 105 Q390 50 337.5 21.5 Q285 -7 220 -7 Q132 -7 92 38 Q52 83 52 155 Q52 189 60 227 L111 520 L195 520 L143 224 Q137 188 137 168 Q137 117 163.5 86.5 Q190 56 249 56 Q329 56 377 111 Q425 166 440 249 L488 520 L571 520 Z M504 600 L439 600 L380 727 L277 600 L208 600 L344 761 L420 761 L504 600 Z " />
<glyph glyph-name="udieresis" unicode="&#xfc;" horiz-adv-x="612" d="M571 520 L505 145 L489 0 L414 0 L424 105 Q390 50 337.5 21.5 Q285 -7 220 -7 Q132 -7 92 38 Q52 83 52 155 Q52 189 60 227 L111 520 L195 520 L143 224 Q137 188 137 168 Q137 117 163.5 86.5 Q190 56 249 56 Q329 56 377 111 Q425 166 440 249 L488 520 L571 520 Z M252 704 Q275 704 287 692.5 Q299 681 299 662 Q299 637 284.5 623.5 Q270 610 246 610 Q225 610 212.5 621 Q200 632 200 651 Q200 676 214 690 Q228 704 252 704 Z M458 704 Q481 704 493 692.5 Q505 681 505 662 Q505 637 490.5 623.5 Q476 610 452 610 Q431 610 418.5 621 Q406 632 406 651 Q406 676 420 690 Q434 704 458 704 Z " />
<glyph glyph-name="ugrave" unicode="&#xf9;" horiz-adv-x="612" d="M571 520 L505 145 L489 0 L414 0 L424 105 Q390 50 337.5 21.5 Q285 -7 220 -7 Q132 -7 92 38 Q52 83 52 155 Q52 189 60 227 L111 520 L195 520 L143 224 Q137 188 137 168 Q137 117 163.5 86.5 Q190 56 249 56 Q329 56 377 111 Q425 166 440 249 L488 520 L571 520 Z M379 600 L318 600 L258 760 L336 760 L379 600 Z " />
<glyph glyph-name="uhungarumlaut" unicode="&#x171;" horiz-adv-x="612" d="M571 520 L505 145 L489 0 L414 0 L424 105 Q390 50 337.5 21.5 Q285 -7 220 -7 Q132 -7 92 38 Q52 83 52 155 Q52 189 60 227 L111 520 L195 520 L143 224 Q137 188 137 168 Q137 117 163.5 86.5 Q190 56 249 56 Q329 56 377 111 Q425 166 440 249 L488 520 L571 520 Z M295 600 L233 600 L336 760 L416 760 L295 600 Z M443 600 L381 600 L484 760 L564 760 L443 600 Z " />
<glyph glyph-name="umacron" unicode="&#x16b;" horiz-adv-x="612" d="M571 520 L505 145 L489 0 L414 0 L424 105 Q390 50 337.5 21.5 Q285 -7 220 -7 Q132 -7 92 38 Q52 83 52 155 Q52 189 60 227 L111 520 L195 520 L143 224 Q137 188 137 168 Q137 117 163.5 86.5 Q190 56 249 56 Q329 56 377 111 Q425 166 440 249 L488 520 L571 520 Z M496 644 L199 644 L208 693 L505 693 L496 644 Z " />
<glyph glyph-name="uogonek" unicode="&#x173;" horiz-adv-x="642" d="M571 520 L505 145 L489 0 L414 0 L424 105 Q390 50 337.5 21.5 Q285 -7 220 -7 Q132 -7 92 38 Q52 83 52 155 Q52 189 60 227 L111 520 L195 520 L143 224 Q137 188 137 168 Q137 117 163.5 86.5 Q190 56 249 56 Q329 56 377 111 Q425 166 440 249 L488 520 L571 520 Z M419 -172 Q374 -172 345 -153.5 Q316 -135 316 -93 Q316 -34 367 -8 Q418 18 476 24 L489 0 Q438 -9 411.5 -24 Q385 -39 385 -71 Q385 -97 400.5 -107 Q416 -117 437 -117 Q466 -117 499 -106 L491 -162 Q451 -172 419 -172 Z " />
<glyph glyph-name="uring" unicode="&#x16f;" horiz-adv-x="612" d="M571 520 L505 145 L489 0 L414 0 L424 105 Q390 50 337.5 21.5 Q285 -7 220 -7 Q132 -7 92 38 Q52 83 52 155 Q52 189 60 227 L111 520 L195 520 L143 224 Q137 188 137 168 Q137 117 163.5 86.5 Q190 56 249 56 Q329 56 377 111 Q425 166 440 249 L488 520 L571 520 Z M356 799 Q402 799 431 775 Q460 751 460 704 Q460 654 428 627 Q396 600 348 600 Q305 600 275 623 Q245 646 245 695 Q245 746 276.5 772.5 Q308 799 356 799 Z M354 761 Q323 761 306 744 Q289 727 289 697 Q289 665 307 651.5 Q325 638 350 638 Q380 638 396.5 654.5 Q413 671 413 702 Q413 761 354 761 Z " />
<glyph glyph-name="utilde" unicode="&#x169;" horiz-adv-x="612" d="M571 520 L505 145 L489 0 L414 0 L424 105 Q390 50 337.5 21.5 Q285 -7 220 -7 Q132 -7 92 38 Q52 83 52 155 Q52 189 60 227 L111 520 L195 520 L143 224 Q137 188 137 168 Q137 117 163.5 86.5 Q190 56 249 56 Q329 56 377 111 Q425 166 440 249 L488 520 L571 520 Z M295 726 Q326 726 369 701 Q389 689 402 683.5 Q415 678 430 678 Q454 678 468.5 689 Q483 700 495 719 L524 705 Q484 622 413 622 Q382 622 345 644 Q341 646 327.5 653.5 Q314 661 302 665 Q290 669 278 669 Q238 669 213 628 L184 643 Q225 726 295 726 Z " />
<glyph glyph-name="v" unicode="v" horiz-adv-x="517" d="M541 520 L251 0 L152 0 L56 519 L139 519 L219 70 L463 520 L541 520 Z " />
<glyph glyph-name="w" unicode="w" horiz-adv-x="811" d="M820 520 L571 0 L476 0 L419 405 L417 405 L217 0 L122 0 L56 520 L137 520 L186 80 L188 80 L399 515 L478 515 L537 80 L539 80 L744 520 L820 520 Z " />
<glyph glyph-name="wacute" unicode="&#x1e83;" horiz-adv-x="811" d="M820 520 L571 0 L476 0 L419 405 L417 405 L217 0 L122 0 L56 520 L137 520 L186 80 L188 80 L399 515 L478 515 L537 80 L539 80 L744 520 L820 520 Z M477 600 L415 600 L521 760 L597 760 L477 600 Z " />
<glyph glyph-name="wcircumflex" unicode="&#x175;" horiz-adv-x="811" d="M820 520 L571 0 L476 0 L419 405 L417 405 L217 0 L122 0 L56 520 L137 520 L186 80 L188 80 L399 515 L478 515 L537 80 L539 80 L744 520 L820 520 Z M602 600 L537 600 L478 727 L375 600 L306 600 L442 761 L518 761 L602 600 Z " />
<glyph glyph-name="wdieresis" unicode="&#x1e85;" horiz-adv-x="811" d="M820 520 L571 0 L476 0 L419 405 L417 405 L217 0 L122 0 L56 520 L137 520 L186 80 L188 80 L399 515 L478 515 L537 80 L539 80 L744 520 L820 520 Z M350 704 Q373 704 385 692.5 Q397 681 397 662 Q397 637 382.5 623.5 Q368 610 344 610 Q323 610 310.5 621 Q298 632 298 651 Q298 676 312 690 Q326 704 350 704 Z M556 704 Q579 704 591 692.5 Q603 681 603 662 Q603 637 588.5 623.5 Q574 610 550 610 Q529 610 516.5 621 Q504 632 504 651 Q504 676 518 690 Q532 704 556 704 Z " />
<glyph glyph-name="wgrave" unicode="&#x1e81;" horiz-adv-x="811" d="M820 520 L571 0 L476 0 L419 405 L417 405 L217 0 L122 0 L56 520 L137 520 L186 80 L188 80 L399 515 L478 515 L537 80 L539 80 L744 520 L820 520 Z M477 600 L416 600 L356 760 L434 760 L477 600 Z " />
<glyph glyph-name="x" unicode="x" horiz-adv-x="522" d="M306 263 L452 0 L363 0 L247 207 L57 0 L-35 0 L203 260 L56 520 L147 520 L263 316 L452 520 L543 520 L306 263 Z " />
<glyph glyph-name="y" unicode="y" horiz-adv-x="533" d="M558 520 L168 -170 L79 -170 L175 0 L51 520 L135 520 L233 88 L477 520 L558 520 Z " />
<glyph glyph-name="yacute" unicode="&#xfd;" horiz-adv-x="533" d="M558 520 L168 -170 L79 -170 L175 0 L51 520 L135 520 L233 88 L477 520 L558 520 Z M340 600 L278 600 L384 760 L460 760 L340 600 Z " />
<glyph glyph-name="ycircumflex" unicode="&#x177;" horiz-adv-x="533" d="M558 520 L168 -170 L79 -170 L175 0 L51 520 L135 520 L233 88 L477 520 L558 520 Z M465 600 L400 600 L341 727 L238 600 L169 600 L305 761 L381 761 L465 600 Z " />
<glyph glyph-name="ydieresis" unicode="&#xff;" horiz-adv-x="533" d="M558 520 L168 -170 L79 -170 L175 0 L51 520 L135 520 L233 88 L477 520 L558 520 Z M213 704 Q236 704 248 692.5 Q260 681 260 662 Q260 637 245.5 623.5 Q231 610 207 610 Q186 610 173.5 621 Q161 632 161 651 Q161 676 175 690 Q189 704 213 704 Z M419 704 Q442 704 454 692.5 Q466 681 466 662 Q466 637 451.5 623.5 Q437 610 413 610 Q392 610 379.5 621 Q367 632 367 651 Q367 676 381 690 Q395 704 419 704 Z " />
<glyph glyph-name="ygrave" unicode="&#x1ef3;" horiz-adv-x="533" d="M558 520 L168 -170 L79 -170 L175 0 L51 520 L135 520 L233 88 L477 520 L558 520 Z M340 600 L279 600 L219 760 L297 760 L340 600 Z " />
<glyph glyph-name="z" unicode="z" horiz-adv-x="511" d="M497 453 L96 58 L265 60 L433 60 L422 0 L-19 0 L-7 65 L395 463 L232 460 L70 460 L82 520 L509 520 L497 453 Z " />
<glyph glyph-name="zacute" unicode="&#x17a;" horiz-adv-x="511" d="M497 453 L96 58 L265 60 L433 60 L422 0 L-19 0 L-7 65 L395 463 L232 460 L70 460 L82 520 L509 520 L497 453 Z M331 600 L269 600 L375 760 L451 760 L331 600 Z " />
<glyph glyph-name="zcaron" unicode="&#x17e;" horiz-adv-x="511" d="M497 453 L96 58 L265 60 L433 60 L422 0 L-19 0 L-7 65 L395 463 L232 460 L70 460 L82 520 L509 520 L497 453 Z M340 600 L263 600 L180 761 L244 761 L304 634 L406 761 L476 761 L340 600 Z " />
<glyph glyph-name="zdotaccent" unicode="&#x17c;" horiz-adv-x="511" d="M497 453 L96 58 L265 60 L433 60 L422 0 L-19 0 L-7 65 L395 463 L232 460 L70 460 L82 520 L509 520 L497 453 Z M311 720 Q336 720 349 707.5 Q362 695 360 674 Q354 627 305 627 Q282 627 269 638 Q256 649 256 668 Q256 693 270.5 706.5 Q285 720 311 720 Z " />
<glyph glyph-name="ordfeminine" unicode="&#xaa;" horiz-adv-x="476" d="M390 402 Q390 395 393.5 392.5 Q397 390 406 390 L426 392 L419 346 Q400 340 373 340 Q354 340 341.5 350 Q329 360 332 382 L334 396 Q307 369 278 353.5 Q249 338 206 338 Q156 338 126 361 Q96 384 96 432 Q96 496 144 527 Q192 558 271 558 Q308 558 358 552 L363 579 Q365 589 365 605 Q365 634 348.5 647.5 Q332 661 292 661 Q230 661 163 640 L162 689 Q193 698 234 704 Q275 710 311 710 Q369 710 397.5 688.5 Q426 667 426 623 Q426 609 423 591 L390 408 L390 402 Z M224 378 Q269 378 302.5 404.5 Q336 431 344 473 L352 514 Q316 521 275 521 Q222 521 186 503.5 Q150 486 150 441 Q150 410 170.5 394 Q191 378 224 378 Z M65 254 L399 254 L390 202 L56 202 L65 254 Z " />
<glyph glyph-name="ordmasculine" unicode="&#xba;" horiz-adv-x="502" d="M307 709 Q379 709 424.5 668.5 Q470 628 470 552 Q470 490 446 441.5 Q422 393 377 365.5 Q332 338 271 338 Q198 338 152 379 Q106 420 106 497 Q106 559 130.5 607 Q155 655 200.5 682 Q246 709 307 709 Z M300 657 Q248 657 213 624 Q192 604 180 572.5 Q168 541 168 502 Q168 448 197.5 419 Q227 390 276 390 Q335 390 369 430 Q408 474 408 547 Q408 599 378 628 Q348 657 300 657 Z M409 201 L68 201 L77 252 L419 252 L409 201 Z " />
<glyph glyph-name="zero" unicode="0" horiz-adv-x="698" d="M322 -9 Q206 -9 139 64 Q72 137 72 277 Q72 396 105 493.5 Q138 591 210 650 Q282 709 393 709 Q515 709 582 631.5 Q649 554 644 405 Q640 289 605.5 196 Q571 103 500.5 47 Q430 -9 322 -9 Z M327 61 Q443 61 497 156.5 Q551 252 557 400 Q561 514 516.5 576.5 Q472 639 388 639 Q273 639 219 544 Q165 449 159 301 Q155 184 199 122.5 Q243 61 327 61 Z " />
<glyph glyph-name="one" unicode="1" horiz-adv-x="374" d="M349 704 L225 0 L141 0 L251 628 L65 567 L74 636 L278 704 L349 704 Z " />
<glyph glyph-name="two" unicode="2" horiz-adv-x="580" d="M351 224 Q252 150 214.5 123.5 Q177 97 139 72 L481 72 L468 0 L0 0 L11 64 Q93 126 223 221 Q232 227 282 263 Q349 313 387 347.5 Q425 382 447.5 423.5 Q470 465 470 516 Q470 572 433.5 604 Q397 636 327 636 Q280 636 226 619.5 Q172 603 109 579 L117 665 Q170 685 233 696.5 Q296 708 350 708 Q450 708 506 663.5 Q562 619 562 535 Q562 474 542.5 427 Q523 380 478 333 Q433 286 351 224 Z " />
<glyph glyph-name="three" unicode="3" horiz-adv-x="573" d="M373 365 Q432 352 465.5 310.5 Q499 269 499 205 Q499 103 416 48 Q333 -7 202 -7 Q140 -7 83 2.5 Q26 12 -8 27 L12 100 Q115 60 194 60 Q285 60 345.5 95.5 Q406 131 406 201 Q406 270 358.5 303 Q311 336 243 336 L175 336 L187 400 L256 400 Q301 400 343.5 414.5 Q386 429 414 459.5 Q442 490 442 534 Q442 590 403 615.5 Q364 641 303 641 Q259 641 205.5 628.5 Q152 616 112 601 L117 671 Q148 685 204 697 Q260 709 312 709 Q416 709 475.5 665.5 Q535 622 535 541 Q535 481 492 433 Q449 385 373 365 Z " />
<glyph glyph-name="four" unicode="4" horiz-adv-x="600" d="M549 231 L537 166 L452 166 L423 0 L341 0 L370 166 L11 166 L22 228 L465 704 L547 704 L464 231 L549 231 Z M444 583 L109 231 L382 231 L444 583 Z " />
<glyph glyph-name="five" unicode="5" horiz-adv-x="586" d="M206 629 L161 383 Q193 406 234.5 417.5 Q276 429 319 429 Q417 429 472.5 374 Q528 319 528 227 Q528 154 491.5 101 Q455 48 390 20 Q325 -8 239 -8 Q113 -8 15 37 L32 115 Q80 92 127.5 75.5 Q175 59 232 59 Q326 59 382 103 Q438 147 438 227 Q438 294 399 329 Q360 364 291 364 Q243 364 209.5 348.5 Q176 333 145 309 L80 329 L145 700 L559 700 L548 629 L206 629 Z " />
<glyph glyph-name="six" unicode="6" horiz-adv-x="644" d="M222 532 Q197 496 178.5 449.5 Q160 403 154 361 L152 346 Q185 393 238.5 418 Q292 443 362 443 Q464 443 527 390.5 Q590 338 590 237 Q590 162 554 107 Q518 52 454.5 22.5 Q391 -7 309 -7 Q180 -7 118 66 Q56 139 56 269 Q56 346 76.5 418 Q97 490 136 548 Q186 623 261.5 666 Q337 709 432 709 Q476 709 533 700 Q590 691 628 677 L608 602 Q518 642 434 642 Q298 642 222 532 Z M340 380 Q279 380 236 355.5 Q193 331 171.5 291 Q150 251 150 204 Q150 134 195 95.5 Q240 57 311 57 Q370 57 412.5 83 Q455 109 476.5 151.5 Q498 194 498 242 Q498 309 455.5 344.5 Q413 380 340 380 Z " />
<glyph glyph-name="seven" unicode="7" horiz-adv-x="517" d="M560 700 L546 622 L164 0 L59 0 L464 628 L79 628 L92 700 L560 700 Z " />
<glyph glyph-name="eight" unicode="8" horiz-adv-x="635" d="M459 369 Q515 352 547 309.5 Q579 267 579 203 Q579 100 502 45.5 Q425 -9 302 -9 Q184 -9 114 37 Q44 83 44 172 Q44 255 93 306 Q142 357 227 373 Q183 390 158.5 429 Q134 468 134 520 Q134 578 166 621 Q198 664 255 686.5 Q312 709 385 709 Q489 709 549.5 665 Q610 621 610 542 Q610 481 568.5 434.5 Q527 388 459 369 Z M382 646 Q309 646 263.5 612 Q218 578 218 520 Q218 468 255.5 433.5 Q293 399 363 399 Q412 399 448 417 Q484 435 503 465.5 Q522 496 522 531 Q522 586 485 616 Q448 646 382 646 Z M305 56 Q388 56 439 95 Q490 134 490 203 Q490 265 446.5 302.5 Q403 340 323 340 Q267 340 223.5 319.5 Q180 299 156.5 263 Q133 227 133 182 Q133 121 179.5 88.5 Q226 56 305 56 Z " />
<glyph glyph-name="nine" unicode="9" horiz-adv-x="643" d="M361 709 Q484 709 547 635 Q610 561 610 441 Q610 352 585 272 Q560 192 514 131 Q464 66 393 29.5 Q322 -7 235 -7 Q190 -7 133 2 Q76 11 38 25 L58 100 Q148 60 232 60 Q368 60 444 170 Q469 206 487.5 252.5 Q506 299 512 341 L514 356 Q481 309 427.5 284 Q374 259 304 259 Q202 259 139 311.5 Q76 364 76 466 Q76 540 111.5 595 Q147 650 211 679.5 Q275 709 361 709 Z M325 322 Q386 322 429.5 346.5 Q473 371 494.5 410 Q516 449 516 491 Q516 568 472 606.5 Q428 645 359 645 Q298 645 255 619 Q212 593 190 551 Q168 509 168 462 Q168 393 210.5 357.5 Q253 322 325 322 Z " />
<glyph glyph-name="fraction" unicode="&#x2044;" horiz-adv-x="178" d="M-156 0 L-230 0 L369 720 L443 720 L-156 0 Z " />
<glyph glyph-name="asterisk" unicode="&#x2a;" horiz-adv-x="419" d="M311 696 L273 573 L392 623 L408 570 L283 540 L384 461 L344 420 L257 515 L239 388 L186 400 L225 523 L104 473 L88 527 L213 557 L113 635 L151 675 L239 582 L258 709 L311 696 Z " />
<glyph glyph-name="backslash" unicode="&#x5c;" horiz-adv-x="502" d="M403 -170 L337 -170 L93 732 L158 732 L403 -170 Z " />
<glyph glyph-name="middot" unicode="&#xb7;" horiz-adv-x="238" d="M121 352 Q146 352 159.5 339 Q173 326 173 304 Q173 279 157.5 263.5 Q142 248 114 248 Q89 248 75 262 Q61 276 63 300 Q65 323 80.5 337.5 Q96 352 121 352 Z " />
<glyph glyph-name="bullet" unicode="&#x2022;" horiz-adv-x="358" d="M192 433 Q229 433 252 413 Q275 393 275 355 Q275 310 249.5 285.5 Q224 261 180 261 Q142 261 118.5 282.5 Q95 304 95 341 Q95 384 121.5 408.5 Q148 433 192 433 Z " />
<glyph glyph-name="colon" unicode="&#x3a;" horiz-adv-x="244" d="M145 462 Q168 462 182 449.5 Q196 437 196 416 Q196 388 180.5 373.5 Q165 359 138 359 Q114 359 100.5 370.5 Q87 382 87 404 Q87 430 103 446 Q119 462 145 462 Z M81 95 Q104 95 118 82.5 Q132 70 132 49 Q132 21 116.5 6 Q101 -9 74 -9 Q50 -9 36.5 3 Q23 15 23 37 Q23 63 39 79 Q55 95 81 95 Z " />
<glyph glyph-name="comma" unicode="&#x2c;" horiz-adv-x="232" d="M73 95 Q98 95 114.5 76.5 Q131 58 131 26 Q131 -29 95.5 -70.5 Q60 -112 14 -132 L-5 -105 Q28 -88 53.5 -60 Q79 -32 80 3 L80 5 Q71 -4 55 -4 Q37 -4 26 7.5 Q15 19 15 38 Q15 64 31 79.5 Q47 95 73 95 Z " />
<glyph glyph-name="ellipsis" unicode="&#x2026;" horiz-adv-x="716" d="M73 95 Q96 95 110 82.5 Q124 70 124 49 Q124 21 108.5 6 Q93 -9 66 -9 Q42 -9 28.5 3 Q15 15 15 37 Q15 63 31 79 Q47 95 73 95 Z M322 95 Q345 95 359 82.5 Q373 70 373 49 Q373 21 357.5 6 Q342 -9 315 -9 Q291 -9 277.5 3 Q264 15 264 37 Q264 63 280 79 Q296 95 322 95 Z M567 95 Q590 95 604 82.5 Q618 70 618 49 Q618 21 602.5 6 Q587 -9 560 -9 Q536 -9 522.5 3 Q509 15 509 37 Q509 63 525 79 Q541 95 567 95 Z " />
<glyph glyph-name="exclam" unicode="&#x21;" horiz-adv-x="261" d="M144 186 L74 186 L151 700 L248 700 L144 186 Z M91 88 Q113 88 126.5 77 Q140 66 140 46 Q140 19 125.5 5 Q111 -9 85 -9 Q63 -9 49.5 2 Q36 13 36 34 Q36 60 51 74 Q66 88 91 88 Z " />
<glyph glyph-name="exclamdown" unicode="&#xa1;" horiz-adv-x="245" d="M154 527 Q176 527 189.5 516 Q203 505 203 485 Q203 458 188.5 444 Q174 430 148 430 Q126 430 112.5 441 Q99 452 99 473 Q99 499 114 513 Q129 527 154 527 Z M86 -185 L-10 -185 L94 332 L163 332 L86 -185 Z " />
<glyph glyph-name="numbersign" unicode="&#x23;" horiz-adv-x="711" d="M547 440 L514 260 L647 260 L633 194 L503 194 L468 0 L395 0 L430 194 L241 194 L206 0 L132 0 L167 194 L28 194 L42 260 L178 260 L211 440 L82 440 L96 506 L222 506 L257 700 L331 700 L296 506 L485 506 L520 700 L593 700 L558 506 L701 506 L687 440 L547 440 Z M474 440 L285 440 L252 260 L441 260 L474 440 Z " />
<glyph glyph-name="period" unicode="&#x2e;" horiz-adv-x="222" d="M72 95 Q97 95 110.5 82 Q124 69 124 47 Q124 22 108.5 6.5 Q93 -9 65 -9 Q40 -9 26 5 Q12 19 14 43 Q16 66 31.5 80.5 Q47 95 72 95 Z " />
<glyph glyph-name="question" unicode="&#x3f;" horiz-adv-x="461" d="M274 709 Q360 709 413.5 669.5 Q467 630 467 555 Q467 510 449.5 478 Q432 446 406.5 425.5 Q381 405 340 379 Q304 356 283 340 Q262 324 245 301 Q228 278 222 248 L211 185 L138 185 L150 250 Q158 292 178.5 323 Q199 354 224 374.5 Q249 395 286 420 Q336 453 359.5 479 Q383 505 384 547 Q384 595 350.5 619.5 Q317 644 261 644 Q222 644 187.5 630 Q153 616 95 587 L91 665 Q181 709 274 709 Z M155 88 Q177 88 190.5 77 Q204 66 204 46 Q204 19 189.5 5 Q175 -9 149 -9 Q127 -9 113.5 2.5 Q100 14 100 36 Q100 61 115.5 74.5 Q131 88 155 88 Z " />
<glyph glyph-name="questiondown" unicode="&#xbf;" horiz-adv-x="457" d="M170 -190 Q84 -190 30.5 -150.5 Q-23 -111 -23 -36 Q-23 9 -5.5 41 Q12 73 37.5 93.5 Q63 114 104 140 Q140 163 161 179 Q182 195 199 218 Q216 241 222 271 L233 334 L306 334 L294 269 Q286 227 265.5 196 Q245 165 220 144.5 Q195 124 158 99 Q108 66 84.5 40 Q61 14 60 -28 Q60 -76 93.5 -100.5 Q127 -125 183 -125 Q222 -125 256.5 -111 Q291 -97 349 -68 L353 -146 Q263 -190 170 -190 Z M289 431 Q267 431 253.5 442 Q240 453 240 473 Q240 500 254.5 514 Q269 528 295 528 Q317 528 330.5 516.5 Q344 505 344 483 Q344 458 328.5 444.5 Q313 431 289 431 Z " />
<glyph glyph-name="quotedbl" unicode="&#x22;" horiz-adv-x="372" d="M151 466 L92 466 L146 700 L229 700 L151 466 Z M313 466 L254 466 L309 700 L391 700 L313 466 Z " />
<glyph glyph-name="quotesingle" unicode="&#x27;" horiz-adv-x="210" d="M151 466 L92 466 L146 700 L229 700 L151 466 Z " />
<glyph glyph-name="semicolon" unicode="&#x3b;" horiz-adv-x="268" d="M153 462 Q178 462 192.5 447.5 Q207 433 206 410 Q204 385 188 372 Q172 359 147 359 Q123 359 109.5 371.5 Q96 384 96 407 Q96 432 111.5 447 Q127 462 153 462 Z M88 95 Q113 95 129.5 76.5 Q146 58 146 26 Q146 -29 110.5 -70.5 Q75 -112 29 -132 L10 -105 Q43 -88 68.5 -60 Q94 -32 95 3 L95 5 Q86 -4 70 -4 Q52 -4 41 7.5 Q30 19 30 38 Q30 64 46 79.5 Q62 95 88 95 Z " />
<glyph glyph-name="slash" unicode="&#x2f;" horiz-adv-x="514" d="M11 -170 L-60 -170 L506 802 L579 802 L11 -170 Z " />
<glyph glyph-name="underscore" unicode="&#x5f;" horiz-adv-x="447" d="M377 -137 L-84 -137 L-75 -78 L387 -78 L377 -137 Z " />
<glyph glyph-name="braceleft" unicode="&#x7b;" horiz-adv-x="332" d="M381 732 L371 674 L334 674 Q292 674 270 655 Q248 636 240 594 L203 382 Q196 338 171.5 312 Q147 286 110 281 Q170 272 170 207 Q170 190 168 180 L130 -32 Q127 -46 127 -57 Q127 -86 143.5 -99 Q160 -112 195 -112 L232 -112 L221 -170 L169 -170 Q104 -170 76.5 -145.5 Q49 -121 49 -75 Q49 -57 54 -29 L91 184 Q93 198 93 204 Q93 254 41 254 L24 254 L34 308 L51 308 Q113 308 125 378 L163 591 Q175 660 212 696 Q249 732 329 732 L381 732 Z " />
<glyph glyph-name="braceright" unicode="&#x7d;" horiz-adv-x="333" d="M301 308 L291 254 L274 254 Q212 254 200 184 L163 -29 Q151 -98 113.5 -134 Q76 -170 -4 -170 L-56 -170 L-45 -112 L-9 -112 Q33 -112 55 -93 Q77 -74 85 -32 L122 180 Q129 224 153.5 250 Q178 276 215 281 Q186 285 170.5 303.5 Q155 322 155 354 Q155 367 158 382 L195 594 Q198 608 198 620 Q198 648 181.5 661 Q165 674 130 674 L94 674 L104 732 L156 732 Q222 732 249 707.5 Q276 683 276 636 Q276 612 272 591 L234 378 Q232 364 232 359 Q232 333 245.5 320.5 Q259 308 284 308 L301 308 Z " />
<glyph glyph-name="bracketleft" unicode="&#x5b;" horiz-adv-x="303" d="M338 674 L234 674 L96 -112 L200 -112 L189 -170 L6 -170 L166 732 L349 732 L338 674 Z " />
<glyph glyph-name="bracketright" unicode="&#x5d;" horiz-adv-x="304" d="M131 -170 L-53 -170 L-42 -112 L62 -112 L201 674 L96 674 L107 732 L291 732 L131 -170 Z " />
<glyph glyph-name="parenleft" unicode="&#x28;" horiz-adv-x="320" d="M389 732 Q273 635 195 498.5 Q117 362 117 186 Q117 77 150.5 -13 Q184 -103 233 -170 L157 -170 Q110 -109 74.5 -11.5 Q39 86 39 195 Q39 308 77 412 Q115 516 175 597.5 Q235 679 303 732 L389 732 Z " />
<glyph glyph-name="parenright" unicode="&#x29;" horiz-adv-x="321" d="M158 732 Q205 670 240 573 Q275 476 275 367 Q275 254 237 150 Q199 46 139 -35.5 Q79 -117 12 -170 L-75 -170 Q41 -74 118.5 63 Q196 200 196 376 Q196 485 163 575 Q130 665 81 732 L158 732 Z " />
<glyph glyph-name="emdash" unicode="&#x2014;" horiz-adv-x="887" d="M807 237 L57 237 L69 299 L819 299 L807 237 Z " />
<glyph glyph-name="endash" unicode="&#x2013;" horiz-adv-x="610" d="M530 237 L57 237 L69 299 L542 299 L530 237 Z " />
<glyph glyph-name="hyphen" unicode="&#x2d;" horiz-adv-x="484" d="M403 237 L57 237 L69 299 L415 299 L403 237 Z " />
<glyph glyph-name="guillemotleft" unicode="&#xab;" horiz-adv-x="530" d="M112 257 L217 38 L148 38 L33 265 L217 482 L292 482 L112 257 Z M335 257 L440 38 L370 38 L256 265 L440 482 L515 482 L335 257 Z " />
<glyph glyph-name="guillemotright" unicode="&#xbb;" horiz-adv-x="531" d="M260 255 L76 38 L1 38 L181 263 L76 482 L146 482 L260 255 Z M483 255 L299 38 L224 38 L404 263 L299 482 L368 482 L483 255 Z " />
<glyph glyph-name="guilsinglleft" unicode="&#x2039;" horiz-adv-x="308" d="M112 257 L217 38 L148 38 L33 265 L217 482 L292 482 L112 257 Z " />
<glyph glyph-name="guilsinglright" unicode="&#x203a;" horiz-adv-x="308" d="M260 255 L76 38 L1 38 L181 263 L76 482 L145 482 L260 255 Z " />
<glyph glyph-name="quotedblbase" unicode="&#x201e;" horiz-adv-x="409" d="M69 87 Q95 87 110 68.5 Q125 50 125 19 Q125 -29 91 -68 Q57 -107 8 -125 L-10 -101 Q22 -87 48 -58 Q74 -29 74 7 L74 9 Q63 0 50 0 Q34 0 24.5 10 Q15 20 15 38 Q15 61 30 74 Q45 87 69 87 Z M251 87 Q277 87 292 68.5 Q307 50 307 19 Q307 -29 273 -68 Q239 -107 190 -125 L172 -101 Q204 -87 230 -58 Q256 -29 256 7 L256 9 Q245 0 232 0 Q216 0 206.5 10 Q197 20 197 38 Q197 61 212 74 Q227 87 251 87 Z " />
<glyph glyph-name="quotedblleft" unicode="&#x201c;" horiz-adv-x="406" d="M231 675 Q198 661 172.5 632 Q147 603 147 567 L147 565 Q156 574 171 574 Q187 574 196 564 Q205 554 205 536 Q205 513 190 500 Q175 487 152 487 Q126 487 111 505.5 Q96 524 96 555 Q96 603 130 641.5 Q164 680 212 699 L231 675 Z M353 574 Q369 574 378 564 Q387 554 387 536 Q387 513 372 500 Q357 487 334 487 Q308 487 293 505.5 Q278 524 278 555 Q278 603 312 641.5 Q346 680 394 699 L413 675 Q380 661 354.5 632 Q329 603 329 567 L329 565 Q338 574 353 574 Z " />
<glyph glyph-name="quotedblright" unicode="&#x201d;" horiz-adv-x="406" d="M175 700 Q201 700 216 681 Q231 662 231 632 Q231 585 197 545.5 Q163 506 114 488 L96 511 Q129 527 154.5 555 Q180 583 180 619 L180 622 Q171 613 156 613 Q140 613 130.5 623 Q121 633 121 651 Q121 673 136 686.5 Q151 700 175 700 Z M358 700 Q384 700 399 681 Q414 662 414 632 Q414 585 380 545.5 Q346 506 297 488 L279 511 Q312 527 337.5 555 Q363 583 363 619 L363 622 Q354 613 339 613 Q323 613 313.5 623 Q304 633 304 651 Q304 673 319 686.5 Q334 700 358 700 Z " />
<glyph glyph-name="quoteleft" unicode="&#x2018;" horiz-adv-x="224" d="M171 574 Q187 574 196 564 Q205 554 205 536 Q205 513 190 500 Q175 487 152 487 Q126 487 111 505.5 Q96 524 96 555 Q96 603 130 641.5 Q164 680 212 699 L231 675 Q198 661 172.5 632 Q147 603 147 567 L147 565 Q156 574 171 574 Z " />
<glyph glyph-name="quoteright" unicode="&#x2019;" horiz-adv-x="223" d="M175 700 Q201 700 216 681 Q231 662 231 632 Q231 585 197 545.5 Q163 506 114 488 L96 511 Q129 527 154.5 555 Q180 583 180 619 L180 622 Q171 613 156 613 Q140 613 130.5 623 Q121 633 121 651 Q121 673 136 686.5 Q151 700 175 700 Z " />
<glyph glyph-name="quotesinglbase" unicode="&#x201a;" horiz-adv-x="227" d="M69 87 Q95 87 110 68.5 Q125 50 125 19 Q125 -29 91 -68 Q57 -107 8 -125 L-10 -101 Q22 -87 48 -58 Q74 -29 74 7 L74 9 Q63 0 50 0 Q34 0 24.5 10 Q15 20 15 38 Q15 61 30 74 Q45 87 69 87 Z " />
<glyph glyph-name="cent" unicode="&#xa2;" horiz-adv-x="558" d="M357 547 Q290 547 241.5 518 Q193 489 167.5 439 Q142 389 142 326 Q142 234 194 186.5 Q246 139 333 139 Q370 139 408.5 149 Q447 159 480 175 L477 104 Q402 76 318 76 Q304 76 296 77 L281 -11 L233 -11 L249 82 Q162 98 110 157 Q58 216 58 318 Q58 402 94.5 467.5 Q131 533 195.5 570 Q260 607 342 610 L356 692 L404 692 L390 609 Q469 602 531 575 L512 509 Q432 547 357 547 Z " />
<glyph glyph-name="dollar" unicode="&#x24;" horiz-adv-x="584" d="M361 639 Q283 639 235 603 Q187 567 187 504 Q187 470 208.5 448.5 Q230 427 258.5 416 Q287 405 350 385 Q432 358 476.5 318 Q521 278 521 203 Q521 107 451.5 53.5 Q382 0 265 -6 L249 -93 L201 -93 L217 -5 Q153 0 109.5 13.5 Q66 27 17 49 L40 124 Q77 103 134 83 Q191 63 250 63 Q336 63 381.5 97.5 Q427 132 427 194 Q427 227 409 248 Q391 269 363 281.5 Q335 294 285 310 L265 316 Q212 335 176.5 355.5 Q141 376 117.5 411.5 Q94 447 94 502 Q94 592 160.5 647.5 Q227 703 343 709 L357 792 L405 792 L391 709 Q487 704 575 663 L550 587 Q521 603 470.5 621 Q420 639 361 639 Z " />
<glyph glyph-name="Euro" unicode="&#x20ac;" horiz-adv-x="720" d="M510 636 Q401 636 328 580 Q255 524 228 431 L569 431 L550 391 L219 391 Q214 358 214 329 Q214 315 215 308 L511 308 L495 268 L219 268 Q234 171 297.5 117 Q361 63 462 63 Q499 63 546 75.5 Q593 88 632 105 L629 20 Q587 5 538 -2 Q489 -9 448 -9 Q312 -9 224.5 64 Q137 137 121 268 L38 268 L55 308 L118 308 L118 321 Q118 353 123 391 L43 391 L63 431 L132 431 Q153 514 205.5 577 Q258 640 336.5 674.5 Q415 709 511 709 Q624 709 722 663 L705 580 Q596 636 510 636 Z " />
<glyph glyph-name="sterling" unicode="&#xa3;" horiz-adv-x="584" d="M420 639 Q324 639 273 588 Q222 537 222 446 Q222 411 231 361 L481 361 L471 305 L240 305 Q243 283 243 260 Q243 176 204.5 127.5 Q166 79 121 65 L500 65 L489 0 L2 0 L13 60 Q13 55 53 73.5 Q93 92 125 134.5 Q157 177 157 253 Q157 271 153 305 L62 305 L72 361 L144 361 Q137 407 137 442 Q137 524 173.5 584 Q210 644 275 676.5 Q340 709 425 709 Q469 709 512.5 699 Q556 689 587 672 L565 596 Q537 614 497.5 626.5 Q458 639 420 639 Z " />
<glyph glyph-name="yen" unicode="&#xa5;" horiz-adv-x="636" d="M353 269 L479 269 L471 223 L345 223 L335 163 L460 163 L452 119 L327 119 L306 0 L218 0 L239 119 L113 119 L121 163 L247 163 L257 223 L132 223 L140 269 L265 269 L266 275 L89 700 L180 700 L324 345 L593 700 L681 700 L355 276 L353 269 Z " />
<glyph glyph-name="plus" unicode="&#x2b;" horiz-adv-x="684" d="M383 364 L569 364 L558 306 L373 306 L340 120 L279 120 L312 306 L127 306 L138 364 L323 364 L356 551 L416 551 L383 364 Z " />
<glyph glyph-name="multiply" unicode="&#xd7;" horiz-adv-x="684" d="M574 490 L392 335 L520 179 L469 135 L341 291 L159 135 L123 179 L305 335 L178 490 L228 534 L356 379 L538 534 L574 490 Z " />
<glyph glyph-name="divide" unicode="&#xf7;" horiz-adv-x="684" d="M377 531 Q395 531 407 521 Q419 511 419 493 Q419 473 407.5 459.5 Q396 446 373 446 Q356 446 344 455.5 Q332 465 332 483 Q332 504 343 517.5 Q354 531 377 531 Z M548 289 L131 289 L142 347 L558 347 L548 289 Z M316 192 Q334 192 346 182 Q358 172 358 154 Q358 134 346.5 121 Q335 108 312 108 Q295 108 283 117 Q271 126 271 144 Q271 163 282.5 177.5 Q294 192 316 192 Z " />
<glyph glyph-name="equal" unicode="&#x3d;" horiz-adv-x="684" d="M540 390 L173 390 L183 449 L550 449 L540 390 Z M511 219 L144 219 L154 277 L521 277 L511 219 Z " />
<glyph glyph-name="greater" unicode="&#x3e;" horiz-adv-x="684" d="M614 370 L602 301 L84 116 L97 191 L522 338 L147 486 L160 555 L614 370 Z " />
<glyph glyph-name="less" unicode="&#x3c;" horiz-adv-x="684" d="M599 481 L174 333 L549 185 L536 116 L82 301 L94 370 L612 555 L599 481 Z " />
<glyph glyph-name="plusminus" unicode="&#xb1;" horiz-adv-x="684" d="M385 376 L563 376 L553 318 L375 318 L347 159 L288 159 L316 318 L136 318 L147 376 L325 376 L353 536 L413 536 L385 376 Z M506 52 L89 52 L100 110 L516 110 L506 52 Z " />
<glyph glyph-name="percent" unicode="&#x25;" horiz-adv-x="814" d="M683 730 L766 730 L141 -30 L58 -30 L683 730 Z M214 374 Q149 374 111 412 Q73 450 73 516 Q73 606 122 658.5 Q171 711 257 711 Q322 711 359.5 673 Q397 635 397 568 Q397 478 348.5 426 Q300 374 214 374 Z M224 432 Q272 432 299.5 466.5 Q327 501 327 559 Q327 605 306 629 Q285 653 247 653 Q199 653 170.5 617 Q142 581 142 524 Q142 479 164 455.5 Q186 432 224 432 Z M576 -8 Q511 -8 473 30 Q435 68 435 134 Q435 224 484 276.5 Q533 329 619 329 Q684 329 721.5 291 Q759 253 759 186 Q759 96 710.5 44 Q662 -8 576 -8 Z M586 50 Q634 50 661.5 84.5 Q689 119 689 177 Q689 223 668 247 Q647 271 609 271 Q561 271 532.5 235 Q504 199 504 142 Q504 97 526 73.5 Q548 50 586 50 Z " />
<glyph glyph-name="perthousand" unicode="&#x2030;" horiz-adv-x="1196" d="M683 730 L766 730 L141 -30 L58 -30 L683 730 Z M214 374 Q149 374 111 412 Q73 450 73 516 Q73 606 122 658.5 Q171 711 257 711 Q322 711 359.5 673 Q397 635 397 568 Q397 478 348.5 426 Q300 374 214 374 Z M224 432 Q272 432 299.5 466.5 Q327 501 327 559 Q327 605 306 629 Q285 653 247 653 Q199 653 170.5 617 Q142 581 142 524 Q142 479 164 455.5 Q186 432 224 432 Z M576 -8 Q511 -8 473 30 Q435 68 435 134 Q435 224 484 276.5 Q533 329 619 329 Q684 329 721.5 291 Q759 253 759 186 Q759 96 710.5 44 Q662 -8 576 -8 Z M961 -8 Q896 -8 858 30 Q820 68 820 134 Q820 224 869 276.5 Q918 329 1004 329 Q1069 329 1106.5 291 Q1144 253 1144 186 Q1144 96 1095.5 44 Q1047 -8 961 -8 Z M586 50 Q634 50 661.5 84.5 Q689 119 689 177 Q689 223 668 247 Q647 271 609 271 Q561 271 532.5 235 Q504 199 504 142 Q504 97 526 73.5 Q548 50 586 50 Z M971 50 Q1019 50 1046.5 84.5 Q1074 119 1074 177 Q1074 223 1053 247 Q1032 271 994 271 Q946 271 917.5 235 Q889 199 889 142 Q889 97 911 73.5 Q933 50 971 50 Z " />
<glyph glyph-name="at" unicode="&#x40;" horiz-adv-x="943" d="M634 213 Q632 197 632 190 Q632 132 700 132 Q775 132 813 197 Q851 262 851 354 Q851 504 756 575 Q661 646 513 646 Q389 646 296.5 598 Q204 550 154.5 462 Q105 374 105 258 Q105 94 199.5 13 Q294 -68 452 -68 Q522 -68 585.5 -54 Q649 -40 693 -21 L696 -67 Q574 -113 449 -113 Q326 -113 236 -70 Q146 -27 98 56 Q50 139 50 256 Q50 385 107 483.5 Q164 582 269 637 Q374 692 514 692 Q627 692 715.5 654.5 Q804 617 855.5 541 Q907 465 907 353 Q907 275 881.5 214.5 Q856 154 808 120 Q760 86 694 86 Q592 86 585 168 Q562 129 524 108 Q486 87 434 87 Q354 87 308.5 136 Q263 185 263 268 Q263 325 284.5 375.5 Q306 426 350 457.5 Q394 489 459 489 Q514 489 550.5 465 Q587 441 603 400 L622 483 L681 483 L634 213 Z M447 137 Q519 137 552 188.5 Q585 240 585 308 Q585 371 555.5 405 Q526 439 468 439 Q393 439 359.5 388 Q326 337 326 271 Q326 208 358 172.5 Q390 137 447 137 Z " />
<glyph glyph-name="ampersand" unicode="&#x26;" horiz-adv-x="645" d="M608 280 Q554 191 491 125 L578 0 L489 0 L437 75 Q332 -9 215 -9 Q131 -9 78 33 Q25 75 25 157 Q25 216 52 259 Q79 302 119.5 331.5 Q160 361 218 391 Q185 439 171.5 470.5 Q158 502 158 540 Q158 595 183.5 633 Q209 671 250.5 690 Q292 709 340 709 Q405 709 447.5 674.5 Q490 640 490 577 Q490 512 445 468 Q400 424 314 379 L453 180 Q494 225 554 315 L608 280 Z M338 646 Q295 646 262 617.5 Q229 589 229 541 Q229 516 240.5 492 Q252 468 283 424 Q353 464 386 496 Q419 528 419 569 Q419 604 396 625 Q373 646 338 646 Z M232 60 Q317 60 400 128 L250 346 Q181 310 143 271 Q105 232 105 172 Q105 117 139.5 88.5 Q174 60 232 60 Z " />
<glyph glyph-name="paragraph" unicode="&#xb6;" horiz-adv-x="562" d="M395 -86 L333 -86 L460 638 L362 638 L234 -86 L172 -86 L238 287 L223 287 Q143 287 101.5 335.5 Q60 384 60 463 Q60 539 92.5 592.5 Q125 646 178.5 673 Q232 700 295 700 L534 700 L395 -86 Z " />
<glyph glyph-name="section" unicode="&#xa7;" horiz-adv-x="598" d="M358 630 Q283 630 241 604.5 Q199 579 199 538 Q199 510 214.5 492.5 Q230 475 254.5 464.5 Q279 454 329 438 Q337 436 375 424 Q425 408 459 391.5 Q493 375 515 346 Q537 317 537 273 Q537 216 504.5 172 Q472 128 431 102 Q455 83 467.5 56.5 Q480 30 480 -8 Q480 -83 417 -127 Q354 -171 239 -171 Q122 -171 6 -125 L19 -39 Q77 -67 125 -83.5 Q173 -100 228 -100 Q303 -100 344.5 -74.5 Q386 -49 386 -8 Q386 20 370.5 37.5 Q355 55 329.5 66 Q304 77 256 92 L211 106 Q161 122 127 138.5 Q93 155 71 184 Q49 213 49 257 Q49 314 81.5 358 Q114 402 155 429 Q106 465 106 538 Q106 613 169 657 Q232 701 347 701 Q464 701 580 655 L567 569 Q509 597 461 613.5 Q413 630 358 630 Z M458 254 Q458 296 428.5 317 Q399 338 329 359 L301 368 Q239 387 209 399 Q128 346 128 276 Q128 234 157.5 213 Q187 192 257 171 L285 162 Q347 143 377 131 Q458 184 458 254 Z " />
<glyph glyph-name="copyright" unicode="&#xa9;" horiz-adv-x="840" d="M429 709 Q533 709 615.5 663.5 Q698 618 745 536 Q792 454 792 350 Q792 246 744.5 164.5 Q697 83 614.5 37 Q532 -9 429 -9 Q327 -9 244 37 Q161 83 113.5 164.5 Q66 246 66 350 Q66 454 113.5 536 Q161 618 243.5 663.5 Q326 709 429 709 Z M430 672 Q339 672 265 631 Q191 590 149 516.5 Q107 443 107 349 Q107 255 149 182 Q191 109 264.5 68.5 Q338 28 430 28 Q521 28 594.5 68.5 Q668 109 709.5 182.5 Q751 256 751 349 Q751 443 709 516.5 Q667 590 594 631 Q521 672 430 672 Z M446 534 Q508 534 550 516 L542 470 Q503 486 453 486 Q386 486 351 449 Q316 412 316 351 Q316 289 351.5 252 Q387 215 454 215 Q502 215 544 235 L552 188 Q505 167 445 167 Q358 167 305 216 Q252 265 252 351 Q252 437 305.5 485.5 Q359 534 446 534 Z " />
<glyph glyph-name="registered" unicode="&#xae;" horiz-adv-x="841" d="M430 709 Q533 709 615.5 663.5 Q698 618 745 536 Q792 454 792 350 Q792 246 745 164.5 Q698 83 615.5 37 Q533 -9 430 -9 Q327 -9 244 37 Q161 83 113.5 164.5 Q66 246 66 350 Q66 454 113.5 536 Q161 618 244 663.5 Q327 709 430 709 Z M430 28 Q521 28 594.5 68.5 Q668 109 709.5 182.5 Q751 256 751 349 Q751 443 709 516.5 Q667 590 594 631 Q521 672 430 672 Q339 672 265 631 Q191 590 149 516.5 Q107 443 107 349 Q107 255 149 182 Q191 109 264.5 68.5 Q338 28 430 28 Z M572 420 Q572 381 554.5 355.5 Q537 330 504 319 L567 176 L514 176 L459 312 L351 312 L351 176 L302 176 L302 528 L464 528 Q511 528 541.5 497 Q572 466 572 420 Z M457 354 Q488 354 506 372.5 Q524 391 524 420 Q524 452 505.5 469 Q487 486 456 486 L351 486 L351 354 L457 354 Z " />
<glyph glyph-name="trademark" unicode="&#x2122;" horiz-adv-x="746" d="M361 657 L254 657 L207 390 L152 390 L199 657 L92 657 L100 700 L369 700 L361 657 Z M681 390 L629 390 L667 607 L552 452 L514 452 L449 607 L411 390 L358 390 L413 700 L467 700 L543 510 L680 700 L736 700 L681 390 Z " />
<glyph glyph-name="degree" unicode="&#xb0;" horiz-adv-x="383" d="M245 698 Q303 698 341 666 Q379 634 379 573 Q379 502 336 462.5 Q293 423 226 423 Q167 423 129.5 455.5 Q92 488 92 550 Q92 619 134.5 658.5 Q177 698 245 698 Z M241 654 Q197 654 169.5 627 Q142 600 142 553 Q142 510 166 489 Q190 468 228 468 Q273 468 300.5 495.5 Q328 523 328 569 Q328 613 303.5 633.5 Q279 654 241 654 Z " />
<glyph glyph-name="bar" unicode="&#x7c;" horiz-adv-x="299" d="M186 -164 L118 -164 L118 784 L186 784 L186 -164 Z " />
<glyph glyph-name="dagger" unicode="&#x2020;" horiz-adv-x="399" d="M273 563 L232 299 L167 299 L220 563 L105 557 L116 615 L228 610 L244 742 L310 742 L281 610 L396 615 L385 557 L273 563 Z " />
<glyph glyph-name="daggerdbl" unicode="&#x2021;" horiz-adv-x="399" d="M248 406 L360 411 L349 353 L238 359 L218 217 L153 217 L183 359 L69 353 L80 411 L190 405 L203 490 L221 574 L107 568 L118 626 L230 620 L245 742 L311 742 L283 620 L398 626 L387 568 L275 574 L263 490 L248 406 Z " />
<glyph glyph-name="uni0326" unicode="&#x326;" d="M-169 -74 Q-178 -122 -187 -150 Q-196 -178 -215 -226 L-268 -226 Q-255 -184 -246.5 -153.5 Q-238 -123 -229 -74 L-169 -74 Z " />
<glyph glyph-name="acute" unicode="&#xb4;" horiz-adv-x="300" d="M227 600 L165 600 L271 760 L347 760 L227 600 Z " />
<glyph glyph-name="breve" unicode="&#x2d8;" horiz-adv-x="339" d="M399 736 Q380 669 339 637.5 Q298 606 229 606 Q164 606 129.5 637.5 Q95 669 93 736 L149 742 Q151 698 171 675 Q191 652 235 652 Q275 652 302.5 675 Q330 698 343 742 L399 736 Z " />
<glyph glyph-name="caron" unicode="&#x2c7;" horiz-adv-x="352" d="M271 600 L194 600 L111 761 L175 761 L235 634 L337 761 L407 761 L271 600 Z " />
<glyph glyph-name="cedilla" unicode="&#xb8;" horiz-adv-x="305" d="M97 -44 Q136 -42 164 -59.5 Q192 -77 192 -119 Q192 -172 148.5 -197 Q105 -222 49 -222 Q28 -222 4.5 -218.5 Q-19 -215 -35 -210 L-25 -168 Q-13 -173 9 -177 Q31 -181 55 -181 Q85 -181 110.5 -167.5 Q136 -154 136 -120 Q136 -77 61 -77 Q43 -77 33 -78 L80 20 L126 20 L97 -44 Z " />
<glyph glyph-name="circumflex" unicode="&#x2c6;" horiz-adv-x="365" d="M388 600 L323 600 L264 727 L161 600 L92 600 L228 761 L304 761 L388 600 Z " />
<glyph glyph-name="dieresis" unicode="&#xa8;" horiz-adv-x="390" d="M163 704 Q186 704 198 692.5 Q210 681 210 662 Q210 637 195.5 623.5 Q181 610 157 610 Q136 610 123.5 621 Q111 632 111 651 Q111 676 125 690 Q139 704 163 704 Z M369 704 Q392 704 404 692.5 Q416 681 416 662 Q416 637 401.5 623.5 Q387 610 363 610 Q342 610 329.5 621 Q317 632 317 651 Q317 676 331 690 Q345 704 369 704 Z " />
<glyph glyph-name="dotaccent" unicode="&#x2d9;" horiz-adv-x="271" d="M204 720 Q229 720 242 707.5 Q255 695 253 674 Q247 627 198 627 Q175 627 162 638 Q149 649 149 668 Q149 693 163.5 706.5 Q178 720 204 720 Z " />
<glyph glyph-name="grave" unicode="&#x60;" horiz-adv-x="262" d="M251 600 L190 600 L130 760 L208 760 L251 600 Z " />
<glyph glyph-name="hungarumlaut" unicode="&#x2dd;" horiz-adv-x="381" d="M170 600 L108 600 L211 760 L291 760 L170 600 Z M318 600 L256 600 L359 760 L439 760 L318 600 Z " />
<glyph glyph-name="overscore" unicode="&#xaf;" horiz-adv-x="364" d="M398 644 L101 644 L110 693 L407 693 L398 644 Z " />
<glyph glyph-name="ogonek" unicode="&#x2db;" horiz-adv-x="293" d="M107 -172 Q62 -172 33 -153.5 Q4 -135 4 -93 Q4 -34 55 -8 Q106 18 164 24 L177 0 Q126 -9 99.5 -24 Q73 -39 73 -71 Q73 -97 88.5 -107 Q104 -117 125 -117 Q154 -117 187 -106 L179 -162 Q139 -172 107 -172 Z " />
<glyph glyph-name="ring" unicode="&#x2da;" horiz-adv-x="278" d="M220 799 Q266 799 295 775 Q324 751 324 704 Q324 654 292 627 Q260 600 212 600 Q169 600 139 623 Q109 646 109 695 Q109 746 140.5 772.5 Q172 799 220 799 Z M218 761 Q187 761 170 744 Q153 727 153 697 Q153 665 171 651.5 Q189 638 214 638 Q244 638 260.5 654.5 Q277 671 277 702 Q277 761 218 761 Z " />
<glyph glyph-name="tilde" unicode="&#x2dc;" horiz-adv-x="372" d="M196 726 Q227 726 270 701 Q290 689 303 683.5 Q316 678 331 678 Q355 678 369.5 689 Q384 700 396 719 L425 705 Q385 622 314 622 Q283 622 246 644 Q242 646 228.5 653.5 Q215 661 203 665 Q191 669 179 669 Q139 669 114 628 L85 643 Q126 726 196 726 Z " />
</font>
</svg>
